<?xml version="1.0" encoding="utf-8" standalone="no"?>
<!DOCTYPE svg PUBLIC "-//W3C//DTD SVG 1.1//EN"
  "http://www.w3.org/Graphics/SVG/1.1/DTD/svg11.dtd">
<svg xmlns:xlink="http://www.w3.org/1999/xlink" width="409.165313pt" height="316.675125pt" viewBox="0 0 409.165313 316.675125" xmlns="http://www.w3.org/2000/svg" version="1.1">
 <metadata>
  <rdf:RDF xmlns:dc="http://purl.org/dc/elements/1.1/" xmlns:cc="http://creativecommons.org/ns#" xmlns:rdf="http://www.w3.org/1999/02/22-rdf-syntax-ns#">
   <cc:Work>
    <dc:type rdf:resource="http://purl.org/dc/dcmitype/StillImage"/>
    <dc:date>2023-07-13T21:04:06.020310</dc:date>
    <dc:format>image/svg+xml</dc:format>
    <dc:creator>
     <cc:Agent>
      <dc:title>Matplotlib v3.7.2, https://matplotlib.org/</dc:title>
     </cc:Agent>
    </dc:creator>
   </cc:Work>
  </rdf:RDF>
 </metadata>
 <defs>
  <style type="text/css">*{stroke-linejoin: round; stroke-linecap: butt}</style>
 </defs>
 <g id="figure_1">
  <g id="patch_1">
   <path d="M 0 316.675125 
L 409.165313 316.675125 
L 409.165313 0 
L 0 0 
z
" style="fill: #ffffff"/>
  </g>
  <g id="axes_1">
   <g id="patch_2">
    <path d="M 44.845313 273.312 
L 401.965312 273.312 
L 401.965312 7.2 
L 44.845313 7.2 
z
" style="fill: #ffffff"/>
   </g>
   <g id="matplotlib.axis_1">
    <g id="xtick_1">
     <g id="line2d_1">
      <defs>
       <path id="ma69df44757" d="M 0 0 
L 0 3.5 
" style="stroke: #000000; stroke-width: 0.8"/>
      </defs>
      <g>
       <use xlink:href="#ma69df44757" x="61.07804" y="273.312" style="stroke: #000000; stroke-width: 0.8"/>
      </g>
     </g>
     <g id="text_1">
      <!-- $\mathdefault{10^{-2}}$ -->
      <g transform="translate(49.32804 287.910437) scale(0.1 -0.1)">
       <defs>
        <path id="DejaVuSans-31" d="M 794 531 
L 1825 531 
L 1825 4091 
L 703 3866 
L 703 4441 
L 1819 4666 
L 2450 4666 
L 2450 531 
L 3481 531 
L 3481 0 
L 794 0 
L 794 531 
z
" transform="scale(0.015625)"/>
        <path id="DejaVuSans-30" d="M 2034 4250 
Q 1547 4250 1301 3770 
Q 1056 3291 1056 2328 
Q 1056 1369 1301 889 
Q 1547 409 2034 409 
Q 2525 409 2770 889 
Q 3016 1369 3016 2328 
Q 3016 3291 2770 3770 
Q 2525 4250 2034 4250 
z
M 2034 4750 
Q 2819 4750 3233 4129 
Q 3647 3509 3647 2328 
Q 3647 1150 3233 529 
Q 2819 -91 2034 -91 
Q 1250 -91 836 529 
Q 422 1150 422 2328 
Q 422 3509 836 4129 
Q 1250 4750 2034 4750 
z
" transform="scale(0.015625)"/>
        <path id="DejaVuSans-2212" d="M 678 2272 
L 4684 2272 
L 4684 1741 
L 678 1741 
L 678 2272 
z
" transform="scale(0.015625)"/>
        <path id="DejaVuSans-32" d="M 1228 531 
L 3431 531 
L 3431 0 
L 469 0 
L 469 531 
Q 828 903 1448 1529 
Q 2069 2156 2228 2338 
Q 2531 2678 2651 2914 
Q 2772 3150 2772 3378 
Q 2772 3750 2511 3984 
Q 2250 4219 1831 4219 
Q 1534 4219 1204 4116 
Q 875 4013 500 3803 
L 500 4441 
Q 881 4594 1212 4672 
Q 1544 4750 1819 4750 
Q 2544 4750 2975 4387 
Q 3406 4025 3406 3419 
Q 3406 3131 3298 2873 
Q 3191 2616 2906 2266 
Q 2828 2175 2409 1742 
Q 1991 1309 1228 531 
z
" transform="scale(0.015625)"/>
       </defs>
       <use xlink:href="#DejaVuSans-31" transform="translate(0 0.765625)"/>
       <use xlink:href="#DejaVuSans-30" transform="translate(63.623047 0.765625)"/>
       <use xlink:href="#DejaVuSans-2212" transform="translate(128.203125 39.046875) scale(0.7)"/>
       <use xlink:href="#DejaVuSans-32" transform="translate(186.855469 39.046875) scale(0.7)"/>
      </g>
     </g>
    </g>
    <g id="xtick_2">
     <g id="line2d_2">
      <g>
       <use xlink:href="#ma69df44757" x="223.405313" y="273.312" style="stroke: #000000; stroke-width: 0.8"/>
      </g>
     </g>
     <g id="text_2">
      <!-- $\mathdefault{10^{-1}}$ -->
      <g transform="translate(211.655313 287.910437) scale(0.1 -0.1)">
       <use xlink:href="#DejaVuSans-31" transform="translate(0 0.684375)"/>
       <use xlink:href="#DejaVuSans-30" transform="translate(63.623047 0.684375)"/>
       <use xlink:href="#DejaVuSans-2212" transform="translate(128.203125 38.965625) scale(0.7)"/>
       <use xlink:href="#DejaVuSans-31" transform="translate(186.855469 38.965625) scale(0.7)"/>
      </g>
     </g>
    </g>
    <g id="xtick_3">
     <g id="line2d_3">
      <g>
       <use xlink:href="#ma69df44757" x="385.732585" y="273.312" style="stroke: #000000; stroke-width: 0.8"/>
      </g>
     </g>
     <g id="text_3">
      <!-- $\mathdefault{10^{0}}$ -->
      <g transform="translate(376.932585 287.910437) scale(0.1 -0.1)">
       <use xlink:href="#DejaVuSans-31" transform="translate(0 0.765625)"/>
       <use xlink:href="#DejaVuSans-30" transform="translate(63.623047 0.765625)"/>
       <use xlink:href="#DejaVuSans-30" transform="translate(128.203125 39.046875) scale(0.7)"/>
      </g>
     </g>
    </g>
    <g id="xtick_4">
     <g id="line2d_4">
      <defs>
       <path id="md2afa3e8c5" d="M 0 0 
L 0 2 
" style="stroke: #000000; stroke-width: 0.6"/>
      </defs>
      <g>
       <use xlink:href="#md2afa3e8c5" x="45.346902" y="273.312" style="stroke: #000000; stroke-width: 0.6"/>
      </g>
     </g>
    </g>
    <g id="xtick_5">
     <g id="line2d_5">
      <g>
       <use xlink:href="#md2afa3e8c5" x="53.650351" y="273.312" style="stroke: #000000; stroke-width: 0.6"/>
      </g>
     </g>
    </g>
    <g id="xtick_6">
     <g id="line2d_6">
      <g>
       <use xlink:href="#md2afa3e8c5" x="109.943418" y="273.312" style="stroke: #000000; stroke-width: 0.6"/>
      </g>
     </g>
    </g>
    <g id="xtick_7">
     <g id="line2d_7">
      <g>
       <use xlink:href="#md2afa3e8c5" x="138.527832" y="273.312" style="stroke: #000000; stroke-width: 0.6"/>
      </g>
     </g>
    </g>
    <g id="xtick_8">
     <g id="line2d_8">
      <g>
       <use xlink:href="#md2afa3e8c5" x="158.808796" y="273.312" style="stroke: #000000; stroke-width: 0.6"/>
      </g>
     </g>
    </g>
    <g id="xtick_9">
     <g id="line2d_9">
      <g>
       <use xlink:href="#md2afa3e8c5" x="174.539934" y="273.312" style="stroke: #000000; stroke-width: 0.6"/>
      </g>
     </g>
    </g>
    <g id="xtick_10">
     <g id="line2d_10">
      <g>
       <use xlink:href="#md2afa3e8c5" x="187.39321" y="273.312" style="stroke: #000000; stroke-width: 0.6"/>
      </g>
     </g>
    </g>
    <g id="xtick_11">
     <g id="line2d_11">
      <g>
       <use xlink:href="#md2afa3e8c5" x="198.2605" y="273.312" style="stroke: #000000; stroke-width: 0.6"/>
      </g>
     </g>
    </g>
    <g id="xtick_12">
     <g id="line2d_12">
      <g>
       <use xlink:href="#md2afa3e8c5" x="207.674174" y="273.312" style="stroke: #000000; stroke-width: 0.6"/>
      </g>
     </g>
    </g>
    <g id="xtick_13">
     <g id="line2d_13">
      <g>
       <use xlink:href="#md2afa3e8c5" x="215.977624" y="273.312" style="stroke: #000000; stroke-width: 0.6"/>
      </g>
     </g>
    </g>
    <g id="xtick_14">
     <g id="line2d_14">
      <g>
       <use xlink:href="#md2afa3e8c5" x="272.270691" y="273.312" style="stroke: #000000; stroke-width: 0.6"/>
      </g>
     </g>
    </g>
    <g id="xtick_15">
     <g id="line2d_15">
      <g>
       <use xlink:href="#md2afa3e8c5" x="300.855105" y="273.312" style="stroke: #000000; stroke-width: 0.6"/>
      </g>
     </g>
    </g>
    <g id="xtick_16">
     <g id="line2d_16">
      <g>
       <use xlink:href="#md2afa3e8c5" x="321.136069" y="273.312" style="stroke: #000000; stroke-width: 0.6"/>
      </g>
     </g>
    </g>
    <g id="xtick_17">
     <g id="line2d_17">
      <g>
       <use xlink:href="#md2afa3e8c5" x="336.867207" y="273.312" style="stroke: #000000; stroke-width: 0.6"/>
      </g>
     </g>
    </g>
    <g id="xtick_18">
     <g id="line2d_18">
      <g>
       <use xlink:href="#md2afa3e8c5" x="349.720483" y="273.312" style="stroke: #000000; stroke-width: 0.6"/>
      </g>
     </g>
    </g>
    <g id="xtick_19">
     <g id="line2d_19">
      <g>
       <use xlink:href="#md2afa3e8c5" x="360.587773" y="273.312" style="stroke: #000000; stroke-width: 0.6"/>
      </g>
     </g>
    </g>
    <g id="xtick_20">
     <g id="line2d_20">
      <g>
       <use xlink:href="#md2afa3e8c5" x="370.001447" y="273.312" style="stroke: #000000; stroke-width: 0.6"/>
      </g>
     </g>
    </g>
    <g id="xtick_21">
     <g id="line2d_21">
      <g>
       <use xlink:href="#md2afa3e8c5" x="378.304897" y="273.312" style="stroke: #000000; stroke-width: 0.6"/>
      </g>
     </g>
    </g>
    <g id="text_4">
     <!-- $\lambda$ -->
     <g transform="translate(218.605312 306.147625) scale(0.16 -0.16)">
      <defs>
       <path id="DejaVuSans-Oblique-3bb" d="M 2350 4316 
L 3125 0 
L 2516 0 
L 2038 2588 
L 328 0 
L -281 0 
L 1903 3356 
L 1794 3975 
Q 1725 4369 1391 4369 
L 1091 4369 
L 1184 4863 
L 1550 4856 
Q 2253 4847 2350 4316 
z
" transform="scale(0.015625)"/>
      </defs>
      <use xlink:href="#DejaVuSans-Oblique-3bb" transform="translate(0 0.015625)"/>
     </g>
    </g>
   </g>
   <g id="matplotlib.axis_2">
    <g id="ytick_1">
     <g id="line2d_22">
      <defs>
       <path id="me0a6654282" d="M 0 0 
L -3.5 0 
" style="stroke: #000000; stroke-width: 0.8"/>
      </defs>
      <g>
       <use xlink:href="#me0a6654282" x="44.845313" y="267.89964" style="stroke: #000000; stroke-width: 0.8"/>
      </g>
     </g>
     <g id="text_5">
      <!-- −0.12 -->
      <g transform="translate(7.2 271.698859) scale(0.1 -0.1)">
       <defs>
        <path id="DejaVuSans-2e" d="M 684 794 
L 1344 794 
L 1344 0 
L 684 0 
L 684 794 
z
" transform="scale(0.015625)"/>
       </defs>
       <use xlink:href="#DejaVuSans-2212"/>
       <use xlink:href="#DejaVuSans-30" x="83.789062"/>
       <use xlink:href="#DejaVuSans-2e" x="147.412109"/>
       <use xlink:href="#DejaVuSans-31" x="179.199219"/>
       <use xlink:href="#DejaVuSans-32" x="242.822266"/>
      </g>
     </g>
    </g>
    <g id="ytick_2">
     <g id="line2d_23">
      <g>
       <use xlink:href="#me0a6654282" x="44.845313" y="238.301725" style="stroke: #000000; stroke-width: 0.8"/>
      </g>
     </g>
     <g id="text_6">
      <!-- −0.10 -->
      <g transform="translate(7.2 242.100944) scale(0.1 -0.1)">
       <use xlink:href="#DejaVuSans-2212"/>
       <use xlink:href="#DejaVuSans-30" x="83.789062"/>
       <use xlink:href="#DejaVuSans-2e" x="147.412109"/>
       <use xlink:href="#DejaVuSans-31" x="179.199219"/>
       <use xlink:href="#DejaVuSans-30" x="242.822266"/>
      </g>
     </g>
    </g>
    <g id="ytick_3">
     <g id="line2d_24">
      <g>
       <use xlink:href="#me0a6654282" x="44.845313" y="208.703811" style="stroke: #000000; stroke-width: 0.8"/>
      </g>
     </g>
     <g id="text_7">
      <!-- −0.08 -->
      <g transform="translate(7.2 212.503029) scale(0.1 -0.1)">
       <defs>
        <path id="DejaVuSans-38" d="M 2034 2216 
Q 1584 2216 1326 1975 
Q 1069 1734 1069 1313 
Q 1069 891 1326 650 
Q 1584 409 2034 409 
Q 2484 409 2743 651 
Q 3003 894 3003 1313 
Q 3003 1734 2745 1975 
Q 2488 2216 2034 2216 
z
M 1403 2484 
Q 997 2584 770 2862 
Q 544 3141 544 3541 
Q 544 4100 942 4425 
Q 1341 4750 2034 4750 
Q 2731 4750 3128 4425 
Q 3525 4100 3525 3541 
Q 3525 3141 3298 2862 
Q 3072 2584 2669 2484 
Q 3125 2378 3379 2068 
Q 3634 1759 3634 1313 
Q 3634 634 3220 271 
Q 2806 -91 2034 -91 
Q 1263 -91 848 271 
Q 434 634 434 1313 
Q 434 1759 690 2068 
Q 947 2378 1403 2484 
z
M 1172 3481 
Q 1172 3119 1398 2916 
Q 1625 2713 2034 2713 
Q 2441 2713 2670 2916 
Q 2900 3119 2900 3481 
Q 2900 3844 2670 4047 
Q 2441 4250 2034 4250 
Q 1625 4250 1398 4047 
Q 1172 3844 1172 3481 
z
" transform="scale(0.015625)"/>
       </defs>
       <use xlink:href="#DejaVuSans-2212"/>
       <use xlink:href="#DejaVuSans-30" x="83.789062"/>
       <use xlink:href="#DejaVuSans-2e" x="147.412109"/>
       <use xlink:href="#DejaVuSans-30" x="179.199219"/>
       <use xlink:href="#DejaVuSans-38" x="242.822266"/>
      </g>
     </g>
    </g>
    <g id="ytick_4">
     <g id="line2d_25">
      <g>
       <use xlink:href="#me0a6654282" x="44.845313" y="179.105896" style="stroke: #000000; stroke-width: 0.8"/>
      </g>
     </g>
     <g id="text_8">
      <!-- −0.06 -->
      <g transform="translate(7.2 182.905115) scale(0.1 -0.1)">
       <defs>
        <path id="DejaVuSans-36" d="M 2113 2584 
Q 1688 2584 1439 2293 
Q 1191 2003 1191 1497 
Q 1191 994 1439 701 
Q 1688 409 2113 409 
Q 2538 409 2786 701 
Q 3034 994 3034 1497 
Q 3034 2003 2786 2293 
Q 2538 2584 2113 2584 
z
M 3366 4563 
L 3366 3988 
Q 3128 4100 2886 4159 
Q 2644 4219 2406 4219 
Q 1781 4219 1451 3797 
Q 1122 3375 1075 2522 
Q 1259 2794 1537 2939 
Q 1816 3084 2150 3084 
Q 2853 3084 3261 2657 
Q 3669 2231 3669 1497 
Q 3669 778 3244 343 
Q 2819 -91 2113 -91 
Q 1303 -91 875 529 
Q 447 1150 447 2328 
Q 447 3434 972 4092 
Q 1497 4750 2381 4750 
Q 2619 4750 2861 4703 
Q 3103 4656 3366 4563 
z
" transform="scale(0.015625)"/>
       </defs>
       <use xlink:href="#DejaVuSans-2212"/>
       <use xlink:href="#DejaVuSans-30" x="83.789062"/>
       <use xlink:href="#DejaVuSans-2e" x="147.412109"/>
       <use xlink:href="#DejaVuSans-30" x="179.199219"/>
       <use xlink:href="#DejaVuSans-36" x="242.822266"/>
      </g>
     </g>
    </g>
    <g id="ytick_5">
     <g id="line2d_26">
      <g>
       <use xlink:href="#me0a6654282" x="44.845313" y="149.507982" style="stroke: #000000; stroke-width: 0.8"/>
      </g>
     </g>
     <g id="text_9">
      <!-- −0.04 -->
      <g transform="translate(7.2 153.3072) scale(0.1 -0.1)">
       <defs>
        <path id="DejaVuSans-34" d="M 2419 4116 
L 825 1625 
L 2419 1625 
L 2419 4116 
z
M 2253 4666 
L 3047 4666 
L 3047 1625 
L 3713 1625 
L 3713 1100 
L 3047 1100 
L 3047 0 
L 2419 0 
L 2419 1100 
L 313 1100 
L 313 1709 
L 2253 4666 
z
" transform="scale(0.015625)"/>
       </defs>
       <use xlink:href="#DejaVuSans-2212"/>
       <use xlink:href="#DejaVuSans-30" x="83.789062"/>
       <use xlink:href="#DejaVuSans-2e" x="147.412109"/>
       <use xlink:href="#DejaVuSans-30" x="179.199219"/>
       <use xlink:href="#DejaVuSans-34" x="242.822266"/>
      </g>
     </g>
    </g>
    <g id="ytick_6">
     <g id="line2d_27">
      <g>
       <use xlink:href="#me0a6654282" x="44.845313" y="119.910067" style="stroke: #000000; stroke-width: 0.8"/>
      </g>
     </g>
     <g id="text_10">
      <!-- −0.02 -->
      <g transform="translate(7.2 123.709286) scale(0.1 -0.1)">
       <use xlink:href="#DejaVuSans-2212"/>
       <use xlink:href="#DejaVuSans-30" x="83.789062"/>
       <use xlink:href="#DejaVuSans-2e" x="147.412109"/>
       <use xlink:href="#DejaVuSans-30" x="179.199219"/>
       <use xlink:href="#DejaVuSans-32" x="242.822266"/>
      </g>
     </g>
    </g>
    <g id="ytick_7">
     <g id="line2d_28">
      <g>
       <use xlink:href="#me0a6654282" x="44.845313" y="90.312152" style="stroke: #000000; stroke-width: 0.8"/>
      </g>
     </g>
     <g id="text_11">
      <!-- 0.00 -->
      <g transform="translate(15.579688 94.111371) scale(0.1 -0.1)">
       <use xlink:href="#DejaVuSans-30"/>
       <use xlink:href="#DejaVuSans-2e" x="63.623047"/>
       <use xlink:href="#DejaVuSans-30" x="95.410156"/>
       <use xlink:href="#DejaVuSans-30" x="159.033203"/>
      </g>
     </g>
    </g>
    <g id="ytick_8">
     <g id="line2d_29">
      <g>
       <use xlink:href="#me0a6654282" x="44.845313" y="60.714238" style="stroke: #000000; stroke-width: 0.8"/>
      </g>
     </g>
     <g id="text_12">
      <!-- 0.02 -->
      <g transform="translate(15.579688 64.513456) scale(0.1 -0.1)">
       <use xlink:href="#DejaVuSans-30"/>
       <use xlink:href="#DejaVuSans-2e" x="63.623047"/>
       <use xlink:href="#DejaVuSans-30" x="95.410156"/>
       <use xlink:href="#DejaVuSans-32" x="159.033203"/>
      </g>
     </g>
    </g>
    <g id="ytick_9">
     <g id="line2d_30">
      <g>
       <use xlink:href="#me0a6654282" x="44.845313" y="31.116323" style="stroke: #000000; stroke-width: 0.8"/>
      </g>
     </g>
     <g id="text_13">
      <!-- 0.04 -->
      <g transform="translate(15.579688 34.915542) scale(0.1 -0.1)">
       <use xlink:href="#DejaVuSans-30"/>
       <use xlink:href="#DejaVuSans-2e" x="63.623047"/>
       <use xlink:href="#DejaVuSans-30" x="95.410156"/>
       <use xlink:href="#DejaVuSans-34" x="159.033203"/>
      </g>
     </g>
    </g>
   </g>
   <g id="line2d_31">
    <path d="M 61.07804 57.036695 
L 64.357379 56.505808 
L 67.636717 55.773792 
L 70.916056 55.773792 
L 74.195395 55.939679 
L 77.474734 55.93968 
L 80.754073 56.396082 
L 84.033412 56.947519 
L 87.312751 57.043695 
L 90.592089 57.024312 
L 93.871428 57.33818 
L 97.150767 57.539478 
L 100.430106 57.48849 
L 103.709445 57.39366 
L 106.988784 57.363052 
L 110.268122 57.363051 
L 113.547461 57.363049 
L 116.8268 57.19686 
L 120.106139 56.08614 
L 123.385478 56.08614 
L 126.664817 56.08614 
L 129.944155 56.556833 
L 133.223494 55.857084 
L 136.502833 57.24458 
L 139.782172 58.85828 
L 143.061511 58.923639 
L 146.34085 58.983776 
L 149.620189 58.892853 
L 152.899527 60.622841 
L 156.178866 59.193161 
L 159.458205 59.520186 
L 162.737544 60.69976 
L 166.016883 61.607769 
L 169.296222 59.374725 
L 172.57556 58.848299 
L 175.854899 62.175892 
L 179.134238 63.36996 
L 182.413577 63.175561 
L 185.692916 62.350503 
L 188.972255 63.007415 
L 192.251593 64.924653 
L 195.530932 66.91247 
L 198.810271 69.562045 
L 202.08961 69.031087 
L 205.368949 69.600408 
L 208.648288 72.726343 
L 211.927627 72.544079 
L 215.206965 71.059508 
L 218.486304 73.342944 
L 221.765643 73.545112 
L 225.044982 73.661013 
L 228.324321 75.299084 
L 231.60366 75.889689 
L 234.882998 76.851047 
L 238.162337 78.393149 
L 241.441676 78.850943 
L 244.721015 78.782773 
L 248.000354 78.646998 
L 251.279693 78.591401 
L 254.559032 87.874454 
L 257.83837 87.574099 
L 261.117709 90.026752 
L 264.397048 90.312152 
L 267.676387 90.312152 
L 270.955726 90.312152 
L 274.235065 90.312152 
L 277.514403 90.312152 
L 280.793742 90.312152 
L 284.073081 90.312152 
L 287.35242 90.312152 
L 290.631759 90.312152 
L 293.911098 90.312152 
L 297.190436 90.312152 
L 300.469775 90.312152 
L 303.749114 90.312152 
L 307.028453 90.312152 
L 310.307792 90.312152 
L 313.587131 90.312152 
L 316.86647 90.312152 
L 320.145808 90.312152 
L 323.425147 90.312152 
L 326.704486 90.312152 
L 329.983825 90.312152 
L 333.263164 90.312152 
L 336.542503 90.312152 
L 339.821841 90.312152 
L 343.10118 90.312152 
L 346.380519 90.312152 
L 349.659858 90.312152 
L 352.939197 90.312152 
L 356.218536 90.312152 
L 359.497874 90.312152 
L 362.777213 90.312152 
L 366.056552 90.312152 
L 369.335891 90.312152 
L 372.61523 90.312152 
L 375.894569 90.312152 
L 379.173908 90.312152 
L 382.453246 90.312152 
L 385.732585 90.312152 
" clip-path="url(#p0527cae3ab)" style="fill: none; stroke: #1f77b4; stroke-width: 1.5; stroke-linecap: square"/>
   </g>
   <g id="line2d_32">
    <path d="M 61.07804 63.423551 
L 64.357379 63.967812 
L 67.636717 64.67208 
L 70.916056 64.672081 
L 74.195395 66.535292 
L 77.474734 66.535293 
L 80.754073 66.650399 
L 84.033412 67.20155 
L 87.312751 67.8064 
L 90.592089 67.810503 
L 93.871428 68.703556 
L 97.150767 68.652191 
L 100.430106 69.572867 
L 103.709445 69.398878 
L 106.988784 69.496159 
L 110.268122 69.49616 
L 113.547461 69.496161 
L 116.8268 69.701445 
L 120.106139 69.790868 
L 123.385478 69.790868 
L 126.664817 69.790868 
L 129.944155 68.993513 
L 133.223494 68.638982 
L 136.502833 70.253185 
L 139.782172 71.17139 
L 143.061511 70.981049 
L 146.34085 70.977795 
L 149.620189 70.537459 
L 152.899527 70.084417 
L 156.178866 68.971856 
L 159.458205 68.489303 
L 162.737544 69.257518 
L 166.016883 70.074357 
L 169.296222 73.377882 
L 172.57556 74.438098 
L 175.854899 75.855047 
L 179.134238 77.234261 
L 182.413577 77.180961 
L 185.692916 78.264827 
L 188.972255 79.219916 
L 192.251593 81.567411 
L 195.530932 83.175224 
L 198.810271 88.147041 
L 202.08961 89.466856 
L 205.368949 90.312152 
L 208.648288 89.894986 
L 211.927627 89.963503 
L 215.206965 89.485934 
L 218.486304 90.188289 
L 221.765643 90.312152 
L 225.044982 90.312152 
L 228.324321 90.312152 
L 231.60366 90.312152 
L 234.882998 90.312152 
L 238.162337 90.312152 
L 241.441676 90.312152 
L 244.721015 90.312152 
L 248.000354 90.312152 
L 251.279693 90.312152 
L 254.559032 90.312152 
L 257.83837 90.312152 
L 261.117709 90.312152 
L 264.397048 90.312152 
L 267.676387 90.312152 
L 270.955726 90.312152 
L 274.235065 90.312152 
L 277.514403 90.312152 
L 280.793742 90.312152 
L 284.073081 90.312152 
L 287.35242 90.312152 
L 290.631759 90.312152 
L 293.911098 90.312152 
L 297.190436 90.312152 
L 300.469775 90.312152 
L 303.749114 90.312152 
L 307.028453 90.312152 
L 310.307792 90.312152 
L 313.587131 90.312152 
L 316.86647 90.312152 
L 320.145808 90.312152 
L 323.425147 90.312152 
L 326.704486 90.312152 
L 329.983825 90.312152 
L 333.263164 90.312152 
L 336.542503 90.312152 
L 339.821841 90.312152 
L 343.10118 90.312152 
L 346.380519 90.312152 
L 349.659858 90.312152 
L 352.939197 90.312152 
L 356.218536 90.312152 
L 359.497874 90.312152 
L 362.777213 90.312152 
L 366.056552 90.312152 
L 369.335891 90.312152 
L 372.61523 90.312152 
L 375.894569 90.312152 
L 379.173908 90.312152 
L 382.453246 90.312152 
L 385.732585 90.312152 
" clip-path="url(#p0527cae3ab)" style="fill: none; stroke: #ff7f0e; stroke-width: 1.5; stroke-linecap: square"/>
   </g>
   <g id="line2d_33">
    <path d="M 61.07804 113.816001 
L 64.357379 113.727202 
L 67.636717 113.482159 
L 70.916056 113.482159 
L 74.195395 112.766273 
L 77.474734 112.766274 
L 80.754073 113.288275 
L 84.033412 113.816933 
L 87.312751 114.054206 
L 90.592089 114.087202 
L 93.871428 113.899835 
L 97.150767 114.21484 
L 100.430106 113.530222 
L 103.709445 113.338414 
L 106.988784 113.447224 
L 110.268122 113.447224 
L 113.547461 113.447223 
L 116.8268 113.482197 
L 120.106139 112.894637 
L 123.385478 112.894638 
L 126.664817 112.894638 
L 129.944155 112.34497 
L 133.223494 113.275775 
L 136.502833 113.417605 
L 139.782172 111.759939 
L 143.061511 112.315209 
L 146.34085 112.419914 
L 149.620189 112.969459 
L 152.899527 111.494438 
L 156.178866 111.96344 
L 159.458205 111.978604 
L 162.737544 111.341027 
L 166.016883 111.298948 
L 169.296222 110.068467 
L 172.57556 109.889951 
L 175.854899 109.974942 
L 179.134238 108.823753 
L 182.413577 108.20835 
L 185.692916 106.836377 
L 188.972255 106.827427 
L 192.251593 107.965561 
L 195.530932 106.595407 
L 198.810271 105.757296 
L 202.08961 104.583586 
L 205.368949 102.166349 
L 208.648288 100.372212 
L 211.927627 97.448008 
L 215.206965 96.844444 
L 218.486304 95.248894 
L 221.765643 95.148197 
L 225.044982 95.240234 
L 228.324321 93.936164 
L 231.60366 94.120849 
L 234.882998 95.217786 
L 238.162337 92.081805 
L 241.441676 91.595873 
L 244.721015 91.594067 
L 248.000354 90.312152 
L 251.279693 90.992725 
L 254.559032 92.088157 
L 257.83837 90.924394 
L 261.117709 90.312152 
L 264.397048 90.312152 
L 267.676387 90.312152 
L 270.955726 90.312152 
L 274.235065 90.312152 
L 277.514403 90.312152 
L 280.793742 90.312152 
L 284.073081 90.312152 
L 287.35242 90.312152 
L 290.631759 90.312152 
L 293.911098 90.312152 
L 297.190436 90.312152 
L 300.469775 90.312152 
L 303.749114 90.312152 
L 307.028453 90.312152 
L 310.307792 90.312152 
L 313.587131 90.312152 
L 316.86647 90.312152 
L 320.145808 90.312152 
L 323.425147 90.312152 
L 326.704486 90.312152 
L 329.983825 90.312152 
L 333.263164 90.312152 
L 336.542503 90.312152 
L 339.821841 90.312152 
L 343.10118 90.312152 
L 346.380519 90.312152 
L 349.659858 90.312152 
L 352.939197 90.312152 
L 356.218536 90.312152 
L 359.497874 90.312152 
L 362.777213 90.312152 
L 366.056552 90.312152 
L 369.335891 90.312152 
L 372.61523 90.312152 
L 375.894569 90.312152 
L 379.173908 90.312152 
L 382.453246 90.312152 
L 385.732585 90.312152 
" clip-path="url(#p0527cae3ab)" style="fill: none; stroke: #2ca02c; stroke-width: 1.5; stroke-linecap: square"/>
   </g>
   <g id="line2d_34">
    <path d="M 61.07804 104.536439 
L 64.357379 104.353299 
L 67.636717 103.883484 
L 70.916056 103.883484 
L 74.195395 103.789278 
L 77.474734 103.789279 
L 80.754073 104.150812 
L 84.033412 103.807682 
L 87.312751 102.29245 
L 90.592089 102.160044 
L 93.871428 101.784418 
L 97.150767 101.241477 
L 100.430106 99.945135 
L 103.709445 99.487471 
L 106.988784 99.441147 
L 110.268122 99.441147 
L 113.547461 99.441147 
L 116.8268 99.572446 
L 120.106139 99.193368 
L 123.385478 99.193368 
L 126.664817 99.193368 
L 129.944155 97.947846 
L 133.223494 98.103356 
L 136.502833 95.377346 
L 139.782172 96.133951 
L 143.061511 93.701441 
L 146.34085 93.607492 
L 149.620189 92.944723 
L 152.899527 92.28948 
L 156.178866 91.625792 
L 159.458205 91.097752 
L 162.737544 90.312153 
L 166.016883 90.312152 
L 169.296222 90.312152 
L 172.57556 90.312152 
L 175.854899 90.312152 
L 179.134238 90.312152 
L 182.413577 90.312152 
L 185.692916 90.312152 
L 188.972255 90.312152 
L 192.251593 90.312152 
L 195.530932 90.312152 
L 198.810271 90.312152 
L 202.08961 90.312152 
L 205.368949 90.312152 
L 208.648288 90.312152 
L 211.927627 90.312152 
L 215.206965 90.312152 
L 218.486304 90.312152 
L 221.765643 90.312152 
L 225.044982 90.312152 
L 228.324321 90.312152 
L 231.60366 90.312152 
L 234.882998 90.312152 
L 238.162337 90.312152 
L 241.441676 90.312152 
L 244.721015 90.312152 
L 248.000354 90.312152 
L 251.279693 90.312152 
L 254.559032 90.312152 
L 257.83837 90.312152 
L 261.117709 90.312152 
L 264.397048 90.312152 
L 267.676387 90.312152 
L 270.955726 90.312152 
L 274.235065 90.312152 
L 277.514403 90.312152 
L 280.793742 90.312152 
L 284.073081 90.312152 
L 287.35242 90.312152 
L 290.631759 90.312152 
L 293.911098 90.312152 
L 297.190436 90.312152 
L 300.469775 90.312152 
L 303.749114 90.312152 
L 307.028453 90.312152 
L 310.307792 90.312152 
L 313.587131 90.312152 
L 316.86647 90.312152 
L 320.145808 90.312152 
L 323.425147 90.312152 
L 326.704486 90.312152 
L 329.983825 90.312152 
L 333.263164 90.312152 
L 336.542503 90.312152 
L 339.821841 90.312152 
L 343.10118 90.312152 
L 346.380519 90.312152 
L 349.659858 90.312152 
L 352.939197 90.312152 
L 356.218536 90.312152 
L 359.497874 90.312152 
L 362.777213 90.312152 
L 366.056552 90.312152 
L 369.335891 90.312152 
L 372.61523 90.312152 
L 375.894569 90.312152 
L 379.173908 90.312152 
L 382.453246 90.312152 
L 385.732585 90.312152 
" clip-path="url(#p0527cae3ab)" style="fill: none; stroke: #d62728; stroke-width: 1.5; stroke-linecap: square"/>
   </g>
   <g id="line2d_35">
    <path d="M 61.07804 20.474365 
L 64.357379 20.142297 
L 67.636717 20.915936 
L 70.916056 20.915937 
L 74.195395 19.561038 
L 77.474734 19.561038 
L 80.754073 19.296 
L 84.033412 19.878244 
L 87.312751 21.062835 
L 90.592089 21.116996 
L 93.871428 21.70295 
L 97.150767 21.573469 
L 100.430106 22.312696 
L 103.709445 22.402608 
L 106.988784 22.414899 
L 110.268122 22.414899 
L 113.547461 22.414899 
L 116.8268 22.416753 
L 120.106139 22.407552 
L 123.385478 22.407552 
L 126.664817 22.407552 
L 129.944155 22.769106 
L 133.223494 23.513791 
L 136.502833 25.816702 
L 139.782172 25.717763 
L 143.061511 26.796758 
L 146.34085 26.751958 
L 149.620189 25.899957 
L 152.899527 25.781717 
L 156.178866 27.77905 
L 159.458205 27.573648 
L 162.737544 28.977925 
L 166.016883 28.954443 
L 169.296222 32.277077 
L 172.57556 31.804457 
L 175.854899 31.375314 
L 179.134238 31.330585 
L 182.413577 30.360607 
L 185.692916 30.279055 
L 188.972255 30.455438 
L 192.251593 30.360787 
L 195.530932 30.550571 
L 198.810271 30.515441 
L 202.08961 30.016666 
L 205.368949 27.924012 
L 208.648288 27.511134 
L 211.927627 26.338988 
L 215.206965 26.742469 
L 218.486304 27.16885 
L 221.765643 26.995636 
L 225.044982 26.625484 
L 228.324321 26.670254 
L 231.60366 27.38616 
L 234.882998 27.076623 
L 238.162337 25.271612 
L 241.441676 25.402841 
L 244.721015 25.563229 
L 248.000354 25.640542 
L 251.279693 29.994704 
L 254.559032 33.603756 
L 257.83837 33.478251 
L 261.117709 32.843746 
L 264.397048 36.682109 
L 267.676387 41.02758 
L 270.955726 42.872498 
L 274.235065 42.894478 
L 277.514403 45.852886 
L 280.793742 47.85201 
L 284.073081 49.054533 
L 287.35242 51.716243 
L 290.631759 53.687241 
L 293.911098 53.108074 
L 297.190436 54.278695 
L 300.469775 55.943117 
L 303.749114 62.565236 
L 307.028453 64.28648 
L 310.307792 71.955473 
L 313.587131 75.746521 
L 316.86647 78.531325 
L 320.145808 79.104078 
L 323.425147 90.312152 
L 326.704486 90.312152 
L 329.983825 90.312152 
L 333.263164 90.312152 
L 336.542503 90.312152 
L 339.821841 90.312152 
L 343.10118 90.312152 
L 346.380519 90.312152 
L 349.659858 90.312152 
L 352.939197 90.312152 
L 356.218536 90.312152 
L 359.497874 90.312152 
L 362.777213 90.312152 
L 366.056552 90.312152 
L 369.335891 90.312152 
L 372.61523 90.312152 
L 375.894569 90.312152 
L 379.173908 90.312152 
L 382.453246 90.312152 
L 385.732585 90.312152 
" clip-path="url(#p0527cae3ab)" style="fill: none; stroke: #9467bd; stroke-width: 1.5; stroke-linecap: square"/>
   </g>
   <g id="line2d_36">
    <path d="M 61.07804 133.016303 
L 64.357379 132.244942 
L 67.636717 131.243134 
L 70.916056 131.243132 
L 74.195395 128.204372 
L 77.474734 128.204371 
L 80.754073 127.793987 
L 84.033412 127.950165 
L 87.312751 127.681785 
L 90.592089 127.634163 
L 93.871428 126.896316 
L 97.150767 126.486842 
L 100.430106 125.703333 
L 103.709445 125.577575 
L 106.988784 125.521638 
L 110.268122 125.521638 
L 113.547461 125.521639 
L 116.8268 125.553505 
L 120.106139 125.624542 
L 123.385478 125.624542 
L 126.664817 125.624542 
L 129.944155 125.243609 
L 133.223494 125.601564 
L 136.502833 125.533119 
L 139.782172 125.974486 
L 143.061511 126.184105 
L 146.34085 126.227439 
L 149.620189 126.261714 
L 152.899527 126.428737 
L 156.178866 126.416967 
L 159.458205 126.31135 
L 162.737544 125.255238 
L 166.016883 124.577024 
L 169.296222 125.925172 
L 172.57556 126.023116 
L 175.854899 127.769679 
L 179.134238 127.454078 
L 182.413577 126.422774 
L 185.692916 124.826204 
L 188.972255 124.03695 
L 192.251593 122.785154 
L 195.530932 123.50071 
L 198.810271 121.034168 
L 202.08961 120.645441 
L 205.368949 119.954683 
L 208.648288 117.912281 
L 211.927627 115.951665 
L 215.206965 113.236535 
L 218.486304 113.48747 
L 221.765643 112.980619 
L 225.044982 112.582658 
L 228.324321 113.209465 
L 231.60366 110.592956 
L 234.882998 108.811317 
L 238.162337 110.828528 
L 241.441676 110.671357 
L 244.721015 110.458375 
L 248.000354 106.872002 
L 251.279693 103.053286 
L 254.559032 97.193344 
L 257.83837 96.295959 
L 261.117709 94.631723 
L 264.397048 94.085803 
L 267.676387 95.506717 
L 270.955726 91.126709 
L 274.235065 90.320758 
L 277.514403 90.312154 
L 280.793742 90.312152 
L 284.073081 90.312152 
L 287.35242 90.312152 
L 290.631759 90.312152 
L 293.911098 90.312152 
L 297.190436 90.312152 
L 300.469775 90.312152 
L 303.749114 90.312152 
L 307.028453 90.312152 
L 310.307792 90.312152 
L 313.587131 90.312152 
L 316.86647 90.312152 
L 320.145808 90.312152 
L 323.425147 90.312152 
L 326.704486 90.312152 
L 329.983825 90.312152 
L 333.263164 90.312152 
L 336.542503 90.312152 
L 339.821841 90.312152 
L 343.10118 90.312152 
L 346.380519 90.312152 
L 349.659858 90.312152 
L 352.939197 90.312152 
L 356.218536 90.312152 
L 359.497874 90.312152 
L 362.777213 90.312152 
L 366.056552 90.312152 
L 369.335891 90.312152 
L 372.61523 90.312152 
L 375.894569 90.312152 
L 379.173908 90.312152 
L 382.453246 90.312152 
L 385.732585 90.312152 
" clip-path="url(#p0527cae3ab)" style="fill: none; stroke: #8c564b; stroke-width: 1.5; stroke-linecap: square"/>
   </g>
   <g id="line2d_37">
    <path d="M 61.07804 79.009631 
L 64.357379 79.485103 
L 67.636717 79.306607 
L 70.916056 79.306608 
L 74.195395 81.641269 
L 77.474734 81.641269 
L 80.754073 81.487497 
L 84.033412 82.416307 
L 87.312751 84.103831 
L 90.592089 84.203853 
L 93.871428 83.486325 
L 97.150767 84.303752 
L 100.430106 86.174874 
L 103.709445 85.952248 
L 106.988784 86.130951 
L 110.268122 86.130951 
L 113.547461 86.130949 
L 116.8268 86.121559 
L 120.106139 85.139368 
L 123.385478 85.139368 
L 126.664817 85.139368 
L 129.944155 84.539271 
L 133.223494 86.072672 
L 136.502833 90.312152 
L 139.782172 90.312152 
L 143.061511 89.834083 
L 146.34085 89.831328 
L 149.620189 89.28954 
L 152.899527 90.312152 
L 156.178866 90.312152 
L 159.458205 90.312152 
L 162.737544 90.312152 
L 166.016883 90.312152 
L 169.296222 90.312152 
L 172.57556 90.312152 
L 175.854899 90.312152 
L 179.134238 90.312152 
L 182.413577 90.312152 
L 185.692916 90.312152 
L 188.972255 90.312152 
L 192.251593 90.312152 
L 195.530932 90.312152 
L 198.810271 90.312152 
L 202.08961 90.312152 
L 205.368949 90.312152 
L 208.648288 90.312152 
L 211.927627 90.312152 
L 215.206965 90.312152 
L 218.486304 90.312152 
L 221.765643 90.312152 
L 225.044982 90.312152 
L 228.324321 90.312152 
L 231.60366 90.312152 
L 234.882998 90.312152 
L 238.162337 90.312152 
L 241.441676 90.312152 
L 244.721015 90.312152 
L 248.000354 90.312152 
L 251.279693 90.312152 
L 254.559032 90.312152 
L 257.83837 90.312152 
L 261.117709 90.312152 
L 264.397048 90.312152 
L 267.676387 90.312152 
L 270.955726 90.312152 
L 274.235065 90.312152 
L 277.514403 90.312152 
L 280.793742 90.312152 
L 284.073081 90.312152 
L 287.35242 90.312152 
L 290.631759 90.312152 
L 293.911098 90.312152 
L 297.190436 90.312152 
L 300.469775 90.312152 
L 303.749114 90.312152 
L 307.028453 90.312152 
L 310.307792 90.312152 
L 313.587131 90.312152 
L 316.86647 90.312152 
L 320.145808 90.312152 
L 323.425147 90.312152 
L 326.704486 90.312152 
L 329.983825 90.312152 
L 333.263164 90.312152 
L 336.542503 90.312152 
L 339.821841 90.312152 
L 343.10118 90.312152 
L 346.380519 90.312152 
L 349.659858 90.312152 
L 352.939197 90.312152 
L 356.218536 90.312152 
L 359.497874 90.312152 
L 362.777213 90.312152 
L 366.056552 90.312152 
L 369.335891 90.312152 
L 372.61523 90.312152 
L 375.894569 90.312152 
L 379.173908 90.312152 
L 382.453246 90.312152 
L 385.732585 90.312152 
" clip-path="url(#p0527cae3ab)" style="fill: none; stroke: #e377c2; stroke-width: 1.5; stroke-linecap: square"/>
   </g>
   <g id="line2d_38">
    <path d="M 61.07804 111.635157 
L 64.357379 111.696286 
L 67.636717 110.30921 
L 70.916056 110.309208 
L 74.195395 108.431765 
L 77.474734 108.431763 
L 80.754073 107.716976 
L 84.033412 107.237576 
L 87.312751 108.331826 
L 90.592089 108.457701 
L 93.871428 107.43314 
L 97.150767 107.310249 
L 100.430106 107.922197 
L 103.709445 108.114774 
L 106.988784 108.14653 
L 110.268122 108.14653 
L 113.547461 108.14653 
L 116.8268 108.044361 
L 120.106139 108.2365 
L 123.385478 108.2365 
L 126.664817 108.2365 
L 129.944155 108.611318 
L 133.223494 109.059206 
L 136.502833 110.346437 
L 139.782172 108.592796 
L 143.061511 108.433296 
L 146.34085 108.306456 
L 149.620189 106.337191 
L 152.899527 106.10323 
L 156.178866 105.165121 
L 159.458205 103.529933 
L 162.737544 105.426414 
L 166.016883 103.434928 
L 169.296222 101.103603 
L 172.57556 100.157871 
L 175.854899 99.413865 
L 179.134238 98.316731 
L 182.413577 95.779178 
L 185.692916 94.168272 
L 188.972255 93.515921 
L 192.251593 92.020755 
L 195.530932 90.615033 
L 198.810271 90.312152 
L 202.08961 90.312152 
L 205.368949 90.312152 
L 208.648288 90.312152 
L 211.927627 90.312152 
L 215.206965 90.312152 
L 218.486304 90.312152 
L 221.765643 90.312152 
L 225.044982 90.312152 
L 228.324321 90.312152 
L 231.60366 90.312152 
L 234.882998 90.312152 
L 238.162337 90.312152 
L 241.441676 90.312152 
L 244.721015 90.312152 
L 248.000354 90.312152 
L 251.279693 90.312152 
L 254.559032 90.312152 
L 257.83837 90.312152 
L 261.117709 90.312152 
L 264.397048 90.312152 
L 267.676387 90.312152 
L 270.955726 90.312152 
L 274.235065 90.312152 
L 277.514403 90.312152 
L 280.793742 90.312152 
L 284.073081 90.312152 
L 287.35242 90.312152 
L 290.631759 90.312152 
L 293.911098 90.312152 
L 297.190436 90.312152 
L 300.469775 90.312152 
L 303.749114 90.312152 
L 307.028453 90.312152 
L 310.307792 90.312152 
L 313.587131 90.312152 
L 316.86647 90.312152 
L 320.145808 90.312152 
L 323.425147 90.312152 
L 326.704486 90.312152 
L 329.983825 90.312152 
L 333.263164 90.312152 
L 336.542503 90.312152 
L 339.821841 90.312152 
L 343.10118 90.312152 
L 346.380519 90.312152 
L 349.659858 90.312152 
L 352.939197 90.312152 
L 356.218536 90.312152 
L 359.497874 90.312152 
L 362.777213 90.312152 
L 366.056552 90.312152 
L 369.335891 90.312152 
L 372.61523 90.312152 
L 375.894569 90.312152 
L 379.173908 90.312152 
L 382.453246 90.312152 
L 385.732585 90.312152 
" clip-path="url(#p0527cae3ab)" style="fill: none; stroke: #7f7f7f; stroke-width: 1.5; stroke-linecap: square"/>
   </g>
   <g id="line2d_39">
    <path d="M 61.07804 90.312152 
L 64.357379 90.312152 
L 67.636717 90.312152 
L 70.916056 90.312152 
L 74.195395 90.312152 
L 77.474734 90.312152 
L 80.754073 90.312152 
L 84.033412 90.312152 
L 87.312751 90.312152 
L 90.592089 90.312152 
L 93.871428 90.312152 
L 97.150767 90.312152 
L 100.430106 90.312152 
L 103.709445 90.312152 
L 106.988784 90.312152 
L 110.268122 90.312152 
L 113.547461 90.312152 
L 116.8268 90.312152 
L 120.106139 90.312152 
L 123.385478 90.312152 
L 126.664817 90.312152 
L 129.944155 90.312152 
L 133.223494 90.312152 
L 136.502833 90.312152 
L 139.782172 90.312152 
L 143.061511 90.312152 
L 146.34085 90.312152 
L 149.620189 90.312152 
L 152.899527 90.312152 
L 156.178866 90.312152 
L 159.458205 90.312152 
L 162.737544 90.312152 
L 166.016883 90.312152 
L 169.296222 90.312152 
L 172.57556 90.312152 
L 175.854899 90.312152 
L 179.134238 90.312152 
L 182.413577 90.312152 
L 185.692916 90.312152 
L 188.972255 90.312152 
L 192.251593 90.312152 
L 195.530932 90.312152 
L 198.810271 90.312152 
L 202.08961 90.312152 
L 205.368949 90.312152 
L 208.648288 90.312152 
L 211.927627 90.312152 
L 215.206965 90.312152 
L 218.486304 90.312152 
L 221.765643 90.312152 
L 225.044982 90.312152 
L 228.324321 90.312152 
L 231.60366 90.312152 
L 234.882998 90.312152 
L 238.162337 90.312152 
L 241.441676 90.312152 
L 244.721015 90.312152 
L 248.000354 90.312152 
L 251.279693 90.312152 
L 254.559032 90.312152 
L 257.83837 90.312152 
L 261.117709 90.312152 
L 264.397048 90.312152 
L 267.676387 90.312152 
L 270.955726 90.312152 
L 274.235065 90.312152 
L 277.514403 90.312152 
L 280.793742 90.312152 
L 284.073081 90.312152 
L 287.35242 90.312152 
L 290.631759 90.312152 
L 293.911098 90.312152 
L 297.190436 90.312152 
L 300.469775 90.312152 
L 303.749114 90.312152 
L 307.028453 90.312152 
L 310.307792 90.312152 
L 313.587131 90.312152 
L 316.86647 90.312152 
L 320.145808 90.312152 
L 323.425147 90.312152 
L 326.704486 90.312152 
L 329.983825 90.312152 
L 333.263164 90.312152 
L 336.542503 90.312152 
L 339.821841 90.312152 
L 343.10118 90.312152 
L 346.380519 90.312152 
L 349.659858 90.312152 
L 352.939197 90.312152 
L 356.218536 90.312152 
L 359.497874 90.312152 
L 362.777213 90.312152 
L 366.056552 90.312152 
L 369.335891 90.312152 
L 372.61523 90.312152 
L 375.894569 90.312152 
L 379.173908 90.312152 
L 382.453246 90.312152 
L 385.732585 90.312152 
" clip-path="url(#p0527cae3ab)" style="fill: none; stroke: #bcbd22; stroke-width: 1.5; stroke-linecap: square"/>
   </g>
   <g id="line2d_40">
    <path d="M 61.07804 164.598352 
L 64.357379 164.453813 
L 67.636717 164.193745 
L 70.916056 164.193744 
L 74.195395 164.140086 
L 77.474734 164.140085 
L 80.754073 163.816985 
L 84.033412 163.082487 
L 87.312751 162.322005 
L 90.592089 162.245594 
L 93.871428 162.521536 
L 97.150767 161.853843 
L 100.430106 162.737668 
L 103.709445 162.721609 
L 106.988784 162.765453 
L 110.268122 162.765453 
L 113.547461 162.765455 
L 116.8268 162.884553 
L 120.106139 163.472665 
L 123.385478 163.472665 
L 126.664817 163.472665 
L 129.944155 162.90252 
L 133.223494 161.961513 
L 136.502833 161.090142 
L 139.782172 161.395031 
L 143.061511 161.419473 
L 146.34085 161.406162 
L 149.620189 161.423266 
L 152.899527 160.946514 
L 156.178866 161.018112 
L 159.458205 161.782037 
L 162.737544 162.303046 
L 166.016883 162.835763 
L 169.296222 159.092202 
L 172.57556 159.283932 
L 175.854899 157.89335 
L 179.134238 156.887005 
L 182.413577 158.56418 
L 185.692916 160.06694 
L 188.972255 160.348105 
L 192.251593 159.890061 
L 195.530932 160.383902 
L 198.810271 157.300745 
L 202.08961 156.270628 
L 205.368949 155.604327 
L 208.648288 155.926508 
L 211.927627 155.79046 
L 215.206965 155.163378 
L 218.486304 157.182034 
L 221.765643 157.482565 
L 225.044982 156.757496 
L 228.324321 157.562008 
L 231.60366 157.52263 
L 234.882998 156.591538 
L 238.162337 150.750549 
L 241.441676 150.420573 
L 244.721015 150.164954 
L 248.000354 149.257009 
L 251.279693 148.106829 
L 254.559032 142.505843 
L 257.83837 142.500248 
L 261.117709 140.837081 
L 264.397048 139.258204 
L 267.676387 136.699666 
L 270.955726 134.86525 
L 274.235065 135.247275 
L 277.514403 132.26983 
L 280.793742 127.614675 
L 284.073081 126.333625 
L 287.35242 120.227162 
L 290.631759 120.457493 
L 293.911098 116.429209 
L 297.190436 116.469003 
L 300.469775 114.72865 
L 303.749114 109.210041 
L 307.028453 108.763122 
L 310.307792 100.113615 
L 313.587131 96.23612 
L 316.86647 95.906787 
L 320.145808 94.869972 
L 323.425147 90.312152 
L 326.704486 90.312152 
L 329.983825 90.312152 
L 333.263164 90.312152 
L 336.542503 90.312152 
L 339.821841 90.312152 
L 343.10118 90.312152 
L 346.380519 90.312152 
L 349.659858 90.312152 
L 352.939197 90.312152 
L 356.218536 90.312152 
L 359.497874 90.312152 
L 362.777213 90.312152 
L 366.056552 90.312152 
L 369.335891 90.312152 
L 372.61523 90.312152 
L 375.894569 90.312152 
L 379.173908 90.312152 
L 382.453246 90.312152 
L 385.732585 90.312152 
" clip-path="url(#p0527cae3ab)" style="fill: none; stroke: #17becf; stroke-width: 1.5; stroke-linecap: square"/>
   </g>
   <g id="line2d_41">
    <path d="M 61.07804 109.084195 
L 64.357379 109.18654 
L 67.636717 109.767805 
L 70.916056 109.767806 
L 74.195395 110.016585 
L 77.474734 110.016586 
L 80.754073 110.472463 
L 84.033412 111.342605 
L 87.312751 111.655227 
L 90.592089 111.691094 
L 93.871428 111.214599 
L 97.150767 111.062305 
L 100.430106 109.724126 
L 103.709445 109.733874 
L 106.988784 109.739034 
L 110.268122 109.739033 
L 113.547461 109.739031 
L 116.8268 109.430119 
L 120.106139 108.513701 
L 123.385478 108.513701 
L 126.664817 108.513701 
L 129.944155 108.895817 
L 133.223494 107.748058 
L 136.502833 105.686397 
L 139.782172 104.422873 
L 143.061511 105.201689 
L 146.34085 105.184098 
L 149.620189 104.470908 
L 152.899527 104.680448 
L 156.178866 102.640508 
L 159.458205 102.781051 
L 162.737544 102.592538 
L 166.016883 102.863383 
L 169.296222 101.272029 
L 172.57556 101.266348 
L 175.854899 103.3162 
L 179.134238 104.976757 
L 182.413577 105.135108 
L 185.692916 103.78789 
L 188.972255 103.494197 
L 192.251593 104.098817 
L 195.530932 103.271665 
L 198.810271 101.483941 
L 202.08961 101.720982 
L 205.368949 100.692042 
L 208.648288 98.03436 
L 211.927627 97.490828 
L 215.206965 97.852676 
L 218.486304 97.576029 
L 221.765643 97.675701 
L 225.044982 97.567788 
L 228.324321 96.844125 
L 231.60366 97.243212 
L 234.882998 98.921169 
L 238.162337 93.526112 
L 241.441676 92.036587 
L 244.721015 91.936197 
L 248.000354 90.93114 
L 251.279693 90.312152 
L 254.559032 90.312152 
L 257.83837 90.312152 
L 261.117709 90.312152 
L 264.397048 90.312152 
L 267.676387 90.312152 
L 270.955726 90.312152 
L 274.235065 90.312152 
L 277.514403 90.312152 
L 280.793742 90.312152 
L 284.073081 90.312152 
L 287.35242 90.312152 
L 290.631759 90.312152 
L 293.911098 90.312152 
L 297.190436 90.312152 
L 300.469775 90.312152 
L 303.749114 90.312152 
L 307.028453 90.312152 
L 310.307792 90.312152 
L 313.587131 90.312152 
L 316.86647 90.312152 
L 320.145808 90.312152 
L 323.425147 90.312152 
L 326.704486 90.312152 
L 329.983825 90.312152 
L 333.263164 90.312152 
L 336.542503 90.312152 
L 339.821841 90.312152 
L 343.10118 90.312152 
L 346.380519 90.312152 
L 349.659858 90.312152 
L 352.939197 90.312152 
L 356.218536 90.312152 
L 359.497874 90.312152 
L 362.777213 90.312152 
L 366.056552 90.312152 
L 369.335891 90.312152 
L 372.61523 90.312152 
L 375.894569 90.312152 
L 379.173908 90.312152 
L 382.453246 90.312152 
L 385.732585 90.312152 
" clip-path="url(#p0527cae3ab)" style="fill: none; stroke: #1f77b4; stroke-width: 1.5; stroke-linecap: square"/>
   </g>
   <g id="line2d_42">
    <path d="M 61.07804 258.664869 
L 64.357379 258.839288 
L 67.636717 259.32466 
L 70.916056 259.32466 
L 74.195395 259.887477 
L 77.474734 259.887477 
L 80.754073 259.885159 
L 84.033412 260.40619 
L 87.312751 260.618314 
L 90.592089 260.620451 
L 93.871428 261.216 
L 97.150767 261.163971 
L 100.430106 259.152984 
L 103.709445 259.177447 
L 106.988784 259.014176 
L 110.268122 259.014176 
L 113.547461 259.014177 
L 116.8268 259.107491 
L 120.106139 259.376605 
L 123.385478 259.376605 
L 126.664817 259.376605 
L 129.944155 259.897304 
L 133.223494 258.191927 
L 136.502833 256.923823 
L 139.782172 257.27944 
L 143.061511 256.634396 
L 146.34085 256.567276 
L 149.620189 256.395076 
L 152.899527 256.611361 
L 156.178866 254.945874 
L 159.458205 254.395986 
L 162.737544 255.781662 
L 166.016883 255.922647 
L 169.296222 259.364627 
L 172.57556 259.588563 
L 175.854899 256.88912 
L 179.134238 257.054615 
L 182.413577 257.291687 
L 185.692916 259.016613 
L 188.972255 258.998917 
L 192.251593 258.951858 
L 195.530932 258.869044 
L 198.810271 256.334107 
L 202.08961 256.502621 
L 205.368949 254.366437 
L 208.648288 253.338847 
L 211.927627 253.20673 
L 215.206965 253.034409 
L 218.486304 252.298914 
L 221.765643 252.244648 
L 225.044982 252.150802 
L 228.324321 251.523298 
L 231.60366 252.962183 
L 234.882998 252.786366 
L 238.162337 253.50755 
L 241.441676 253.678034 
L 244.721015 253.791188 
L 248.000354 254.03557 
L 251.279693 254.642997 
L 254.559032 251.842704 
L 257.83837 252.006231 
L 261.117709 251.143338 
L 264.397048 253.420338 
L 267.676387 255.56438 
L 270.955726 254.714363 
L 274.235065 254.584191 
L 277.514403 256.934119 
L 280.793742 257.465011 
L 284.073081 258.073317 
L 287.35242 258.594763 
L 290.631759 258.746673 
L 293.911098 257.120964 
L 297.190436 256.557433 
L 300.469775 255.369158 
L 303.749114 257.19303 
L 307.028453 257.389608 
L 310.307792 259.728935 
L 313.587131 258.173869 
L 316.86647 257.977167 
L 320.145808 256.911651 
L 323.425147 254.839402 
L 326.704486 252.406681 
L 329.983825 251.302141 
L 333.263164 248.058166 
L 336.542503 248.394571 
L 339.821841 243.12465 
L 343.10118 240.982606 
L 346.380519 233.591459 
L 349.659858 232.853124 
L 352.939197 227.468686 
L 356.218536 216.68285 
L 359.497874 90.312154 
L 362.777213 90.312153 
L 366.056552 90.312153 
L 369.335891 90.312153 
L 372.61523 90.312153 
L 375.894569 90.312154 
L 379.173908 90.312152 
L 382.453246 90.312152 
L 385.732585 90.312152 
" clip-path="url(#p0527cae3ab)" style="fill: none; stroke: #ff7f0e; stroke-width: 1.5; stroke-linecap: square"/>
   </g>
   <g id="line2d_43">
    <path d="M 61.07804 125.97578 
L 64.357379 125.736952 
L 67.636717 125.419215 
L 70.916056 125.419215 
L 74.195395 125.165875 
L 77.474734 125.165875 
L 80.754073 125.415382 
L 84.033412 124.818566 
L 87.312751 123.933492 
L 90.592089 123.881139 
L 93.871428 123.435342 
L 97.150767 122.934734 
L 100.430106 123.03906 
L 103.709445 122.709296 
L 106.988784 122.868757 
L 110.268122 122.868757 
L 113.547461 122.868756 
L 116.8268 122.817464 
L 120.106139 122.307784 
L 123.385478 122.307784 
L 126.664817 122.307784 
L 129.944155 120.781911 
L 133.223494 120.294393 
L 136.502833 119.178147 
L 139.782172 119.953637 
L 143.061511 118.633133 
L 146.34085 118.539945 
L 149.620189 117.321342 
L 152.899527 117.447907 
L 156.178866 115.039982 
L 159.458205 114.804825 
L 162.737544 112.540223 
L 166.016883 111.952373 
L 169.296222 110.747864 
L 172.57556 110.189204 
L 175.854899 109.888727 
L 179.134238 109.965531 
L 182.413577 108.508473 
L 185.692916 108.234896 
L 188.972255 108.030622 
L 192.251593 108.267531 
L 195.530932 110.571353 
L 198.810271 109.769942 
L 202.08961 109.559612 
L 205.368949 107.145548 
L 208.648288 105.617411 
L 211.927627 104.148235 
L 215.206965 104.214756 
L 218.486304 103.271135 
L 221.765643 102.656733 
L 225.044982 102.661119 
L 228.324321 102.719516 
L 231.60366 102.904552 
L 234.882998 102.230256 
L 238.162337 99.320275 
L 241.441676 99.702613 
L 244.721015 99.646465 
L 248.000354 100.129783 
L 251.279693 95.750801 
L 254.559032 94.670986 
L 257.83837 94.32942 
L 261.117709 94.066043 
L 264.397048 92.289698 
L 267.676387 90.543427 
L 270.955726 91.992446 
L 274.235065 91.806972 
L 277.514403 91.136504 
L 280.793742 90.312152 
L 284.073081 90.312152 
L 287.35242 90.312152 
L 290.631759 90.312152 
L 293.911098 90.312152 
L 297.190436 90.312152 
L 300.469775 90.312152 
L 303.749114 90.312152 
L 307.028453 90.312152 
L 310.307792 90.312152 
L 313.587131 90.312152 
L 316.86647 90.312152 
L 320.145808 90.312152 
L 323.425147 90.312152 
L 326.704486 90.312152 
L 329.983825 90.312152 
L 333.263164 90.312152 
L 336.542503 90.312152 
L 339.821841 90.312152 
L 343.10118 90.312152 
L 346.380519 90.312152 
L 349.659858 90.312152 
L 352.939197 90.312152 
L 356.218536 90.312152 
L 359.497874 90.312152 
L 362.777213 90.312152 
L 366.056552 90.312152 
L 369.335891 90.312152 
L 372.61523 90.312152 
L 375.894569 90.312152 
L 379.173908 90.312152 
L 382.453246 90.312152 
L 385.732585 90.312152 
" clip-path="url(#p0527cae3ab)" style="fill: none; stroke: #2ca02c; stroke-width: 1.5; stroke-linecap: square"/>
   </g>
   <g id="line2d_44">
    <path d="M 61.07804 55.766191 
L 64.357379 56.046382 
L 67.636717 56.112537 
L 70.916056 56.112537 
L 74.195395 55.815343 
L 77.474734 55.815343 
L 80.754073 55.915872 
L 84.033412 56.360261 
L 87.312751 57.192432 
L 90.592089 57.285215 
L 93.871428 57.101944 
L 97.150767 57.415791 
L 100.430106 58.113537 
L 103.709445 58.279828 
L 106.988784 58.323373 
L 110.268122 58.323373 
L 113.547461 58.323372 
L 116.8268 58.169058 
L 120.106139 57.934171 
L 123.385478 57.934171 
L 126.664817 57.934171 
L 129.944155 58.479398 
L 133.223494 58.597129 
L 136.502833 60.70101 
L 139.782172 60.609405 
L 143.061511 61.474885 
L 146.34085 61.495222 
L 149.620189 60.99328 
L 152.899527 61.591629 
L 156.178866 60.124074 
L 159.458205 59.953509 
L 162.737544 59.845038 
L 166.016883 60.181883 
L 169.296222 58.736706 
L 172.57556 58.90089 
L 175.854899 58.789009 
L 179.134238 60.723652 
L 182.413577 63.137959 
L 185.692916 65.036643 
L 188.972255 65.633409 
L 192.251593 65.002271 
L 195.530932 64.931311 
L 198.810271 64.433933 
L 202.08961 65.195346 
L 205.368949 66.544981 
L 208.648288 68.649004 
L 211.927627 69.636757 
L 215.206965 72.225812 
L 218.486304 73.535977 
L 221.765643 73.931866 
L 225.044982 73.727563 
L 228.324321 74.293343 
L 231.60366 75.663604 
L 234.882998 77.223188 
L 238.162337 79.92035 
L 241.441676 79.705398 
L 244.721015 79.680983 
L 248.000354 80.296149 
L 251.279693 79.830762 
L 254.559032 83.919198 
L 257.83837 85.39391 
L 261.117709 87.767189 
L 264.397048 87.138455 
L 267.676387 86.511688 
L 270.955726 88.861727 
L 274.235065 89.256425 
L 277.514403 88.020555 
L 280.793742 89.845021 
L 284.073081 90.312152 
L 287.35242 90.312152 
L 290.631759 90.312152 
L 293.911098 90.312152 
L 297.190436 90.312152 
L 300.469775 90.312152 
L 303.749114 90.312152 
L 307.028453 90.312152 
L 310.307792 90.312152 
L 313.587131 90.312152 
L 316.86647 90.312152 
L 320.145808 90.312152 
L 323.425147 90.312152 
L 326.704486 90.312152 
L 329.983825 90.312152 
L 333.263164 90.312152 
L 336.542503 90.312152 
L 339.821841 90.312152 
L 343.10118 90.312152 
L 346.380519 90.312152 
L 349.659858 90.312152 
L 352.939197 90.312152 
L 356.218536 90.312152 
L 359.497874 90.312152 
L 362.777213 90.312152 
L 366.056552 90.312152 
L 369.335891 90.312152 
L 372.61523 90.312152 
L 375.894569 90.312152 
L 379.173908 90.312152 
L 382.453246 90.312152 
L 385.732585 90.312152 
" clip-path="url(#p0527cae3ab)" style="fill: none; stroke: #d62728; stroke-width: 1.5; stroke-linecap: square"/>
   </g>
   <g id="line2d_45">
    <path d="M 61.07804 106.985176 
L 64.357379 106.464814 
L 67.636717 106.657836 
L 70.916056 106.657836 
L 74.195395 105.157819 
L 77.474734 105.157818 
L 80.754073 104.94105 
L 84.033412 105.045963 
L 87.312751 105.452105 
L 90.592089 105.475039 
L 93.871428 106.037868 
L 97.150767 105.404608 
L 100.430106 104.95823 
L 103.709445 105.29909 
L 106.988784 105.308899 
L 110.268122 105.308899 
L 113.547461 105.308898 
L 116.8268 105.01882 
L 120.106139 105.345043 
L 123.385478 105.345042 
L 126.664817 105.345042 
L 129.944155 105.983573 
L 133.223494 105.87395 
L 136.502833 105.803575 
L 139.782172 106.660147 
L 143.061511 106.211704 
L 146.34085 106.134664 
L 149.620189 105.913352 
L 152.899527 104.847922 
L 156.178866 103.769018 
L 159.458205 103.647784 
L 162.737544 102.114685 
L 166.016883 101.780886 
L 169.296222 100.461538 
L 172.57556 100.403589 
L 175.854899 99.799417 
L 179.134238 99.528835 
L 182.413577 99.623134 
L 185.692916 99.117767 
L 188.972255 99.235878 
L 192.251593 98.436617 
L 195.530932 95.804638 
L 198.810271 92.478304 
L 202.08961 91.581446 
L 205.368949 90.312153 
L 208.648288 90.312152 
L 211.927627 90.312152 
L 215.206965 90.312152 
L 218.486304 90.312152 
L 221.765643 90.312152 
L 225.044982 90.312152 
L 228.324321 90.312152 
L 231.60366 90.312152 
L 234.882998 90.312152 
L 238.162337 90.312152 
L 241.441676 90.312152 
L 244.721015 90.312152 
L 248.000354 90.312152 
L 251.279693 90.312152 
L 254.559032 90.312152 
L 257.83837 90.312152 
L 261.117709 90.312152 
L 264.397048 90.312152 
L 267.676387 90.312152 
L 270.955726 90.312152 
L 274.235065 90.312152 
L 277.514403 90.312152 
L 280.793742 90.312152 
L 284.073081 90.312152 
L 287.35242 90.312152 
L 290.631759 90.312152 
L 293.911098 90.312152 
L 297.190436 90.312152 
L 300.469775 90.312152 
L 303.749114 90.312152 
L 307.028453 90.312152 
L 310.307792 90.312152 
L 313.587131 90.312152 
L 316.86647 90.312152 
L 320.145808 90.312152 
L 323.425147 90.312152 
L 326.704486 90.312152 
L 329.983825 90.312152 
L 333.263164 90.312152 
L 336.542503 90.312152 
L 339.821841 90.312152 
L 343.10118 90.312152 
L 346.380519 90.312152 
L 349.659858 90.312152 
L 352.939197 90.312152 
L 356.218536 90.312152 
L 359.497874 90.312152 
L 362.777213 90.312152 
L 366.056552 90.312152 
L 369.335891 90.312152 
L 372.61523 90.312152 
L 375.894569 90.312152 
L 379.173908 90.312152 
L 382.453246 90.312152 
L 385.732585 90.312152 
" clip-path="url(#p0527cae3ab)" style="fill: none; stroke: #9467bd; stroke-width: 1.5; stroke-linecap: square"/>
   </g>
   <g id="line2d_46">
    <path d="M 61.07804 94.469932 
L 64.357379 94.449588 
L 67.636717 94.711132 
L 70.916056 94.711133 
L 74.195395 95.556112 
L 77.474734 95.556111 
L 80.754073 94.930252 
L 84.033412 94.497283 
L 87.312751 95.19313 
L 90.592089 95.273496 
L 93.871428 94.080827 
L 97.150767 94.757561 
L 100.430106 95.960554 
L 103.709445 96.072249 
L 106.988784 96.03477 
L 110.268122 96.034769 
L 113.547461 96.034768 
L 116.8268 95.840749 
L 120.106139 95.254639 
L 123.385478 95.254639 
L 126.664817 95.254639 
L 129.944155 96.089272 
L 133.223494 95.47404 
L 136.502833 94.863523 
L 139.782172 93.577019 
L 143.061511 93.695562 
L 146.34085 93.746219 
L 149.620189 93.836152 
L 152.899527 93.631209 
L 156.178866 94.99087 
L 159.458205 95.130918 
L 162.737544 95.715496 
L 166.016883 95.752909 
L 169.296222 96.497875 
L 172.57556 96.645393 
L 175.854899 95.672081 
L 179.134238 95.519491 
L 182.413577 95.041222 
L 185.692916 94.673593 
L 188.972255 95.597106 
L 192.251593 97.04606 
L 195.530932 95.524481 
L 198.810271 94.203077 
L 202.08961 93.7903 
L 205.368949 92.815443 
L 208.648288 91.25136 
L 211.927627 91.387764 
L 215.206965 90.393166 
L 218.486304 90.312152 
L 221.765643 90.407467 
L 225.044982 90.474016 
L 228.324321 90.312152 
L 231.60366 90.312152 
L 234.882998 90.312152 
L 238.162337 90.469017 
L 241.441676 90.312152 
L 244.721015 90.312152 
L 248.000354 90.312152 
L 251.279693 90.312152 
L 254.559032 90.312152 
L 257.83837 90.312152 
L 261.117709 90.312152 
L 264.397048 90.312152 
L 267.676387 90.312152 
L 270.955726 90.312152 
L 274.235065 90.312152 
L 277.514403 90.312152 
L 280.793742 90.312152 
L 284.073081 90.312152 
L 287.35242 90.312152 
L 290.631759 90.312152 
L 293.911098 90.312152 
L 297.190436 90.312152 
L 300.469775 90.312152 
L 303.749114 90.312152 
L 307.028453 90.312152 
L 310.307792 90.312152 
L 313.587131 90.312152 
L 316.86647 90.312152 
L 320.145808 90.312152 
L 323.425147 90.312152 
L 326.704486 90.312152 
L 329.983825 90.312152 
L 333.263164 90.312152 
L 336.542503 90.312152 
L 339.821841 90.312152 
L 343.10118 90.312152 
L 346.380519 90.312152 
L 349.659858 90.312152 
L 352.939197 90.312152 
L 356.218536 90.312152 
L 359.497874 90.312152 
L 362.777213 90.312152 
L 366.056552 90.312152 
L 369.335891 90.312152 
L 372.61523 90.312152 
L 375.894569 90.312152 
L 379.173908 90.312152 
L 382.453246 90.312152 
L 385.732585 90.312152 
" clip-path="url(#p0527cae3ab)" style="fill: none; stroke: #8c564b; stroke-width: 1.5; stroke-linecap: square"/>
   </g>
   <g id="line2d_47">
    <path d="M 61.07804 95.453574 
L 64.357379 95.053194 
L 67.636717 94.536944 
L 70.916056 94.536945 
L 74.195395 94.874475 
L 77.474734 94.874475 
L 80.754073 94.966862 
L 84.033412 94.975027 
L 87.312751 94.542446 
L 90.592089 94.482997 
L 93.871428 94.863712 
L 97.150767 95.184823 
L 100.430106 96.114991 
L 103.709445 96.021381 
L 106.988784 96.039378 
L 110.268122 96.039378 
L 113.547461 96.039379 
L 116.8268 96.265818 
L 120.106139 96.109058 
L 123.385478 96.109058 
L 126.664817 96.109058 
L 129.944155 96.180828 
L 133.223494 97.159038 
L 136.502833 99.999757 
L 139.782172 100.018387 
L 143.061511 99.077595 
L 146.34085 98.991044 
L 149.620189 97.474316 
L 152.899527 96.554091 
L 156.178866 94.838329 
L 159.458205 94.988598 
L 162.737544 93.615321 
L 166.016883 92.826471 
L 169.296222 93.645641 
L 172.57556 93.68507 
L 175.854899 91.677234 
L 179.134238 91.696577 
L 182.413577 91.614205 
L 185.692916 92.779639 
L 188.972255 93.006171 
L 192.251593 92.508821 
L 195.530932 93.594445 
L 198.810271 92.10167 
L 202.08961 92.061973 
L 205.368949 91.00184 
L 208.648288 90.312152 
L 211.927627 90.312152 
L 215.206965 90.312152 
L 218.486304 90.312152 
L 221.765643 90.312152 
L 225.044982 90.312152 
L 228.324321 90.312152 
L 231.60366 90.312152 
L 234.882998 90.312152 
L 238.162337 90.312152 
L 241.441676 90.312152 
L 244.721015 90.312152 
L 248.000354 90.312152 
L 251.279693 90.312152 
L 254.559032 90.312152 
L 257.83837 90.312152 
L 261.117709 90.312152 
L 264.397048 90.312152 
L 267.676387 90.312152 
L 270.955726 90.312152 
L 274.235065 90.312152 
L 277.514403 90.312152 
L 280.793742 90.312152 
L 284.073081 90.312152 
L 287.35242 90.312152 
L 290.631759 90.312152 
L 293.911098 90.312152 
L 297.190436 90.312152 
L 300.469775 90.312152 
L 303.749114 90.312152 
L 307.028453 90.312152 
L 310.307792 90.312152 
L 313.587131 90.312152 
L 316.86647 90.312152 
L 320.145808 90.312152 
L 323.425147 90.312152 
L 326.704486 90.312152 
L 329.983825 90.312152 
L 333.263164 90.312152 
L 336.542503 90.312152 
L 339.821841 90.312152 
L 343.10118 90.312152 
L 346.380519 90.312152 
L 349.659858 90.312152 
L 352.939197 90.312152 
L 356.218536 90.312152 
L 359.497874 90.312152 
L 362.777213 90.312152 
L 366.056552 90.312152 
L 369.335891 90.312152 
L 372.61523 90.312152 
L 375.894569 90.312152 
L 379.173908 90.312152 
L 382.453246 90.312152 
L 385.732585 90.312152 
" clip-path="url(#p0527cae3ab)" style="fill: none; stroke: #e377c2; stroke-width: 1.5; stroke-linecap: square"/>
   </g>
   <g id="line2d_48">
    <path d="M 61.07804 196.951217 
L 64.357379 196.498145 
L 67.636717 195.62476 
L 70.916056 195.624759 
L 74.195395 195.37679 
L 77.474734 195.376789 
L 80.754073 195.156476 
L 84.033412 195.317419 
L 87.312751 195.398587 
L 90.592089 195.36612 
L 93.871428 195.756307 
L 97.150767 195.405202 
L 100.430106 195.351417 
L 103.709445 195.174644 
L 106.988784 195.192078 
L 110.268122 195.192078 
L 113.547461 195.192077 
L 116.8268 195.202034 
L 120.106139 194.850349 
L 123.385478 194.85035 
L 126.664817 194.850349 
L 129.944155 194.385641 
L 133.223494 194.446534 
L 136.502833 195.536199 
L 139.782172 196.740962 
L 143.061511 194.801029 
L 146.34085 194.680793 
L 149.620189 194.527098 
L 152.899527 194.191185 
L 156.178866 194.58328 
L 159.458205 194.928836 
L 162.737544 194.938568 
L 166.016883 194.614544 
L 169.296222 193.248136 
L 172.57556 193.436016 
L 175.854899 194.997023 
L 179.134238 192.22027 
L 182.413577 190.775657 
L 185.692916 189.177789 
L 188.972255 189.511859 
L 192.251593 190.086625 
L 195.530932 189.90502 
L 198.810271 190.535521 
L 202.08961 191.279478 
L 205.368949 191.540434 
L 208.648288 191.358291 
L 211.927627 189.160376 
L 215.206965 186.870471 
L 218.486304 186.1767 
L 221.765643 185.269507 
L 225.044982 185.300816 
L 228.324321 185.832066 
L 231.60366 183.928486 
L 234.882998 183.37078 
L 238.162337 182.285167 
L 241.441676 182.514898 
L 244.721015 182.447944 
L 248.000354 181.870991 
L 251.279693 177.489758 
L 254.559032 177.868898 
L 257.83837 176.759227 
L 261.117709 176.214726 
L 264.397048 174.206094 
L 267.676387 171.971729 
L 270.955726 172.030709 
L 274.235065 172.021421 
L 277.514403 169.459958 
L 280.793742 167.777823 
L 284.073081 167.094224 
L 287.35242 162.352386 
L 290.631759 161.541903 
L 293.911098 159.153155 
L 297.190436 157.995379 
L 300.469775 154.332776 
L 303.749114 148.945167 
L 307.028453 147.827566 
L 310.307792 140.929788 
L 313.587131 136.479346 
L 316.86647 134.868207 
L 320.145808 132.808484 
L 323.425147 118.126595 
L 326.704486 116.189813 
L 329.983825 115.057993 
L 333.263164 111.101633 
L 336.542503 102.770206 
L 339.821841 95.180439 
L 343.10118 90.312152 
L 346.380519 90.312152 
L 349.659858 90.312152 
L 352.939197 90.312152 
L 356.218536 90.312152 
L 359.497874 90.312152 
L 362.777213 90.312152 
L 366.056552 90.312152 
L 369.335891 90.312152 
L 372.61523 90.312152 
L 375.894569 90.312152 
L 379.173908 90.312152 
L 382.453246 90.312152 
L 385.732585 90.312152 
" clip-path="url(#p0527cae3ab)" style="fill: none; stroke: #7f7f7f; stroke-width: 1.5; stroke-linecap: square"/>
   </g>
   <g id="line2d_49">
    <path d="M 61.07804 67.900017 
L 64.357379 67.714426 
L 67.636717 67.748135 
L 70.916056 67.748135 
L 74.195395 67.567415 
L 77.474734 67.567416 
L 80.754073 67.788745 
L 84.033412 67.819341 
L 87.312751 67.724697 
L 90.592089 67.735597 
L 93.871428 69.352473 
L 97.150767 69.341558 
L 100.430106 68.798821 
L 103.709445 68.940198 
L 106.988784 68.927089 
L 110.268122 68.927089 
L 113.547461 68.927089 
L 116.8268 68.816075 
L 120.106139 68.826808 
L 123.385478 68.826808 
L 126.664817 68.826808 
L 129.944155 69.28097 
L 133.223494 68.909815 
L 136.502833 69.612196 
L 139.782172 71.297616 
L 143.061511 72.985996 
L 146.34085 73.0707 
L 149.620189 73.325201 
L 152.899527 76.066767 
L 156.178866 75.88126 
L 159.458205 75.273439 
L 162.737544 75.854743 
L 166.016883 75.639412 
L 169.296222 75.454421 
L 172.57556 76.064333 
L 175.854899 77.036945 
L 179.134238 78.410097 
L 182.413577 79.147224 
L 185.692916 80.401129 
L 188.972255 80.174487 
L 192.251593 80.087265 
L 195.530932 82.412872 
L 198.810271 85.290984 
L 202.08961 84.372512 
L 205.368949 84.913247 
L 208.648288 90.312152 
L 211.927627 90.312152 
L 215.206965 88.786657 
L 218.486304 88.363979 
L 221.765643 88.965357 
L 225.044982 89.662693 
L 228.324321 89.313214 
L 231.60366 89.063636 
L 234.882998 89.453858 
L 238.162337 90.312152 
L 241.441676 90.312152 
L 244.721015 90.312152 
L 248.000354 90.312152 
L 251.279693 90.312152 
L 254.559032 90.312152 
L 257.83837 90.312152 
L 261.117709 90.312152 
L 264.397048 90.312152 
L 267.676387 90.312152 
L 270.955726 90.312152 
L 274.235065 90.312152 
L 277.514403 90.312152 
L 280.793742 90.312152 
L 284.073081 90.312152 
L 287.35242 90.312152 
L 290.631759 90.312152 
L 293.911098 90.312152 
L 297.190436 90.312152 
L 300.469775 90.312152 
L 303.749114 90.312152 
L 307.028453 90.312152 
L 310.307792 90.312152 
L 313.587131 90.312152 
L 316.86647 90.312152 
L 320.145808 90.312152 
L 323.425147 90.312152 
L 326.704486 90.312152 
L 329.983825 90.312152 
L 333.263164 90.312152 
L 336.542503 90.312152 
L 339.821841 90.312152 
L 343.10118 90.312152 
L 346.380519 90.312152 
L 349.659858 90.312152 
L 352.939197 90.312152 
L 356.218536 90.312152 
L 359.497874 90.312152 
L 362.777213 90.312152 
L 366.056552 90.312152 
L 369.335891 90.312152 
L 372.61523 90.312152 
L 375.894569 90.312152 
L 379.173908 90.312152 
L 382.453246 90.312152 
L 385.732585 90.312152 
" clip-path="url(#p0527cae3ab)" style="fill: none; stroke: #bcbd22; stroke-width: 1.5; stroke-linecap: square"/>
   </g>
   <g id="line2d_50">
    <path d="M 61.07804 80.635832 
L 64.357379 80.675926 
L 67.636717 81.867847 
L 70.916056 81.867848 
L 74.195395 83.327717 
L 77.474734 83.327716 
L 80.754073 82.928493 
L 84.033412 83.449595 
L 87.312751 83.746343 
L 90.592089 83.705337 
L 93.871428 83.974829 
L 97.150767 83.430578 
L 100.430106 81.793971 
L 103.709445 81.841629 
L 106.988784 81.783852 
L 110.268122 81.783852 
L 113.547461 81.783854 
L 116.8268 81.930652 
L 120.106139 82.577867 
L 123.385478 82.577866 
L 126.664817 82.577867 
L 129.944155 82.593824 
L 133.223494 82.878094 
L 136.502833 84.242671 
L 139.782172 85.421278 
L 143.061511 85.067468 
L 146.34085 85.10902 
L 149.620189 86.096148 
L 152.899527 87.250784 
L 156.178866 87.018972 
L 159.458205 87.956981 
L 162.737544 86.73664 
L 166.016883 87.763372 
L 169.296222 90.312142 
L 172.57556 90.312152 
L 175.854899 90.312152 
L 179.134238 90.312152 
L 182.413577 90.312152 
L 185.692916 90.312152 
L 188.972255 90.312152 
L 192.251593 90.312152 
L 195.530932 90.312152 
L 198.810271 90.312152 
L 202.08961 90.312152 
L 205.368949 90.312152 
L 208.648288 90.312152 
L 211.927627 90.312152 
L 215.206965 90.312152 
L 218.486304 90.312152 
L 221.765643 90.312152 
L 225.044982 90.312152 
L 228.324321 90.312152 
L 231.60366 90.312152 
L 234.882998 90.312152 
L 238.162337 90.312152 
L 241.441676 90.312152 
L 244.721015 90.312152 
L 248.000354 90.312152 
L 251.279693 90.312152 
L 254.559032 90.312152 
L 257.83837 90.312152 
L 261.117709 90.312152 
L 264.397048 90.312152 
L 267.676387 90.312152 
L 270.955726 90.312152 
L 274.235065 90.312152 
L 277.514403 90.312152 
L 280.793742 90.312152 
L 284.073081 90.312152 
L 287.35242 90.312152 
L 290.631759 90.312152 
L 293.911098 90.312152 
L 297.190436 90.312152 
L 300.469775 90.312152 
L 303.749114 90.312152 
L 307.028453 90.312152 
L 310.307792 90.312152 
L 313.587131 90.312152 
L 316.86647 90.312152 
L 320.145808 90.312152 
L 323.425147 90.312152 
L 326.704486 90.312152 
L 329.983825 90.312152 
L 333.263164 90.312152 
L 336.542503 90.312152 
L 339.821841 90.312152 
L 343.10118 90.312152 
L 346.380519 90.312152 
L 349.659858 90.312152 
L 352.939197 90.312152 
L 356.218536 90.312152 
L 359.497874 90.312152 
L 362.777213 90.312152 
L 366.056552 90.312152 
L 369.335891 90.312152 
L 372.61523 90.312152 
L 375.894569 90.312152 
L 379.173908 90.312152 
L 382.453246 90.312152 
L 385.732585 90.312152 
" clip-path="url(#p0527cae3ab)" style="fill: none; stroke: #17becf; stroke-width: 1.5; stroke-linecap: square"/>
   </g>
   <g id="patch_3">
    <path d="M 44.845313 273.312 
L 44.845313 7.2 
" style="fill: none; stroke: #000000; stroke-width: 0.8; stroke-linejoin: miter; stroke-linecap: square"/>
   </g>
   <g id="patch_4">
    <path d="M 401.965312 273.312 
L 401.965312 7.2 
" style="fill: none; stroke: #000000; stroke-width: 0.8; stroke-linejoin: miter; stroke-linecap: square"/>
   </g>
   <g id="patch_5">
    <path d="M 44.845313 273.312 
L 401.965313 273.312 
" style="fill: none; stroke: #000000; stroke-width: 0.8; stroke-linejoin: miter; stroke-linecap: square"/>
   </g>
   <g id="patch_6">
    <path d="M 44.845313 7.2 
L 401.965313 7.2 
" style="fill: none; stroke: #000000; stroke-width: 0.8; stroke-linejoin: miter; stroke-linecap: square"/>
   </g>
  </g>
 </g>
 <defs>
  <clipPath id="p0527cae3ab">
   <rect x="44.845313" y="7.2" width="357.12" height="266.112"/>
  </clipPath>
 </defs>
</svg>