<?xml version="1.0" encoding="utf-8" standalone="no"?>
<!DOCTYPE svg PUBLIC "-//W3C//DTD SVG 1.1//EN"
  "http://www.w3.org/Graphics/SVG/1.1/DTD/svg11.dtd">
<svg xmlns:xlink="http://www.w3.org/1999/xlink" width="422.287812pt" height="316.675125pt" viewBox="0 0 422.287812 316.675125" xmlns="http://www.w3.org/2000/svg" version="1.1">
 <metadata>
  <rdf:RDF xmlns:dc="http://purl.org/dc/elements/1.1/" xmlns:cc="http://creativecommons.org/ns#" xmlns:rdf="http://www.w3.org/1999/02/22-rdf-syntax-ns#">
   <cc:Work>
    <dc:type rdf:resource="http://purl.org/dc/dcmitype/StillImage"/>
    <dc:date>2024-01-01T16:21:57.152778</dc:date>
    <dc:format>image/svg+xml</dc:format>
    <dc:creator>
     <cc:Agent>
      <dc:title>Matplotlib v3.8.2, https://matplotlib.org/</dc:title>
     </cc:Agent>
    </dc:creator>
   </cc:Work>
  </rdf:RDF>
 </metadata>
 <defs>
  <style type="text/css">*{stroke-linejoin: round; stroke-linecap: butt}</style>
 </defs>
 <g id="figure_1">
  <g id="patch_1">
   <path d="M 0 316.675125 
L 422.287812 316.675125 
L 422.287812 0 
L 0 0 
z
" style="fill: #ffffff"/>
  </g>
  <g id="axes_1">
   <g id="patch_2">
    <path d="M 57.967813 273.312 
L 415.087813 273.312 
L 415.087813 7.2 
L 57.967813 7.2 
z
" style="fill: #ffffff"/>
   </g>
   <g id="patch_3">
    <path d="M 53.389351 189.316391 
L 62.546274 189.316391 
L 62.546274 189.316391 
L 53.389351 189.316391 
z
" clip-path="url(#pcf91b331ab)" style="fill: #0000ff"/>
   </g>
   <g id="patch_4">
    <path d="M 90.017043 189.316391 
L 99.173966 189.316391 
L 99.173966 189.316391 
L 90.017043 189.316391 
z
" clip-path="url(#pcf91b331ab)" style="fill: #0000ff"/>
   </g>
   <g id="patch_5">
    <path d="M 126.644736 189.316391 
L 135.801659 189.316391 
L 135.801659 189.316391 
L 126.644736 189.316391 
z
" clip-path="url(#pcf91b331ab)" style="fill: #0000ff"/>
   </g>
   <g id="patch_6">
    <path d="M 163.272428 189.316391 
L 172.429351 189.316391 
L 172.429351 189.316391 
L 163.272428 189.316391 
z
" clip-path="url(#pcf91b331ab)" style="fill: #0000ff"/>
   </g>
   <g id="patch_7">
    <path d="M 199.90012 189.316391 
L 209.057043 189.316391 
L 209.057043 189.316391 
L 199.90012 189.316391 
z
" clip-path="url(#pcf91b331ab)" style="fill: #0000ff"/>
   </g>
   <g id="patch_8">
    <path d="M 236.527813 189.316391 
L 245.684736 189.316391 
L 245.684736 175.804406 
L 236.527813 175.804406 
z
" clip-path="url(#pcf91b331ab)" style="fill: #0000ff"/>
   </g>
   <g id="patch_9">
    <path d="M 273.155505 189.316391 
L 282.312428 189.316391 
L 282.312428 160.853988 
L 273.155505 160.853988 
z
" clip-path="url(#pcf91b331ab)" style="fill: #0000ff"/>
   </g>
   <g id="patch_10">
    <path d="M 309.783197 189.316391 
L 318.94012 189.316391 
L 318.94012 184.883427 
L 309.783197 184.883427 
z
" clip-path="url(#pcf91b331ab)" style="fill: #0000ff"/>
   </g>
   <g id="patch_11">
    <path d="M 346.410889 189.316391 
L 355.567813 189.316391 
L 355.567813 159.279891 
L 346.410889 159.279891 
z
" clip-path="url(#pcf91b331ab)" style="fill: #0000ff"/>
   </g>
   <g id="patch_12">
    <path d="M 383.038582 189.316391 
L 392.195505 189.316391 
L 392.195505 87.707352 
L 383.038582 87.707352 
z
" clip-path="url(#pcf91b331ab)" style="fill: #0000ff"/>
   </g>
   <g id="patch_13">
    <path d="M 62.546274 189.316391 
L 71.703197 189.316391 
L 71.703197 200.424891 
L 62.546274 200.424891 
z
" clip-path="url(#pcf91b331ab)" style="fill: #008000"/>
   </g>
   <g id="patch_14">
    <path d="M 99.173966 189.316391 
L 108.330889 189.316391 
L 108.330889 189.316392 
L 99.173966 189.316392 
z
" clip-path="url(#pcf91b331ab)" style="fill: #008000"/>
   </g>
   <g id="patch_15">
    <path d="M 135.801659 189.316391 
L 144.958582 189.316391 
L 144.958582 189.316392 
L 135.801659 189.316392 
z
" clip-path="url(#pcf91b331ab)" style="fill: #008000"/>
   </g>
   <g id="patch_16">
    <path d="M 172.429351 189.316391 
L 181.586274 189.316391 
L 181.586274 244.496068 
L 172.429351 244.496068 
z
" clip-path="url(#pcf91b331ab)" style="fill: #008000"/>
   </g>
   <g id="patch_17">
    <path d="M 209.057043 189.316391 
L 218.213966 189.316391 
L 218.213966 203.001171 
L 209.057043 203.001171 
z
" clip-path="url(#pcf91b331ab)" style="fill: #008000"/>
   </g>
   <g id="patch_18">
    <path d="M 245.684736 189.316391 
L 254.841659 189.316391 
L 254.841659 148.438046 
L 245.684736 148.438046 
z
" clip-path="url(#pcf91b331ab)" style="fill: #008000"/>
   </g>
   <g id="patch_19">
    <path d="M 282.312428 189.316391 
L 291.469351 189.316391 
L 291.469351 134.199566 
L 282.312428 134.199566 
z
" clip-path="url(#pcf91b331ab)" style="fill: #008000"/>
   </g>
   <g id="patch_20">
    <path d="M 318.94012 189.316391 
L 328.097043 189.316391 
L 328.097043 198.369883 
L 318.94012 198.369883 
z
" clip-path="url(#pcf91b331ab)" style="fill: #008000"/>
   </g>
   <g id="patch_21">
    <path d="M 355.567813 189.316391 
L 364.724736 189.316391 
L 364.724736 144.266424 
L 355.567813 144.266424 
z
" clip-path="url(#pcf91b331ab)" style="fill: #008000"/>
   </g>
   <g id="patch_22">
    <path d="M 392.195505 189.316391 
L 401.352428 189.316391 
L 401.352428 63.28219 
L 392.195505 63.28219 
z
" clip-path="url(#pcf91b331ab)" style="fill: #008000"/>
   </g>
   <g id="patch_23">
    <path d="M 71.703197 189.316391 
L 80.86012 189.316391 
L 80.86012 206.732437 
L 71.703197 206.732437 
z
" clip-path="url(#pcf91b331ab)" style="fill: #ff0000"/>
   </g>
   <g id="patch_24">
    <path d="M 108.330889 189.316391 
L 117.487813 189.316391 
L 117.487813 169.95072 
L 108.330889 169.95072 
z
" clip-path="url(#pcf91b331ab)" style="fill: #ff0000"/>
   </g>
   <g id="patch_25">
    <path d="M 144.958582 189.316391 
L 154.115505 189.316391 
L 154.115505 239.894703 
L 144.958582 239.894703 
z
" clip-path="url(#pcf91b331ab)" style="fill: #ff0000"/>
   </g>
   <g id="patch_26">
    <path d="M 181.586274 189.316391 
L 190.743197 189.316391 
L 190.743197 261.216 
L 181.586274 261.216 
z
" clip-path="url(#pcf91b331ab)" style="fill: #ff0000"/>
   </g>
   <g id="patch_27">
    <path d="M 218.213966 189.316391 
L 227.370889 189.316391 
L 227.370889 247.764124 
L 218.213966 247.764124 
z
" clip-path="url(#pcf91b331ab)" style="fill: #ff0000"/>
   </g>
   <g id="patch_28">
    <path d="M 254.841659 189.316391 
L 263.998582 189.316391 
L 263.998582 73.334535 
L 254.841659 73.334535 
z
" clip-path="url(#pcf91b331ab)" style="fill: #ff0000"/>
   </g>
   <g id="patch_29">
    <path d="M 291.469351 189.316391 
L 300.626274 189.316391 
L 300.626274 97.654817 
L 291.469351 97.654817 
z
" clip-path="url(#pcf91b331ab)" style="fill: #ff0000"/>
   </g>
   <g id="patch_30">
    <path d="M 328.097043 189.316391 
L 337.253966 189.316391 
L 337.253966 258.05403 
L 328.097043 258.05403 
z
" clip-path="url(#pcf91b331ab)" style="fill: #ff0000"/>
   </g>
   <g id="patch_31">
    <path d="M 364.724736 189.316391 
L 373.881659 189.316391 
L 373.881659 141.213656 
L 364.724736 141.213656 
z
" clip-path="url(#pcf91b331ab)" style="fill: #ff0000"/>
   </g>
   <g id="patch_32">
    <path d="M 401.352428 189.316391 
L 410.509351 189.316391 
L 410.509351 19.296 
L 401.352428 19.296 
z
" clip-path="url(#pcf91b331ab)" style="fill: #ff0000"/>
   </g>
   <g id="matplotlib.axis_1">
    <g id="xtick_1">
     <g id="line2d_1">
      <defs>
       <path id="m17567dded4" d="M 0 0 
L 0 3.5 
" style="stroke: #000000; stroke-width: 0.8"/>
      </defs>
      <g>
       <use xlink:href="#m17567dded4" x="71.703197" y="273.312" style="stroke: #000000; stroke-width: 0.8"/>
      </g>
     </g>
     <g id="text_1">
      <!-- 1 -->
      <g transform="translate(68.521947 287.910437) scale(0.1 -0.1)">
       <defs>
        <path id="DejaVuSans-31" d="M 794 531 
L 1825 531 
L 1825 4091 
L 703 3866 
L 703 4441 
L 1819 4666 
L 2450 4666 
L 2450 531 
L 3481 531 
L 3481 0 
L 794 0 
L 794 531 
z
" transform="scale(0.015625)"/>
       </defs>
       <use xlink:href="#DejaVuSans-31"/>
      </g>
     </g>
    </g>
    <g id="xtick_2">
     <g id="line2d_2">
      <g>
       <use xlink:href="#m17567dded4" x="108.330889" y="273.312" style="stroke: #000000; stroke-width: 0.8"/>
      </g>
     </g>
     <g id="text_2">
      <!-- 2 -->
      <g transform="translate(105.149639 287.910437) scale(0.1 -0.1)">
       <defs>
        <path id="DejaVuSans-32" d="M 1228 531 
L 3431 531 
L 3431 0 
L 469 0 
L 469 531 
Q 828 903 1448 1529 
Q 2069 2156 2228 2338 
Q 2531 2678 2651 2914 
Q 2772 3150 2772 3378 
Q 2772 3750 2511 3984 
Q 2250 4219 1831 4219 
Q 1534 4219 1204 4116 
Q 875 4013 500 3803 
L 500 4441 
Q 881 4594 1212 4672 
Q 1544 4750 1819 4750 
Q 2544 4750 2975 4387 
Q 3406 4025 3406 3419 
Q 3406 3131 3298 2873 
Q 3191 2616 2906 2266 
Q 2828 2175 2409 1742 
Q 1991 1309 1228 531 
z
" transform="scale(0.015625)"/>
       </defs>
       <use xlink:href="#DejaVuSans-32"/>
      </g>
     </g>
    </g>
    <g id="xtick_3">
     <g id="line2d_3">
      <g>
       <use xlink:href="#m17567dded4" x="144.958582" y="273.312" style="stroke: #000000; stroke-width: 0.8"/>
      </g>
     </g>
     <g id="text_3">
      <!-- 3 -->
      <g transform="translate(141.777332 287.910437) scale(0.1 -0.1)">
       <defs>
        <path id="DejaVuSans-33" d="M 2597 2516 
Q 3050 2419 3304 2112 
Q 3559 1806 3559 1356 
Q 3559 666 3084 287 
Q 2609 -91 1734 -91 
Q 1441 -91 1130 -33 
Q 819 25 488 141 
L 488 750 
Q 750 597 1062 519 
Q 1375 441 1716 441 
Q 2309 441 2620 675 
Q 2931 909 2931 1356 
Q 2931 1769 2642 2001 
Q 2353 2234 1838 2234 
L 1294 2234 
L 1294 2753 
L 1863 2753 
Q 2328 2753 2575 2939 
Q 2822 3125 2822 3475 
Q 2822 3834 2567 4026 
Q 2313 4219 1838 4219 
Q 1578 4219 1281 4162 
Q 984 4106 628 3988 
L 628 4550 
Q 988 4650 1302 4700 
Q 1616 4750 1894 4750 
Q 2613 4750 3031 4423 
Q 3450 4097 3450 3541 
Q 3450 3153 3228 2886 
Q 3006 2619 2597 2516 
z
" transform="scale(0.015625)"/>
       </defs>
       <use xlink:href="#DejaVuSans-33"/>
      </g>
     </g>
    </g>
    <g id="xtick_4">
     <g id="line2d_4">
      <g>
       <use xlink:href="#m17567dded4" x="181.586274" y="273.312" style="stroke: #000000; stroke-width: 0.8"/>
      </g>
     </g>
     <g id="text_4">
      <!-- 4 -->
      <g transform="translate(178.405024 287.910437) scale(0.1 -0.1)">
       <defs>
        <path id="DejaVuSans-34" d="M 2419 4116 
L 825 1625 
L 2419 1625 
L 2419 4116 
z
M 2253 4666 
L 3047 4666 
L 3047 1625 
L 3713 1625 
L 3713 1100 
L 3047 1100 
L 3047 0 
L 2419 0 
L 2419 1100 
L 313 1100 
L 313 1709 
L 2253 4666 
z
" transform="scale(0.015625)"/>
       </defs>
       <use xlink:href="#DejaVuSans-34"/>
      </g>
     </g>
    </g>
    <g id="xtick_5">
     <g id="line2d_5">
      <g>
       <use xlink:href="#m17567dded4" x="218.213966" y="273.312" style="stroke: #000000; stroke-width: 0.8"/>
      </g>
     </g>
     <g id="text_5">
      <!-- 5 -->
      <g transform="translate(215.032716 287.910437) scale(0.1 -0.1)">
       <defs>
        <path id="DejaVuSans-35" d="M 691 4666 
L 3169 4666 
L 3169 4134 
L 1269 4134 
L 1269 2991 
Q 1406 3038 1543 3061 
Q 1681 3084 1819 3084 
Q 2600 3084 3056 2656 
Q 3513 2228 3513 1497 
Q 3513 744 3044 326 
Q 2575 -91 1722 -91 
Q 1428 -91 1123 -41 
Q 819 9 494 109 
L 494 744 
Q 775 591 1075 516 
Q 1375 441 1709 441 
Q 2250 441 2565 725 
Q 2881 1009 2881 1497 
Q 2881 1984 2565 2268 
Q 2250 2553 1709 2553 
Q 1456 2553 1204 2497 
Q 953 2441 691 2322 
L 691 4666 
z
" transform="scale(0.015625)"/>
       </defs>
       <use xlink:href="#DejaVuSans-35"/>
      </g>
     </g>
    </g>
    <g id="xtick_6">
     <g id="line2d_6">
      <g>
       <use xlink:href="#m17567dded4" x="254.841659" y="273.312" style="stroke: #000000; stroke-width: 0.8"/>
      </g>
     </g>
     <g id="text_6">
      <!-- 6 -->
      <g transform="translate(251.660409 287.910437) scale(0.1 -0.1)">
       <defs>
        <path id="DejaVuSans-36" d="M 2113 2584 
Q 1688 2584 1439 2293 
Q 1191 2003 1191 1497 
Q 1191 994 1439 701 
Q 1688 409 2113 409 
Q 2538 409 2786 701 
Q 3034 994 3034 1497 
Q 3034 2003 2786 2293 
Q 2538 2584 2113 2584 
z
M 3366 4563 
L 3366 3988 
Q 3128 4100 2886 4159 
Q 2644 4219 2406 4219 
Q 1781 4219 1451 3797 
Q 1122 3375 1075 2522 
Q 1259 2794 1537 2939 
Q 1816 3084 2150 3084 
Q 2853 3084 3261 2657 
Q 3669 2231 3669 1497 
Q 3669 778 3244 343 
Q 2819 -91 2113 -91 
Q 1303 -91 875 529 
Q 447 1150 447 2328 
Q 447 3434 972 4092 
Q 1497 4750 2381 4750 
Q 2619 4750 2861 4703 
Q 3103 4656 3366 4563 
z
" transform="scale(0.015625)"/>
       </defs>
       <use xlink:href="#DejaVuSans-36"/>
      </g>
     </g>
    </g>
    <g id="xtick_7">
     <g id="line2d_7">
      <g>
       <use xlink:href="#m17567dded4" x="291.469351" y="273.312" style="stroke: #000000; stroke-width: 0.8"/>
      </g>
     </g>
     <g id="text_7">
      <!-- 7 -->
      <g transform="translate(288.288101 287.910437) scale(0.1 -0.1)">
       <defs>
        <path id="DejaVuSans-37" d="M 525 4666 
L 3525 4666 
L 3525 4397 
L 1831 0 
L 1172 0 
L 2766 4134 
L 525 4134 
L 525 4666 
z
" transform="scale(0.015625)"/>
       </defs>
       <use xlink:href="#DejaVuSans-37"/>
      </g>
     </g>
    </g>
    <g id="xtick_8">
     <g id="line2d_8">
      <g>
       <use xlink:href="#m17567dded4" x="328.097043" y="273.312" style="stroke: #000000; stroke-width: 0.8"/>
      </g>
     </g>
     <g id="text_8">
      <!-- 8 -->
      <g transform="translate(324.915793 287.910437) scale(0.1 -0.1)">
       <defs>
        <path id="DejaVuSans-38" d="M 2034 2216 
Q 1584 2216 1326 1975 
Q 1069 1734 1069 1313 
Q 1069 891 1326 650 
Q 1584 409 2034 409 
Q 2484 409 2743 651 
Q 3003 894 3003 1313 
Q 3003 1734 2745 1975 
Q 2488 2216 2034 2216 
z
M 1403 2484 
Q 997 2584 770 2862 
Q 544 3141 544 3541 
Q 544 4100 942 4425 
Q 1341 4750 2034 4750 
Q 2731 4750 3128 4425 
Q 3525 4100 3525 3541 
Q 3525 3141 3298 2862 
Q 3072 2584 2669 2484 
Q 3125 2378 3379 2068 
Q 3634 1759 3634 1313 
Q 3634 634 3220 271 
Q 2806 -91 2034 -91 
Q 1263 -91 848 271 
Q 434 634 434 1313 
Q 434 1759 690 2068 
Q 947 2378 1403 2484 
z
M 1172 3481 
Q 1172 3119 1398 2916 
Q 1625 2713 2034 2713 
Q 2441 2713 2670 2916 
Q 2900 3119 2900 3481 
Q 2900 3844 2670 4047 
Q 2441 4250 2034 4250 
Q 1625 4250 1398 4047 
Q 1172 3844 1172 3481 
z
" transform="scale(0.015625)"/>
       </defs>
       <use xlink:href="#DejaVuSans-38"/>
      </g>
     </g>
    </g>
    <g id="xtick_9">
     <g id="line2d_9">
      <g>
       <use xlink:href="#m17567dded4" x="364.724736" y="273.312" style="stroke: #000000; stroke-width: 0.8"/>
      </g>
     </g>
     <g id="text_9">
      <!-- 9 -->
      <g transform="translate(361.543486 287.910437) scale(0.1 -0.1)">
       <defs>
        <path id="DejaVuSans-39" d="M 703 97 
L 703 672 
Q 941 559 1184 500 
Q 1428 441 1663 441 
Q 2288 441 2617 861 
Q 2947 1281 2994 2138 
Q 2813 1869 2534 1725 
Q 2256 1581 1919 1581 
Q 1219 1581 811 2004 
Q 403 2428 403 3163 
Q 403 3881 828 4315 
Q 1253 4750 1959 4750 
Q 2769 4750 3195 4129 
Q 3622 3509 3622 2328 
Q 3622 1225 3098 567 
Q 2575 -91 1691 -91 
Q 1453 -91 1209 -44 
Q 966 3 703 97 
z
M 1959 2075 
Q 2384 2075 2632 2365 
Q 2881 2656 2881 3163 
Q 2881 3666 2632 3958 
Q 2384 4250 1959 4250 
Q 1534 4250 1286 3958 
Q 1038 3666 1038 3163 
Q 1038 2656 1286 2365 
Q 1534 2075 1959 2075 
z
" transform="scale(0.015625)"/>
       </defs>
       <use xlink:href="#DejaVuSans-39"/>
      </g>
     </g>
    </g>
    <g id="xtick_10">
     <g id="line2d_10">
      <g>
       <use xlink:href="#m17567dded4" x="401.352428" y="273.312" style="stroke: #000000; stroke-width: 0.8"/>
      </g>
     </g>
     <g id="text_10">
      <!-- 10 -->
      <g transform="translate(394.989928 287.910437) scale(0.1 -0.1)">
       <defs>
        <path id="DejaVuSans-30" d="M 2034 4250 
Q 1547 4250 1301 3770 
Q 1056 3291 1056 2328 
Q 1056 1369 1301 889 
Q 1547 409 2034 409 
Q 2525 409 2770 889 
Q 3016 1369 3016 2328 
Q 3016 3291 2770 3770 
Q 2525 4250 2034 4250 
z
M 2034 4750 
Q 2819 4750 3233 4129 
Q 3647 3509 3647 2328 
Q 3647 1150 3233 529 
Q 2819 -91 2034 -91 
Q 1250 -91 836 529 
Q 422 1150 422 2328 
Q 422 3509 836 4129 
Q 1250 4750 2034 4750 
z
" transform="scale(0.015625)"/>
       </defs>
       <use xlink:href="#DejaVuSans-31"/>
       <use xlink:href="#DejaVuSans-30" x="63.623047"/>
      </g>
     </g>
    </g>
    <g id="text_11">
     <!-- $i$ -->
     <g transform="translate(234.287813 306.147625) scale(0.16 -0.16)">
      <defs>
       <path id="DejaVuSans-Oblique-69" d="M 1172 4863 
L 1747 4863 
L 1606 4134 
L 1031 4134 
L 1172 4863 
z
M 909 3500 
L 1484 3500 
L 800 0 
L 225 0 
L 909 3500 
z
" transform="scale(0.015625)"/>
      </defs>
      <use xlink:href="#DejaVuSans-Oblique-69" transform="translate(0 0.015625)"/>
     </g>
    </g>
   </g>
   <g id="matplotlib.axis_2">
    <g id="ytick_1">
     <g id="line2d_11">
      <defs>
       <path id="m6f9711c181" d="M 0 0 
L -3.5 0 
" style="stroke: #000000; stroke-width: 0.8"/>
      </defs>
      <g>
       <use xlink:href="#m6f9711c181" x="57.967813" y="260.537549" style="stroke: #000000; stroke-width: 0.8"/>
      </g>
     </g>
     <g id="text_12">
      <!-- −0.4 -->
      <g transform="translate(26.685 264.336768) scale(0.1 -0.1)">
       <defs>
        <path id="DejaVuSans-2212" d="M 678 2272 
L 4684 2272 
L 4684 1741 
L 678 1741 
L 678 2272 
z
" transform="scale(0.015625)"/>
        <path id="DejaVuSans-2e" d="M 684 794 
L 1344 794 
L 1344 0 
L 684 0 
L 684 794 
z
" transform="scale(0.015625)"/>
       </defs>
       <use xlink:href="#DejaVuSans-2212"/>
       <use xlink:href="#DejaVuSans-30" x="83.789062"/>
       <use xlink:href="#DejaVuSans-2e" x="147.412109"/>
       <use xlink:href="#DejaVuSans-34" x="179.199219"/>
      </g>
     </g>
    </g>
    <g id="ytick_2">
     <g id="line2d_12">
      <g>
       <use xlink:href="#m6f9711c181" x="57.967813" y="224.92697" style="stroke: #000000; stroke-width: 0.8"/>
      </g>
     </g>
     <g id="text_13">
      <!-- −0.2 -->
      <g transform="translate(26.685 228.726189) scale(0.1 -0.1)">
       <use xlink:href="#DejaVuSans-2212"/>
       <use xlink:href="#DejaVuSans-30" x="83.789062"/>
       <use xlink:href="#DejaVuSans-2e" x="147.412109"/>
       <use xlink:href="#DejaVuSans-32" x="179.199219"/>
      </g>
     </g>
    </g>
    <g id="ytick_3">
     <g id="line2d_13">
      <g>
       <use xlink:href="#m6f9711c181" x="57.967813" y="189.316391" style="stroke: #000000; stroke-width: 0.8"/>
      </g>
     </g>
     <g id="text_14">
      <!-- 0.0 -->
      <g transform="translate(35.064687 193.11561) scale(0.1 -0.1)">
       <use xlink:href="#DejaVuSans-30"/>
       <use xlink:href="#DejaVuSans-2e" x="63.623047"/>
       <use xlink:href="#DejaVuSans-30" x="95.410156"/>
      </g>
     </g>
    </g>
    <g id="ytick_4">
     <g id="line2d_14">
      <g>
       <use xlink:href="#m6f9711c181" x="57.967813" y="153.705813" style="stroke: #000000; stroke-width: 0.8"/>
      </g>
     </g>
     <g id="text_15">
      <!-- 0.2 -->
      <g transform="translate(35.064687 157.505032) scale(0.1 -0.1)">
       <use xlink:href="#DejaVuSans-30"/>
       <use xlink:href="#DejaVuSans-2e" x="63.623047"/>
       <use xlink:href="#DejaVuSans-32" x="95.410156"/>
      </g>
     </g>
    </g>
    <g id="ytick_5">
     <g id="line2d_15">
      <g>
       <use xlink:href="#m6f9711c181" x="57.967813" y="118.095234" style="stroke: #000000; stroke-width: 0.8"/>
      </g>
     </g>
     <g id="text_16">
      <!-- 0.4 -->
      <g transform="translate(35.064687 121.894453) scale(0.1 -0.1)">
       <use xlink:href="#DejaVuSans-30"/>
       <use xlink:href="#DejaVuSans-2e" x="63.623047"/>
       <use xlink:href="#DejaVuSans-34" x="95.410156"/>
      </g>
     </g>
    </g>
    <g id="ytick_6">
     <g id="line2d_16">
      <g>
       <use xlink:href="#m6f9711c181" x="57.967813" y="82.484655" style="stroke: #000000; stroke-width: 0.8"/>
      </g>
     </g>
     <g id="text_17">
      <!-- 0.6 -->
      <g transform="translate(35.064687 86.283874) scale(0.1 -0.1)">
       <use xlink:href="#DejaVuSans-30"/>
       <use xlink:href="#DejaVuSans-2e" x="63.623047"/>
       <use xlink:href="#DejaVuSans-36" x="95.410156"/>
      </g>
     </g>
    </g>
    <g id="ytick_7">
     <g id="line2d_17">
      <g>
       <use xlink:href="#m6f9711c181" x="57.967813" y="46.874077" style="stroke: #000000; stroke-width: 0.8"/>
      </g>
     </g>
     <g id="text_18">
      <!-- 0.8 -->
      <g transform="translate(35.064687 50.673295) scale(0.1 -0.1)">
       <use xlink:href="#DejaVuSans-30"/>
       <use xlink:href="#DejaVuSans-2e" x="63.623047"/>
       <use xlink:href="#DejaVuSans-38" x="95.410156"/>
      </g>
     </g>
    </g>
    <g id="ytick_8">
     <g id="line2d_18">
      <g>
       <use xlink:href="#m6f9711c181" x="57.967813" y="11.263498" style="stroke: #000000; stroke-width: 0.8"/>
      </g>
     </g>
     <g id="text_19">
      <!-- 1.0 -->
      <g transform="translate(35.064687 15.062717) scale(0.1 -0.1)">
       <use xlink:href="#DejaVuSans-31"/>
       <use xlink:href="#DejaVuSans-2e" x="63.623047"/>
       <use xlink:href="#DejaVuSans-30" x="95.410156"/>
      </g>
     </g>
    </g>
    <g id="text_20">
     <!-- $w_i$ -->
     <g transform="translate(19.3575 148.576) rotate(-90) scale(0.16 -0.16)">
      <defs>
       <path id="DejaVuSans-Oblique-77" d="M 544 3500 
L 1113 3500 
L 1259 684 
L 2566 3500 
L 3231 3500 
L 3425 684 
L 4666 3500 
L 5241 3500 
L 3641 0 
L 2969 0 
L 2797 2900 
L 1459 0 
L 781 0 
L 544 3500 
z
" transform="scale(0.015625)"/>
      </defs>
      <use xlink:href="#DejaVuSans-Oblique-77" transform="translate(0 0.3125)"/>
      <use xlink:href="#DejaVuSans-Oblique-69" transform="translate(81.787109 -16.09375) scale(0.7)"/>
     </g>
    </g>
   </g>
   <g id="patch_33">
    <path d="M 57.967813 273.312 
L 57.967813 7.2 
" style="fill: none; stroke: #000000; stroke-width: 0.8; stroke-linejoin: miter; stroke-linecap: square"/>
   </g>
   <g id="patch_34">
    <path d="M 415.087813 273.312 
L 415.087813 7.2 
" style="fill: none; stroke: #000000; stroke-width: 0.8; stroke-linejoin: miter; stroke-linecap: square"/>
   </g>
   <g id="patch_35">
    <path d="M 57.967813 273.312 
L 415.087813 273.312 
" style="fill: none; stroke: #000000; stroke-width: 0.8; stroke-linejoin: miter; stroke-linecap: square"/>
   </g>
   <g id="patch_36">
    <path d="M 57.967813 7.2 
L 415.087813 7.2 
" style="fill: none; stroke: #000000; stroke-width: 0.8; stroke-linejoin: miter; stroke-linecap: square"/>
   </g>
  </g>
 </g>
 <defs>
  <clipPath id="pcf91b331ab">
   <rect x="57.967813" y="7.2" width="357.12" height="266.112"/>
  </clipPath>
 </defs>
</svg>