<?xml version="1.0" encoding="utf-8" standalone="no"?>
<!DOCTYPE svg PUBLIC "-//W3C//DTD SVG 1.1//EN"
  "http://www.w3.org/Graphics/SVG/1.1/DTD/svg11.dtd">
<svg xmlns:xlink="http://www.w3.org/1999/xlink" width="422.287812pt" height="334.835125pt" viewBox="0 0 422.287812 334.835125" xmlns="http://www.w3.org/2000/svg" version="1.1">
 <metadata>
  <rdf:RDF xmlns:dc="http://purl.org/dc/elements/1.1/" xmlns:cc="http://creativecommons.org/ns#" xmlns:rdf="http://www.w3.org/1999/02/22-rdf-syntax-ns#">
   <cc:Work>
    <dc:type rdf:resource="http://purl.org/dc/dcmitype/StillImage"/>
    <dc:date>2023-08-19T04:49:04.009377</dc:date>
    <dc:format>image/svg+xml</dc:format>
    <dc:creator>
     <cc:Agent>
      <dc:title>Matplotlib v3.7.2, https://matplotlib.org/</dc:title>
     </cc:Agent>
    </dc:creator>
   </cc:Work>
  </rdf:RDF>
 </metadata>
 <defs>
  <style type="text/css">*{stroke-linejoin: round; stroke-linecap: butt}</style>
 </defs>
 <g id="figure_1">
  <g id="patch_1">
   <path d="M 0 334.835125 
L 422.287812 334.835125 
L 422.287812 0 
L 0 0 
z
" style="fill: #ffffff"/>
  </g>
  <g id="axes_1">
   <g id="patch_2">
    <path d="M 57.967813 291.472 
L 415.087813 291.472 
L 415.087813 25.36 
L 57.967813 25.36 
z
" style="fill: #ffffff"/>
   </g>
   <g id="matplotlib.axis_1">
    <g id="xtick_1">
     <g id="line2d_1">
      <defs>
       <path id="mb3c92caf28" d="M 0 0 
L 0 3.5 
" style="stroke: #000000; stroke-width: 0.8"/>
      </defs>
      <g>
       <use xlink:href="#mb3c92caf28" x="74.20054" y="291.472" style="stroke: #000000; stroke-width: 0.8"/>
      </g>
     </g>
     <g id="text_1">
      <!-- $\mathdefault{10^{-4}}$ -->
      <g transform="translate(62.45054 306.070437) scale(0.1 -0.1)">
       <defs>
        <path id="DejaVuSans-31" d="M 794 531 
L 1825 531 
L 1825 4091 
L 703 3866 
L 703 4441 
L 1819 4666 
L 2450 4666 
L 2450 531 
L 3481 531 
L 3481 0 
L 794 0 
L 794 531 
z
" transform="scale(0.015625)"/>
        <path id="DejaVuSans-30" d="M 2034 4250 
Q 1547 4250 1301 3770 
Q 1056 3291 1056 2328 
Q 1056 1369 1301 889 
Q 1547 409 2034 409 
Q 2525 409 2770 889 
Q 3016 1369 3016 2328 
Q 3016 3291 2770 3770 
Q 2525 4250 2034 4250 
z
M 2034 4750 
Q 2819 4750 3233 4129 
Q 3647 3509 3647 2328 
Q 3647 1150 3233 529 
Q 2819 -91 2034 -91 
Q 1250 -91 836 529 
Q 422 1150 422 2328 
Q 422 3509 836 4129 
Q 1250 4750 2034 4750 
z
" transform="scale(0.015625)"/>
        <path id="DejaVuSans-2212" d="M 678 2272 
L 4684 2272 
L 4684 1741 
L 678 1741 
L 678 2272 
z
" transform="scale(0.015625)"/>
        <path id="DejaVuSans-34" d="M 2419 4116 
L 825 1625 
L 2419 1625 
L 2419 4116 
z
M 2253 4666 
L 3047 4666 
L 3047 1625 
L 3713 1625 
L 3713 1100 
L 3047 1100 
L 3047 0 
L 2419 0 
L 2419 1100 
L 313 1100 
L 313 1709 
L 2253 4666 
z
" transform="scale(0.015625)"/>
       </defs>
       <use xlink:href="#DejaVuSans-31" transform="translate(0 0.684375)"/>
       <use xlink:href="#DejaVuSans-30" transform="translate(63.623047 0.684375)"/>
       <use xlink:href="#DejaVuSans-2212" transform="translate(128.203125 38.965625) scale(0.7)"/>
       <use xlink:href="#DejaVuSans-34" transform="translate(186.855469 38.965625) scale(0.7)"/>
      </g>
     </g>
    </g>
    <g id="xtick_2">
     <g id="line2d_2">
      <g>
       <use xlink:href="#mb3c92caf28" x="128.309631" y="291.472" style="stroke: #000000; stroke-width: 0.8"/>
      </g>
     </g>
     <g id="text_2">
      <!-- $\mathdefault{10^{-3}}$ -->
      <g transform="translate(116.559631 306.070437) scale(0.1 -0.1)">
       <defs>
        <path id="DejaVuSans-33" d="M 2597 2516 
Q 3050 2419 3304 2112 
Q 3559 1806 3559 1356 
Q 3559 666 3084 287 
Q 2609 -91 1734 -91 
Q 1441 -91 1130 -33 
Q 819 25 488 141 
L 488 750 
Q 750 597 1062 519 
Q 1375 441 1716 441 
Q 2309 441 2620 675 
Q 2931 909 2931 1356 
Q 2931 1769 2642 2001 
Q 2353 2234 1838 2234 
L 1294 2234 
L 1294 2753 
L 1863 2753 
Q 2328 2753 2575 2939 
Q 2822 3125 2822 3475 
Q 2822 3834 2567 4026 
Q 2313 4219 1838 4219 
Q 1578 4219 1281 4162 
Q 984 4106 628 3988 
L 628 4550 
Q 988 4650 1302 4700 
Q 1616 4750 1894 4750 
Q 2613 4750 3031 4423 
Q 3450 4097 3450 3541 
Q 3450 3153 3228 2886 
Q 3006 2619 2597 2516 
z
" transform="scale(0.015625)"/>
       </defs>
       <use xlink:href="#DejaVuSans-31" transform="translate(0 0.765625)"/>
       <use xlink:href="#DejaVuSans-30" transform="translate(63.623047 0.765625)"/>
       <use xlink:href="#DejaVuSans-2212" transform="translate(128.203125 39.046875) scale(0.7)"/>
       <use xlink:href="#DejaVuSans-33" transform="translate(186.855469 39.046875) scale(0.7)"/>
      </g>
     </g>
    </g>
    <g id="xtick_3">
     <g id="line2d_3">
      <g>
       <use xlink:href="#mb3c92caf28" x="182.418722" y="291.472" style="stroke: #000000; stroke-width: 0.8"/>
      </g>
     </g>
     <g id="text_3">
      <!-- $\mathdefault{10^{-2}}$ -->
      <g transform="translate(170.668722 306.070437) scale(0.1 -0.1)">
       <defs>
        <path id="DejaVuSans-32" d="M 1228 531 
L 3431 531 
L 3431 0 
L 469 0 
L 469 531 
Q 828 903 1448 1529 
Q 2069 2156 2228 2338 
Q 2531 2678 2651 2914 
Q 2772 3150 2772 3378 
Q 2772 3750 2511 3984 
Q 2250 4219 1831 4219 
Q 1534 4219 1204 4116 
Q 875 4013 500 3803 
L 500 4441 
Q 881 4594 1212 4672 
Q 1544 4750 1819 4750 
Q 2544 4750 2975 4387 
Q 3406 4025 3406 3419 
Q 3406 3131 3298 2873 
Q 3191 2616 2906 2266 
Q 2828 2175 2409 1742 
Q 1991 1309 1228 531 
z
" transform="scale(0.015625)"/>
       </defs>
       <use xlink:href="#DejaVuSans-31" transform="translate(0 0.765625)"/>
       <use xlink:href="#DejaVuSans-30" transform="translate(63.623047 0.765625)"/>
       <use xlink:href="#DejaVuSans-2212" transform="translate(128.203125 39.046875) scale(0.7)"/>
       <use xlink:href="#DejaVuSans-32" transform="translate(186.855469 39.046875) scale(0.7)"/>
      </g>
     </g>
    </g>
    <g id="xtick_4">
     <g id="line2d_4">
      <g>
       <use xlink:href="#mb3c92caf28" x="236.527813" y="291.472" style="stroke: #000000; stroke-width: 0.8"/>
      </g>
     </g>
     <g id="text_4">
      <!-- $\mathdefault{10^{-1}}$ -->
      <g transform="translate(224.777813 306.070437) scale(0.1 -0.1)">
       <use xlink:href="#DejaVuSans-31" transform="translate(0 0.684375)"/>
       <use xlink:href="#DejaVuSans-30" transform="translate(63.623047 0.684375)"/>
       <use xlink:href="#DejaVuSans-2212" transform="translate(128.203125 38.965625) scale(0.7)"/>
       <use xlink:href="#DejaVuSans-31" transform="translate(186.855469 38.965625) scale(0.7)"/>
      </g>
     </g>
    </g>
    <g id="xtick_5">
     <g id="line2d_5">
      <g>
       <use xlink:href="#mb3c92caf28" x="290.636903" y="291.472" style="stroke: #000000; stroke-width: 0.8"/>
      </g>
     </g>
     <g id="text_5">
      <!-- $\mathdefault{10^{0}}$ -->
      <g transform="translate(281.836903 306.070437) scale(0.1 -0.1)">
       <use xlink:href="#DejaVuSans-31" transform="translate(0 0.765625)"/>
       <use xlink:href="#DejaVuSans-30" transform="translate(63.623047 0.765625)"/>
       <use xlink:href="#DejaVuSans-30" transform="translate(128.203125 39.046875) scale(0.7)"/>
      </g>
     </g>
    </g>
    <g id="xtick_6">
     <g id="line2d_6">
      <g>
       <use xlink:href="#mb3c92caf28" x="344.745994" y="291.472" style="stroke: #000000; stroke-width: 0.8"/>
      </g>
     </g>
     <g id="text_6">
      <!-- $\mathdefault{10^{1}}$ -->
      <g transform="translate(335.945994 306.070437) scale(0.1 -0.1)">
       <use xlink:href="#DejaVuSans-31" transform="translate(0 0.684375)"/>
       <use xlink:href="#DejaVuSans-30" transform="translate(63.623047 0.684375)"/>
       <use xlink:href="#DejaVuSans-31" transform="translate(128.203125 38.965625) scale(0.7)"/>
      </g>
     </g>
    </g>
    <g id="xtick_7">
     <g id="line2d_7">
      <g>
       <use xlink:href="#mb3c92caf28" x="398.855085" y="291.472" style="stroke: #000000; stroke-width: 0.8"/>
      </g>
     </g>
     <g id="text_7">
      <!-- $\mathdefault{10^{2}}$ -->
      <g transform="translate(390.055085 306.070437) scale(0.1 -0.1)">
       <use xlink:href="#DejaVuSans-31" transform="translate(0 0.765625)"/>
       <use xlink:href="#DejaVuSans-30" transform="translate(63.623047 0.765625)"/>
       <use xlink:href="#DejaVuSans-32" transform="translate(128.203125 39.046875) scale(0.7)"/>
      </g>
     </g>
    </g>
    <g id="xtick_8">
     <g id="line2d_8">
      <defs>
       <path id="mf9dfc8ae91" d="M 0 0 
L 0 2 
" style="stroke: #000000; stroke-width: 0.6"/>
      </defs>
      <g>
       <use xlink:href="#mf9dfc8ae91" x="62.196506" y="291.472" style="stroke: #000000; stroke-width: 0.6"/>
      </g>
     </g>
    </g>
    <g id="xtick_9">
     <g id="line2d_9">
      <g>
       <use xlink:href="#mf9dfc8ae91" x="65.818936" y="291.472" style="stroke: #000000; stroke-width: 0.6"/>
      </g>
     </g>
    </g>
    <g id="xtick_10">
     <g id="line2d_10">
      <g>
       <use xlink:href="#mf9dfc8ae91" x="68.956827" y="291.472" style="stroke: #000000; stroke-width: 0.6"/>
      </g>
     </g>
    </g>
    <g id="xtick_11">
     <g id="line2d_11">
      <g>
       <use xlink:href="#mf9dfc8ae91" x="71.724644" y="291.472" style="stroke: #000000; stroke-width: 0.6"/>
      </g>
     </g>
    </g>
    <g id="xtick_12">
     <g id="line2d_12">
      <g>
       <use xlink:href="#mf9dfc8ae91" x="90.488999" y="291.472" style="stroke: #000000; stroke-width: 0.6"/>
      </g>
     </g>
    </g>
    <g id="xtick_13">
     <g id="line2d_13">
      <g>
       <use xlink:href="#mf9dfc8ae91" x="100.017137" y="291.472" style="stroke: #000000; stroke-width: 0.6"/>
      </g>
     </g>
    </g>
    <g id="xtick_14">
     <g id="line2d_14">
      <g>
       <use xlink:href="#mf9dfc8ae91" x="106.777459" y="291.472" style="stroke: #000000; stroke-width: 0.6"/>
      </g>
     </g>
    </g>
    <g id="xtick_15">
     <g id="line2d_15">
      <g>
       <use xlink:href="#mf9dfc8ae91" x="112.021171" y="291.472" style="stroke: #000000; stroke-width: 0.6"/>
      </g>
     </g>
    </g>
    <g id="xtick_16">
     <g id="line2d_16">
      <g>
       <use xlink:href="#mf9dfc8ae91" x="116.305597" y="291.472" style="stroke: #000000; stroke-width: 0.6"/>
      </g>
     </g>
    </g>
    <g id="xtick_17">
     <g id="line2d_17">
      <g>
       <use xlink:href="#mf9dfc8ae91" x="119.928026" y="291.472" style="stroke: #000000; stroke-width: 0.6"/>
      </g>
     </g>
    </g>
    <g id="xtick_18">
     <g id="line2d_18">
      <g>
       <use xlink:href="#mf9dfc8ae91" x="123.065918" y="291.472" style="stroke: #000000; stroke-width: 0.6"/>
      </g>
     </g>
    </g>
    <g id="xtick_19">
     <g id="line2d_19">
      <g>
       <use xlink:href="#mf9dfc8ae91" x="125.833734" y="291.472" style="stroke: #000000; stroke-width: 0.6"/>
      </g>
     </g>
    </g>
    <g id="xtick_20">
     <g id="line2d_20">
      <g>
       <use xlink:href="#mf9dfc8ae91" x="144.59809" y="291.472" style="stroke: #000000; stroke-width: 0.6"/>
      </g>
     </g>
    </g>
    <g id="xtick_21">
     <g id="line2d_21">
      <g>
       <use xlink:href="#mf9dfc8ae91" x="154.126228" y="291.472" style="stroke: #000000; stroke-width: 0.6"/>
      </g>
     </g>
    </g>
    <g id="xtick_22">
     <g id="line2d_22">
      <g>
       <use xlink:href="#mf9dfc8ae91" x="160.886549" y="291.472" style="stroke: #000000; stroke-width: 0.6"/>
      </g>
     </g>
    </g>
    <g id="xtick_23">
     <g id="line2d_23">
      <g>
       <use xlink:href="#mf9dfc8ae91" x="166.130262" y="291.472" style="stroke: #000000; stroke-width: 0.6"/>
      </g>
     </g>
    </g>
    <g id="xtick_24">
     <g id="line2d_24">
      <g>
       <use xlink:href="#mf9dfc8ae91" x="170.414687" y="291.472" style="stroke: #000000; stroke-width: 0.6"/>
      </g>
     </g>
    </g>
    <g id="xtick_25">
     <g id="line2d_25">
      <g>
       <use xlink:href="#mf9dfc8ae91" x="174.037117" y="291.472" style="stroke: #000000; stroke-width: 0.6"/>
      </g>
     </g>
    </g>
    <g id="xtick_26">
     <g id="line2d_26">
      <g>
       <use xlink:href="#mf9dfc8ae91" x="177.175009" y="291.472" style="stroke: #000000; stroke-width: 0.6"/>
      </g>
     </g>
    </g>
    <g id="xtick_27">
     <g id="line2d_27">
      <g>
       <use xlink:href="#mf9dfc8ae91" x="179.942825" y="291.472" style="stroke: #000000; stroke-width: 0.6"/>
      </g>
     </g>
    </g>
    <g id="xtick_28">
     <g id="line2d_28">
      <g>
       <use xlink:href="#mf9dfc8ae91" x="198.707181" y="291.472" style="stroke: #000000; stroke-width: 0.6"/>
      </g>
     </g>
    </g>
    <g id="xtick_29">
     <g id="line2d_29">
      <g>
       <use xlink:href="#mf9dfc8ae91" x="208.235319" y="291.472" style="stroke: #000000; stroke-width: 0.6"/>
      </g>
     </g>
    </g>
    <g id="xtick_30">
     <g id="line2d_30">
      <g>
       <use xlink:href="#mf9dfc8ae91" x="214.99564" y="291.472" style="stroke: #000000; stroke-width: 0.6"/>
      </g>
     </g>
    </g>
    <g id="xtick_31">
     <g id="line2d_31">
      <g>
       <use xlink:href="#mf9dfc8ae91" x="220.239353" y="291.472" style="stroke: #000000; stroke-width: 0.6"/>
      </g>
     </g>
    </g>
    <g id="xtick_32">
     <g id="line2d_32">
      <g>
       <use xlink:href="#mf9dfc8ae91" x="224.523778" y="291.472" style="stroke: #000000; stroke-width: 0.6"/>
      </g>
     </g>
    </g>
    <g id="xtick_33">
     <g id="line2d_33">
      <g>
       <use xlink:href="#mf9dfc8ae91" x="228.146208" y="291.472" style="stroke: #000000; stroke-width: 0.6"/>
      </g>
     </g>
    </g>
    <g id="xtick_34">
     <g id="line2d_34">
      <g>
       <use xlink:href="#mf9dfc8ae91" x="231.2841" y="291.472" style="stroke: #000000; stroke-width: 0.6"/>
      </g>
     </g>
    </g>
    <g id="xtick_35">
     <g id="line2d_35">
      <g>
       <use xlink:href="#mf9dfc8ae91" x="234.051916" y="291.472" style="stroke: #000000; stroke-width: 0.6"/>
      </g>
     </g>
    </g>
    <g id="xtick_36">
     <g id="line2d_36">
      <g>
       <use xlink:href="#mf9dfc8ae91" x="252.816272" y="291.472" style="stroke: #000000; stroke-width: 0.6"/>
      </g>
     </g>
    </g>
    <g id="xtick_37">
     <g id="line2d_37">
      <g>
       <use xlink:href="#mf9dfc8ae91" x="262.34441" y="291.472" style="stroke: #000000; stroke-width: 0.6"/>
      </g>
     </g>
    </g>
    <g id="xtick_38">
     <g id="line2d_38">
      <g>
       <use xlink:href="#mf9dfc8ae91" x="269.104731" y="291.472" style="stroke: #000000; stroke-width: 0.6"/>
      </g>
     </g>
    </g>
    <g id="xtick_39">
     <g id="line2d_39">
      <g>
       <use xlink:href="#mf9dfc8ae91" x="274.348444" y="291.472" style="stroke: #000000; stroke-width: 0.6"/>
      </g>
     </g>
    </g>
    <g id="xtick_40">
     <g id="line2d_40">
      <g>
       <use xlink:href="#mf9dfc8ae91" x="278.632869" y="291.472" style="stroke: #000000; stroke-width: 0.6"/>
      </g>
     </g>
    </g>
    <g id="xtick_41">
     <g id="line2d_41">
      <g>
       <use xlink:href="#mf9dfc8ae91" x="282.255299" y="291.472" style="stroke: #000000; stroke-width: 0.6"/>
      </g>
     </g>
    </g>
    <g id="xtick_42">
     <g id="line2d_42">
      <g>
       <use xlink:href="#mf9dfc8ae91" x="285.393191" y="291.472" style="stroke: #000000; stroke-width: 0.6"/>
      </g>
     </g>
    </g>
    <g id="xtick_43">
     <g id="line2d_43">
      <g>
       <use xlink:href="#mf9dfc8ae91" x="288.161007" y="291.472" style="stroke: #000000; stroke-width: 0.6"/>
      </g>
     </g>
    </g>
    <g id="xtick_44">
     <g id="line2d_44">
      <g>
       <use xlink:href="#mf9dfc8ae91" x="306.925363" y="291.472" style="stroke: #000000; stroke-width: 0.6"/>
      </g>
     </g>
    </g>
    <g id="xtick_45">
     <g id="line2d_45">
      <g>
       <use xlink:href="#mf9dfc8ae91" x="316.453501" y="291.472" style="stroke: #000000; stroke-width: 0.6"/>
      </g>
     </g>
    </g>
    <g id="xtick_46">
     <g id="line2d_46">
      <g>
       <use xlink:href="#mf9dfc8ae91" x="323.213822" y="291.472" style="stroke: #000000; stroke-width: 0.6"/>
      </g>
     </g>
    </g>
    <g id="xtick_47">
     <g id="line2d_47">
      <g>
       <use xlink:href="#mf9dfc8ae91" x="328.457535" y="291.472" style="stroke: #000000; stroke-width: 0.6"/>
      </g>
     </g>
    </g>
    <g id="xtick_48">
     <g id="line2d_48">
      <g>
       <use xlink:href="#mf9dfc8ae91" x="332.74196" y="291.472" style="stroke: #000000; stroke-width: 0.6"/>
      </g>
     </g>
    </g>
    <g id="xtick_49">
     <g id="line2d_49">
      <g>
       <use xlink:href="#mf9dfc8ae91" x="336.36439" y="291.472" style="stroke: #000000; stroke-width: 0.6"/>
      </g>
     </g>
    </g>
    <g id="xtick_50">
     <g id="line2d_50">
      <g>
       <use xlink:href="#mf9dfc8ae91" x="339.502282" y="291.472" style="stroke: #000000; stroke-width: 0.6"/>
      </g>
     </g>
    </g>
    <g id="xtick_51">
     <g id="line2d_51">
      <g>
       <use xlink:href="#mf9dfc8ae91" x="342.270098" y="291.472" style="stroke: #000000; stroke-width: 0.6"/>
      </g>
     </g>
    </g>
    <g id="xtick_52">
     <g id="line2d_52">
      <g>
       <use xlink:href="#mf9dfc8ae91" x="361.034454" y="291.472" style="stroke: #000000; stroke-width: 0.6"/>
      </g>
     </g>
    </g>
    <g id="xtick_53">
     <g id="line2d_53">
      <g>
       <use xlink:href="#mf9dfc8ae91" x="370.562592" y="291.472" style="stroke: #000000; stroke-width: 0.6"/>
      </g>
     </g>
    </g>
    <g id="xtick_54">
     <g id="line2d_54">
      <g>
       <use xlink:href="#mf9dfc8ae91" x="377.322913" y="291.472" style="stroke: #000000; stroke-width: 0.6"/>
      </g>
     </g>
    </g>
    <g id="xtick_55">
     <g id="line2d_55">
      <g>
       <use xlink:href="#mf9dfc8ae91" x="382.566626" y="291.472" style="stroke: #000000; stroke-width: 0.6"/>
      </g>
     </g>
    </g>
    <g id="xtick_56">
     <g id="line2d_56">
      <g>
       <use xlink:href="#mf9dfc8ae91" x="386.851051" y="291.472" style="stroke: #000000; stroke-width: 0.6"/>
      </g>
     </g>
    </g>
    <g id="xtick_57">
     <g id="line2d_57">
      <g>
       <use xlink:href="#mf9dfc8ae91" x="390.473481" y="291.472" style="stroke: #000000; stroke-width: 0.6"/>
      </g>
     </g>
    </g>
    <g id="xtick_58">
     <g id="line2d_58">
      <g>
       <use xlink:href="#mf9dfc8ae91" x="393.611373" y="291.472" style="stroke: #000000; stroke-width: 0.6"/>
      </g>
     </g>
    </g>
    <g id="xtick_59">
     <g id="line2d_59">
      <g>
       <use xlink:href="#mf9dfc8ae91" x="396.379189" y="291.472" style="stroke: #000000; stroke-width: 0.6"/>
      </g>
     </g>
    </g>
    <g id="text_8">
     <!-- $\gamma$ -->
     <g transform="translate(231.727813 324.275125) scale(0.16 -0.16)">
      <defs>
       <path id="DejaVuSans-Oblique-3b3" d="M 1491 2950 
L 1838 788 
L 3456 3500 
L 4066 3500 
L 1972 0 
L 1713 -1331 
L 1138 -1331 
L 1397 0 
L 988 2613 
Q 925 3006 628 3006 
L 475 3006 
L 569 3500 
L 788 3500 
Q 1403 3500 1491 2950 
z
" transform="scale(0.015625)"/>
      </defs>
      <use xlink:href="#DejaVuSans-Oblique-3b3" transform="translate(0 0.3125)"/>
     </g>
    </g>
   </g>
   <g id="matplotlib.axis_2">
    <g id="ytick_1">
     <g id="line2d_60">
      <defs>
       <path id="mf7f44ec383" d="M 0 0 
L -3.5 0 
" style="stroke: #000000; stroke-width: 0.8"/>
      </defs>
      <g>
       <use xlink:href="#mf7f44ec383" x="57.967813" y="263.735961" style="stroke: #000000; stroke-width: 0.8"/>
      </g>
     </g>
     <g id="text_9">
      <!-- −0.8 -->
      <g transform="translate(26.685 267.53518) scale(0.1 -0.1)">
       <defs>
        <path id="DejaVuSans-2e" d="M 684 794 
L 1344 794 
L 1344 0 
L 684 0 
L 684 794 
z
" transform="scale(0.015625)"/>
        <path id="DejaVuSans-38" d="M 2034 2216 
Q 1584 2216 1326 1975 
Q 1069 1734 1069 1313 
Q 1069 891 1326 650 
Q 1584 409 2034 409 
Q 2484 409 2743 651 
Q 3003 894 3003 1313 
Q 3003 1734 2745 1975 
Q 2488 2216 2034 2216 
z
M 1403 2484 
Q 997 2584 770 2862 
Q 544 3141 544 3541 
Q 544 4100 942 4425 
Q 1341 4750 2034 4750 
Q 2731 4750 3128 4425 
Q 3525 4100 3525 3541 
Q 3525 3141 3298 2862 
Q 3072 2584 2669 2484 
Q 3125 2378 3379 2068 
Q 3634 1759 3634 1313 
Q 3634 634 3220 271 
Q 2806 -91 2034 -91 
Q 1263 -91 848 271 
Q 434 634 434 1313 
Q 434 1759 690 2068 
Q 947 2378 1403 2484 
z
M 1172 3481 
Q 1172 3119 1398 2916 
Q 1625 2713 2034 2713 
Q 2441 2713 2670 2916 
Q 2900 3119 2900 3481 
Q 2900 3844 2670 4047 
Q 2441 4250 2034 4250 
Q 1625 4250 1398 4047 
Q 1172 3844 1172 3481 
z
" transform="scale(0.015625)"/>
       </defs>
       <use xlink:href="#DejaVuSans-2212"/>
       <use xlink:href="#DejaVuSans-30" x="83.789062"/>
       <use xlink:href="#DejaVuSans-2e" x="147.412109"/>
       <use xlink:href="#DejaVuSans-38" x="179.199219"/>
      </g>
     </g>
    </g>
    <g id="ytick_2">
     <g id="line2d_61">
      <g>
       <use xlink:href="#mf7f44ec383" x="57.967813" y="228.708702" style="stroke: #000000; stroke-width: 0.8"/>
      </g>
     </g>
     <g id="text_10">
      <!-- −0.6 -->
      <g transform="translate(26.685 232.507921) scale(0.1 -0.1)">
       <defs>
        <path id="DejaVuSans-36" d="M 2113 2584 
Q 1688 2584 1439 2293 
Q 1191 2003 1191 1497 
Q 1191 994 1439 701 
Q 1688 409 2113 409 
Q 2538 409 2786 701 
Q 3034 994 3034 1497 
Q 3034 2003 2786 2293 
Q 2538 2584 2113 2584 
z
M 3366 4563 
L 3366 3988 
Q 3128 4100 2886 4159 
Q 2644 4219 2406 4219 
Q 1781 4219 1451 3797 
Q 1122 3375 1075 2522 
Q 1259 2794 1537 2939 
Q 1816 3084 2150 3084 
Q 2853 3084 3261 2657 
Q 3669 2231 3669 1497 
Q 3669 778 3244 343 
Q 2819 -91 2113 -91 
Q 1303 -91 875 529 
Q 447 1150 447 2328 
Q 447 3434 972 4092 
Q 1497 4750 2381 4750 
Q 2619 4750 2861 4703 
Q 3103 4656 3366 4563 
z
" transform="scale(0.015625)"/>
       </defs>
       <use xlink:href="#DejaVuSans-2212"/>
       <use xlink:href="#DejaVuSans-30" x="83.789062"/>
       <use xlink:href="#DejaVuSans-2e" x="147.412109"/>
       <use xlink:href="#DejaVuSans-36" x="179.199219"/>
      </g>
     </g>
    </g>
    <g id="ytick_3">
     <g id="line2d_62">
      <g>
       <use xlink:href="#mf7f44ec383" x="57.967813" y="193.681443" style="stroke: #000000; stroke-width: 0.8"/>
      </g>
     </g>
     <g id="text_11">
      <!-- −0.4 -->
      <g transform="translate(26.685 197.480661) scale(0.1 -0.1)">
       <use xlink:href="#DejaVuSans-2212"/>
       <use xlink:href="#DejaVuSans-30" x="83.789062"/>
       <use xlink:href="#DejaVuSans-2e" x="147.412109"/>
       <use xlink:href="#DejaVuSans-34" x="179.199219"/>
      </g>
     </g>
    </g>
    <g id="ytick_4">
     <g id="line2d_63">
      <g>
       <use xlink:href="#mf7f44ec383" x="57.967813" y="158.654184" style="stroke: #000000; stroke-width: 0.8"/>
      </g>
     </g>
     <g id="text_12">
      <!-- −0.2 -->
      <g transform="translate(26.685 162.453402) scale(0.1 -0.1)">
       <use xlink:href="#DejaVuSans-2212"/>
       <use xlink:href="#DejaVuSans-30" x="83.789062"/>
       <use xlink:href="#DejaVuSans-2e" x="147.412109"/>
       <use xlink:href="#DejaVuSans-32" x="179.199219"/>
      </g>
     </g>
    </g>
    <g id="ytick_5">
     <g id="line2d_64">
      <g>
       <use xlink:href="#mf7f44ec383" x="57.967813" y="123.626924" style="stroke: #000000; stroke-width: 0.8"/>
      </g>
     </g>
     <g id="text_13">
      <!-- 0.0 -->
      <g transform="translate(35.064687 127.426143) scale(0.1 -0.1)">
       <use xlink:href="#DejaVuSans-30"/>
       <use xlink:href="#DejaVuSans-2e" x="63.623047"/>
       <use xlink:href="#DejaVuSans-30" x="95.410156"/>
      </g>
     </g>
    </g>
    <g id="ytick_6">
     <g id="line2d_65">
      <g>
       <use xlink:href="#mf7f44ec383" x="57.967813" y="88.599665" style="stroke: #000000; stroke-width: 0.8"/>
      </g>
     </g>
     <g id="text_14">
      <!-- 0.2 -->
      <g transform="translate(35.064687 92.398884) scale(0.1 -0.1)">
       <use xlink:href="#DejaVuSans-30"/>
       <use xlink:href="#DejaVuSans-2e" x="63.623047"/>
       <use xlink:href="#DejaVuSans-32" x="95.410156"/>
      </g>
     </g>
    </g>
    <g id="ytick_7">
     <g id="line2d_66">
      <g>
       <use xlink:href="#mf7f44ec383" x="57.967813" y="53.572406" style="stroke: #000000; stroke-width: 0.8"/>
      </g>
     </g>
     <g id="text_15">
      <!-- 0.4 -->
      <g transform="translate(35.064687 57.371625) scale(0.1 -0.1)">
       <use xlink:href="#DejaVuSans-30"/>
       <use xlink:href="#DejaVuSans-2e" x="63.623047"/>
       <use xlink:href="#DejaVuSans-34" x="95.410156"/>
      </g>
     </g>
    </g>
    <g id="text_16">
     <!-- $x_i$ -->
     <g transform="translate(19.3575 164.976) rotate(-90) scale(0.16 -0.16)">
      <defs>
       <path id="DejaVuSans-Oblique-78" d="M 3841 3500 
L 2234 1784 
L 3219 0 
L 2559 0 
L 1819 1388 
L 531 0 
L -166 0 
L 1556 1844 
L 641 3500 
L 1300 3500 
L 1972 2234 
L 3144 3500 
L 3841 3500 
z
" transform="scale(0.015625)"/>
       <path id="DejaVuSans-Oblique-69" d="M 1172 4863 
L 1747 4863 
L 1606 4134 
L 1031 4134 
L 1172 4863 
z
M 909 3500 
L 1484 3500 
L 800 0 
L 225 0 
L 909 3500 
z
" transform="scale(0.015625)"/>
      </defs>
      <use xlink:href="#DejaVuSans-Oblique-78" transform="translate(0 0.3125)"/>
      <use xlink:href="#DejaVuSans-Oblique-69" transform="translate(59.179688 -16.09375) scale(0.7)"/>
     </g>
    </g>
   </g>
   <g id="line2d_67">
    <path d="M 74.20054 75.861492 
L 77.479879 75.86174 
L 80.759217 75.861882 
L 84.038556 75.862206 
L 87.317895 75.862586 
L 90.597234 75.863021 
L 93.876573 75.863525 
L 97.155912 75.8641 
L 100.435251 75.864745 
L 103.714589 75.865483 
L 106.993928 75.866336 
L 110.273267 75.867323 
L 113.552606 75.8683 
L 116.831945 75.86937 
L 120.111284 75.870738 
L 123.390622 75.872364 
L 126.669961 75.874278 
L 129.9493 75.876523 
L 133.228639 75.879148 
L 136.507978 75.882209 
L 139.787317 75.885771 
L 143.066655 75.889901 
L 146.345994 75.894675 
L 149.625333 75.90017 
L 152.904672 75.906449 
L 156.184011 75.91364 
L 159.46335 75.921858 
L 162.742689 75.931273 
L 166.022027 75.942045 
L 169.301366 75.954411 
L 172.580705 75.968589 
L 175.860044 75.984839 
L 179.139383 76.003517 
L 182.418722 76.025043 
L 185.69806 76.049846 
L 188.977399 76.078382 
L 192.256738 76.111263 
L 195.536077 76.149301 
L 198.815416 76.191947 
L 202.094755 76.240341 
L 205.374093 76.296546 
L 208.653432 76.361396 
L 211.932771 76.436306 
L 215.21211 76.522119 
L 218.491449 76.62039 
L 221.770788 76.733328 
L 225.050127 76.866476 
L 228.329465 77.017383 
L 231.608804 77.191004 
L 234.888143 77.390604 
L 238.167482 77.620062 
L 241.446821 77.883721 
L 244.72616 78.187212 
L 248.005498 78.535792 
L 251.284837 78.936562 
L 254.564176 79.397281 
L 257.843515 79.927185 
L 261.122854 80.535707 
L 264.402193 81.236115 
L 267.681532 82.042472 
L 270.96087 82.966736 
L 274.240209 84.029454 
L 277.519548 85.250056 
L 280.798887 86.657558 
L 284.078226 88.27651 
L 287.357565 90.136222 
L 290.636903 92.273646 
L 293.916242 94.732001 
L 297.195581 97.559214 
L 300.47492 100.809615 
L 303.754259 104.546598 
L 307.033598 108.845673 
L 310.312936 113.784639 
L 313.592275 119.465713 
L 316.871614 123.626916 
L 320.150953 123.626924 
L 323.430292 123.626924 
L 326.709631 123.626924 
L 329.98897 123.626924 
L 333.268308 123.626925 
L 336.547647 123.626925 
L 339.826986 123.626925 
L 343.106325 123.626924 
L 346.385664 123.626925 
L 349.665003 123.626924 
L 352.944341 123.626924 
L 356.22368 123.626925 
L 359.503019 123.626924 
L 362.782358 123.626924 
L 366.061697 123.626924 
L 369.341036 123.626924 
L 372.620374 123.626924 
L 375.899713 123.626924 
L 379.179052 123.626924 
L 382.458391 123.626924 
L 385.73773 123.626924 
L 389.017069 123.626924 
L 392.296408 123.626924 
L 395.575746 123.626924 
L 398.855085 123.626924 
" clip-path="url(#pcf83e1100f)" style="fill: none; stroke: #1f77b4; stroke-width: 1.5; stroke-linecap: square"/>
   </g>
   <g id="line2d_68">
    <path d="M 74.20054 159.725294 
L 77.479879 159.725268 
L 80.759217 159.725221 
L 84.038556 159.725186 
L 87.317895 159.725148 
L 90.597234 159.725104 
L 93.876573 159.725054 
L 97.155912 159.724996 
L 100.435251 159.72493 
L 103.714589 159.724853 
L 106.993928 159.724764 
L 110.273267 159.724659 
L 113.552606 159.724545 
L 116.831945 159.724412 
L 120.111284 159.724251 
L 123.390622 159.724063 
L 126.669961 159.723844 
L 129.9493 159.723591 
L 133.228639 159.723298 
L 136.507978 159.72296 
L 139.787317 159.722573 
L 143.066655 159.722129 
L 146.345994 159.721625 
L 149.625333 159.721055 
L 152.904672 159.7204 
L 156.184011 159.71966 
L 159.46335 159.718821 
L 162.742689 159.717845 
L 166.022027 159.716738 
L 169.301366 159.715457 
L 172.580705 159.71399 
L 175.860044 159.71231 
L 179.139383 159.710372 
L 182.418722 159.708124 
L 185.69806 159.705521 
L 188.977399 159.70252 
L 192.256738 159.699044 
L 195.536077 159.694983 
L 198.815416 159.690448 
L 202.094755 159.685435 
L 205.374093 159.67975 
L 208.653432 159.673094 
L 211.932771 159.664975 
L 215.21211 159.655858 
L 218.491449 159.645299 
L 221.770788 159.633214 
L 225.050127 159.620278 
L 228.329465 159.604615 
L 231.608804 159.586601 
L 234.888143 159.56587 
L 238.167482 159.54202 
L 241.446821 159.514713 
L 244.72616 159.48301 
L 248.005498 159.446673 
L 251.284837 159.404923 
L 254.564176 159.356944 
L 257.843515 159.3007 
L 261.122854 159.237875 
L 264.402193 159.164636 
L 267.681532 159.078822 
L 270.96087 158.982869 
L 274.240209 158.872975 
L 277.519548 158.746476 
L 280.798887 158.600003 
L 284.078226 158.431318 
L 287.357565 158.23743 
L 290.636903 158.014456 
L 293.916242 157.758053 
L 297.195581 157.46338 
L 300.47492 157.124614 
L 303.754259 156.73514 
L 307.033598 156.285893 
L 310.312936 155.772656 
L 313.592275 155.180425 
L 316.871614 154.481885 
L 320.150953 152.590916 
L 323.430292 150.854839 
L 326.709631 149.107355 
L 329.98897 147.099139 
L 333.268308 144.592655 
L 336.547647 141.669626 
L 339.826986 138.310598 
L 343.106325 133.801678 
L 346.385664 127.93099 
L 349.665003 123.626935 
L 352.944341 123.626924 
L 356.22368 123.626926 
L 359.503019 123.626925 
L 362.782358 123.626925 
L 366.061697 123.626924 
L 369.341036 123.626924 
L 372.620374 123.626924 
L 375.899713 123.626924 
L 379.179052 123.626924 
L 382.458391 123.626924 
L 385.73773 123.626924 
L 389.017069 123.626924 
L 392.296408 123.626924 
L 395.575746 123.626924 
L 398.855085 123.626924 
" clip-path="url(#pcf83e1100f)" style="fill: none; stroke: #ff7f0e; stroke-width: 1.5; stroke-linecap: square"/>
   </g>
   <g id="line2d_69">
    <path d="M 74.20054 98.166181 
L 77.479879 98.166297 
L 80.759217 98.166369 
L 84.038556 98.166522 
L 87.317895 98.166701 
L 90.597234 98.166904 
L 93.876573 98.167137 
L 97.155912 98.167401 
L 100.435251 98.167698 
L 103.714589 98.168036 
L 106.993928 98.16843 
L 110.273267 98.168888 
L 113.552606 98.169328 
L 116.831945 98.169805 
L 120.111284 98.170429 
L 123.390622 98.171177 
L 126.669961 98.17206 
L 129.9493 98.173099 
L 133.228639 98.174317 
L 136.507978 98.175741 
L 139.787317 98.177401 
L 143.066655 98.179329 
L 146.345994 98.18156 
L 149.625333 98.184132 
L 152.904672 98.187067 
L 156.184011 98.19043 
L 159.46335 98.194271 
L 162.742689 98.198664 
L 166.022027 98.203689 
L 169.301366 98.209456 
L 172.580705 98.216067 
L 175.860044 98.223645 
L 179.139383 98.232354 
L 182.418722 98.242398 
L 185.69806 98.25398 
L 188.977399 98.267318 
L 192.256738 98.282713 
L 195.536077 98.300588 
L 198.815416 98.320561 
L 202.094755 98.343054 
L 205.374093 98.369008 
L 208.653432 98.399102 
L 211.932771 98.434127 
L 215.21211 98.474153 
L 218.491449 98.520002 
L 221.770788 98.572604 
L 225.050127 98.634334 
L 228.329465 98.704564 
L 231.608804 98.78539 
L 234.888143 98.878324 
L 238.167482 98.985171 
L 241.446821 99.107498 
L 244.72616 99.249332 
L 248.005498 99.411762 
L 251.284837 99.598445 
L 254.564176 99.813017 
L 257.843515 100.061304 
L 261.122854 100.343838 
L 264.402193 100.670508 
L 267.681532 101.049135 
L 270.96087 101.478421 
L 274.240209 101.971649 
L 277.519548 102.539158 
L 280.798887 103.194744 
L 284.078226 103.949011 
L 287.357565 104.8154 
L 290.636903 105.811285 
L 293.916242 106.956555 
L 297.195581 108.273243 
L 300.47492 109.786904 
L 303.754259 111.527221 
L 307.033598 113.532159 
L 310.312936 115.830552 
L 313.592275 118.477626 
L 316.871614 120.572343 
L 320.150953 122.786239 
L 323.430292 123.626906 
L 326.709631 123.626921 
L 329.98897 123.626924 
L 333.268308 123.626923 
L 336.547647 123.626924 
L 339.826986 123.626923 
L 343.106325 123.626924 
L 346.385664 123.626924 
L 349.665003 123.626924 
L 352.944341 123.626924 
L 356.22368 123.626924 
L 359.503019 123.626924 
L 362.782358 123.626924 
L 366.061697 123.626924 
L 369.341036 123.626924 
L 372.620374 123.626924 
L 375.899713 123.626924 
L 379.179052 123.626924 
L 382.458391 123.626924 
L 385.73773 123.626924 
L 389.017069 123.626924 
L 392.296408 123.626924 
L 395.575746 123.626924 
L 398.855085 123.626924 
" clip-path="url(#pcf83e1100f)" style="fill: none; stroke: #2ca02c; stroke-width: 1.5; stroke-linecap: square"/>
   </g>
   <g id="line2d_70">
    <path d="M 74.20054 86.748684 
L 77.479879 86.74871 
L 80.759217 86.748848 
L 84.038556 86.748883 
L 87.317895 86.748917 
L 90.597234 86.74896 
L 93.876573 86.749009 
L 97.155912 86.749069 
L 100.435251 86.749143 
L 103.714589 86.74923 
L 106.993928 86.749327 
L 110.273267 86.749433 
L 113.552606 86.749582 
L 116.831945 86.749772 
L 120.111284 86.749961 
L 123.390622 86.750162 
L 126.669961 86.750379 
L 129.9493 86.750613 
L 133.228639 86.750867 
L 136.507978 86.751145 
L 139.787317 86.751453 
L 143.066655 86.751803 
L 146.345994 86.752208 
L 149.625333 86.752692 
L 152.904672 86.753259 
L 156.184011 86.753946 
L 159.46335 86.754774 
L 162.742689 86.755718 
L 166.022027 86.756853 
L 169.301366 86.75815 
L 172.580705 86.759671 
L 175.860044 86.761453 
L 179.139383 86.763498 
L 182.418722 86.76581 
L 185.69806 86.768443 
L 188.977399 86.77148 
L 192.256738 86.774971 
L 195.536077 86.77896 
L 198.815416 86.783975 
L 202.094755 86.789823 
L 205.374093 86.796275 
L 208.653432 86.803465 
L 211.932771 86.812025 
L 215.21211 86.82172 
L 218.491449 86.833035 
L 221.770788 86.846179 
L 225.050127 86.859332 
L 228.329465 86.875899 
L 231.608804 86.894873 
L 234.888143 86.916698 
L 238.167482 86.941785 
L 241.446821 86.971873 
L 244.72616 87.004185 
L 248.005498 87.042221 
L 251.284837 87.08609 
L 254.564176 87.136518 
L 257.843515 87.193984 
L 261.122854 87.26064 
L 264.402193 87.337441 
L 267.681532 87.425881 
L 270.96087 87.525906 
L 274.240209 87.641874 
L 277.519548 87.77432 
L 280.798887 87.929246 
L 284.078226 88.107506 
L 287.357565 88.311303 
L 290.636903 88.545123 
L 293.916242 88.814244 
L 297.195581 89.124017 
L 300.47492 89.480333 
L 303.754259 89.890329 
L 307.033598 90.363089 
L 310.312936 90.902968 
L 313.592275 91.523546 
L 316.871614 93.49373 
L 320.150953 95.008198 
L 323.430292 97.509132 
L 326.709631 100.815236 
L 329.98897 104.616679 
L 333.268308 108.147885 
L 336.547647 111.513344 
L 339.826986 115.380259 
L 343.106325 118.311435 
L 346.385664 120.073968 
L 349.665003 122.365774 
L 352.944341 123.626924 
L 356.22368 123.626919 
L 359.503019 123.626924 
L 362.782358 123.626924 
L 366.061697 123.626924 
L 369.341036 123.626924 
L 372.620374 123.626924 
L 375.899713 123.626924 
L 379.179052 123.626924 
L 382.458391 123.626924 
L 385.73773 123.626924 
L 389.017069 123.626924 
L 392.296408 123.626924 
L 395.575746 123.626924 
L 398.855085 123.626924 
" clip-path="url(#pcf83e1100f)" style="fill: none; stroke: #d62728; stroke-width: 1.5; stroke-linecap: square"/>
   </g>
   <g id="line2d_71">
    <path d="M 74.20054 279.376 
L 77.479879 279.375636 
L 80.759217 279.375643 
L 84.038556 279.375172 
L 87.317895 279.374604 
L 90.597234 279.373961 
L 93.876573 279.373214 
L 97.155912 279.372367 
L 100.435251 279.371426 
L 103.714589 279.370351 
L 106.993928 279.369103 
L 110.273267 279.367648 
L 113.552606 279.366251 
L 116.831945 279.364747 
L 120.111284 279.362757 
L 123.390622 279.360355 
L 126.669961 279.357497 
L 129.9493 279.35411 
L 133.228639 279.350121 
L 136.507978 279.345443 
L 139.787317 279.339988 
L 143.066655 279.333669 
L 146.345994 279.326403 
L 149.625333 279.31812 
L 152.904672 279.308672 
L 156.184011 279.297978 
L 159.46335 279.28588 
L 162.742689 279.271946 
L 166.022027 279.256164 
L 169.301366 279.237996 
L 172.580705 279.217255 
L 175.860044 279.193581 
L 179.139383 279.166342 
L 182.418722 279.1348 
L 185.69806 279.098369 
L 188.977399 279.056477 
L 192.256738 279.008198 
L 195.536077 278.952243 
L 198.815416 278.89078 
L 202.094755 278.821435 
L 205.374093 278.740094 
L 208.653432 278.645636 
L 211.932771 278.536476 
L 215.21211 278.411464 
L 218.491449 278.268489 
L 221.770788 278.104457 
L 225.050127 277.908531 
L 228.329465 277.688215 
L 231.608804 277.434611 
L 234.888143 277.143054 
L 238.167482 276.807854 
L 241.446821 276.425108 
L 244.72616 275.980296 
L 248.005498 275.470812 
L 251.284837 274.885322 
L 254.564176 274.21217 
L 257.843515 273.438352 
L 261.122854 272.548162 
L 264.402193 271.525723 
L 267.681532 270.351918 
L 270.96087 268.996773 
L 274.240209 267.440739 
L 277.519548 265.652583 
L 280.798887 263.598641 
L 284.078226 261.236485 
L 287.357565 258.520151 
L 290.636903 255.397124 
L 293.916242 251.80563 
L 297.195581 247.675632 
L 300.47492 242.927636 
L 303.754259 237.469432 
L 307.033598 231.194996 
L 310.312936 223.976195 
L 313.592275 215.675639 
L 316.871614 210.281852 
L 320.150953 207.236802 
L 323.430292 203.507375 
L 326.709631 199.090708 
L 329.98897 194.014947 
L 333.268308 188.444268 
L 336.547647 182.385067 
L 339.826986 175.421091 
L 343.106325 167.831461 
L 346.385664 159.549591 
L 349.665003 150.463634 
L 352.944341 140.470114 
L 356.22368 128.655944 
L 359.503019 123.626925 
L 362.782358 123.626925 
L 366.061697 123.626925 
L 369.341036 123.626924 
L 372.620374 123.626924 
L 375.899713 123.626924 
L 379.179052 123.626924 
L 382.458391 123.626924 
L 385.73773 123.626924 
L 389.017069 123.626924 
L 392.296408 123.626924 
L 395.575746 123.626924 
L 398.855085 123.626924 
" clip-path="url(#pcf83e1100f)" style="fill: none; stroke: #9467bd; stroke-width: 1.5; stroke-linecap: square"/>
   </g>
   <g id="line2d_72">
    <path d="M 74.20054 177.539267 
L 77.479879 177.538975 
L 80.759217 177.53898 
L 84.038556 177.5386 
L 87.317895 177.538144 
L 90.597234 177.537627 
L 93.876573 177.537028 
L 97.155912 177.536349 
L 100.435251 177.535595 
L 103.714589 177.534736 
L 106.993928 177.533738 
L 110.273267 177.532575 
L 113.552606 177.531477 
L 116.831945 177.530307 
L 120.111284 177.528743 
L 123.390622 177.526853 
L 126.669961 177.524602 
L 129.9493 177.521935 
L 133.228639 177.518791 
L 136.507978 177.515099 
L 139.787317 177.510787 
L 143.066655 177.50578 
L 146.345994 177.500002 
L 149.625333 177.493384 
L 152.904672 177.485841 
L 156.184011 177.477264 
L 159.46335 177.467531 
L 162.742689 177.456362 
L 166.022027 177.443671 
L 169.301366 177.429086 
L 172.580705 177.412416 
L 175.860044 177.393367 
L 179.139383 177.371466 
L 182.418722 177.34615 
L 185.69806 177.316936 
L 188.977399 177.283338 
L 192.256738 177.244621 
L 195.536077 177.199775 
L 198.815416 177.150259 
L 202.094755 177.094269 
L 205.374093 177.028733 
L 208.653432 176.952762 
L 211.932771 176.865277 
L 215.21211 176.764936 
L 218.491449 176.650252 
L 221.770788 176.518626 
L 225.050127 176.360795 
L 228.329465 176.183797 
L 231.608804 175.980059 
L 234.888143 175.745846 
L 238.167482 175.476591 
L 241.446821 175.16884 
L 244.72616 174.811665 
L 248.005498 174.402505 
L 251.284837 173.932268 
L 254.564176 173.39167 
L 257.843515 172.769522 
L 261.122854 172.055251 
L 264.402193 171.233769 
L 267.681532 170.288949 
L 270.96087 169.201871 
L 274.240209 167.953528 
L 277.519548 166.519302 
L 280.798887 164.869378 
L 284.078226 162.971541 
L 287.357565 160.789873 
L 290.636903 158.281839 
L 293.916242 155.397376 
L 297.195581 152.080243 
L 300.47492 148.266641 
L 303.754259 143.88252 
L 307.033598 138.839759 
L 310.312936 133.045093 
L 313.592275 126.37722 
L 316.871614 123.626925 
L 320.150953 123.626924 
L 323.430292 123.626924 
L 326.709631 123.626924 
L 329.98897 123.626924 
L 333.268308 123.626924 
L 336.547647 123.626924 
L 339.826986 123.626924 
L 343.106325 123.626924 
L 346.385664 123.626924 
L 349.665003 123.626924 
L 352.944341 123.626924 
L 356.22368 123.626924 
L 359.503019 123.626924 
L 362.782358 123.626924 
L 366.061697 123.626924 
L 369.341036 123.626924 
L 372.620374 123.626924 
L 375.899713 123.626924 
L 379.179052 123.626924 
L 382.458391 123.626924 
L 385.73773 123.626924 
L 389.017069 123.626924 
L 392.296408 123.626924 
L 395.575746 123.626924 
L 398.855085 123.626924 
" clip-path="url(#pcf83e1100f)" style="fill: none; stroke: #8c564b; stroke-width: 1.5; stroke-linecap: square"/>
   </g>
   <g id="line2d_73">
    <path d="M 74.20054 208.679782 
L 77.479879 208.679508 
L 80.759217 208.679451 
L 84.038556 208.679094 
L 87.317895 208.67867 
L 90.597234 208.678189 
L 93.876573 208.677632 
L 97.155912 208.677 
L 100.435251 208.676296 
L 103.714589 208.675492 
L 106.993928 208.674562 
L 110.273267 208.67348 
L 113.552606 208.672457 
L 116.831945 208.671367 
L 120.111284 208.669921 
L 123.390622 208.668183 
L 126.669961 208.666122 
L 129.9493 208.663688 
L 133.228639 208.660828 
L 136.507978 208.657474 
L 139.787317 208.653556 
L 143.066655 208.648997 
L 146.345994 208.643714 
L 149.625333 208.637622 
L 152.904672 208.630677 
L 156.184011 208.622718 
L 159.46335 208.613633 
L 162.742689 208.603253 
L 166.022027 208.591385 
L 169.301366 208.577775 
L 172.580705 208.562182 
L 175.860044 208.544318 
L 179.139383 208.523796 
L 182.418722 208.50015 
L 185.69806 208.472911 
L 188.977399 208.441576 
L 192.256738 208.405477 
L 195.536077 208.363732 
L 198.815416 208.317006 
L 202.094755 208.263923 
L 205.374093 208.20218 
L 208.653432 208.130884 
L 211.932771 208.048958 
L 215.21211 207.954871 
L 218.491449 207.847235 
L 221.770788 207.723547 
L 225.050127 207.576418 
L 228.329465 207.410679 
L 231.608804 207.219972 
L 234.888143 207.000745 
L 238.167482 206.748738 
L 241.446821 206.459679 
L 244.72616 206.12599 
L 248.005498 205.743146 
L 251.284837 205.303041 
L 254.564176 204.797104 
L 257.843515 204.21464 
L 261.122854 203.546553 
L 264.402193 202.777287 
L 267.681532 201.890929 
L 270.96087 200.875769 
L 274.240209 199.708919 
L 277.519548 198.368068 
L 280.798887 196.822802 
L 284.078226 195.045357 
L 287.357565 193.003058 
L 290.636903 190.655542 
L 293.916242 187.955806 
L 297.195581 184.851278 
L 300.47492 181.281923 
L 303.754259 177.177907 
L 307.033598 172.454061 
L 310.312936 167.033174 
L 313.592275 160.794903 
L 316.871614 154.78249 
L 320.150953 149.237153 
L 323.430292 143.388238 
L 326.709631 136.963399 
L 329.98897 129.571121 
L 333.268308 123.626943 
L 336.547647 123.626925 
L 339.826986 123.626925 
L 343.106325 123.626924 
L 346.385664 123.626925 
L 349.665003 123.626924 
L 352.944341 123.626924 
L 356.22368 123.626925 
L 359.503019 123.626924 
L 362.782358 123.626924 
L 366.061697 123.626924 
L 369.341036 123.626924 
L 372.620374 123.626924 
L 375.899713 123.626924 
L 379.179052 123.626924 
L 382.458391 123.626924 
L 385.73773 123.626924 
L 389.017069 123.626924 
L 392.296408 123.626924 
L 395.575746 123.626924 
L 398.855085 123.626924 
" clip-path="url(#pcf83e1100f)" style="fill: none; stroke: #e377c2; stroke-width: 1.5; stroke-linecap: square"/>
   </g>
   <g id="line2d_74">
    <path d="M 74.20054 37.456 
L 77.479879 37.45617 
L 80.759217 37.456128 
L 84.038556 37.456349 
L 87.317895 37.456616 
L 90.597234 37.456917 
L 93.876573 37.457265 
L 97.155912 37.457658 
L 100.435251 37.458093 
L 103.714589 37.458587 
L 106.993928 37.459161 
L 110.273267 37.459832 
L 113.552606 37.460444 
L 116.831945 37.461081 
L 120.111284 37.461957 
L 123.390622 37.463023 
L 126.669961 37.464299 
L 129.9493 37.465818 
L 133.228639 37.467614 
L 136.507978 37.46973 
L 139.787317 37.472209 
L 143.066655 37.475097 
L 146.345994 37.47844 
L 149.625333 37.482281 
L 152.904672 37.486651 
L 156.184011 37.491634 
L 159.46335 37.497293 
L 162.742689 37.503765 
L 166.022027 37.51113 
L 169.301366 37.51958 
L 172.580705 37.52924 
L 175.860044 37.540284 
L 179.139383 37.552975 
L 182.418722 37.567624 
L 185.69806 37.584515 
L 188.977399 37.603939 
L 192.256738 37.626313 
L 195.536077 37.652198 
L 198.815416 37.680909 
L 202.094755 37.713485 
L 205.374093 37.751554 
L 208.653432 37.795645 
L 211.932771 37.846189 
L 215.21211 37.904304 
L 218.491449 37.97073 
L 221.770788 38.047009 
L 225.050127 38.138561 
L 228.329465 38.241099 
L 231.608804 38.359114 
L 234.888143 38.494772 
L 238.167482 38.650717 
L 241.446821 38.829004 
L 244.72616 39.035848 
L 248.005498 39.272813 
L 251.284837 39.545152 
L 254.564176 39.858238 
L 257.843515 40.218781 
L 261.122854 40.63235 
L 264.402193 41.108223 
L 267.681532 41.656003 
L 270.96087 42.285377 
L 274.240209 43.00816 
L 277.519548 43.839047 
L 280.798887 44.794658 
L 284.078226 45.893769 
L 287.357565 47.157468 
L 290.636903 48.610405 
L 293.916242 50.281246 
L 297.195581 52.202372 
L 300.47492 54.410864 
L 303.754259 56.94967 
L 307.033598 59.868787 
L 310.312936 63.226313 
L 313.592275 67.087788 
L 316.871614 69.653208 
L 320.150953 71.835383 
L 323.430292 73.881283 
L 326.709631 75.969921 
L 329.98897 78.369853 
L 333.268308 81.131628 
L 336.547647 83.959005 
L 339.826986 87.206735 
L 343.106325 91.790029 
L 346.385664 97.959368 
L 349.665003 105.148981 
L 352.944341 114.015938 
L 356.22368 123.62672 
L 359.503019 123.626924 
L 362.782358 123.626924 
L 366.061697 123.626924 
L 369.341036 123.626924 
L 372.620374 123.626924 
L 375.899713 123.626924 
L 379.179052 123.626924 
L 382.458391 123.626924 
L 385.73773 123.626924 
L 389.017069 123.626924 
L 392.296408 123.626924 
L 395.575746 123.626924 
L 398.855085 123.626924 
" clip-path="url(#pcf83e1100f)" style="fill: none; stroke: #7f7f7f; stroke-width: 1.5; stroke-linecap: square"/>
   </g>
   <g id="line2d_75">
    <path d="M 74.20054 67.476762 
L 77.479879 67.476875 
L 80.759217 67.477037 
L 84.038556 67.477185 
L 87.317895 67.477354 
L 90.597234 67.47755 
L 93.876573 67.477777 
L 97.155912 67.478038 
L 100.435251 67.478337 
L 103.714589 67.47868 
L 106.993928 67.479075 
L 110.273267 67.479526 
L 113.552606 67.480012 
L 116.831945 67.480568 
L 120.111284 67.481232 
L 123.390622 67.482003 
L 126.669961 67.482895 
L 129.9493 67.483924 
L 133.228639 67.485111 
L 136.507978 67.486481 
L 139.787317 67.488061 
L 143.066655 67.489884 
L 146.345994 67.491989 
L 149.625333 67.494419 
L 152.904672 67.497209 
L 156.184011 67.500427 
L 159.46335 67.504134 
L 162.742689 67.508385 
L 166.022027 67.513284 
L 169.301366 67.518909 
L 172.580705 67.525381 
L 175.860044 67.532828 
L 179.139383 67.541386 
L 182.418722 67.551221 
L 185.69806 67.562534 
L 188.977399 67.575553 
L 192.256738 67.59055 
L 195.536077 67.607863 
L 198.815416 67.627685 
L 202.094755 67.650289 
L 205.374093 67.676256 
L 208.653432 67.706045 
L 211.932771 67.740714 
L 215.21211 67.780323 
L 218.491449 67.825875 
L 221.770788 67.878326 
L 225.050127 67.93812 
L 228.329465 68.007341 
L 231.608804 68.086911 
L 234.888143 68.178399 
L 238.167482 68.283574 
L 241.446821 68.405337 
L 244.72616 68.543816 
L 248.005498 68.703562 
L 251.284837 68.887323 
L 254.564176 69.098574 
L 257.843515 69.341205 
L 261.122854 69.620269 
L 264.402193 69.941521 
L 267.681532 70.311363 
L 270.96087 70.734373 
L 274.240209 71.221468 
L 277.519548 71.780685 
L 280.798887 72.426691 
L 284.078226 73.169668 
L 287.357565 74.022628 
L 290.636903 75.002789 
L 293.916242 76.1301 
L 297.195581 77.42655 
L 300.47492 78.917164 
L 303.754259 80.631256 
L 307.033598 82.60427 
L 310.312936 84.868166 
L 313.592275 87.471834 
L 316.871614 91.054212 
L 320.150953 93.518372 
L 323.430292 96.719764 
L 326.709631 100.608204 
L 329.98897 105.082842 
L 333.268308 110.496191 
L 336.547647 115.211782 
L 339.826986 120.634479 
L 343.106325 123.626924 
L 346.385664 123.626923 
L 349.665003 123.626924 
L 352.944341 123.626924 
L 356.22368 123.626924 
L 359.503019 123.626924 
L 362.782358 123.626924 
L 366.061697 123.626924 
L 369.341036 123.626924 
L 372.620374 123.626924 
L 375.899713 123.626924 
L 379.179052 123.626924 
L 382.458391 123.626924 
L 385.73773 123.626924 
L 389.017069 123.626924 
L 392.296408 123.626924 
L 395.575746 123.626924 
L 398.855085 123.626924 
" clip-path="url(#pcf83e1100f)" style="fill: none; stroke: #bcbd22; stroke-width: 1.5; stroke-linecap: square"/>
   </g>
   <g id="line2d_76">
    <path d="M 74.20054 200.954517 
L 77.479879 200.954223 
L 80.759217 200.954224 
L 84.038556 200.953843 
L 87.317895 200.953385 
L 90.597234 200.952866 
L 93.876573 200.952266 
L 97.155912 200.951585 
L 100.435251 200.950829 
L 103.714589 200.949967 
L 106.993928 200.948967 
L 110.273267 200.947804 
L 113.552606 200.946713 
L 116.831945 200.945558 
L 120.111284 200.94401 
L 123.390622 200.942139 
L 126.669961 200.939912 
L 129.9493 200.937275 
L 133.228639 200.934166 
L 136.507978 200.930515 
L 139.787317 200.926247 
L 143.066655 200.921283 
L 146.345994 200.915538 
L 149.625333 200.908934 
L 152.904672 200.901411 
L 156.184011 200.892822 
L 159.46335 200.883051 
L 162.742689 200.871867 
L 166.022027 200.859121 
L 169.301366 200.844492 
L 172.580705 200.827756 
L 175.860044 200.80861 
L 179.139383 200.78661 
L 182.418722 200.761222 
L 185.69806 200.731953 
L 188.977399 200.698293 
L 192.256738 200.659519 
L 195.536077 200.614663 
L 198.815416 200.56483 
L 202.094755 200.508293 
L 205.374093 200.44222 
L 208.653432 200.365801 
L 211.932771 200.2781 
L 215.21211 200.177353 
L 218.491449 200.062201 
L 221.770788 199.929931 
L 225.050127 199.771388 
L 228.329465 199.593633 
L 231.608804 199.38906 
L 234.888143 199.153901 
L 238.167482 198.883576 
L 241.446821 198.574038 
L 244.72616 198.215849 
L 248.005498 197.805163 
L 251.284837 197.333107 
L 254.564176 196.79042 
L 257.843515 196.166197 
L 261.122854 195.449089 
L 264.402193 194.624335 
L 267.681532 193.675636 
L 270.96087 192.585057 
L 274.240209 191.332139 
L 277.519548 189.892919 
L 280.798887 188.236188 
L 284.078226 186.330467 
L 287.357565 184.140255 
L 290.636903 181.622666 
L 293.916242 178.727143 
L 297.195581 175.397093 
L 300.47492 171.568426 
L 303.754259 167.166593 
L 307.033598 162.101991 
L 310.312936 156.286313 
L 313.592275 149.594377 
L 316.871614 144.646118 
L 320.150953 141.115829 
L 323.430292 136.888884 
L 326.709631 131.932578 
L 329.98897 126.236381 
L 333.268308 123.626935 
L 336.547647 123.626926 
L 339.826986 123.626927 
L 343.106325 123.626924 
L 346.385664 123.626925 
L 349.665003 123.626925 
L 352.944341 123.626924 
L 356.22368 123.626925 
L 359.503019 123.626924 
L 362.782358 123.626924 
L 366.061697 123.626924 
L 369.341036 123.626924 
L 372.620374 123.626924 
L 375.899713 123.626924 
L 379.179052 123.626924 
L 382.458391 123.626924 
L 385.73773 123.626924 
L 389.017069 123.626924 
L 392.296408 123.626924 
L 395.575746 123.626924 
L 398.855085 123.626924 
" clip-path="url(#pcf83e1100f)" style="fill: none; stroke: #17becf; stroke-width: 1.5; stroke-linecap: square"/>
   </g>
   <g id="patch_3">
    <path d="M 57.967813 291.472 
L 57.967813 25.36 
" style="fill: none; stroke: #000000; stroke-width: 0.8; stroke-linejoin: miter; stroke-linecap: square"/>
   </g>
   <g id="patch_4">
    <path d="M 415.087813 291.472 
L 415.087813 25.36 
" style="fill: none; stroke: #000000; stroke-width: 0.8; stroke-linejoin: miter; stroke-linecap: square"/>
   </g>
   <g id="patch_5">
    <path d="M 57.967813 291.472 
L 415.087813 291.472 
" style="fill: none; stroke: #000000; stroke-width: 0.8; stroke-linejoin: miter; stroke-linecap: square"/>
   </g>
   <g id="patch_6">
    <path d="M 57.967813 25.36 
L 415.087813 25.36 
" style="fill: none; stroke: #000000; stroke-width: 0.8; stroke-linejoin: miter; stroke-linecap: square"/>
   </g>
   <g id="text_17">
    <!-- Entries of $x$ versus $\gamma$ -->
    <g transform="translate(154.927813 19.36) scale(0.16 -0.16)">
     <defs>
      <path id="DejaVuSans-45" d="M 628 4666 
L 3578 4666 
L 3578 4134 
L 1259 4134 
L 1259 2753 
L 3481 2753 
L 3481 2222 
L 1259 2222 
L 1259 531 
L 3634 531 
L 3634 0 
L 628 0 
L 628 4666 
z
" transform="scale(0.015625)"/>
      <path id="DejaVuSans-6e" d="M 3513 2113 
L 3513 0 
L 2938 0 
L 2938 2094 
Q 2938 2591 2744 2837 
Q 2550 3084 2163 3084 
Q 1697 3084 1428 2787 
Q 1159 2491 1159 1978 
L 1159 0 
L 581 0 
L 581 3500 
L 1159 3500 
L 1159 2956 
Q 1366 3272 1645 3428 
Q 1925 3584 2291 3584 
Q 2894 3584 3203 3211 
Q 3513 2838 3513 2113 
z
" transform="scale(0.015625)"/>
      <path id="DejaVuSans-74" d="M 1172 4494 
L 1172 3500 
L 2356 3500 
L 2356 3053 
L 1172 3053 
L 1172 1153 
Q 1172 725 1289 603 
Q 1406 481 1766 481 
L 2356 481 
L 2356 0 
L 1766 0 
Q 1100 0 847 248 
Q 594 497 594 1153 
L 594 3053 
L 172 3053 
L 172 3500 
L 594 3500 
L 594 4494 
L 1172 4494 
z
" transform="scale(0.015625)"/>
      <path id="DejaVuSans-72" d="M 2631 2963 
Q 2534 3019 2420 3045 
Q 2306 3072 2169 3072 
Q 1681 3072 1420 2755 
Q 1159 2438 1159 1844 
L 1159 0 
L 581 0 
L 581 3500 
L 1159 3500 
L 1159 2956 
Q 1341 3275 1631 3429 
Q 1922 3584 2338 3584 
Q 2397 3584 2469 3576 
Q 2541 3569 2628 3553 
L 2631 2963 
z
" transform="scale(0.015625)"/>
      <path id="DejaVuSans-69" d="M 603 3500 
L 1178 3500 
L 1178 0 
L 603 0 
L 603 3500 
z
M 603 4863 
L 1178 4863 
L 1178 4134 
L 603 4134 
L 603 4863 
z
" transform="scale(0.015625)"/>
      <path id="DejaVuSans-65" d="M 3597 1894 
L 3597 1613 
L 953 1613 
Q 991 1019 1311 708 
Q 1631 397 2203 397 
Q 2534 397 2845 478 
Q 3156 559 3463 722 
L 3463 178 
Q 3153 47 2828 -22 
Q 2503 -91 2169 -91 
Q 1331 -91 842 396 
Q 353 884 353 1716 
Q 353 2575 817 3079 
Q 1281 3584 2069 3584 
Q 2775 3584 3186 3129 
Q 3597 2675 3597 1894 
z
M 3022 2063 
Q 3016 2534 2758 2815 
Q 2500 3097 2075 3097 
Q 1594 3097 1305 2825 
Q 1016 2553 972 2059 
L 3022 2063 
z
" transform="scale(0.015625)"/>
      <path id="DejaVuSans-73" d="M 2834 3397 
L 2834 2853 
Q 2591 2978 2328 3040 
Q 2066 3103 1784 3103 
Q 1356 3103 1142 2972 
Q 928 2841 928 2578 
Q 928 2378 1081 2264 
Q 1234 2150 1697 2047 
L 1894 2003 
Q 2506 1872 2764 1633 
Q 3022 1394 3022 966 
Q 3022 478 2636 193 
Q 2250 -91 1575 -91 
Q 1294 -91 989 -36 
Q 684 19 347 128 
L 347 722 
Q 666 556 975 473 
Q 1284 391 1588 391 
Q 1994 391 2212 530 
Q 2431 669 2431 922 
Q 2431 1156 2273 1281 
Q 2116 1406 1581 1522 
L 1381 1569 
Q 847 1681 609 1914 
Q 372 2147 372 2553 
Q 372 3047 722 3315 
Q 1072 3584 1716 3584 
Q 2034 3584 2315 3537 
Q 2597 3491 2834 3397 
z
" transform="scale(0.015625)"/>
      <path id="DejaVuSans-20" transform="scale(0.015625)"/>
      <path id="DejaVuSans-6f" d="M 1959 3097 
Q 1497 3097 1228 2736 
Q 959 2375 959 1747 
Q 959 1119 1226 758 
Q 1494 397 1959 397 
Q 2419 397 2687 759 
Q 2956 1122 2956 1747 
Q 2956 2369 2687 2733 
Q 2419 3097 1959 3097 
z
M 1959 3584 
Q 2709 3584 3137 3096 
Q 3566 2609 3566 1747 
Q 3566 888 3137 398 
Q 2709 -91 1959 -91 
Q 1206 -91 779 398 
Q 353 888 353 1747 
Q 353 2609 779 3096 
Q 1206 3584 1959 3584 
z
" transform="scale(0.015625)"/>
      <path id="DejaVuSans-66" d="M 2375 4863 
L 2375 4384 
L 1825 4384 
Q 1516 4384 1395 4259 
Q 1275 4134 1275 3809 
L 1275 3500 
L 2222 3500 
L 2222 3053 
L 1275 3053 
L 1275 0 
L 697 0 
L 697 3053 
L 147 3053 
L 147 3500 
L 697 3500 
L 697 3744 
Q 697 4328 969 4595 
Q 1241 4863 1831 4863 
L 2375 4863 
z
" transform="scale(0.015625)"/>
      <path id="DejaVuSans-76" d="M 191 3500 
L 800 3500 
L 1894 563 
L 2988 3500 
L 3597 3500 
L 2284 0 
L 1503 0 
L 191 3500 
z
" transform="scale(0.015625)"/>
      <path id="DejaVuSans-75" d="M 544 1381 
L 544 3500 
L 1119 3500 
L 1119 1403 
Q 1119 906 1312 657 
Q 1506 409 1894 409 
Q 2359 409 2629 706 
Q 2900 1003 2900 1516 
L 2900 3500 
L 3475 3500 
L 3475 0 
L 2900 0 
L 2900 538 
Q 2691 219 2414 64 
Q 2138 -91 1772 -91 
Q 1169 -91 856 284 
Q 544 659 544 1381 
z
M 1991 3584 
L 1991 3584 
z
" transform="scale(0.015625)"/>
     </defs>
     <use xlink:href="#DejaVuSans-45" transform="translate(0 0.015625)"/>
     <use xlink:href="#DejaVuSans-6e" transform="translate(63.183594 0.015625)"/>
     <use xlink:href="#DejaVuSans-74" transform="translate(126.5625 0.015625)"/>
     <use xlink:href="#DejaVuSans-72" transform="translate(165.771484 0.015625)"/>
     <use xlink:href="#DejaVuSans-69" transform="translate(206.884766 0.015625)"/>
     <use xlink:href="#DejaVuSans-65" transform="translate(234.667969 0.015625)"/>
     <use xlink:href="#DejaVuSans-73" transform="translate(296.191406 0.015625)"/>
     <use xlink:href="#DejaVuSans-20" transform="translate(348.291016 0.015625)"/>
     <use xlink:href="#DejaVuSans-6f" transform="translate(380.078125 0.015625)"/>
     <use xlink:href="#DejaVuSans-66" transform="translate(441.259766 0.015625)"/>
     <use xlink:href="#DejaVuSans-20" transform="translate(476.464844 0.015625)"/>
     <use xlink:href="#DejaVuSans-Oblique-78" transform="translate(508.251953 0.015625)"/>
     <use xlink:href="#DejaVuSans-20" transform="translate(567.431641 0.015625)"/>
     <use xlink:href="#DejaVuSans-76" transform="translate(599.21875 0.015625)"/>
     <use xlink:href="#DejaVuSans-65" transform="translate(658.398438 0.015625)"/>
     <use xlink:href="#DejaVuSans-72" transform="translate(719.921875 0.015625)"/>
     <use xlink:href="#DejaVuSans-73" transform="translate(761.035156 0.015625)"/>
     <use xlink:href="#DejaVuSans-75" transform="translate(813.134766 0.015625)"/>
     <use xlink:href="#DejaVuSans-73" transform="translate(876.513672 0.015625)"/>
     <use xlink:href="#DejaVuSans-20" transform="translate(928.613281 0.015625)"/>
     <use xlink:href="#DejaVuSans-Oblique-3b3" transform="translate(960.400391 0.015625)"/>
    </g>
   </g>
  </g>
 </g>
 <defs>
  <clipPath id="pcf83e1100f">
   <rect x="57.967813" y="25.36" width="357.12" height="266.112"/>
  </clipPath>
 </defs>
</svg>