<?xml version="1.0" encoding="utf-8" standalone="no"?>
<!DOCTYPE svg PUBLIC "-//W3C//DTD SVG 1.1//EN"
  "http://www.w3.org/Graphics/SVG/1.1/DTD/svg11.dtd">
<svg xmlns:xlink="http://www.w3.org/1999/xlink" width="410.73pt" height="313.347625pt" viewBox="0 0 410.73 313.347625" xmlns="http://www.w3.org/2000/svg" version="1.1">
 <metadata>
  <rdf:RDF xmlns:dc="http://purl.org/dc/elements/1.1/" xmlns:cc="http://creativecommons.org/ns#" xmlns:rdf="http://www.w3.org/1999/02/22-rdf-syntax-ns#">
   <cc:Work>
    <dc:type rdf:resource="http://purl.org/dc/dcmitype/StillImage"/>
    <dc:date>2023-08-20T06:37:36.685303</dc:date>
    <dc:format>image/svg+xml</dc:format>
    <dc:creator>
     <cc:Agent>
      <dc:title>Matplotlib v3.7.2, https://matplotlib.org/</dc:title>
     </cc:Agent>
    </dc:creator>
   </cc:Work>
  </rdf:RDF>
 </metadata>
 <defs>
  <style type="text/css">*{stroke-linejoin: round; stroke-linecap: butt}</style>
 </defs>
 <g id="figure_1">
  <g id="patch_1">
   <path d="M 0 313.347625 
L 410.73 313.347625 
L 410.73 0 
L 0 0 
z
" style="fill: #ffffff"/>
  </g>
  <g id="axes_1">
   <g id="patch_2">
    <path d="M 46.41 306.147625 
L 403.53 306.147625 
L 403.53 40.035625 
L 46.41 40.035625 
z
" style="fill: #ffffff"/>
   </g>
   <g id="PolyCollection_1">
    <path d="M 46.41 40.035625 
L 46.41 66.646825 
L 82.122 66.646825 
L 82.122 40.035625 
L 46.41 40.035625 
z
" clip-path="url(#p477953dc4a)" style="fill: #08306b"/>
    <path d="M 82.122 40.035625 
L 82.122 66.646825 
L 117.834 66.646825 
L 117.834 40.035625 
L 82.122 40.035625 
z
" clip-path="url(#p477953dc4a)" style="fill: #f7fbff"/>
    <path d="M 117.834 40.035625 
L 117.834 66.646825 
L 153.546 66.646825 
L 153.546 40.035625 
L 117.834 40.035625 
z
" clip-path="url(#p477953dc4a)" style="fill: #f7fbff"/>
    <path d="M 153.546 40.035625 
L 153.546 66.646825 
L 189.258 66.646825 
L 189.258 40.035625 
L 153.546 40.035625 
z
" clip-path="url(#p477953dc4a)" style="fill: #f7fbff"/>
    <path d="M 189.258 40.035625 
L 189.258 66.646825 
L 224.97 66.646825 
L 224.97 40.035625 
L 189.258 40.035625 
z
" clip-path="url(#p477953dc4a)" style="fill: #f7fbff"/>
    <path d="M 224.97 40.035625 
L 224.97 66.646825 
L 260.682 66.646825 
L 260.682 40.035625 
L 224.97 40.035625 
z
" clip-path="url(#p477953dc4a)" style="fill: #f7fbff"/>
    <path d="M 260.682 40.035625 
L 260.682 66.646825 
L 296.394 66.646825 
L 296.394 40.035625 
L 260.682 40.035625 
z
" clip-path="url(#p477953dc4a)" style="fill: #f7fbff"/>
    <path d="M 296.394 40.035625 
L 296.394 66.646825 
L 332.106 66.646825 
L 332.106 40.035625 
L 296.394 40.035625 
z
" clip-path="url(#p477953dc4a)" style="fill: #f7fbff"/>
    <path d="M 332.106 40.035625 
L 332.106 66.646825 
L 367.818 66.646825 
L 367.818 40.035625 
L 332.106 40.035625 
z
" clip-path="url(#p477953dc4a)" style="fill: #f7fbff"/>
    <path d="M 367.818 40.035625 
L 367.818 66.646825 
L 403.53 66.646825 
L 403.53 40.035625 
L 367.818 40.035625 
z
" clip-path="url(#p477953dc4a)" style="fill: #f7fbff"/>
    <path d="M 46.41 66.646825 
L 46.41 93.258025 
L 82.122 93.258025 
L 82.122 66.646825 
L 46.41 66.646825 
z
" clip-path="url(#p477953dc4a)" style="fill: #f7fbff"/>
    <path d="M 82.122 66.646825 
L 82.122 93.258025 
L 117.834 93.258025 
L 117.834 66.646825 
L 82.122 66.646825 
z
" clip-path="url(#p477953dc4a)" style="fill: #f7fbff"/>
    <path d="M 117.834 66.646825 
L 117.834 93.258025 
L 153.546 93.258025 
L 153.546 66.646825 
L 117.834 66.646825 
z
" clip-path="url(#p477953dc4a)" style="fill: #f7fbff"/>
    <path d="M 153.546 66.646825 
L 153.546 93.258025 
L 189.258 93.258025 
L 189.258 66.646825 
L 153.546 66.646825 
z
" clip-path="url(#p477953dc4a)" style="fill: #f7fbff"/>
    <path d="M 189.258 66.646825 
L 189.258 93.258025 
L 224.97 93.258025 
L 224.97 66.646825 
L 189.258 66.646825 
z
" clip-path="url(#p477953dc4a)" style="fill: #f7fbff"/>
    <path d="M 224.97 66.646825 
L 224.97 93.258025 
L 260.682 93.258025 
L 260.682 66.646825 
L 224.97 66.646825 
z
" clip-path="url(#p477953dc4a)" style="fill: #2676b8"/>
    <path d="M 260.682 66.646825 
L 260.682 93.258025 
L 296.394 93.258025 
L 296.394 66.646825 
L 260.682 66.646825 
z
" clip-path="url(#p477953dc4a)" style="fill: #f7fbff"/>
    <path d="M 296.394 66.646825 
L 296.394 93.258025 
L 332.106 93.258025 
L 332.106 66.646825 
L 296.394 66.646825 
z
" clip-path="url(#p477953dc4a)" style="fill: #f7fbff"/>
    <path d="M 332.106 66.646825 
L 332.106 93.258025 
L 367.818 93.258025 
L 367.818 66.646825 
L 332.106 66.646825 
z
" clip-path="url(#p477953dc4a)" style="fill: #f7fbff"/>
    <path d="M 367.818 66.646825 
L 367.818 93.258025 
L 403.53 93.258025 
L 403.53 66.646825 
L 367.818 66.646825 
z
" clip-path="url(#p477953dc4a)" style="fill: #f7fbff"/>
    <path d="M 46.41 93.258025 
L 46.41 119.869225 
L 82.122 119.869225 
L 82.122 93.258025 
L 46.41 93.258025 
z
" clip-path="url(#p477953dc4a)" style="fill: #f7fbff"/>
    <path d="M 82.122 93.258025 
L 82.122 119.869225 
L 117.834 119.869225 
L 117.834 93.258025 
L 82.122 93.258025 
z
" clip-path="url(#p477953dc4a)" style="fill: #f7fbff"/>
    <path d="M 117.834 93.258025 
L 117.834 119.869225 
L 153.546 119.869225 
L 153.546 93.258025 
L 117.834 93.258025 
z
" clip-path="url(#p477953dc4a)" style="fill: #71b1d7"/>
    <path d="M 153.546 93.258025 
L 153.546 119.869225 
L 189.258 119.869225 
L 189.258 93.258025 
L 153.546 93.258025 
z
" clip-path="url(#p477953dc4a)" style="fill: #e3eef9"/>
    <path d="M 189.258 93.258025 
L 189.258 119.869225 
L 224.97 119.869225 
L 224.97 93.258025 
L 189.258 93.258025 
z
" clip-path="url(#p477953dc4a)" style="fill: #f7fbff"/>
    <path d="M 224.97 93.258025 
L 224.97 119.869225 
L 260.682 119.869225 
L 260.682 93.258025 
L 224.97 93.258025 
z
" clip-path="url(#p477953dc4a)" style="fill: #f1f7fd"/>
    <path d="M 260.682 93.258025 
L 260.682 119.869225 
L 296.394 119.869225 
L 296.394 93.258025 
L 260.682 93.258025 
z
" clip-path="url(#p477953dc4a)" style="fill: #f7fbff"/>
    <path d="M 296.394 93.258025 
L 296.394 119.869225 
L 332.106 119.869225 
L 332.106 93.258025 
L 296.394 93.258025 
z
" clip-path="url(#p477953dc4a)" style="fill: #f7fbff"/>
    <path d="M 332.106 93.258025 
L 332.106 119.869225 
L 367.818 119.869225 
L 367.818 93.258025 
L 332.106 93.258025 
z
" clip-path="url(#p477953dc4a)" style="fill: #f7fbff"/>
    <path d="M 367.818 93.258025 
L 367.818 119.869225 
L 403.53 119.869225 
L 403.53 93.258025 
L 367.818 93.258025 
z
" clip-path="url(#p477953dc4a)" style="fill: #f7fbff"/>
    <path d="M 46.41 119.869225 
L 46.41 146.480425 
L 82.122 146.480425 
L 82.122 119.869225 
L 46.41 119.869225 
z
" clip-path="url(#p477953dc4a)" style="fill: #f7fbff"/>
    <path d="M 82.122 119.869225 
L 82.122 146.480425 
L 117.834 146.480425 
L 117.834 119.869225 
L 82.122 119.869225 
z
" clip-path="url(#p477953dc4a)" style="fill: #f7fbff"/>
    <path d="M 117.834 119.869225 
L 117.834 146.480425 
L 153.546 146.480425 
L 153.546 119.869225 
L 117.834 119.869225 
z
" clip-path="url(#p477953dc4a)" style="fill: #f7fbff"/>
    <path d="M 153.546 119.869225 
L 153.546 146.480425 
L 189.258 146.480425 
L 189.258 119.869225 
L 153.546 119.869225 
z
" clip-path="url(#p477953dc4a)" style="fill: #084e98"/>
    <path d="M 189.258 119.869225 
L 189.258 146.480425 
L 224.97 146.480425 
L 224.97 119.869225 
L 189.258 119.869225 
z
" clip-path="url(#p477953dc4a)" style="fill: #f7fbff"/>
    <path d="M 224.97 119.869225 
L 224.97 146.480425 
L 260.682 146.480425 
L 260.682 119.869225 
L 224.97 119.869225 
z
" clip-path="url(#p477953dc4a)" style="fill: #f1f7fd"/>
    <path d="M 260.682 119.869225 
L 260.682 146.480425 
L 296.394 146.480425 
L 296.394 119.869225 
L 260.682 119.869225 
z
" clip-path="url(#p477953dc4a)" style="fill: #f7fbff"/>
    <path d="M 296.394 119.869225 
L 296.394 146.480425 
L 332.106 146.480425 
L 332.106 119.869225 
L 296.394 119.869225 
z
" clip-path="url(#p477953dc4a)" style="fill: #f7fbff"/>
    <path d="M 332.106 119.869225 
L 332.106 146.480425 
L 367.818 146.480425 
L 367.818 119.869225 
L 332.106 119.869225 
z
" clip-path="url(#p477953dc4a)" style="fill: #f7fbff"/>
    <path d="M 367.818 119.869225 
L 367.818 146.480425 
L 403.53 146.480425 
L 403.53 119.869225 
L 367.818 119.869225 
z
" clip-path="url(#p477953dc4a)" style="fill: #f7fbff"/>
    <path d="M 46.41 146.480425 
L 46.41 173.091625 
L 82.122 173.091625 
L 82.122 146.480425 
L 46.41 146.480425 
z
" clip-path="url(#p477953dc4a)" style="fill: #f7fbff"/>
    <path d="M 82.122 146.480425 
L 82.122 173.091625 
L 117.834 173.091625 
L 117.834 146.480425 
L 82.122 146.480425 
z
" clip-path="url(#p477953dc4a)" style="fill: #f7fbff"/>
    <path d="M 117.834 146.480425 
L 117.834 173.091625 
L 153.546 173.091625 
L 153.546 146.480425 
L 117.834 146.480425 
z
" clip-path="url(#p477953dc4a)" style="fill: #f7fbff"/>
    <path d="M 153.546 146.480425 
L 153.546 173.091625 
L 189.258 173.091625 
L 189.258 146.480425 
L 153.546 146.480425 
z
" clip-path="url(#p477953dc4a)" style="fill: #f7fbff"/>
    <path d="M 189.258 146.480425 
L 189.258 173.091625 
L 224.97 173.091625 
L 224.97 146.480425 
L 189.258 146.480425 
z
" clip-path="url(#p477953dc4a)" style="fill: #f7fbff"/>
    <path d="M 224.97 146.480425 
L 224.97 173.091625 
L 260.682 173.091625 
L 260.682 146.480425 
L 224.97 146.480425 
z
" clip-path="url(#p477953dc4a)" style="fill: #f7fbff"/>
    <path d="M 260.682 146.480425 
L 260.682 173.091625 
L 296.394 173.091625 
L 296.394 146.480425 
L 260.682 146.480425 
z
" clip-path="url(#p477953dc4a)" style="fill: #f7fbff"/>
    <path d="M 296.394 146.480425 
L 296.394 173.091625 
L 332.106 173.091625 
L 332.106 146.480425 
L 296.394 146.480425 
z
" clip-path="url(#p477953dc4a)" style="fill: #f7fbff"/>
    <path d="M 332.106 146.480425 
L 332.106 173.091625 
L 367.818 173.091625 
L 367.818 146.480425 
L 332.106 146.480425 
z
" clip-path="url(#p477953dc4a)" style="fill: #3f8fc5"/>
    <path d="M 367.818 146.480425 
L 367.818 173.091625 
L 403.53 173.091625 
L 403.53 146.480425 
L 367.818 146.480425 
z
" clip-path="url(#p477953dc4a)" style="fill: #f7fbff"/>
    <path d="M 46.41 173.091625 
L 46.41 199.702825 
L 82.122 199.702825 
L 82.122 173.091625 
L 46.41 173.091625 
z
" clip-path="url(#p477953dc4a)" style="fill: #f7fbff"/>
    <path d="M 82.122 173.091625 
L 82.122 199.702825 
L 117.834 199.702825 
L 117.834 173.091625 
L 82.122 173.091625 
z
" clip-path="url(#p477953dc4a)" style="fill: #f7fbff"/>
    <path d="M 117.834 173.091625 
L 117.834 199.702825 
L 153.546 199.702825 
L 153.546 173.091625 
L 117.834 173.091625 
z
" clip-path="url(#p477953dc4a)" style="fill: #f7fbff"/>
    <path d="M 153.546 173.091625 
L 153.546 199.702825 
L 189.258 199.702825 
L 189.258 173.091625 
L 153.546 173.091625 
z
" clip-path="url(#p477953dc4a)" style="fill: #f7fbff"/>
    <path d="M 189.258 173.091625 
L 189.258 199.702825 
L 224.97 199.702825 
L 224.97 173.091625 
L 189.258 173.091625 
z
" clip-path="url(#p477953dc4a)" style="fill: #f7fbff"/>
    <path d="M 224.97 173.091625 
L 224.97 199.702825 
L 260.682 199.702825 
L 260.682 173.091625 
L 224.97 173.091625 
z
" clip-path="url(#p477953dc4a)" style="fill: #6dafd7"/>
    <path d="M 260.682 173.091625 
L 260.682 199.702825 
L 296.394 199.702825 
L 296.394 173.091625 
L 260.682 173.091625 
z
" clip-path="url(#p477953dc4a)" style="fill: #f7fbff"/>
    <path d="M 296.394 173.091625 
L 296.394 199.702825 
L 332.106 199.702825 
L 332.106 173.091625 
L 296.394 173.091625 
z
" clip-path="url(#p477953dc4a)" style="fill: #7ab6d9"/>
    <path d="M 332.106 173.091625 
L 332.106 199.702825 
L 367.818 199.702825 
L 367.818 173.091625 
L 332.106 173.091625 
z
" clip-path="url(#p477953dc4a)" style="fill: #f7fbff"/>
    <path d="M 367.818 173.091625 
L 367.818 199.702825 
L 403.53 199.702825 
L 403.53 173.091625 
L 367.818 173.091625 
z
" clip-path="url(#p477953dc4a)" style="fill: #f7fbff"/>
    <path d="M 46.41 199.702825 
L 46.41 226.314025 
L 82.122 226.314025 
L 82.122 199.702825 
L 46.41 199.702825 
z
" clip-path="url(#p477953dc4a)" style="fill: #f7fbff"/>
    <path d="M 82.122 199.702825 
L 82.122 226.314025 
L 117.834 226.314025 
L 117.834 199.702825 
L 82.122 199.702825 
z
" clip-path="url(#p477953dc4a)" style="fill: #f7fbff"/>
    <path d="M 117.834 199.702825 
L 117.834 226.314025 
L 153.546 226.314025 
L 153.546 199.702825 
L 117.834 199.702825 
z
" clip-path="url(#p477953dc4a)" style="fill: #f7fbff"/>
    <path d="M 153.546 199.702825 
L 153.546 226.314025 
L 189.258 226.314025 
L 189.258 199.702825 
L 153.546 199.702825 
z
" clip-path="url(#p477953dc4a)" style="fill: #f7fbff"/>
    <path d="M 189.258 199.702825 
L 189.258 226.314025 
L 224.97 226.314025 
L 224.97 199.702825 
L 189.258 199.702825 
z
" clip-path="url(#p477953dc4a)" style="fill: #f7fbff"/>
    <path d="M 224.97 199.702825 
L 224.97 226.314025 
L 260.682 226.314025 
L 260.682 199.702825 
L 224.97 199.702825 
z
" clip-path="url(#p477953dc4a)" style="fill: #f7fbff"/>
    <path d="M 260.682 199.702825 
L 260.682 226.314025 
L 296.394 226.314025 
L 296.394 199.702825 
L 260.682 199.702825 
z
" clip-path="url(#p477953dc4a)" style="fill: #08488e"/>
    <path d="M 296.394 199.702825 
L 296.394 226.314025 
L 332.106 226.314025 
L 332.106 199.702825 
L 296.394 199.702825 
z
" clip-path="url(#p477953dc4a)" style="fill: #f7fbff"/>
    <path d="M 332.106 199.702825 
L 332.106 226.314025 
L 367.818 226.314025 
L 367.818 199.702825 
L 332.106 199.702825 
z
" clip-path="url(#p477953dc4a)" style="fill: #c3daee"/>
    <path d="M 367.818 199.702825 
L 367.818 226.314025 
L 403.53 226.314025 
L 403.53 199.702825 
L 367.818 199.702825 
z
" clip-path="url(#p477953dc4a)" style="fill: #f7fbff"/>
    <path d="M 46.41 226.314025 
L 46.41 252.925225 
L 82.122 252.925225 
L 82.122 226.314025 
L 46.41 226.314025 
z
" clip-path="url(#p477953dc4a)" style="fill: #f7fbff"/>
    <path d="M 82.122 226.314025 
L 82.122 252.925225 
L 117.834 252.925225 
L 117.834 226.314025 
L 82.122 226.314025 
z
" clip-path="url(#p477953dc4a)" style="fill: #f7fbff"/>
    <path d="M 117.834 226.314025 
L 117.834 252.925225 
L 153.546 252.925225 
L 153.546 226.314025 
L 117.834 226.314025 
z
" clip-path="url(#p477953dc4a)" style="fill: #f7fbff"/>
    <path d="M 153.546 226.314025 
L 153.546 252.925225 
L 189.258 252.925225 
L 189.258 226.314025 
L 153.546 226.314025 
z
" clip-path="url(#p477953dc4a)" style="fill: #f7fbff"/>
    <path d="M 189.258 226.314025 
L 189.258 252.925225 
L 224.97 252.925225 
L 224.97 226.314025 
L 189.258 226.314025 
z
" clip-path="url(#p477953dc4a)" style="fill: #f7fbff"/>
    <path d="M 224.97 226.314025 
L 224.97 252.925225 
L 260.682 252.925225 
L 260.682 226.314025 
L 224.97 226.314025 
z
" clip-path="url(#p477953dc4a)" style="fill: #f7fbff"/>
    <path d="M 260.682 226.314025 
L 260.682 252.925225 
L 296.394 252.925225 
L 296.394 226.314025 
L 260.682 226.314025 
z
" clip-path="url(#p477953dc4a)" style="fill: #f7fbff"/>
    <path d="M 296.394 226.314025 
L 296.394 252.925225 
L 332.106 252.925225 
L 332.106 226.314025 
L 296.394 226.314025 
z
" clip-path="url(#p477953dc4a)" style="fill: #f7fbff"/>
    <path d="M 332.106 226.314025 
L 332.106 252.925225 
L 367.818 252.925225 
L 367.818 226.314025 
L 332.106 226.314025 
z
" clip-path="url(#p477953dc4a)" style="fill: #f7fbff"/>
    <path d="M 367.818 226.314025 
L 367.818 252.925225 
L 403.53 252.925225 
L 403.53 226.314025 
L 367.818 226.314025 
z
" clip-path="url(#p477953dc4a)" style="fill: #f7fbff"/>
    <path d="M 46.41 252.925225 
L 46.41 279.536425 
L 82.122 279.536425 
L 82.122 252.925225 
L 46.41 252.925225 
z
" clip-path="url(#p477953dc4a)" style="fill: #f7fbff"/>
    <path d="M 82.122 252.925225 
L 82.122 279.536425 
L 117.834 279.536425 
L 117.834 252.925225 
L 82.122 252.925225 
z
" clip-path="url(#p477953dc4a)" style="fill: #f7fbff"/>
    <path d="M 117.834 252.925225 
L 117.834 279.536425 
L 153.546 279.536425 
L 153.546 252.925225 
L 117.834 252.925225 
z
" clip-path="url(#p477953dc4a)" style="fill: #f7fbff"/>
    <path d="M 153.546 252.925225 
L 153.546 279.536425 
L 189.258 279.536425 
L 189.258 252.925225 
L 153.546 252.925225 
z
" clip-path="url(#p477953dc4a)" style="fill: #f7fbff"/>
    <path d="M 189.258 252.925225 
L 189.258 279.536425 
L 224.97 279.536425 
L 224.97 252.925225 
L 189.258 252.925225 
z
" clip-path="url(#p477953dc4a)" style="fill: #f7fbff"/>
    <path d="M 224.97 252.925225 
L 224.97 279.536425 
L 260.682 279.536425 
L 260.682 252.925225 
L 224.97 252.925225 
z
" clip-path="url(#p477953dc4a)" style="fill: #f7fbff"/>
    <path d="M 260.682 252.925225 
L 260.682 279.536425 
L 296.394 279.536425 
L 296.394 252.925225 
L 260.682 252.925225 
z
" clip-path="url(#p477953dc4a)" style="fill: #f7fbff"/>
    <path d="M 296.394 252.925225 
L 296.394 279.536425 
L 332.106 279.536425 
L 332.106 252.925225 
L 296.394 252.925225 
z
" clip-path="url(#p477953dc4a)" style="fill: #f7fbff"/>
    <path d="M 332.106 252.925225 
L 332.106 279.536425 
L 367.818 279.536425 
L 367.818 252.925225 
L 332.106 252.925225 
z
" clip-path="url(#p477953dc4a)" style="fill: #f7fbff"/>
    <path d="M 367.818 252.925225 
L 367.818 279.536425 
L 403.53 279.536425 
L 403.53 252.925225 
L 367.818 252.925225 
z
" clip-path="url(#p477953dc4a)" style="fill: #f7fbff"/>
    <path d="M 46.41 279.536425 
L 46.41 306.147625 
L 82.122 306.147625 
L 82.122 279.536425 
L 46.41 279.536425 
z
" clip-path="url(#p477953dc4a)" style="fill: #f7fbff"/>
    <path d="M 82.122 279.536425 
L 82.122 306.147625 
L 117.834 306.147625 
L 117.834 279.536425 
L 82.122 279.536425 
z
" clip-path="url(#p477953dc4a)" style="fill: #f7fbff"/>
    <path d="M 117.834 279.536425 
L 117.834 306.147625 
L 153.546 306.147625 
L 153.546 279.536425 
L 117.834 279.536425 
z
" clip-path="url(#p477953dc4a)" style="fill: #f7fbff"/>
    <path d="M 153.546 279.536425 
L 153.546 306.147625 
L 189.258 306.147625 
L 189.258 279.536425 
L 153.546 279.536425 
z
" clip-path="url(#p477953dc4a)" style="fill: #f7fbff"/>
    <path d="M 189.258 279.536425 
L 189.258 306.147625 
L 224.97 306.147625 
L 224.97 279.536425 
L 189.258 279.536425 
z
" clip-path="url(#p477953dc4a)" style="fill: #f7fbff"/>
    <path d="M 224.97 279.536425 
L 224.97 306.147625 
L 260.682 306.147625 
L 260.682 279.536425 
L 224.97 279.536425 
z
" clip-path="url(#p477953dc4a)" style="fill: #f7fbff"/>
    <path d="M 260.682 279.536425 
L 260.682 306.147625 
L 296.394 306.147625 
L 296.394 279.536425 
L 260.682 279.536425 
z
" clip-path="url(#p477953dc4a)" style="fill: #f7fbff"/>
    <path d="M 296.394 279.536425 
L 296.394 306.147625 
L 332.106 306.147625 
L 332.106 279.536425 
L 296.394 279.536425 
z
" clip-path="url(#p477953dc4a)" style="fill: #f7fbff"/>
    <path d="M 332.106 279.536425 
L 332.106 306.147625 
L 367.818 306.147625 
L 367.818 279.536425 
L 332.106 279.536425 
z
" clip-path="url(#p477953dc4a)" style="fill: #f7fbff"/>
    <path d="M 367.818 279.536425 
L 367.818 306.147625 
L 403.53 306.147625 
L 403.53 279.536425 
L 367.818 279.536425 
z
" clip-path="url(#p477953dc4a)" style="fill: #f7fbff"/>
   </g>
   <g id="matplotlib.axis_1">
    <g id="xtick_1">
     <g id="line2d_1">
      <defs>
       <path id="md770a8c6b0" d="M 0 0 
L 0 -3.5 
" style="stroke: #000000; stroke-width: 0.8"/>
      </defs>
      <g>
       <use xlink:href="#md770a8c6b0" x="64.266" y="40.035625" style="stroke: #000000; stroke-width: 0.8"/>
      </g>
     </g>
     <g id="text_1">
      <!-- 1 -->
      <g transform="translate(61.08475 30.955937) scale(0.1 -0.1)">
       <defs>
        <path id="DejaVuSans-31" d="M 794 531 
L 1825 531 
L 1825 4091 
L 703 3866 
L 703 4441 
L 1819 4666 
L 2450 4666 
L 2450 531 
L 3481 531 
L 3481 0 
L 794 0 
L 794 531 
z
" transform="scale(0.015625)"/>
       </defs>
       <use xlink:href="#DejaVuSans-31"/>
      </g>
     </g>
    </g>
    <g id="xtick_2">
     <g id="line2d_2">
      <g>
       <use xlink:href="#md770a8c6b0" x="99.978" y="40.035625" style="stroke: #000000; stroke-width: 0.8"/>
      </g>
     </g>
     <g id="text_2">
      <!-- 2 -->
      <g transform="translate(96.79675 30.955937) scale(0.1 -0.1)">
       <defs>
        <path id="DejaVuSans-32" d="M 1228 531 
L 3431 531 
L 3431 0 
L 469 0 
L 469 531 
Q 828 903 1448 1529 
Q 2069 2156 2228 2338 
Q 2531 2678 2651 2914 
Q 2772 3150 2772 3378 
Q 2772 3750 2511 3984 
Q 2250 4219 1831 4219 
Q 1534 4219 1204 4116 
Q 875 4013 500 3803 
L 500 4441 
Q 881 4594 1212 4672 
Q 1544 4750 1819 4750 
Q 2544 4750 2975 4387 
Q 3406 4025 3406 3419 
Q 3406 3131 3298 2873 
Q 3191 2616 2906 2266 
Q 2828 2175 2409 1742 
Q 1991 1309 1228 531 
z
" transform="scale(0.015625)"/>
       </defs>
       <use xlink:href="#DejaVuSans-32"/>
      </g>
     </g>
    </g>
    <g id="xtick_3">
     <g id="line2d_3">
      <g>
       <use xlink:href="#md770a8c6b0" x="135.69" y="40.035625" style="stroke: #000000; stroke-width: 0.8"/>
      </g>
     </g>
     <g id="text_3">
      <!-- 3 -->
      <g transform="translate(132.50875 30.955937) scale(0.1 -0.1)">
       <defs>
        <path id="DejaVuSans-33" d="M 2597 2516 
Q 3050 2419 3304 2112 
Q 3559 1806 3559 1356 
Q 3559 666 3084 287 
Q 2609 -91 1734 -91 
Q 1441 -91 1130 -33 
Q 819 25 488 141 
L 488 750 
Q 750 597 1062 519 
Q 1375 441 1716 441 
Q 2309 441 2620 675 
Q 2931 909 2931 1356 
Q 2931 1769 2642 2001 
Q 2353 2234 1838 2234 
L 1294 2234 
L 1294 2753 
L 1863 2753 
Q 2328 2753 2575 2939 
Q 2822 3125 2822 3475 
Q 2822 3834 2567 4026 
Q 2313 4219 1838 4219 
Q 1578 4219 1281 4162 
Q 984 4106 628 3988 
L 628 4550 
Q 988 4650 1302 4700 
Q 1616 4750 1894 4750 
Q 2613 4750 3031 4423 
Q 3450 4097 3450 3541 
Q 3450 3153 3228 2886 
Q 3006 2619 2597 2516 
z
" transform="scale(0.015625)"/>
       </defs>
       <use xlink:href="#DejaVuSans-33"/>
      </g>
     </g>
    </g>
    <g id="xtick_4">
     <g id="line2d_4">
      <g>
       <use xlink:href="#md770a8c6b0" x="171.402" y="40.035625" style="stroke: #000000; stroke-width: 0.8"/>
      </g>
     </g>
     <g id="text_4">
      <!-- 4 -->
      <g transform="translate(168.22075 30.955937) scale(0.1 -0.1)">
       <defs>
        <path id="DejaVuSans-34" d="M 2419 4116 
L 825 1625 
L 2419 1625 
L 2419 4116 
z
M 2253 4666 
L 3047 4666 
L 3047 1625 
L 3713 1625 
L 3713 1100 
L 3047 1100 
L 3047 0 
L 2419 0 
L 2419 1100 
L 313 1100 
L 313 1709 
L 2253 4666 
z
" transform="scale(0.015625)"/>
       </defs>
       <use xlink:href="#DejaVuSans-34"/>
      </g>
     </g>
    </g>
    <g id="xtick_5">
     <g id="line2d_5">
      <g>
       <use xlink:href="#md770a8c6b0" x="207.114" y="40.035625" style="stroke: #000000; stroke-width: 0.8"/>
      </g>
     </g>
     <g id="text_5">
      <!-- 5 -->
      <g transform="translate(203.93275 30.955937) scale(0.1 -0.1)">
       <defs>
        <path id="DejaVuSans-35" d="M 691 4666 
L 3169 4666 
L 3169 4134 
L 1269 4134 
L 1269 2991 
Q 1406 3038 1543 3061 
Q 1681 3084 1819 3084 
Q 2600 3084 3056 2656 
Q 3513 2228 3513 1497 
Q 3513 744 3044 326 
Q 2575 -91 1722 -91 
Q 1428 -91 1123 -41 
Q 819 9 494 109 
L 494 744 
Q 775 591 1075 516 
Q 1375 441 1709 441 
Q 2250 441 2565 725 
Q 2881 1009 2881 1497 
Q 2881 1984 2565 2268 
Q 2250 2553 1709 2553 
Q 1456 2553 1204 2497 
Q 953 2441 691 2322 
L 691 4666 
z
" transform="scale(0.015625)"/>
       </defs>
       <use xlink:href="#DejaVuSans-35"/>
      </g>
     </g>
    </g>
    <g id="xtick_6">
     <g id="line2d_6">
      <g>
       <use xlink:href="#md770a8c6b0" x="242.826" y="40.035625" style="stroke: #000000; stroke-width: 0.8"/>
      </g>
     </g>
     <g id="text_6">
      <!-- 6 -->
      <g transform="translate(239.64475 30.955937) scale(0.1 -0.1)">
       <defs>
        <path id="DejaVuSans-36" d="M 2113 2584 
Q 1688 2584 1439 2293 
Q 1191 2003 1191 1497 
Q 1191 994 1439 701 
Q 1688 409 2113 409 
Q 2538 409 2786 701 
Q 3034 994 3034 1497 
Q 3034 2003 2786 2293 
Q 2538 2584 2113 2584 
z
M 3366 4563 
L 3366 3988 
Q 3128 4100 2886 4159 
Q 2644 4219 2406 4219 
Q 1781 4219 1451 3797 
Q 1122 3375 1075 2522 
Q 1259 2794 1537 2939 
Q 1816 3084 2150 3084 
Q 2853 3084 3261 2657 
Q 3669 2231 3669 1497 
Q 3669 778 3244 343 
Q 2819 -91 2113 -91 
Q 1303 -91 875 529 
Q 447 1150 447 2328 
Q 447 3434 972 4092 
Q 1497 4750 2381 4750 
Q 2619 4750 2861 4703 
Q 3103 4656 3366 4563 
z
" transform="scale(0.015625)"/>
       </defs>
       <use xlink:href="#DejaVuSans-36"/>
      </g>
     </g>
    </g>
    <g id="xtick_7">
     <g id="line2d_7">
      <g>
       <use xlink:href="#md770a8c6b0" x="278.538" y="40.035625" style="stroke: #000000; stroke-width: 0.8"/>
      </g>
     </g>
     <g id="text_7">
      <!-- 7 -->
      <g transform="translate(275.35675 30.955937) scale(0.1 -0.1)">
       <defs>
        <path id="DejaVuSans-37" d="M 525 4666 
L 3525 4666 
L 3525 4397 
L 1831 0 
L 1172 0 
L 2766 4134 
L 525 4134 
L 525 4666 
z
" transform="scale(0.015625)"/>
       </defs>
       <use xlink:href="#DejaVuSans-37"/>
      </g>
     </g>
    </g>
    <g id="xtick_8">
     <g id="line2d_8">
      <g>
       <use xlink:href="#md770a8c6b0" x="314.25" y="40.035625" style="stroke: #000000; stroke-width: 0.8"/>
      </g>
     </g>
     <g id="text_8">
      <!-- 8 -->
      <g transform="translate(311.06875 30.955937) scale(0.1 -0.1)">
       <defs>
        <path id="DejaVuSans-38" d="M 2034 2216 
Q 1584 2216 1326 1975 
Q 1069 1734 1069 1313 
Q 1069 891 1326 650 
Q 1584 409 2034 409 
Q 2484 409 2743 651 
Q 3003 894 3003 1313 
Q 3003 1734 2745 1975 
Q 2488 2216 2034 2216 
z
M 1403 2484 
Q 997 2584 770 2862 
Q 544 3141 544 3541 
Q 544 4100 942 4425 
Q 1341 4750 2034 4750 
Q 2731 4750 3128 4425 
Q 3525 4100 3525 3541 
Q 3525 3141 3298 2862 
Q 3072 2584 2669 2484 
Q 3125 2378 3379 2068 
Q 3634 1759 3634 1313 
Q 3634 634 3220 271 
Q 2806 -91 2034 -91 
Q 1263 -91 848 271 
Q 434 634 434 1313 
Q 434 1759 690 2068 
Q 947 2378 1403 2484 
z
M 1172 3481 
Q 1172 3119 1398 2916 
Q 1625 2713 2034 2713 
Q 2441 2713 2670 2916 
Q 2900 3119 2900 3481 
Q 2900 3844 2670 4047 
Q 2441 4250 2034 4250 
Q 1625 4250 1398 4047 
Q 1172 3844 1172 3481 
z
" transform="scale(0.015625)"/>
       </defs>
       <use xlink:href="#DejaVuSans-38"/>
      </g>
     </g>
    </g>
    <g id="xtick_9">
     <g id="line2d_9">
      <g>
       <use xlink:href="#md770a8c6b0" x="349.962" y="40.035625" style="stroke: #000000; stroke-width: 0.8"/>
      </g>
     </g>
     <g id="text_9">
      <!-- 9 -->
      <g transform="translate(346.78075 30.955937) scale(0.1 -0.1)">
       <defs>
        <path id="DejaVuSans-39" d="M 703 97 
L 703 672 
Q 941 559 1184 500 
Q 1428 441 1663 441 
Q 2288 441 2617 861 
Q 2947 1281 2994 2138 
Q 2813 1869 2534 1725 
Q 2256 1581 1919 1581 
Q 1219 1581 811 2004 
Q 403 2428 403 3163 
Q 403 3881 828 4315 
Q 1253 4750 1959 4750 
Q 2769 4750 3195 4129 
Q 3622 3509 3622 2328 
Q 3622 1225 3098 567 
Q 2575 -91 1691 -91 
Q 1453 -91 1209 -44 
Q 966 3 703 97 
z
M 1959 2075 
Q 2384 2075 2632 2365 
Q 2881 2656 2881 3163 
Q 2881 3666 2632 3958 
Q 2384 4250 1959 4250 
Q 1534 4250 1286 3958 
Q 1038 3666 1038 3163 
Q 1038 2656 1286 2365 
Q 1534 2075 1959 2075 
z
" transform="scale(0.015625)"/>
       </defs>
       <use xlink:href="#DejaVuSans-39"/>
      </g>
     </g>
    </g>
    <g id="xtick_10">
     <g id="line2d_10">
      <g>
       <use xlink:href="#md770a8c6b0" x="385.674" y="40.035625" style="stroke: #000000; stroke-width: 0.8"/>
      </g>
     </g>
     <g id="text_10">
      <!-- 10 -->
      <g transform="translate(379.3115 30.955937) scale(0.1 -0.1)">
       <defs>
        <path id="DejaVuSans-30" d="M 2034 4250 
Q 1547 4250 1301 3770 
Q 1056 3291 1056 2328 
Q 1056 1369 1301 889 
Q 1547 409 2034 409 
Q 2525 409 2770 889 
Q 3016 1369 3016 2328 
Q 3016 3291 2770 3770 
Q 2525 4250 2034 4250 
z
M 2034 4750 
Q 2819 4750 3233 4129 
Q 3647 3509 3647 2328 
Q 3647 1150 3233 529 
Q 2819 -91 2034 -91 
Q 1250 -91 836 529 
Q 422 1150 422 2328 
Q 422 3509 836 4129 
Q 1250 4750 2034 4750 
z
" transform="scale(0.015625)"/>
       </defs>
       <use xlink:href="#DejaVuSans-31"/>
       <use xlink:href="#DejaVuSans-30" x="63.623047"/>
      </g>
     </g>
    </g>
    <g id="text_11">
     <!-- $z_i$ -->
     <g transform="translate(218.97 19.3575) scale(0.16 -0.16)">
      <defs>
       <path id="DejaVuSans-Oblique-7a" d="M 744 3500 
L 3475 3500 
L 3372 2975 
L 738 459 
L 2913 459 
L 2822 0 
L -19 0 
L 84 525 
L 2719 3041 
L 653 3041 
L 744 3500 
z
" transform="scale(0.015625)"/>
       <path id="DejaVuSans-Oblique-69" d="M 1172 4863 
L 1747 4863 
L 1606 4134 
L 1031 4134 
L 1172 4863 
z
M 909 3500 
L 1484 3500 
L 800 0 
L 225 0 
L 909 3500 
z
" transform="scale(0.015625)"/>
      </defs>
      <use xlink:href="#DejaVuSans-Oblique-7a" transform="translate(0 0.3125)"/>
      <use xlink:href="#DejaVuSans-Oblique-69" transform="translate(52.490234 -16.09375) scale(0.7)"/>
     </g>
    </g>
   </g>
   <g id="matplotlib.axis_2">
    <g id="ytick_1">
     <g id="line2d_11">
      <defs>
       <path id="m88f1c9f6aa" d="M 0 0 
L -3.5 0 
" style="stroke: #000000; stroke-width: 0.8"/>
      </defs>
      <g>
       <use xlink:href="#m88f1c9f6aa" x="46.41" y="53.341225" style="stroke: #000000; stroke-width: 0.8"/>
      </g>
     </g>
     <g id="text_12">
      <!-- 1 -->
      <g transform="translate(33.0475 57.140444) scale(0.1 -0.1)">
       <use xlink:href="#DejaVuSans-31"/>
      </g>
     </g>
    </g>
    <g id="ytick_2">
     <g id="line2d_12">
      <g>
       <use xlink:href="#m88f1c9f6aa" x="46.41" y="79.952425" style="stroke: #000000; stroke-width: 0.8"/>
      </g>
     </g>
     <g id="text_13">
      <!-- 2 -->
      <g transform="translate(33.0475 83.751644) scale(0.1 -0.1)">
       <use xlink:href="#DejaVuSans-32"/>
      </g>
     </g>
    </g>
    <g id="ytick_3">
     <g id="line2d_13">
      <g>
       <use xlink:href="#m88f1c9f6aa" x="46.41" y="106.563625" style="stroke: #000000; stroke-width: 0.8"/>
      </g>
     </g>
     <g id="text_14">
      <!-- 3 -->
      <g transform="translate(33.0475 110.362844) scale(0.1 -0.1)">
       <use xlink:href="#DejaVuSans-33"/>
      </g>
     </g>
    </g>
    <g id="ytick_4">
     <g id="line2d_14">
      <g>
       <use xlink:href="#m88f1c9f6aa" x="46.41" y="133.174825" style="stroke: #000000; stroke-width: 0.8"/>
      </g>
     </g>
     <g id="text_15">
      <!-- 4 -->
      <g transform="translate(33.0475 136.974044) scale(0.1 -0.1)">
       <use xlink:href="#DejaVuSans-34"/>
      </g>
     </g>
    </g>
    <g id="ytick_5">
     <g id="line2d_15">
      <g>
       <use xlink:href="#m88f1c9f6aa" x="46.41" y="159.786025" style="stroke: #000000; stroke-width: 0.8"/>
      </g>
     </g>
     <g id="text_16">
      <!-- 5 -->
      <g transform="translate(33.0475 163.585244) scale(0.1 -0.1)">
       <use xlink:href="#DejaVuSans-35"/>
      </g>
     </g>
    </g>
    <g id="ytick_6">
     <g id="line2d_16">
      <g>
       <use xlink:href="#m88f1c9f6aa" x="46.41" y="186.397225" style="stroke: #000000; stroke-width: 0.8"/>
      </g>
     </g>
     <g id="text_17">
      <!-- 6 -->
      <g transform="translate(33.0475 190.196444) scale(0.1 -0.1)">
       <use xlink:href="#DejaVuSans-36"/>
      </g>
     </g>
    </g>
    <g id="ytick_7">
     <g id="line2d_17">
      <g>
       <use xlink:href="#m88f1c9f6aa" x="46.41" y="213.008425" style="stroke: #000000; stroke-width: 0.8"/>
      </g>
     </g>
     <g id="text_18">
      <!-- 7 -->
      <g transform="translate(33.0475 216.807644) scale(0.1 -0.1)">
       <use xlink:href="#DejaVuSans-37"/>
      </g>
     </g>
    </g>
    <g id="ytick_8">
     <g id="line2d_18">
      <g>
       <use xlink:href="#m88f1c9f6aa" x="46.41" y="239.619625" style="stroke: #000000; stroke-width: 0.8"/>
      </g>
     </g>
     <g id="text_19">
      <!-- 8 -->
      <g transform="translate(33.0475 243.418844) scale(0.1 -0.1)">
       <use xlink:href="#DejaVuSans-38"/>
      </g>
     </g>
    </g>
    <g id="ytick_9">
     <g id="line2d_19">
      <g>
       <use xlink:href="#m88f1c9f6aa" x="46.41" y="266.230825" style="stroke: #000000; stroke-width: 0.8"/>
      </g>
     </g>
     <g id="text_20">
      <!-- 9 -->
      <g transform="translate(33.0475 270.030044) scale(0.1 -0.1)">
       <use xlink:href="#DejaVuSans-39"/>
      </g>
     </g>
    </g>
    <g id="ytick_10">
     <g id="line2d_20">
      <g>
       <use xlink:href="#m88f1c9f6aa" x="46.41" y="292.842025" style="stroke: #000000; stroke-width: 0.8"/>
      </g>
     </g>
     <g id="text_21">
      <!-- 10 -->
      <g transform="translate(26.685 296.641244) scale(0.1 -0.1)">
       <use xlink:href="#DejaVuSans-31"/>
       <use xlink:href="#DejaVuSans-30" x="63.623047"/>
      </g>
     </g>
    </g>
    <g id="text_22">
     <!-- $z_j$ -->
     <g transform="translate(17.725 179.091625) rotate(-90) scale(0.16 -0.16)">
      <defs>
       <path id="DejaVuSans-Oblique-6a" d="M 928 3500 
L 1503 3500 
L 813 -63 
L 809 -78 
Q 694 -675 544 -897 
Q 403 -1106 132 -1218 
Q -138 -1331 -506 -1331 
L -722 -1331 
L -628 -844 
L -481 -844 
Q -144 -844 -1 -703 
Q 141 -563 238 -63 
L 928 3500 
z
M 1197 4863 
L 1772 4863 
L 1631 4134 
L 1056 4134 
L 1197 4863 
z
" transform="scale(0.015625)"/>
      </defs>
      <use xlink:href="#DejaVuSans-Oblique-7a" transform="translate(0 0.3125)"/>
      <use xlink:href="#DejaVuSans-Oblique-6a" transform="translate(52.490234 -16.09375) scale(0.7)"/>
     </g>
    </g>
   </g>
   <g id="patch_3">
    <path d="M 46.41 306.147625 
L 46.41 40.035625 
" style="fill: none; stroke: #000000; stroke-width: 0.8; stroke-linejoin: miter; stroke-linecap: square"/>
   </g>
   <g id="patch_4">
    <path d="M 403.53 306.147625 
L 403.53 40.035625 
" style="fill: none; stroke: #000000; stroke-width: 0.8; stroke-linejoin: miter; stroke-linecap: square"/>
   </g>
   <g id="patch_5">
    <path d="M 46.41 306.147625 
L 403.53 306.147625 
" style="fill: none; stroke: #000000; stroke-width: 0.8; stroke-linejoin: miter; stroke-linecap: square"/>
   </g>
   <g id="patch_6">
    <path d="M 46.41 40.035625 
L 403.53 40.035625 
" style="fill: none; stroke: #000000; stroke-width: 0.8; stroke-linejoin: miter; stroke-linecap: square"/>
   </g>
  </g>
 </g>
 <defs>
  <clipPath id="p477953dc4a">
   <rect x="46.41" y="40.035625" width="357.12" height="266.112"/>
  </clipPath>
 </defs>
</svg>