<?xml version="1.0" encoding="utf-8" standalone="no"?>
<!DOCTYPE svg PUBLIC "-//W3C//DTD SVG 1.1//EN"
  "http://www.w3.org/Graphics/SVG/1.1/DTD/svg11.dtd">
<svg xmlns:xlink="http://www.w3.org/1999/xlink" width="398.560625pt" height="310.86825pt" viewBox="0 0 398.560625 310.86825" xmlns="http://www.w3.org/2000/svg" version="1.1">
 <metadata>
  <rdf:RDF xmlns:dc="http://purl.org/dc/elements/1.1/" xmlns:cc="http://creativecommons.org/ns#" xmlns:rdf="http://www.w3.org/1999/02/22-rdf-syntax-ns#">
   <cc:Work>
    <dc:type rdf:resource="http://purl.org/dc/dcmitype/StillImage"/>
    <dc:date>2023-07-01T06:38:47.008681</dc:date>
    <dc:format>image/svg+xml</dc:format>
    <dc:creator>
     <cc:Agent>
      <dc:title>Matplotlib v3.7.1, https://matplotlib.org/</dc:title>
     </cc:Agent>
    </dc:creator>
   </cc:Work>
  </rdf:RDF>
 </metadata>
 <defs>
  <style type="text/css">*{stroke-linejoin: round; stroke-linecap: butt}</style>
 </defs>
 <g id="figure_1">
  <g id="patch_1">
   <path d="M 0 310.86825 
L 398.560625 310.86825 
L 398.560625 0 
L 0 0 
z
" style="fill: #ffffff"/>
  </g>
  <g id="axes_1">
   <g id="patch_2">
    <path d="M 34.240625 273.312 
L 391.360625 273.312 
L 391.360625 7.2 
L 34.240625 7.2 
z
" style="fill: #ffffff"/>
   </g>
   <g id="matplotlib.axis_1">
    <g id="xtick_1">
     <g id="line2d_1">
      <defs>
       <path id="m6c1a2d2ff5" d="M 0 0 
L 0 3.5 
" style="stroke: #000000; stroke-width: 0.8"/>
      </defs>
      <g>
       <use xlink:href="#m6c1a2d2ff5" x="34.632413" y="273.312" style="stroke: #000000; stroke-width: 0.8"/>
      </g>
     </g>
     <g id="text_1">
      <!-- 0 -->
      <g transform="translate(31.451163 287.910437) scale(0.1 -0.1)">
       <defs>
        <path id="DejaVuSans-30" d="M 2034 4250 
Q 1547 4250 1301 3770 
Q 1056 3291 1056 2328 
Q 1056 1369 1301 889 
Q 1547 409 2034 409 
Q 2525 409 2770 889 
Q 3016 1369 3016 2328 
Q 3016 3291 2770 3770 
Q 2525 4250 2034 4250 
z
M 2034 4750 
Q 2819 4750 3233 4129 
Q 3647 3509 3647 2328 
Q 3647 1150 3233 529 
Q 2819 -91 2034 -91 
Q 1250 -91 836 529 
Q 422 1150 422 2328 
Q 422 3509 836 4129 
Q 1250 4750 2034 4750 
z
" transform="scale(0.015625)"/>
       </defs>
       <use xlink:href="#DejaVuSans-30"/>
      </g>
     </g>
    </g>
    <g id="xtick_2">
     <g id="line2d_2">
      <g>
       <use xlink:href="#m6c1a2d2ff5" x="80.395855" y="273.312" style="stroke: #000000; stroke-width: 0.8"/>
      </g>
     </g>
     <g id="text_2">
      <!-- 1 -->
      <g transform="translate(77.214605 287.910437) scale(0.1 -0.1)">
       <defs>
        <path id="DejaVuSans-31" d="M 794 531 
L 1825 531 
L 1825 4091 
L 703 3866 
L 703 4441 
L 1819 4666 
L 2450 4666 
L 2450 531 
L 3481 531 
L 3481 0 
L 794 0 
L 794 531 
z
" transform="scale(0.015625)"/>
       </defs>
       <use xlink:href="#DejaVuSans-31"/>
      </g>
     </g>
    </g>
    <g id="xtick_3">
     <g id="line2d_3">
      <g>
       <use xlink:href="#m6c1a2d2ff5" x="126.159297" y="273.312" style="stroke: #000000; stroke-width: 0.8"/>
      </g>
     </g>
     <g id="text_3">
      <!-- 2 -->
      <g transform="translate(122.978047 287.910437) scale(0.1 -0.1)">
       <defs>
        <path id="DejaVuSans-32" d="M 1228 531 
L 3431 531 
L 3431 0 
L 469 0 
L 469 531 
Q 828 903 1448 1529 
Q 2069 2156 2228 2338 
Q 2531 2678 2651 2914 
Q 2772 3150 2772 3378 
Q 2772 3750 2511 3984 
Q 2250 4219 1831 4219 
Q 1534 4219 1204 4116 
Q 875 4013 500 3803 
L 500 4441 
Q 881 4594 1212 4672 
Q 1544 4750 1819 4750 
Q 2544 4750 2975 4387 
Q 3406 4025 3406 3419 
Q 3406 3131 3298 2873 
Q 3191 2616 2906 2266 
Q 2828 2175 2409 1742 
Q 1991 1309 1228 531 
z
" transform="scale(0.015625)"/>
       </defs>
       <use xlink:href="#DejaVuSans-32"/>
      </g>
     </g>
    </g>
    <g id="xtick_4">
     <g id="line2d_4">
      <g>
       <use xlink:href="#m6c1a2d2ff5" x="171.922739" y="273.312" style="stroke: #000000; stroke-width: 0.8"/>
      </g>
     </g>
     <g id="text_4">
      <!-- 3 -->
      <g transform="translate(168.741489 287.910437) scale(0.1 -0.1)">
       <defs>
        <path id="DejaVuSans-33" d="M 2597 2516 
Q 3050 2419 3304 2112 
Q 3559 1806 3559 1356 
Q 3559 666 3084 287 
Q 2609 -91 1734 -91 
Q 1441 -91 1130 -33 
Q 819 25 488 141 
L 488 750 
Q 750 597 1062 519 
Q 1375 441 1716 441 
Q 2309 441 2620 675 
Q 2931 909 2931 1356 
Q 2931 1769 2642 2001 
Q 2353 2234 1838 2234 
L 1294 2234 
L 1294 2753 
L 1863 2753 
Q 2328 2753 2575 2939 
Q 2822 3125 2822 3475 
Q 2822 3834 2567 4026 
Q 2313 4219 1838 4219 
Q 1578 4219 1281 4162 
Q 984 4106 628 3988 
L 628 4550 
Q 988 4650 1302 4700 
Q 1616 4750 1894 4750 
Q 2613 4750 3031 4423 
Q 3450 4097 3450 3541 
Q 3450 3153 3228 2886 
Q 3006 2619 2597 2516 
z
" transform="scale(0.015625)"/>
       </defs>
       <use xlink:href="#DejaVuSans-33"/>
      </g>
     </g>
    </g>
    <g id="xtick_5">
     <g id="line2d_5">
      <g>
       <use xlink:href="#m6c1a2d2ff5" x="217.686181" y="273.312" style="stroke: #000000; stroke-width: 0.8"/>
      </g>
     </g>
     <g id="text_5">
      <!-- 4 -->
      <g transform="translate(214.504931 287.910437) scale(0.1 -0.1)">
       <defs>
        <path id="DejaVuSans-34" d="M 2419 4116 
L 825 1625 
L 2419 1625 
L 2419 4116 
z
M 2253 4666 
L 3047 4666 
L 3047 1625 
L 3713 1625 
L 3713 1100 
L 3047 1100 
L 3047 0 
L 2419 0 
L 2419 1100 
L 313 1100 
L 313 1709 
L 2253 4666 
z
" transform="scale(0.015625)"/>
       </defs>
       <use xlink:href="#DejaVuSans-34"/>
      </g>
     </g>
    </g>
    <g id="xtick_6">
     <g id="line2d_6">
      <g>
       <use xlink:href="#m6c1a2d2ff5" x="263.449623" y="273.312" style="stroke: #000000; stroke-width: 0.8"/>
      </g>
     </g>
     <g id="text_6">
      <!-- 5 -->
      <g transform="translate(260.268373 287.910437) scale(0.1 -0.1)">
       <defs>
        <path id="DejaVuSans-35" d="M 691 4666 
L 3169 4666 
L 3169 4134 
L 1269 4134 
L 1269 2991 
Q 1406 3038 1543 3061 
Q 1681 3084 1819 3084 
Q 2600 3084 3056 2656 
Q 3513 2228 3513 1497 
Q 3513 744 3044 326 
Q 2575 -91 1722 -91 
Q 1428 -91 1123 -41 
Q 819 9 494 109 
L 494 744 
Q 775 591 1075 516 
Q 1375 441 1709 441 
Q 2250 441 2565 725 
Q 2881 1009 2881 1497 
Q 2881 1984 2565 2268 
Q 2250 2553 1709 2553 
Q 1456 2553 1204 2497 
Q 953 2441 691 2322 
L 691 4666 
z
" transform="scale(0.015625)"/>
       </defs>
       <use xlink:href="#DejaVuSans-35"/>
      </g>
     </g>
    </g>
    <g id="xtick_7">
     <g id="line2d_7">
      <g>
       <use xlink:href="#m6c1a2d2ff5" x="309.213064" y="273.312" style="stroke: #000000; stroke-width: 0.8"/>
      </g>
     </g>
     <g id="text_7">
      <!-- 6 -->
      <g transform="translate(306.031814 287.910437) scale(0.1 -0.1)">
       <defs>
        <path id="DejaVuSans-36" d="M 2113 2584 
Q 1688 2584 1439 2293 
Q 1191 2003 1191 1497 
Q 1191 994 1439 701 
Q 1688 409 2113 409 
Q 2538 409 2786 701 
Q 3034 994 3034 1497 
Q 3034 2003 2786 2293 
Q 2538 2584 2113 2584 
z
M 3366 4563 
L 3366 3988 
Q 3128 4100 2886 4159 
Q 2644 4219 2406 4219 
Q 1781 4219 1451 3797 
Q 1122 3375 1075 2522 
Q 1259 2794 1537 2939 
Q 1816 3084 2150 3084 
Q 2853 3084 3261 2657 
Q 3669 2231 3669 1497 
Q 3669 778 3244 343 
Q 2819 -91 2113 -91 
Q 1303 -91 875 529 
Q 447 1150 447 2328 
Q 447 3434 972 4092 
Q 1497 4750 2381 4750 
Q 2619 4750 2861 4703 
Q 3103 4656 3366 4563 
z
" transform="scale(0.015625)"/>
       </defs>
       <use xlink:href="#DejaVuSans-36"/>
      </g>
     </g>
    </g>
    <g id="xtick_8">
     <g id="line2d_8">
      <g>
       <use xlink:href="#m6c1a2d2ff5" x="354.976506" y="273.312" style="stroke: #000000; stroke-width: 0.8"/>
      </g>
     </g>
     <g id="text_8">
      <!-- 7 -->
      <g transform="translate(351.795256 287.910437) scale(0.1 -0.1)">
       <defs>
        <path id="DejaVuSans-37" d="M 525 4666 
L 3525 4666 
L 3525 4397 
L 1831 0 
L 1172 0 
L 2766 4134 
L 525 4134 
L 525 4666 
z
" transform="scale(0.015625)"/>
       </defs>
       <use xlink:href="#DejaVuSans-37"/>
      </g>
     </g>
    </g>
    <g id="text_9">
     <!-- Standard deviation -->
     <g transform="translate(165.223281 301.588562) scale(0.1 -0.1)">
      <defs>
       <path id="DejaVuSans-53" d="M 3425 4513 
L 3425 3897 
Q 3066 4069 2747 4153 
Q 2428 4238 2131 4238 
Q 1616 4238 1336 4038 
Q 1056 3838 1056 3469 
Q 1056 3159 1242 3001 
Q 1428 2844 1947 2747 
L 2328 2669 
Q 3034 2534 3370 2195 
Q 3706 1856 3706 1288 
Q 3706 609 3251 259 
Q 2797 -91 1919 -91 
Q 1588 -91 1214 -16 
Q 841 59 441 206 
L 441 856 
Q 825 641 1194 531 
Q 1563 422 1919 422 
Q 2459 422 2753 634 
Q 3047 847 3047 1241 
Q 3047 1584 2836 1778 
Q 2625 1972 2144 2069 
L 1759 2144 
Q 1053 2284 737 2584 
Q 422 2884 422 3419 
Q 422 4038 858 4394 
Q 1294 4750 2059 4750 
Q 2388 4750 2728 4690 
Q 3069 4631 3425 4513 
z
" transform="scale(0.015625)"/>
       <path id="DejaVuSans-74" d="M 1172 4494 
L 1172 3500 
L 2356 3500 
L 2356 3053 
L 1172 3053 
L 1172 1153 
Q 1172 725 1289 603 
Q 1406 481 1766 481 
L 2356 481 
L 2356 0 
L 1766 0 
Q 1100 0 847 248 
Q 594 497 594 1153 
L 594 3053 
L 172 3053 
L 172 3500 
L 594 3500 
L 594 4494 
L 1172 4494 
z
" transform="scale(0.015625)"/>
       <path id="DejaVuSans-61" d="M 2194 1759 
Q 1497 1759 1228 1600 
Q 959 1441 959 1056 
Q 959 750 1161 570 
Q 1363 391 1709 391 
Q 2188 391 2477 730 
Q 2766 1069 2766 1631 
L 2766 1759 
L 2194 1759 
z
M 3341 1997 
L 3341 0 
L 2766 0 
L 2766 531 
Q 2569 213 2275 61 
Q 1981 -91 1556 -91 
Q 1019 -91 701 211 
Q 384 513 384 1019 
Q 384 1609 779 1909 
Q 1175 2209 1959 2209 
L 2766 2209 
L 2766 2266 
Q 2766 2663 2505 2880 
Q 2244 3097 1772 3097 
Q 1472 3097 1187 3025 
Q 903 2953 641 2809 
L 641 3341 
Q 956 3463 1253 3523 
Q 1550 3584 1831 3584 
Q 2591 3584 2966 3190 
Q 3341 2797 3341 1997 
z
" transform="scale(0.015625)"/>
       <path id="DejaVuSans-6e" d="M 3513 2113 
L 3513 0 
L 2938 0 
L 2938 2094 
Q 2938 2591 2744 2837 
Q 2550 3084 2163 3084 
Q 1697 3084 1428 2787 
Q 1159 2491 1159 1978 
L 1159 0 
L 581 0 
L 581 3500 
L 1159 3500 
L 1159 2956 
Q 1366 3272 1645 3428 
Q 1925 3584 2291 3584 
Q 2894 3584 3203 3211 
Q 3513 2838 3513 2113 
z
" transform="scale(0.015625)"/>
       <path id="DejaVuSans-64" d="M 2906 2969 
L 2906 4863 
L 3481 4863 
L 3481 0 
L 2906 0 
L 2906 525 
Q 2725 213 2448 61 
Q 2172 -91 1784 -91 
Q 1150 -91 751 415 
Q 353 922 353 1747 
Q 353 2572 751 3078 
Q 1150 3584 1784 3584 
Q 2172 3584 2448 3432 
Q 2725 3281 2906 2969 
z
M 947 1747 
Q 947 1113 1208 752 
Q 1469 391 1925 391 
Q 2381 391 2643 752 
Q 2906 1113 2906 1747 
Q 2906 2381 2643 2742 
Q 2381 3103 1925 3103 
Q 1469 3103 1208 2742 
Q 947 2381 947 1747 
z
" transform="scale(0.015625)"/>
       <path id="DejaVuSans-72" d="M 2631 2963 
Q 2534 3019 2420 3045 
Q 2306 3072 2169 3072 
Q 1681 3072 1420 2755 
Q 1159 2438 1159 1844 
L 1159 0 
L 581 0 
L 581 3500 
L 1159 3500 
L 1159 2956 
Q 1341 3275 1631 3429 
Q 1922 3584 2338 3584 
Q 2397 3584 2469 3576 
Q 2541 3569 2628 3553 
L 2631 2963 
z
" transform="scale(0.015625)"/>
       <path id="DejaVuSans-20" transform="scale(0.015625)"/>
       <path id="DejaVuSans-65" d="M 3597 1894 
L 3597 1613 
L 953 1613 
Q 991 1019 1311 708 
Q 1631 397 2203 397 
Q 2534 397 2845 478 
Q 3156 559 3463 722 
L 3463 178 
Q 3153 47 2828 -22 
Q 2503 -91 2169 -91 
Q 1331 -91 842 396 
Q 353 884 353 1716 
Q 353 2575 817 3079 
Q 1281 3584 2069 3584 
Q 2775 3584 3186 3129 
Q 3597 2675 3597 1894 
z
M 3022 2063 
Q 3016 2534 2758 2815 
Q 2500 3097 2075 3097 
Q 1594 3097 1305 2825 
Q 1016 2553 972 2059 
L 3022 2063 
z
" transform="scale(0.015625)"/>
       <path id="DejaVuSans-76" d="M 191 3500 
L 800 3500 
L 1894 563 
L 2988 3500 
L 3597 3500 
L 2284 0 
L 1503 0 
L 191 3500 
z
" transform="scale(0.015625)"/>
       <path id="DejaVuSans-69" d="M 603 3500 
L 1178 3500 
L 1178 0 
L 603 0 
L 603 3500 
z
M 603 4863 
L 1178 4863 
L 1178 4134 
L 603 4134 
L 603 4863 
z
" transform="scale(0.015625)"/>
       <path id="DejaVuSans-6f" d="M 1959 3097 
Q 1497 3097 1228 2736 
Q 959 2375 959 1747 
Q 959 1119 1226 758 
Q 1494 397 1959 397 
Q 2419 397 2687 759 
Q 2956 1122 2956 1747 
Q 2956 2369 2687 2733 
Q 2419 3097 1959 3097 
z
M 1959 3584 
Q 2709 3584 3137 3096 
Q 3566 2609 3566 1747 
Q 3566 888 3137 398 
Q 2709 -91 1959 -91 
Q 1206 -91 779 398 
Q 353 888 353 1747 
Q 353 2609 779 3096 
Q 1206 3584 1959 3584 
z
" transform="scale(0.015625)"/>
      </defs>
      <use xlink:href="#DejaVuSans-53"/>
      <use xlink:href="#DejaVuSans-74" x="63.476562"/>
      <use xlink:href="#DejaVuSans-61" x="102.685547"/>
      <use xlink:href="#DejaVuSans-6e" x="163.964844"/>
      <use xlink:href="#DejaVuSans-64" x="227.34375"/>
      <use xlink:href="#DejaVuSans-61" x="290.820312"/>
      <use xlink:href="#DejaVuSans-72" x="352.099609"/>
      <use xlink:href="#DejaVuSans-64" x="391.462891"/>
      <use xlink:href="#DejaVuSans-20" x="454.939453"/>
      <use xlink:href="#DejaVuSans-64" x="486.726562"/>
      <use xlink:href="#DejaVuSans-65" x="550.203125"/>
      <use xlink:href="#DejaVuSans-76" x="611.726562"/>
      <use xlink:href="#DejaVuSans-69" x="670.90625"/>
      <use xlink:href="#DejaVuSans-61" x="698.689453"/>
      <use xlink:href="#DejaVuSans-74" x="759.96875"/>
      <use xlink:href="#DejaVuSans-69" x="799.177734"/>
      <use xlink:href="#DejaVuSans-6f" x="826.960938"/>
      <use xlink:href="#DejaVuSans-6e" x="888.142578"/>
     </g>
    </g>
   </g>
   <g id="matplotlib.axis_2">
    <g id="ytick_1">
     <g id="line2d_9">
      <defs>
       <path id="mafe8f7c01f" d="M 0 0 
L -3.5 0 
" style="stroke: #000000; stroke-width: 0.8"/>
      </defs>
      <g>
       <use xlink:href="#mafe8f7c01f" x="34.240625" y="253.565732" style="stroke: #000000; stroke-width: 0.8"/>
      </g>
     </g>
     <g id="text_10">
      <!-- 1 -->
      <g transform="translate(20.878125 257.36495) scale(0.1 -0.1)">
       <use xlink:href="#DejaVuSans-31"/>
      </g>
     </g>
    </g>
    <g id="ytick_2">
     <g id="line2d_10">
      <g>
       <use xlink:href="#mafe8f7c01f" x="34.240625" y="199.194192" style="stroke: #000000; stroke-width: 0.8"/>
      </g>
     </g>
     <g id="text_11">
      <!-- 2 -->
      <g transform="translate(20.878125 202.993411) scale(0.1 -0.1)">
       <use xlink:href="#DejaVuSans-32"/>
      </g>
     </g>
    </g>
    <g id="ytick_3">
     <g id="line2d_11">
      <g>
       <use xlink:href="#mafe8f7c01f" x="34.240625" y="144.822653" style="stroke: #000000; stroke-width: 0.8"/>
      </g>
     </g>
     <g id="text_12">
      <!-- 3 -->
      <g transform="translate(20.878125 148.621872) scale(0.1 -0.1)">
       <use xlink:href="#DejaVuSans-33"/>
      </g>
     </g>
    </g>
    <g id="ytick_4">
     <g id="line2d_12">
      <g>
       <use xlink:href="#mafe8f7c01f" x="34.240625" y="90.451113" style="stroke: #000000; stroke-width: 0.8"/>
      </g>
     </g>
     <g id="text_13">
      <!-- 4 -->
      <g transform="translate(20.878125 94.250332) scale(0.1 -0.1)">
       <use xlink:href="#DejaVuSans-34"/>
      </g>
     </g>
    </g>
    <g id="ytick_5">
     <g id="line2d_13">
      <g>
       <use xlink:href="#mafe8f7c01f" x="34.240625" y="36.079574" style="stroke: #000000; stroke-width: 0.8"/>
      </g>
     </g>
     <g id="text_14">
      <!-- 5 -->
      <g transform="translate(20.878125 39.878793) scale(0.1 -0.1)">
       <use xlink:href="#DejaVuSans-35"/>
      </g>
     </g>
    </g>
    <g id="text_15">
     <!-- Return -->
     <g transform="translate(14.798438 156.847406) rotate(-90) scale(0.1 -0.1)">
      <defs>
       <path id="DejaVuSans-52" d="M 2841 2188 
Q 3044 2119 3236 1894 
Q 3428 1669 3622 1275 
L 4263 0 
L 3584 0 
L 2988 1197 
Q 2756 1666 2539 1819 
Q 2322 1972 1947 1972 
L 1259 1972 
L 1259 0 
L 628 0 
L 628 4666 
L 2053 4666 
Q 2853 4666 3247 4331 
Q 3641 3997 3641 3322 
Q 3641 2881 3436 2590 
Q 3231 2300 2841 2188 
z
M 1259 4147 
L 1259 2491 
L 2053 2491 
Q 2509 2491 2742 2702 
Q 2975 2913 2975 3322 
Q 2975 3731 2742 3939 
Q 2509 4147 2053 4147 
L 1259 4147 
z
" transform="scale(0.015625)"/>
       <path id="DejaVuSans-75" d="M 544 1381 
L 544 3500 
L 1119 3500 
L 1119 1403 
Q 1119 906 1312 657 
Q 1506 409 1894 409 
Q 2359 409 2629 706 
Q 2900 1003 2900 1516 
L 2900 3500 
L 3475 3500 
L 3475 0 
L 2900 0 
L 2900 538 
Q 2691 219 2414 64 
Q 2138 -91 1772 -91 
Q 1169 -91 856 284 
Q 544 659 544 1381 
z
M 1991 3584 
L 1991 3584 
z
" transform="scale(0.015625)"/>
      </defs>
      <use xlink:href="#DejaVuSans-52"/>
      <use xlink:href="#DejaVuSans-65" x="64.982422"/>
      <use xlink:href="#DejaVuSans-74" x="126.505859"/>
      <use xlink:href="#DejaVuSans-75" x="165.714844"/>
      <use xlink:href="#DejaVuSans-72" x="229.09375"/>
      <use xlink:href="#DejaVuSans-6e" x="268.457031"/>
     </g>
    </g>
   </g>
   <g id="line2d_14">
    <path d="M 151.943459 182.799091 
L 151.94457 182.798708 
L 151.943216 182.799291 
L 151.940796 182.800165 
L 151.943478 182.799072 
L 151.943427 182.79909 
L 151.943173 182.799186 
L 151.942152 182.799581 
L 151.938767 182.80093 
L 151.942933 182.799293 
L 151.941152 182.800041 
L 151.935242 182.802597 
L 151.94011 182.800556 
L 151.943484 182.799071 
L 151.943461 182.799083 
L 146.605969 184.529335 
L 141.181382 186.392392 
L 136.676616 188.05156 
L 132.960003 189.528596 
L 127.188484 192.00648 
L 121.062252 194.750901 
L 115.092143 197.560518 
L 108.622938 200.728106 
L 102.376666 203.869059 
L 96.983738 206.665181 
L 92.353162 209.154329 
L 88.401013 211.370202 
L 85.049439 213.342801 
L 82.226024 215.098842 
L 79.86346 216.662033 
L 77.899577 218.0535 
L 76.27744 219.292058 
L 74.945563 220.394554 
L 73.690825 221.53446 
L 71.524965 223.631834 
L 69.404126 225.810762 
L 67.59164 227.785872 
L 66.081168 229.544146 
L 64.812344 231.13303 
L 62.541066 234.142455 
L 60.600446 236.821587 
L 58.952968 239.205135 
L 57.563293 241.328378 
L 56.399305 243.216689 
L 55.430513 244.898795 
L 54.629454 246.396232 
L 53.971075 247.729273 
L 53.432952 248.91597 
L 52.995299 249.972398 
L 52.640909 250.912879 
L 52.355017 251.750181 
L 52.125117 252.495665 
L 51.94073 253.15946 
L 51.717405 254.05602 
L 51.51619 254.94729 
L 51.367038 255.680111 
L 51.308273 256.00343 
L 51.261555 256.291253 
L 51.224438 256.547479 
L 51.194965 256.775575 
L 51.171571 256.978632 
L 51.153008 257.159398 
L 51.138283 257.320317 
L 51.126604 257.46357 
L 51.117343 257.591097 
L 51.109999 257.704622 
L 51.104174 257.80567 
L 51.099558 257.89569 
L 51.095902 257.975726 
L 51.092999 258.047037 
L 51.0907 258.110505 
L 51.088879 258.167003 
L 51.087436 258.217296 
L 51.086292 258.262065 
L 51.085387 258.301916 
L 51.08467 258.337389 
L 51.084105 258.368957 
L 51.083659 258.397054 
L 51.083307 258.422078 
L 51.083035 258.444368 
L 51.082805 258.464323 
L 51.082604 258.482184 
L 51.082418 258.49822 
L 51.082249 258.512607 
L 51.082261 258.524139 
L 51.08219 258.53524 
L 51.082132 258.54513 
L 51.082084 258.553946 
L 51.082043 258.561812 
L 51.082006 258.568836 
L 51.081972 258.575116 
L 51.081938 258.580741 
L 51.081904 258.585788 
L 51.081867 258.590326 
L 51.081827 258.594416 
L 51.081784 258.598111 
L 51.081929 258.600236 
L 51.081917 258.603032 
L 51.081906 258.605525 
L 51.081894 258.607758 
" clip-path="url(#p841e310491)" style="fill: none; stroke: #1f77b4; stroke-width: 1.5; stroke-linecap: square"/>
   </g>
   <g id="line2d_15">
    <path d="M 228.270308 127.658437 
L 227.525833 127.737352 
L 226.932684 127.808309 
L 226.45636 127.873537 
L 226.090961 127.925973 
L 225.794154 127.975729 
L 223.263416 128.463202 
L 218.37988 129.467254 
L 214.411563 130.362908 
L 211.213638 131.155341 
L 208.629394 131.86484 
L 203.146551 133.556463 
L 192.252371 137.063996 
L 183.051624 140.186875 
L 175.332171 142.968109 
L 168.903315 145.440698 
L 163.578237 147.644489 
L 159.010538 149.692082 
L 151.187359 153.430761 
L 144.592433 156.759533 
L 139.069098 159.724227 
L 132.627743 163.417044 
L 125.874701 167.455652 
L 118.764923 171.879745 
L 112.916396 175.658442 
L 108.53711 178.641349 
L 103.058948 182.568639 
L 98.234629 186.166922 
L 94.133766 189.370496 
L 90.671022 192.22246 
L 87.766543 194.761515 
L 85.499738 196.878111 
L 82.418916 199.956757 
L 79.699544 202.822842 
L 77.422501 205.373576 
L 75.527693 207.644693 
L 73.711308 209.991427 
L 71.964829 212.405289 
L 70.4223 214.6952 
L 68.543486 217.722097 
L 65.671057 222.501533 
L 63.190235 226.756255 
L 61.059331 230.543872 
L 59.239912 233.915666 
L 57.696337 236.917289 
L 56.39546 239.589378 
L 55.30648 241.968112 
L 54.400921 244.085697 
L 53.652684 245.970803 
L 53.038127 247.648953 
L 52.536125 249.142868 
L 52.128069 250.472773 
L 51.797804 251.656674 
L 51.53149 252.710601 
L 51.317422 253.648823 
L 51.145806 254.484042 
L 51.008526 255.227567 
L 50.898911 255.889464 
L 50.811516 256.478695 
L 50.74192 257.003237 
L 50.686552 257.470192 
L 50.642538 257.885882 
L 50.607571 258.255936 
L 50.579806 258.585364 
L 50.557769 258.878625 
L 50.540283 259.139691 
L 50.526411 259.372096 
L 50.51541 259.578986 
L 50.506687 259.763163 
L 50.49977 259.92712 
L 50.494286 260.073077 
L 50.489939 260.20301 
L 50.486493 260.318678 
L 50.483762 260.421648 
L 50.481597 260.513313 
L 50.479882 260.594915 
L 50.478522 260.667558 
L 50.477444 260.732226 
L 50.47659 260.789794 
L 50.475913 260.841043 
L 50.475376 260.886665 
L 50.474951 260.927278 
L 50.474614 260.963433 
L 50.474347 260.995618 
L 50.474136 261.02427 
L 50.473968 261.049776 
L 50.473835 261.072482 
L 50.47373 261.092696 
L 50.473646 261.11069 
L 50.47358 261.126709 
L 50.473528 261.140969 
L 50.473486 261.153664 
L 50.473453 261.164964 
L 50.473427 261.175025 
L 50.473407 261.18398 
L 50.47339 261.191953 
L 50.473377 261.19905 
L 50.473367 261.205369 
L 50.473359 261.210993 
L 50.473352 261.216 
" clip-path="url(#p841e310491)" style="fill: none; stroke: #ff7f0e; stroke-width: 1.5; stroke-linecap: square"/>
   </g>
   <g id="line2d_16">
    <path d="M 375.127898 19.296 
L 364.173206 21.312794 
L 355.223043 23.109693 
L 347.956729 24.704598 
L 342.072086 26.127054 
L 337.325972 27.394114 
L 333.505394 28.525316 
L 319.863289 32.992735 
L 303.613252 38.573935 
L 289.998669 43.545832 
L 278.669929 47.972377 
L 269.301641 51.914975 
L 261.60861 55.419652 
L 248.58067 61.80608 
L 237.102905 67.761128 
L 227.52662 73.058081 
L 219.582633 77.776749 
L 207.481578 85.497048 
L 191.281071 96.084538 
L 177.139091 105.511067 
L 164.845329 113.902922 
L 154.208267 121.373589 
L 145.053161 128.024042 
L 137.219285 133.944221 
L 130.55762 139.214673 
L 124.929242 143.907728 
L 119.599183 148.620994 
L 115.417163 152.535664 
L 111.965598 155.999243 
L 109.118729 159.079952 
L 104.725192 164.185491 
L 100.739215 169.068729 
L 97.400305 173.416751 
L 94.622789 177.286784 
L 90.553423 183.38864 
L 84.934436 191.937367 
L 79.989745 199.547573 
L 75.649951 206.322294 
L 71.853065 212.353252 
L 68.543484 217.722102 
L 65.671057 222.501533 
L 63.190235 226.756255 
L 61.059331 230.543872 
L 59.239912 233.915666 
L 57.696337 236.917289 
L 56.39546 239.589378 
L 55.30648 241.968112 
L 54.400921 244.085697 
L 53.652684 245.970803 
L 53.038127 247.648953 
L 52.536125 249.142868 
L 52.128069 250.472773 
L 51.797804 251.656674 
L 51.53149 252.710601 
L 51.317422 253.648823 
L 51.145806 254.484042 
L 51.008526 255.227567 
L 50.898911 255.889464 
L 50.811516 256.478695 
L 50.74192 257.003237 
L 50.686552 257.470192 
L 50.642538 257.885882 
L 50.607571 258.255936 
L 50.579806 258.585364 
L 50.557769 258.878625 
L 50.540283 259.139691 
L 50.526411 259.372096 
L 50.51541 259.578986 
L 50.506687 259.763163 
L 50.49977 259.92712 
L 50.494286 260.073077 
L 50.489939 260.20301 
L 50.486493 260.318678 
L 50.483762 260.421648 
L 50.481597 260.513313 
L 50.479882 260.594915 
L 50.478522 260.667558 
L 50.477444 260.732226 
L 50.47659 260.789794 
L 50.475913 260.841043 
L 50.475376 260.886665 
L 50.474951 260.927278 
L 50.474614 260.963433 
L 50.474347 260.995618 
L 50.474136 261.02427 
L 50.473968 261.049776 
L 50.473835 261.072482 
L 50.47373 261.092696 
L 50.473646 261.11069 
L 50.47358 261.126709 
L 50.473528 261.140969 
L 50.473486 261.153664 
L 50.473453 261.164964 
L 50.473427 261.175025 
L 50.473407 261.18398 
L 50.47339 261.191953 
L 50.473377 261.19905 
L 50.473367 261.205369 
L 50.473359 261.210993 
L 50.473352 261.216 
" clip-path="url(#p841e310491)" style="fill: none; stroke: #2ca02c; stroke-width: 1.5; stroke-linecap: square"/>
   </g>
   <g id="patch_3">
    <path d="M 34.240625 273.312 
L 34.240625 7.2 
" style="fill: none; stroke: #000000; stroke-width: 0.8; stroke-linejoin: miter; stroke-linecap: square"/>
   </g>
   <g id="patch_4">
    <path d="M 391.360625 273.312 
L 391.360625 7.2 
" style="fill: none; stroke: #000000; stroke-width: 0.8; stroke-linejoin: miter; stroke-linecap: square"/>
   </g>
   <g id="patch_5">
    <path d="M 34.240625 273.312 
L 391.360625 273.312 
" style="fill: none; stroke: #000000; stroke-width: 0.8; stroke-linejoin: miter; stroke-linecap: square"/>
   </g>
   <g id="patch_6">
    <path d="M 34.240625 7.2 
L 391.360625 7.2 
" style="fill: none; stroke: #000000; stroke-width: 0.8; stroke-linejoin: miter; stroke-linecap: square"/>
   </g>
   <g id="legend_1">
    <g id="patch_7">
     <path d="M 309.460625 268.312 
L 384.360625 268.312 
Q 386.360625 268.312 386.360625 266.312 
L 386.360625 223.277625 
Q 386.360625 221.277625 384.360625 221.277625 
L 309.460625 221.277625 
Q 307.460625 221.277625 307.460625 223.277625 
L 307.460625 266.312 
Q 307.460625 268.312 309.460625 268.312 
z
" style="fill: #ffffff; opacity: 0.8; stroke: #cccccc; stroke-linejoin: miter"/>
    </g>
    <g id="line2d_17">
     <path d="M 311.460625 229.376062 
L 321.460625 229.376062 
L 331.460625 229.376062 
" style="fill: none; stroke: #1f77b4; stroke-width: 1.5; stroke-linecap: square"/>
    </g>
    <g id="text_16">
     <!-- $L^{\max}$ = 1 -->
     <g transform="translate(339.460625 232.876062) scale(0.1 -0.1)">
      <defs>
       <path id="DejaVuSans-Oblique-4c" d="M 1075 4666 
L 1709 4666 
L 909 525 
L 3181 525 
L 3078 0 
L 172 0 
L 1075 4666 
z
" transform="scale(0.015625)"/>
       <path id="DejaVuSans-6d" d="M 3328 2828 
Q 3544 3216 3844 3400 
Q 4144 3584 4550 3584 
Q 5097 3584 5394 3201 
Q 5691 2819 5691 2113 
L 5691 0 
L 5113 0 
L 5113 2094 
Q 5113 2597 4934 2840 
Q 4756 3084 4391 3084 
Q 3944 3084 3684 2787 
Q 3425 2491 3425 1978 
L 3425 0 
L 2847 0 
L 2847 2094 
Q 2847 2600 2669 2842 
Q 2491 3084 2119 3084 
Q 1678 3084 1418 2786 
Q 1159 2488 1159 1978 
L 1159 0 
L 581 0 
L 581 3500 
L 1159 3500 
L 1159 2956 
Q 1356 3278 1631 3431 
Q 1906 3584 2284 3584 
Q 2666 3584 2933 3390 
Q 3200 3197 3328 2828 
z
" transform="scale(0.015625)"/>
       <path id="DejaVuSans-78" d="M 3513 3500 
L 2247 1797 
L 3578 0 
L 2900 0 
L 1881 1375 
L 863 0 
L 184 0 
L 1544 1831 
L 300 3500 
L 978 3500 
L 1906 2253 
L 2834 3500 
L 3513 3500 
z
" transform="scale(0.015625)"/>
       <path id="DejaVuSans-3d" d="M 678 2906 
L 4684 2906 
L 4684 2381 
L 678 2381 
L 678 2906 
z
M 678 1631 
L 4684 1631 
L 4684 1100 
L 678 1100 
L 678 1631 
z
" transform="scale(0.015625)"/>
      </defs>
      <use xlink:href="#DejaVuSans-Oblique-4c" transform="translate(0 0.51875)"/>
      <use xlink:href="#DejaVuSans-6d" transform="translate(62.729661 38.8) scale(0.7)"/>
      <use xlink:href="#DejaVuSans-61" transform="translate(130.918138 38.8) scale(0.7)"/>
      <use xlink:href="#DejaVuSans-78" transform="translate(173.813646 38.8) scale(0.7)"/>
      <use xlink:href="#DejaVuSans-20" transform="translate(217.973802 0.51875)"/>
      <use xlink:href="#DejaVuSans-3d" transform="translate(249.760911 0.51875)"/>
      <use xlink:href="#DejaVuSans-20" transform="translate(333.549974 0.51875)"/>
      <use xlink:href="#DejaVuSans-31" transform="translate(365.337083 0.51875)"/>
     </g>
    </g>
    <g id="line2d_18">
     <path d="M 311.460625 244.054187 
L 321.460625 244.054187 
L 331.460625 244.054187 
" style="fill: none; stroke: #ff7f0e; stroke-width: 1.5; stroke-linecap: square"/>
    </g>
    <g id="text_17">
     <!-- $L^{\max}$ = 2 -->
     <g transform="translate(339.460625 247.554187) scale(0.1 -0.1)">
      <use xlink:href="#DejaVuSans-Oblique-4c" transform="translate(0 0.51875)"/>
      <use xlink:href="#DejaVuSans-6d" transform="translate(62.729661 38.8) scale(0.7)"/>
      <use xlink:href="#DejaVuSans-61" transform="translate(130.918138 38.8) scale(0.7)"/>
      <use xlink:href="#DejaVuSans-78" transform="translate(173.813646 38.8) scale(0.7)"/>
      <use xlink:href="#DejaVuSans-20" transform="translate(217.973802 0.51875)"/>
      <use xlink:href="#DejaVuSans-3d" transform="translate(249.760911 0.51875)"/>
      <use xlink:href="#DejaVuSans-20" transform="translate(333.549974 0.51875)"/>
      <use xlink:href="#DejaVuSans-32" transform="translate(365.337083 0.51875)"/>
     </g>
    </g>
    <g id="line2d_19">
     <path d="M 311.460625 258.732312 
L 321.460625 258.732312 
L 331.460625 258.732312 
" style="fill: none; stroke: #2ca02c; stroke-width: 1.5; stroke-linecap: square"/>
    </g>
    <g id="text_18">
     <!-- $L^{\max}$ = 4 -->
     <g transform="translate(339.460625 262.232312) scale(0.1 -0.1)">
      <use xlink:href="#DejaVuSans-Oblique-4c" transform="translate(0 0.51875)"/>
      <use xlink:href="#DejaVuSans-6d" transform="translate(62.729661 38.8) scale(0.7)"/>
      <use xlink:href="#DejaVuSans-61" transform="translate(130.918138 38.8) scale(0.7)"/>
      <use xlink:href="#DejaVuSans-78" transform="translate(173.813646 38.8) scale(0.7)"/>
      <use xlink:href="#DejaVuSans-20" transform="translate(217.973802 0.51875)"/>
      <use xlink:href="#DejaVuSans-3d" transform="translate(249.760911 0.51875)"/>
      <use xlink:href="#DejaVuSans-20" transform="translate(333.549974 0.51875)"/>
      <use xlink:href="#DejaVuSans-34" transform="translate(365.337083 0.51875)"/>
     </g>
    </g>
   </g>
  </g>
 </g>
 <defs>
  <clipPath id="p841e310491">
   <rect x="34.240625" y="7.2" width="357.12" height="266.112"/>
  </clipPath>
 </defs>
</svg>