<?xml version="1.0" encoding="utf-8" standalone="no"?>
<!DOCTYPE svg PUBLIC "-//W3C//DTD SVG 1.1//EN"
  "http://www.w3.org/Graphics/SVG/1.1/DTD/svg11.dtd">
<svg xmlns:xlink="http://www.w3.org/1999/xlink" width="384.8825pt" height="331.79325pt" viewBox="0 0 384.8825 331.79325" xmlns="http://www.w3.org/2000/svg" version="1.1">
 <metadata>
  <rdf:RDF xmlns:dc="http://purl.org/dc/elements/1.1/" xmlns:cc="http://creativecommons.org/ns#" xmlns:rdf="http://www.w3.org/1999/02/22-rdf-syntax-ns#">
   <cc:Work>
    <dc:type rdf:resource="http://purl.org/dc/dcmitype/StillImage"/>
    <dc:date>2023-07-13T06:37:04.247787</dc:date>
    <dc:format>image/svg+xml</dc:format>
    <dc:creator>
     <cc:Agent>
      <dc:title>Matplotlib v3.7.2, https://matplotlib.org/</dc:title>
     </cc:Agent>
    </dc:creator>
   </cc:Work>
  </rdf:RDF>
 </metadata>
 <defs>
  <style type="text/css">*{stroke-linejoin: round; stroke-linecap: butt}</style>
 </defs>
 <g id="figure_1">
  <g id="patch_1">
   <path d="M 0 331.79325 
L 384.8825 331.79325 
L 384.8825 0 
L 0 0 
z
" style="fill: #ffffff"/>
  </g>
  <g id="axes_1">
   <g id="patch_2">
    <path d="M 20.5625 288.430125 
L 377.6825 288.430125 
L 377.6825 22.318125 
L 20.5625 22.318125 
z
" style="fill: #ffffff"/>
   </g>
   <g id="matplotlib.axis_1">
    <g id="xtick_1">
     <g id="line2d_1">
      <defs>
       <path id="m56badcd176" d="M 0 0 
L 0 3.5 
" style="stroke: #000000; stroke-width: 0.8"/>
      </defs>
      <g>
       <use xlink:href="#m56badcd176" x="36.795227" y="288.430125" style="stroke: #000000; stroke-width: 0.8"/>
      </g>
     </g>
     <g id="text_1">
      <!-- 400 -->
      <g transform="translate(27.251477 303.028562) scale(0.1 -0.1)">
       <defs>
        <path id="DejaVuSans-34" d="M 2419 4116 
L 825 1625 
L 2419 1625 
L 2419 4116 
z
M 2253 4666 
L 3047 4666 
L 3047 1625 
L 3713 1625 
L 3713 1100 
L 3047 1100 
L 3047 0 
L 2419 0 
L 2419 1100 
L 313 1100 
L 313 1709 
L 2253 4666 
z
" transform="scale(0.015625)"/>
        <path id="DejaVuSans-30" d="M 2034 4250 
Q 1547 4250 1301 3770 
Q 1056 3291 1056 2328 
Q 1056 1369 1301 889 
Q 1547 409 2034 409 
Q 2525 409 2770 889 
Q 3016 1369 3016 2328 
Q 3016 3291 2770 3770 
Q 2525 4250 2034 4250 
z
M 2034 4750 
Q 2819 4750 3233 4129 
Q 3647 3509 3647 2328 
Q 3647 1150 3233 529 
Q 2819 -91 2034 -91 
Q 1250 -91 836 529 
Q 422 1150 422 2328 
Q 422 3509 836 4129 
Q 1250 4750 2034 4750 
z
" transform="scale(0.015625)"/>
       </defs>
       <use xlink:href="#DejaVuSans-34"/>
       <use xlink:href="#DejaVuSans-30" x="63.623047"/>
       <use xlink:href="#DejaVuSans-30" x="127.246094"/>
      </g>
     </g>
    </g>
    <g id="xtick_2">
     <g id="line2d_2">
      <g>
       <use xlink:href="#m56badcd176" x="103.051257" y="288.430125" style="stroke: #000000; stroke-width: 0.8"/>
      </g>
     </g>
     <g id="text_2">
      <!-- 410 -->
      <g transform="translate(93.507507 303.028562) scale(0.1 -0.1)">
       <defs>
        <path id="DejaVuSans-31" d="M 794 531 
L 1825 531 
L 1825 4091 
L 703 3866 
L 703 4441 
L 1819 4666 
L 2450 4666 
L 2450 531 
L 3481 531 
L 3481 0 
L 794 0 
L 794 531 
z
" transform="scale(0.015625)"/>
       </defs>
       <use xlink:href="#DejaVuSans-34"/>
       <use xlink:href="#DejaVuSans-31" x="63.623047"/>
       <use xlink:href="#DejaVuSans-30" x="127.246094"/>
      </g>
     </g>
    </g>
    <g id="xtick_3">
     <g id="line2d_3">
      <g>
       <use xlink:href="#m56badcd176" x="169.307287" y="288.430125" style="stroke: #000000; stroke-width: 0.8"/>
      </g>
     </g>
     <g id="text_3">
      <!-- 420 -->
      <g transform="translate(159.763537 303.028562) scale(0.1 -0.1)">
       <defs>
        <path id="DejaVuSans-32" d="M 1228 531 
L 3431 531 
L 3431 0 
L 469 0 
L 469 531 
Q 828 903 1448 1529 
Q 2069 2156 2228 2338 
Q 2531 2678 2651 2914 
Q 2772 3150 2772 3378 
Q 2772 3750 2511 3984 
Q 2250 4219 1831 4219 
Q 1534 4219 1204 4116 
Q 875 4013 500 3803 
L 500 4441 
Q 881 4594 1212 4672 
Q 1544 4750 1819 4750 
Q 2544 4750 2975 4387 
Q 3406 4025 3406 3419 
Q 3406 3131 3298 2873 
Q 3191 2616 2906 2266 
Q 2828 2175 2409 1742 
Q 1991 1309 1228 531 
z
" transform="scale(0.015625)"/>
       </defs>
       <use xlink:href="#DejaVuSans-34"/>
       <use xlink:href="#DejaVuSans-32" x="63.623047"/>
       <use xlink:href="#DejaVuSans-30" x="127.246094"/>
      </g>
     </g>
    </g>
    <g id="xtick_4">
     <g id="line2d_4">
      <g>
       <use xlink:href="#m56badcd176" x="235.563316" y="288.430125" style="stroke: #000000; stroke-width: 0.8"/>
      </g>
     </g>
     <g id="text_4">
      <!-- 430 -->
      <g transform="translate(226.019566 303.028562) scale(0.1 -0.1)">
       <defs>
        <path id="DejaVuSans-33" d="M 2597 2516 
Q 3050 2419 3304 2112 
Q 3559 1806 3559 1356 
Q 3559 666 3084 287 
Q 2609 -91 1734 -91 
Q 1441 -91 1130 -33 
Q 819 25 488 141 
L 488 750 
Q 750 597 1062 519 
Q 1375 441 1716 441 
Q 2309 441 2620 675 
Q 2931 909 2931 1356 
Q 2931 1769 2642 2001 
Q 2353 2234 1838 2234 
L 1294 2234 
L 1294 2753 
L 1863 2753 
Q 2328 2753 2575 2939 
Q 2822 3125 2822 3475 
Q 2822 3834 2567 4026 
Q 2313 4219 1838 4219 
Q 1578 4219 1281 4162 
Q 984 4106 628 3988 
L 628 4550 
Q 988 4650 1302 4700 
Q 1616 4750 1894 4750 
Q 2613 4750 3031 4423 
Q 3450 4097 3450 3541 
Q 3450 3153 3228 2886 
Q 3006 2619 2597 2516 
z
" transform="scale(0.015625)"/>
       </defs>
       <use xlink:href="#DejaVuSans-34"/>
       <use xlink:href="#DejaVuSans-33" x="63.623047"/>
       <use xlink:href="#DejaVuSans-30" x="127.246094"/>
      </g>
     </g>
    </g>
    <g id="xtick_5">
     <g id="line2d_5">
      <g>
       <use xlink:href="#m56badcd176" x="301.819346" y="288.430125" style="stroke: #000000; stroke-width: 0.8"/>
      </g>
     </g>
     <g id="text_5">
      <!-- 440 -->
      <g transform="translate(292.275596 303.028562) scale(0.1 -0.1)">
       <use xlink:href="#DejaVuSans-34"/>
       <use xlink:href="#DejaVuSans-34" x="63.623047"/>
       <use xlink:href="#DejaVuSans-30" x="127.246094"/>
      </g>
     </g>
    </g>
    <g id="xtick_6">
     <g id="line2d_6">
      <g>
       <use xlink:href="#m56badcd176" x="368.075376" y="288.430125" style="stroke: #000000; stroke-width: 0.8"/>
      </g>
     </g>
     <g id="text_6">
      <!-- 450 -->
      <g transform="translate(358.531626 303.028562) scale(0.1 -0.1)">
       <defs>
        <path id="DejaVuSans-35" d="M 691 4666 
L 3169 4666 
L 3169 4134 
L 1269 4134 
L 1269 2991 
Q 1406 3038 1543 3061 
Q 1681 3084 1819 3084 
Q 2600 3084 3056 2656 
Q 3513 2228 3513 1497 
Q 3513 744 3044 326 
Q 2575 -91 1722 -91 
Q 1428 -91 1123 -41 
Q 819 9 494 109 
L 494 744 
Q 775 591 1075 516 
Q 1375 441 1709 441 
Q 2250 441 2565 725 
Q 2881 1009 2881 1497 
Q 2881 1984 2565 2268 
Q 2250 2553 1709 2553 
Q 1456 2553 1204 2497 
Q 953 2441 691 2322 
L 691 4666 
z
" transform="scale(0.015625)"/>
       </defs>
       <use xlink:href="#DejaVuSans-34"/>
       <use xlink:href="#DejaVuSans-35" x="63.623047"/>
       <use xlink:href="#DejaVuSans-30" x="127.246094"/>
      </g>
     </g>
    </g>
    <g id="text_7">
     <!-- $t$ -->
     <g transform="translate(195.9225 321.26575) scale(0.16 -0.16)">
      <defs>
       <path id="DejaVuSans-Oblique-74" d="M 2706 3500 
L 2619 3053 
L 1472 3053 
L 1100 1153 
Q 1081 1047 1072 975 
Q 1063 903 1063 863 
Q 1063 663 1183 572 
Q 1303 481 1569 481 
L 2150 481 
L 2053 0 
L 1503 0 
Q 991 0 739 200 
Q 488 400 488 806 
Q 488 878 497 964 
Q 506 1050 525 1153 
L 897 3053 
L 409 3053 
L 500 3500 
L 978 3500 
L 1172 4494 
L 1747 4494 
L 1556 3500 
L 2706 3500 
z
" transform="scale(0.015625)"/>
      </defs>
      <use xlink:href="#DejaVuSans-Oblique-74" transform="translate(0 0.78125)"/>
     </g>
    </g>
   </g>
   <g id="matplotlib.axis_2">
    <g id="ytick_1">
     <g id="line2d_7">
      <defs>
       <path id="mbddd46e9fe" d="M 0 0 
L -3.5 0 
" style="stroke: #000000; stroke-width: 0.8"/>
      </defs>
      <g>
       <use xlink:href="#mbddd46e9fe" x="20.5625" y="241.033224" style="stroke: #000000; stroke-width: 0.8"/>
      </g>
     </g>
     <g id="text_8">
      <!-- 1 -->
      <g transform="translate(7.2 244.832443) scale(0.1 -0.1)">
       <use xlink:href="#DejaVuSans-31"/>
      </g>
     </g>
    </g>
    <g id="ytick_2">
     <g id="line2d_8">
      <g>
       <use xlink:href="#mbddd46e9fe" x="20.5625" y="189.767571" style="stroke: #000000; stroke-width: 0.8"/>
      </g>
     </g>
     <g id="text_9">
      <!-- 2 -->
      <g transform="translate(7.2 193.56679) scale(0.1 -0.1)">
       <use xlink:href="#DejaVuSans-32"/>
      </g>
     </g>
    </g>
    <g id="ytick_3">
     <g id="line2d_9">
      <g>
       <use xlink:href="#mbddd46e9fe" x="20.5625" y="138.501918" style="stroke: #000000; stroke-width: 0.8"/>
      </g>
     </g>
     <g id="text_10">
      <!-- 3 -->
      <g transform="translate(7.2 142.301137) scale(0.1 -0.1)">
       <use xlink:href="#DejaVuSans-33"/>
      </g>
     </g>
    </g>
    <g id="ytick_4">
     <g id="line2d_10">
      <g>
       <use xlink:href="#mbddd46e9fe" x="20.5625" y="87.236265" style="stroke: #000000; stroke-width: 0.8"/>
      </g>
     </g>
     <g id="text_11">
      <!-- 4 -->
      <g transform="translate(7.2 91.035484) scale(0.1 -0.1)">
       <use xlink:href="#DejaVuSans-34"/>
      </g>
     </g>
    </g>
    <g id="ytick_5">
     <g id="line2d_11">
      <g>
       <use xlink:href="#mbddd46e9fe" x="20.5625" y="35.970612" style="stroke: #000000; stroke-width: 0.8"/>
      </g>
     </g>
     <g id="text_12">
      <!-- 5 -->
      <g transform="translate(7.2 39.769831) scale(0.1 -0.1)">
       <use xlink:href="#DejaVuSans-35"/>
      </g>
     </g>
    </g>
   </g>
   <g id="line2d_12">
    <path d="M 36.795227 250.476229 
L 43.42083 258.842452 
L 50.046433 262.896428 
L 56.672036 269.431102 
L 63.297639 270.919899 
L 69.923242 271.677326 
L 76.548845 272.105406 
L 83.174448 274.478036 
L 89.800051 273.619576 
L 96.425654 275.175094 
L 103.051257 274.859019 
L 109.67686 272.786232 
L 116.302463 269.540404 
L 122.928066 266.784199 
L 129.553669 264.850586 
L 136.179272 262.677213 
L 142.804875 259.486587 
L 149.430478 259.399925 
L 156.056081 260.236343 
L 162.681684 256.183121 
L 169.307287 253.245703 
L 175.93289 248.859711 
L 182.558493 237.239131 
L 189.184096 228.342227 
L 195.809699 213.832405 
L 202.435301 202.38081 
L 209.060904 197.853522 
L 215.686507 165.502081 
L 222.31211 151.080546 
L 228.937713 158.249963 
L 235.563316 115.572128 
L 242.188919 85.883908 
L 248.814522 76.129557 
L 255.440125 71.323334 
L 262.065728 73.180087 
L 268.691331 64.747623 
L 275.316934 102.802677 
L 281.942537 111.853138 
L 288.56814 125.905916 
L 295.193743 152.550044 
L 301.819346 184.300216 
L 308.444949 185.168269 
L 315.070552 208.349561 
L 321.696155 225.135873 
L 328.321758 235.620313 
L 334.947361 248.434136 
L 341.572964 259.308495 
L 348.198567 265.542857 
L 354.82417 268.399664 
L 361.449773 267.519197 
" clip-path="url(#p143bdcaa93)" style="fill: none; stroke: #000000; stroke-width: 1.5; stroke-linecap: square"/>
   </g>
   <g id="line2d_13">
    <path d="M 36.795227 231.090706 
L 43.42083 248.838866 
L 50.046433 263.242255 
L 56.672036 263.387685 
L 63.297639 267.304908 
L 69.923242 268.355386 
L 76.548845 268.726694 
L 83.174448 268.842493 
L 89.800051 269.092728 
L 96.425654 269.050995 
L 103.051257 270.633918 
L 109.67686 270.288124 
L 116.302463 267.728603 
L 122.928066 264.038477 
L 129.553669 260.106091 
L 136.179272 257.730514 
L 142.804875 256.090605 
L 149.430478 252.749337 
L 156.056081 252.35503 
L 162.681684 253.679317 
L 169.307287 250.432124 
L 175.93289 246.746561 
L 182.558493 240.774819 
L 189.184096 227.371221 
L 195.809699 216.48743 
L 202.435301 199.434572 
L 209.060904 185.257025 
L 215.686507 181.327051 
L 222.31211 147.834113 
L 228.937713 127.201317 
L 235.563316 134.017932 
L 242.188919 93.983383 
L 248.814522 59.999903 
L 255.440125 40.938446 
L 262.065728 34.414125 
L 268.691331 53.457102 
L 275.316934 48.230527 
L 281.942537 82.576667 
L 288.56814 104.451714 
L 295.193743 122.13385 
L 301.819346 153.128127 
L 308.444949 181.594298 
L 315.070552 190.182674 
L 321.696155 211.412798 
L 328.321758 223.205704 
L 334.947361 234.955442 
L 341.572964 251.722005 
L 348.198567 259.201445 
L 354.82417 263.530033 
L 361.449773 267.899616 
" clip-path="url(#p143bdcaa93)" style="fill: none; stroke: #ff0000; stroke-width: 1.5; stroke-linecap: square"/>
   </g>
   <g id="line2d_14">
    <path d="M 36.795227 241.180216 
L 43.42083 255.618445 
L 50.046433 265.244161 
L 56.672036 266.557062 
L 63.297639 272.167193 
L 69.923242 271.932074 
L 76.548845 270.311015 
L 83.174448 270.357943 
L 89.800051 272.191863 
L 96.425654 271.997921 
L 103.051257 272.690346 
L 109.67686 272.380019 
L 116.302463 270.321854 
L 122.928066 265.941554 
L 129.553669 262.582277 
L 136.179272 260.815621 
L 142.804875 259.148632 
L 149.430478 255.820152 
L 156.056081 256.131797 
L 162.681684 257.811488 
L 169.307287 254.140487 
L 175.93289 250.110726 
L 182.558493 245.234768 
L 189.184096 232.880236 
L 195.809699 222.068678 
L 202.435301 206.735016 
L 209.060904 195.036706 
L 215.686507 191.780688 
L 222.31211 159.564224 
L 228.937713 141.083706 
L 235.563316 151.612781 
L 242.188919 113.64001 
L 248.814522 76.043078 
L 255.440125 63.915619 
L 262.065728 68.602194 
L 268.691331 78.042745 
L 275.316934 68.870674 
L 281.942537 112.410645 
L 288.56814 132.745138 
L 295.193743 141.397393 
L 301.819346 167.489124 
L 308.444949 202.642461 
L 315.070552 204.061144 
L 321.696155 218.885768 
L 328.321758 234.495739 
L 334.947361 248.338064 
L 341.572964 255.000653 
L 348.198567 264.438632 
L 354.82417 271.092606 
L 361.449773 271.550791 
" clip-path="url(#p143bdcaa93)" style="fill: none; stroke: #008000; stroke-width: 1.5; stroke-linecap: square"/>
   </g>
   <g id="line2d_15">
    <path d="M 36.795227 247.364631 
L 43.42083 261.336436 
L 50.046433 270.557138 
L 56.672036 273.158618 
L 63.297639 274.986426 
L 69.923242 274.699804 
L 76.548845 273.807652 
L 83.174448 273.590943 
L 89.800051 275.659705 
L 96.425654 274.294398 
L 103.051257 276.334125 
L 109.67686 275.56774 
L 116.302463 273.1408 
L 122.928066 269.179252 
L 129.553669 266.354894 
L 136.179272 264.256721 
L 142.804875 262.942018 
L 149.430478 260.340594 
L 156.056081 260.697216 
L 162.681684 262.133972 
L 169.307287 258.478495 
L 175.93289 255.354138 
L 182.558493 250.504183 
L 189.184096 238.074939 
L 195.809699 228.848997 
L 202.435301 214.667067 
L 209.060904 203.798338 
L 215.686507 201.54053 
L 222.31211 170.830845 
L 228.937713 155.953802 
L 235.563316 166.28263 
L 242.188919 126.718807 
L 248.814522 96.581019 
L 255.440125 88.668952 
L 262.065728 87.280636 
L 268.691331 97.108755 
L 275.316934 98.496861 
L 281.942537 136.544656 
L 288.56814 147.402694 
L 295.193743 163.065776 
L 301.819346 185.926456 
L 308.444949 217.182974 
L 315.070552 211.372117 
L 321.696155 234.17714 
L 328.321758 244.495435 
L 334.947361 251.851769 
L 341.572964 262.445301 
L 348.198567 272.839152 
L 354.82417 273.221866 
L 361.449773 274.877226 
" clip-path="url(#p143bdcaa93)" style="fill: none; stroke: #0000ff; stroke-width: 1.5; stroke-linecap: square"/>
   </g>
   <g id="patch_3">
    <path d="M 20.5625 288.430125 
L 20.5625 22.318125 
" style="fill: none; stroke: #000000; stroke-width: 0.8; stroke-linejoin: miter; stroke-linecap: square"/>
   </g>
   <g id="patch_4">
    <path d="M 377.6825 288.430125 
L 377.6825 22.318125 
" style="fill: none; stroke: #000000; stroke-width: 0.8; stroke-linejoin: miter; stroke-linecap: square"/>
   </g>
   <g id="patch_5">
    <path d="M 20.5625 288.430125 
L 377.6825 288.430125 
" style="fill: none; stroke: #000000; stroke-width: 0.8; stroke-linejoin: miter; stroke-linecap: square"/>
   </g>
   <g id="patch_6">
    <path d="M 20.5625 22.318125 
L 377.6825 22.318125 
" style="fill: none; stroke: #000000; stroke-width: 0.8; stroke-linejoin: miter; stroke-linecap: square"/>
   </g>
   <g id="text_13">
    <!-- Test data -->
    <g transform="translate(171.88625 16.318125) scale(0.12 -0.12)">
     <defs>
      <path id="DejaVuSans-54" d="M -19 4666 
L 3928 4666 
L 3928 4134 
L 2272 4134 
L 2272 0 
L 1638 0 
L 1638 4134 
L -19 4134 
L -19 4666 
z
" transform="scale(0.015625)"/>
      <path id="DejaVuSans-65" d="M 3597 1894 
L 3597 1613 
L 953 1613 
Q 991 1019 1311 708 
Q 1631 397 2203 397 
Q 2534 397 2845 478 
Q 3156 559 3463 722 
L 3463 178 
Q 3153 47 2828 -22 
Q 2503 -91 2169 -91 
Q 1331 -91 842 396 
Q 353 884 353 1716 
Q 353 2575 817 3079 
Q 1281 3584 2069 3584 
Q 2775 3584 3186 3129 
Q 3597 2675 3597 1894 
z
M 3022 2063 
Q 3016 2534 2758 2815 
Q 2500 3097 2075 3097 
Q 1594 3097 1305 2825 
Q 1016 2553 972 2059 
L 3022 2063 
z
" transform="scale(0.015625)"/>
      <path id="DejaVuSans-73" d="M 2834 3397 
L 2834 2853 
Q 2591 2978 2328 3040 
Q 2066 3103 1784 3103 
Q 1356 3103 1142 2972 
Q 928 2841 928 2578 
Q 928 2378 1081 2264 
Q 1234 2150 1697 2047 
L 1894 2003 
Q 2506 1872 2764 1633 
Q 3022 1394 3022 966 
Q 3022 478 2636 193 
Q 2250 -91 1575 -91 
Q 1294 -91 989 -36 
Q 684 19 347 128 
L 347 722 
Q 666 556 975 473 
Q 1284 391 1588 391 
Q 1994 391 2212 530 
Q 2431 669 2431 922 
Q 2431 1156 2273 1281 
Q 2116 1406 1581 1522 
L 1381 1569 
Q 847 1681 609 1914 
Q 372 2147 372 2553 
Q 372 3047 722 3315 
Q 1072 3584 1716 3584 
Q 2034 3584 2315 3537 
Q 2597 3491 2834 3397 
z
" transform="scale(0.015625)"/>
      <path id="DejaVuSans-74" d="M 1172 4494 
L 1172 3500 
L 2356 3500 
L 2356 3053 
L 1172 3053 
L 1172 1153 
Q 1172 725 1289 603 
Q 1406 481 1766 481 
L 2356 481 
L 2356 0 
L 1766 0 
Q 1100 0 847 248 
Q 594 497 594 1153 
L 594 3053 
L 172 3053 
L 172 3500 
L 594 3500 
L 594 4494 
L 1172 4494 
z
" transform="scale(0.015625)"/>
      <path id="DejaVuSans-20" transform="scale(0.015625)"/>
      <path id="DejaVuSans-64" d="M 2906 2969 
L 2906 4863 
L 3481 4863 
L 3481 0 
L 2906 0 
L 2906 525 
Q 2725 213 2448 61 
Q 2172 -91 1784 -91 
Q 1150 -91 751 415 
Q 353 922 353 1747 
Q 353 2572 751 3078 
Q 1150 3584 1784 3584 
Q 2172 3584 2448 3432 
Q 2725 3281 2906 2969 
z
M 947 1747 
Q 947 1113 1208 752 
Q 1469 391 1925 391 
Q 2381 391 2643 752 
Q 2906 1113 2906 1747 
Q 2906 2381 2643 2742 
Q 2381 3103 1925 3103 
Q 1469 3103 1208 2742 
Q 947 2381 947 1747 
z
" transform="scale(0.015625)"/>
      <path id="DejaVuSans-61" d="M 2194 1759 
Q 1497 1759 1228 1600 
Q 959 1441 959 1056 
Q 959 750 1161 570 
Q 1363 391 1709 391 
Q 2188 391 2477 730 
Q 2766 1069 2766 1631 
L 2766 1759 
L 2194 1759 
z
M 3341 1997 
L 3341 0 
L 2766 0 
L 2766 531 
Q 2569 213 2275 61 
Q 1981 -91 1556 -91 
Q 1019 -91 701 211 
Q 384 513 384 1019 
Q 384 1609 779 1909 
Q 1175 2209 1959 2209 
L 2766 2209 
L 2766 2266 
Q 2766 2663 2505 2880 
Q 2244 3097 1772 3097 
Q 1472 3097 1187 3025 
Q 903 2953 641 2809 
L 641 3341 
Q 956 3463 1253 3523 
Q 1550 3584 1831 3584 
Q 2591 3584 2966 3190 
Q 3341 2797 3341 1997 
z
" transform="scale(0.015625)"/>
     </defs>
     <use xlink:href="#DejaVuSans-54"/>
     <use xlink:href="#DejaVuSans-65" x="44.083984"/>
     <use xlink:href="#DejaVuSans-73" x="105.607422"/>
     <use xlink:href="#DejaVuSans-74" x="157.707031"/>
     <use xlink:href="#DejaVuSans-20" x="196.916016"/>
     <use xlink:href="#DejaVuSans-64" x="228.703125"/>
     <use xlink:href="#DejaVuSans-61" x="292.179688"/>
     <use xlink:href="#DejaVuSans-74" x="353.458984"/>
     <use xlink:href="#DejaVuSans-61" x="392.667969"/>
    </g>
   </g>
  </g>
 </g>
 <defs>
  <clipPath id="p143bdcaa93">
   <rect x="20.5625" y="22.318125" width="357.12" height="266.112"/>
  </clipPath>
 </defs>
</svg>