<?xml version="1.0" encoding="utf-8" standalone="no"?>
<!DOCTYPE svg PUBLIC "-//W3C//DTD SVG 1.1//EN"
  "http://www.w3.org/Graphics/SVG/1.1/DTD/svg11.dtd">
<svg xmlns:xlink="http://www.w3.org/1999/xlink" width="404.3675pt" height="331.79325pt" viewBox="0 0 404.3675 331.79325" xmlns="http://www.w3.org/2000/svg" version="1.1">
 <metadata>
  <rdf:RDF xmlns:dc="http://purl.org/dc/elements/1.1/" xmlns:cc="http://creativecommons.org/ns#" xmlns:rdf="http://www.w3.org/1999/02/22-rdf-syntax-ns#">
   <cc:Work>
    <dc:type rdf:resource="http://purl.org/dc/dcmitype/StillImage"/>
    <dc:date>2023-08-02T19:40:51.553823</dc:date>
    <dc:format>image/svg+xml</dc:format>
    <dc:creator>
     <cc:Agent>
      <dc:title>Matplotlib v3.7.2, https://matplotlib.org/</dc:title>
     </cc:Agent>
    </dc:creator>
   </cc:Work>
  </rdf:RDF>
 </metadata>
 <defs>
  <style type="text/css">*{stroke-linejoin: round; stroke-linecap: butt}</style>
 </defs>
 <g id="figure_1">
  <g id="patch_1">
   <path d="M 0 331.79325 
L 404.3675 331.79325 
L 404.3675 0 
L 0 0 
z
" style="fill: #ffffff"/>
  </g>
  <g id="axes_1">
   <g id="patch_2">
    <path d="M 40.0475 288.430125 
L 397.1675 288.430125 
L 397.1675 22.318125 
L 40.0475 22.318125 
z
" style="fill: #ffffff"/>
   </g>
   <g id="matplotlib.axis_1">
    <g id="xtick_1">
     <g id="line2d_1">
      <defs>
       <path id="m05520eb87e" d="M 0 0 
L 0 3.5 
" style="stroke: #000000; stroke-width: 0.8"/>
      </defs>
      <g>
       <use xlink:href="#m05520eb87e" x="56.280227" y="288.430125" style="stroke: #000000; stroke-width: 0.8"/>
      </g>
     </g>
     <g id="text_1">
      <!-- 0 -->
      <g transform="translate(53.098977 303.028562) scale(0.1 -0.1)">
       <defs>
        <path id="DejaVuSans-30" d="M 2034 4250 
Q 1547 4250 1301 3770 
Q 1056 3291 1056 2328 
Q 1056 1369 1301 889 
Q 1547 409 2034 409 
Q 2525 409 2770 889 
Q 3016 1369 3016 2328 
Q 3016 3291 2770 3770 
Q 2525 4250 2034 4250 
z
M 2034 4750 
Q 2819 4750 3233 4129 
Q 3647 3509 3647 2328 
Q 3647 1150 3233 529 
Q 2819 -91 2034 -91 
Q 1250 -91 836 529 
Q 422 1150 422 2328 
Q 422 3509 836 4129 
Q 1250 4750 2034 4750 
z
" transform="scale(0.015625)"/>
       </defs>
       <use xlink:href="#DejaVuSans-30"/>
      </g>
     </g>
    </g>
    <g id="xtick_2">
     <g id="line2d_2">
      <g>
       <use xlink:href="#m05520eb87e" x="128.586362" y="288.430125" style="stroke: #000000; stroke-width: 0.8"/>
      </g>
     </g>
     <g id="text_2">
      <!-- 100 -->
      <g transform="translate(119.042612 303.028562) scale(0.1 -0.1)">
       <defs>
        <path id="DejaVuSans-31" d="M 794 531 
L 1825 531 
L 1825 4091 
L 703 3866 
L 703 4441 
L 1819 4666 
L 2450 4666 
L 2450 531 
L 3481 531 
L 3481 0 
L 794 0 
L 794 531 
z
" transform="scale(0.015625)"/>
       </defs>
       <use xlink:href="#DejaVuSans-31"/>
       <use xlink:href="#DejaVuSans-30" x="63.623047"/>
       <use xlink:href="#DejaVuSans-30" x="127.246094"/>
      </g>
     </g>
    </g>
    <g id="xtick_3">
     <g id="line2d_3">
      <g>
       <use xlink:href="#m05520eb87e" x="200.892497" y="288.430125" style="stroke: #000000; stroke-width: 0.8"/>
      </g>
     </g>
     <g id="text_3">
      <!-- 200 -->
      <g transform="translate(191.348747 303.028562) scale(0.1 -0.1)">
       <defs>
        <path id="DejaVuSans-32" d="M 1228 531 
L 3431 531 
L 3431 0 
L 469 0 
L 469 531 
Q 828 903 1448 1529 
Q 2069 2156 2228 2338 
Q 2531 2678 2651 2914 
Q 2772 3150 2772 3378 
Q 2772 3750 2511 3984 
Q 2250 4219 1831 4219 
Q 1534 4219 1204 4116 
Q 875 4013 500 3803 
L 500 4441 
Q 881 4594 1212 4672 
Q 1544 4750 1819 4750 
Q 2544 4750 2975 4387 
Q 3406 4025 3406 3419 
Q 3406 3131 3298 2873 
Q 3191 2616 2906 2266 
Q 2828 2175 2409 1742 
Q 1991 1309 1228 531 
z
" transform="scale(0.015625)"/>
       </defs>
       <use xlink:href="#DejaVuSans-32"/>
       <use xlink:href="#DejaVuSans-30" x="63.623047"/>
       <use xlink:href="#DejaVuSans-30" x="127.246094"/>
      </g>
     </g>
    </g>
    <g id="xtick_4">
     <g id="line2d_4">
      <g>
       <use xlink:href="#m05520eb87e" x="273.198632" y="288.430125" style="stroke: #000000; stroke-width: 0.8"/>
      </g>
     </g>
     <g id="text_4">
      <!-- 300 -->
      <g transform="translate(263.654882 303.028562) scale(0.1 -0.1)">
       <defs>
        <path id="DejaVuSans-33" d="M 2597 2516 
Q 3050 2419 3304 2112 
Q 3559 1806 3559 1356 
Q 3559 666 3084 287 
Q 2609 -91 1734 -91 
Q 1441 -91 1130 -33 
Q 819 25 488 141 
L 488 750 
Q 750 597 1062 519 
Q 1375 441 1716 441 
Q 2309 441 2620 675 
Q 2931 909 2931 1356 
Q 2931 1769 2642 2001 
Q 2353 2234 1838 2234 
L 1294 2234 
L 1294 2753 
L 1863 2753 
Q 2328 2753 2575 2939 
Q 2822 3125 2822 3475 
Q 2822 3834 2567 4026 
Q 2313 4219 1838 4219 
Q 1578 4219 1281 4162 
Q 984 4106 628 3988 
L 628 4550 
Q 988 4650 1302 4700 
Q 1616 4750 1894 4750 
Q 2613 4750 3031 4423 
Q 3450 4097 3450 3541 
Q 3450 3153 3228 2886 
Q 3006 2619 2597 2516 
z
" transform="scale(0.015625)"/>
       </defs>
       <use xlink:href="#DejaVuSans-33"/>
       <use xlink:href="#DejaVuSans-30" x="63.623047"/>
       <use xlink:href="#DejaVuSans-30" x="127.246094"/>
      </g>
     </g>
    </g>
    <g id="xtick_5">
     <g id="line2d_5">
      <g>
       <use xlink:href="#m05520eb87e" x="345.504767" y="288.430125" style="stroke: #000000; stroke-width: 0.8"/>
      </g>
     </g>
     <g id="text_5">
      <!-- 400 -->
      <g transform="translate(335.961017 303.028562) scale(0.1 -0.1)">
       <defs>
        <path id="DejaVuSans-34" d="M 2419 4116 
L 825 1625 
L 2419 1625 
L 2419 4116 
z
M 2253 4666 
L 3047 4666 
L 3047 1625 
L 3713 1625 
L 3713 1100 
L 3047 1100 
L 3047 0 
L 2419 0 
L 2419 1100 
L 313 1100 
L 313 1709 
L 2253 4666 
z
" transform="scale(0.015625)"/>
       </defs>
       <use xlink:href="#DejaVuSans-34"/>
       <use xlink:href="#DejaVuSans-30" x="63.623047"/>
       <use xlink:href="#DejaVuSans-30" x="127.246094"/>
      </g>
     </g>
    </g>
    <g id="text_6">
     <!-- $t$ -->
     <g transform="translate(215.4075 321.26575) scale(0.16 -0.16)">
      <defs>
       <path id="DejaVuSans-Oblique-74" d="M 2706 3500 
L 2619 3053 
L 1472 3053 
L 1100 1153 
Q 1081 1047 1072 975 
Q 1063 903 1063 863 
Q 1063 663 1183 572 
Q 1303 481 1569 481 
L 2150 481 
L 2053 0 
L 1503 0 
Q 991 0 739 200 
Q 488 400 488 806 
Q 488 878 497 964 
Q 506 1050 525 1153 
L 897 3053 
L 409 3053 
L 500 3500 
L 978 3500 
L 1172 4494 
L 1747 4494 
L 1556 3500 
L 2706 3500 
z
" transform="scale(0.015625)"/>
      </defs>
      <use xlink:href="#DejaVuSans-Oblique-74" transform="translate(0 0.78125)"/>
     </g>
    </g>
   </g>
   <g id="matplotlib.axis_2">
    <g id="ytick_1">
     <g id="line2d_6">
      <defs>
       <path id="madc0c0059e" d="M 0 0 
L -3.5 0 
" style="stroke: #000000; stroke-width: 0.8"/>
      </defs>
      <g>
       <use xlink:href="#madc0c0059e" x="40.0475" y="235.608948" style="stroke: #000000; stroke-width: 0.8"/>
      </g>
     </g>
     <g id="text_7">
      <!-- 1 -->
      <g transform="translate(26.685 239.408167) scale(0.1 -0.1)">
       <use xlink:href="#DejaVuSans-31"/>
      </g>
     </g>
    </g>
    <g id="ytick_2">
     <g id="line2d_7">
      <g>
       <use xlink:href="#madc0c0059e" x="40.0475" y="177.099439" style="stroke: #000000; stroke-width: 0.8"/>
      </g>
     </g>
     <g id="text_8">
      <!-- 2 -->
      <g transform="translate(26.685 180.898658) scale(0.1 -0.1)">
       <use xlink:href="#DejaVuSans-32"/>
      </g>
     </g>
    </g>
    <g id="ytick_3">
     <g id="line2d_8">
      <g>
       <use xlink:href="#madc0c0059e" x="40.0475" y="118.58993" style="stroke: #000000; stroke-width: 0.8"/>
      </g>
     </g>
     <g id="text_9">
      <!-- 3 -->
      <g transform="translate(26.685 122.389149) scale(0.1 -0.1)">
       <use xlink:href="#DejaVuSans-33"/>
      </g>
     </g>
    </g>
    <g id="ytick_4">
     <g id="line2d_9">
      <g>
       <use xlink:href="#madc0c0059e" x="40.0475" y="60.080421" style="stroke: #000000; stroke-width: 0.8"/>
      </g>
     </g>
     <g id="text_10">
      <!-- 4 -->
      <g transform="translate(26.685 63.87964) scale(0.1 -0.1)">
       <use xlink:href="#DejaVuSans-34"/>
      </g>
     </g>
    </g>
    <g id="text_11">
     <!-- $x_t$ -->
     <g transform="translate(19.3575 162.574125) rotate(-90) scale(0.16 -0.16)">
      <defs>
       <path id="DejaVuSans-Oblique-78" d="M 3841 3500 
L 2234 1784 
L 3219 0 
L 2559 0 
L 1819 1388 
L 531 0 
L -166 0 
L 1556 1844 
L 641 3500 
L 1300 3500 
L 1972 2234 
L 3144 3500 
L 3841 3500 
z
" transform="scale(0.015625)"/>
      </defs>
      <use xlink:href="#DejaVuSans-Oblique-78" transform="translate(0 0.3125)"/>
      <use xlink:href="#DejaVuSans-Oblique-74" transform="translate(59.179688 -16.09375) scale(0.7)"/>
     </g>
    </g>
   </g>
   <g id="line2d_10">
    <path d="M 56.280227 218.043109 
L 57.003289 215.148306 
L 57.72635 215.455693 
L 58.449411 210.018294 
L 59.172473 207.211251 
L 59.895534 214.99881 
L 60.618595 216.015663 
L 61.341657 208.961977 
L 62.064718 216.244453 
L 62.787779 220.778812 
L 63.510841 227.960457 
L 64.233902 231.011198 
L 64.956963 242.922687 
L 65.680025 237.681295 
L 66.403086 242.264843 
L 67.126147 239.354699 
L 67.849209 246.791874 
L 68.57227 249.652723 
L 69.295332 251.782604 
L 70.018393 258.218253 
L 70.741454 255.979876 
L 71.464516 259.930386 
L 72.910638 254.956745 
L 73.6337 247.708766 
L 74.356761 250.171457 
L 75.079822 242.806383 
L 76.525945 225.305156 
L 77.249006 220.506861 
L 77.972068 212.542315 
L 78.695129 208.112843 
L 80.141252 218.831936 
L 80.864313 206.159947 
L 81.587374 207.861071 
L 82.310436 223.112683 
L 83.033497 216.497124 
L 83.756559 220.72671 
L 84.47962 221.517123 
L 85.202681 224.763266 
L 85.925743 229.993834 
L 86.648804 229.424765 
L 87.371865 229.260261 
L 88.094927 223.789281 
L 88.817988 220.658666 
L 89.541049 216.028348 
L 90.264111 207.814205 
L 90.987172 201.59185 
L 91.710233 207.717708 
L 92.433295 198.256086 
L 93.156356 196.976463 
L 93.879417 197.702997 
L 94.602479 207.722909 
L 95.32554 194.785597 
L 96.048601 197.800017 
L 96.771663 191.491175 
L 97.494724 197.021335 
L 98.217785 183.975126 
L 98.940847 194.362793 
L 99.663908 207.066487 
L 100.38697 211.834268 
L 101.110031 228.457469 
L 101.833092 228.01997 
L 102.556154 234.180684 
L 103.279215 237.273205 
L 104.002276 237.159772 
L 104.725338 241.883731 
L 105.448399 238.049537 
L 106.17146 232.210195 
L 106.894522 233.397829 
L 107.617583 240.404501 
L 108.340644 230.284974 
L 109.063706 225.616261 
L 109.786767 216.308793 
L 110.509828 215.121176 
L 111.23289 204.662906 
L 111.955951 196.446349 
L 112.679012 191.357052 
L 113.402074 185.064598 
L 114.125135 175.260228 
L 115.571258 187.862609 
L 116.294319 175.517315 
L 117.017381 192.899967 
L 117.740442 190.361786 
L 118.463503 196.717184 
L 119.186565 190.31241 
L 119.909626 196.594705 
L 120.632687 206.099596 
L 121.355749 200.835246 
L 122.801871 182.361377 
L 123.524933 184.144351 
L 124.971055 141.176257 
L 125.694117 145.290266 
L 126.417178 133.619051 
L 127.140239 135.9666 
L 127.863301 128.511947 
L 128.586362 127.819723 
L 129.309423 107.038071 
L 130.032485 116.789235 
L 130.755546 110.743926 
L 131.478608 117.22783 
L 132.201669 116.553722 
L 133.647792 180.772474 
L 134.370853 204.001587 
L 135.093914 222.55623 
L 135.816976 231.339878 
L 136.540037 233.216553 
L 137.263098 248.89976 
L 137.98616 252.012079 
L 138.709221 249.639311 
L 139.432282 256.917557 
L 140.155344 262.822 
L 140.878405 258.792492 
L 141.601466 259.573922 
L 142.324528 261.114463 
L 143.047589 255.203515 
L 143.77065 248.058571 
L 144.493712 238.357384 
L 145.216773 224.856832 
L 146.662896 205.221518 
L 147.385957 194.209027 
L 148.83208 180.269386 
L 149.555141 171.149281 
L 150.278203 187.947521 
L 151.001264 175.347563 
L 151.724325 187.583711 
L 152.447387 183.088241 
L 153.170448 168.566537 
L 153.893509 158.08485 
L 154.616571 182.599641 
L 155.339632 188.109434 
L 156.062693 197.357621 
L 156.785755 217.690608 
L 157.508816 222.053933 
L 158.231877 239.848288 
L 158.954939 240.14027 
L 159.678 245.263011 
L 160.401061 252.861046 
L 161.124123 257.030191 
L 161.847184 263.84923 
L 162.570245 261.038575 
L 163.293307 264.875208 
L 164.016368 260.200208 
L 164.73943 261.631077 
L 165.462491 259.662945 
L 166.185552 259.672631 
L 166.908614 267.004675 
L 167.631675 264.979454 
L 168.354736 263.772542 
L 169.077798 264.246113 
L 169.800859 261.662785 
L 170.52392 252.029484 
L 171.246982 249.692671 
L 171.970043 242.28029 
L 172.693104 243.589094 
L 173.416166 245.201535 
L 174.139227 240.295429 
L 174.862288 241.481135 
L 175.58535 231.965553 
L 176.308411 233.849415 
L 177.031472 226.033075 
L 177.754534 225.677933 
L 178.477595 221.00186 
L 179.200657 218.64849 
L 179.923718 213.185542 
L 180.646779 201.285314 
L 181.369841 194.233833 
L 182.092902 183.134807 
L 183.539025 175.460702 
L 184.262086 183.076054 
L 184.985147 187.153037 
L 185.708209 194.788989 
L 186.43127 195.870941 
L 187.154331 195.656751 
L 187.877393 199.491338 
L 188.600454 207.176479 
L 189.323515 207.083322 
L 190.046577 209.077142 
L 190.769638 204.895473 
L 191.492699 211.650348 
L 192.215761 209.673432 
L 192.938822 214.486059 
L 193.661883 217.749985 
L 194.384945 219.509226 
L 195.108006 226.468931 
L 195.831068 228.342285 
L 196.554129 238.020067 
L 197.27719 234.947596 
L 198.000252 233.239339 
L 198.723313 243.250827 
L 200.169436 241.989817 
L 200.892497 238.208311 
L 201.615558 233.11723 
L 202.33862 235.046819 
L 203.061681 235.364987 
L 203.784742 236.124517 
L 204.507804 240.883624 
L 205.230865 234.321271 
L 206.676988 239.45427 
L 207.400049 237.447458 
L 208.12311 240.644396 
L 208.846172 239.668784 
L 209.569233 233.105075 
L 210.292294 224.572571 
L 211.015356 227.035373 
L 212.461479 189.989138 
L 213.18454 165.524426 
L 214.630663 138.717002 
L 215.353724 144.462418 
L 216.076785 143.56748 
L 216.799847 174.601327 
L 217.522908 163.229099 
L 218.969031 195.046564 
L 219.692092 194.781802 
L 221.138215 207.883111 
L 221.861276 206.045433 
L 222.584337 200.530494 
L 223.307399 199.161342 
L 224.03046 187.596187 
L 224.753521 192.258922 
L 225.476583 193.729084 
L 226.199644 192.91367 
L 226.922706 190.976645 
L 227.645767 202.576695 
L 228.368828 210.640504 
L 229.09189 236.362784 
L 229.814951 255.758094 
L 230.538012 263.577041 
L 231.984135 275.25308 
L 232.707196 273.356186 
L 233.430258 276.288208 
L 234.153319 274.653961 
L 234.87638 276.119408 
L 235.599442 276.334125 
L 236.322503 273.381715 
L 237.045564 275.187377 
L 237.768626 272.542364 
L 239.214748 265.100244 
L 239.93781 260.245774 
L 240.660871 258.188802 
L 241.383932 257.337415 
L 242.106994 248.927241 
L 242.830055 252.111245 
L 243.553117 245.416696 
L 244.276178 250.858632 
L 244.999239 248.470213 
L 245.722301 247.248143 
L 246.445362 254.655697 
L 247.168423 253.038206 
L 247.891485 253.401468 
L 248.614546 252.662394 
L 249.337607 252.440786 
L 250.78373 257.822557 
L 251.506791 259.384666 
L 252.229853 255.193174 
L 252.952914 258.416872 
L 253.675975 252.995989 
L 254.399037 253.595523 
L 255.122098 251.740659 
L 255.845159 243.970682 
L 256.568221 232.152413 
L 258.014343 218.549504 
L 258.737405 218.591536 
L 259.460466 203.488882 
L 260.183528 201.744517 
L 260.906589 212.601215 
L 261.62965 214.054488 
L 262.352712 216.873156 
L 263.075773 224.415923 
L 263.798834 218.268794 
L 264.521896 221.615652 
L 265.244957 227.790627 
L 265.968018 238.123874 
L 266.69108 242.263069 
L 267.414141 247.084692 
L 268.137202 246.610329 
L 268.860264 244.960483 
L 269.583325 251.271261 
L 270.306386 254.405527 
L 271.029448 255.601372 
L 271.752509 254.360569 
L 272.47557 253.465208 
L 273.198632 253.834426 
L 273.921693 250.601944 
L 274.644755 248.12481 
L 275.367816 245.206935 
L 276.090877 238.327171 
L 276.813939 239.639368 
L 277.537 234.642983 
L 278.260061 233.796803 
L 278.983123 240.564266 
L 279.706184 242.910104 
L 280.429245 240.115121 
L 281.152307 242.57391 
L 281.875368 235.399585 
L 282.598429 226.857631 
L 283.321491 220.651499 
L 284.044552 221.343642 
L 284.767613 223.907115 
L 285.490675 233.184366 
L 286.213736 237.471276 
L 286.936797 236.154793 
L 287.659859 245.97638 
L 288.38292 248.82748 
L 289.105981 249.357336 
L 289.829043 251.909628 
L 290.552104 256.653433 
L 291.275166 245.572143 
L 291.998227 245.114027 
L 292.721288 250.424309 
L 293.44435 242.805519 
L 294.167411 238.302351 
L 294.890472 239.181054 
L 295.613534 232.524746 
L 296.336595 230.120562 
L 297.059656 216.590066 
L 297.782718 209.445304 
L 298.505779 198.163362 
L 299.22884 188.767239 
L 299.951902 176.452637 
L 300.674963 157.689319 
L 301.398024 151.755617 
L 302.844147 94.566861 
L 303.567208 96.590913 
L 304.29027 106.979241 
L 305.013331 107.68239 
L 305.736392 112.668051 
L 306.459454 132.88276 
L 307.182515 163.442541 
L 307.905577 155.590149 
L 308.628638 163.401224 
L 309.351699 167.873657 
L 310.074761 173.653824 
L 310.797822 186.467993 
L 311.520883 166.85811 
L 312.243945 176.182156 
L 312.967006 181.599947 
L 313.690067 183.560945 
L 314.413129 193.583977 
L 315.13619 191.565927 
L 315.859251 200.238416 
L 316.582313 205.83393 
L 317.305374 218.640038 
L 318.028435 235.182853 
L 318.751497 239.332508 
L 319.474558 233.581591 
L 320.197619 233.793393 
L 320.920681 240.370078 
L 321.643742 238.001705 
L 322.366804 238.605811 
L 323.089865 232.958623 
L 323.812926 226.005023 
L 324.535988 216.375466 
L 325.98211 207.8813 
L 326.705172 198.765913 
L 327.428233 186.565703 
L 328.151294 180.745443 
L 328.874356 198.128284 
L 329.597417 203.693441 
L 330.320478 223.558686 
L 331.04354 232.025659 
L 331.766601 234.436688 
L 332.489662 243.402216 
L 333.212724 246.465663 
L 333.935785 253.745996 
L 334.658846 248.752758 
L 335.381908 248.992015 
L 336.104969 237.56165 
L 336.82803 236.135093 
L 337.551092 222.626344 
L 338.274153 212.839519 
L 338.997215 215.800176 
L 339.720276 195.78054 
L 340.443337 192.181485 
L 341.166399 189.302476 
L 341.88946 202.550389 
L 342.612521 210.85235 
L 343.335583 206.875566 
L 344.781705 230.48951 
L 345.504767 246.386253 
L 346.227828 255.934627 
L 346.950889 260.56143 
L 347.673951 268.019456 
L 348.397012 269.718621 
L 349.120073 270.583073 
L 349.843135 271.071641 
L 350.566196 273.779524 
L 351.289257 272.799763 
L 352.012319 274.575077 
L 352.73538 274.21434 
L 353.458441 271.848668 
L 354.904564 264.998545 
L 356.350687 260.31124 
L 357.073748 256.669778 
L 357.79681 256.570871 
L 358.519871 257.525474 
L 359.242932 252.899531 
L 359.965994 249.547054 
L 360.689055 244.54132 
L 361.412116 231.278748 
L 362.135178 221.124708 
L 362.858239 204.564643 
L 363.5813 191.494933 
L 364.304362 186.327937 
L 365.027423 149.405226 
L 365.750484 132.945923 
L 366.473546 141.128381 
L 367.196607 92.420152 
L 367.919668 58.536975 
L 368.64273 47.404331 
L 369.365791 41.918987 
L 370.088853 44.0381 
L 370.811914 34.414125 
L 371.534975 77.846373 
L 372.258037 88.175668 
L 372.981098 104.214108 
L 373.704159 134.623061 
L 374.427221 170.859545 
L 375.150282 171.850254 
L 375.873343 198.307071 
L 376.596405 217.465295 
L 377.319466 229.43119 
L 378.765589 256.466522 
L 379.48865 263.581802 
L 380.211711 266.842276 
L 380.934773 265.837399 
L 380.934773 265.837399 
" clip-path="url(#p5601279c90)" style="fill: none; stroke: #000000; stroke-width: 1.5; stroke-linecap: square"/>
   </g>
   <g id="patch_3">
    <path d="M 40.0475 288.430125 
L 40.0475 22.318125 
" style="fill: none; stroke: #000000; stroke-width: 0.8; stroke-linejoin: miter; stroke-linecap: square"/>
   </g>
   <g id="patch_4">
    <path d="M 397.1675 288.430125 
L 397.1675 22.318125 
" style="fill: none; stroke: #000000; stroke-width: 0.8; stroke-linejoin: miter; stroke-linecap: square"/>
   </g>
   <g id="patch_5">
    <path d="M 40.0475 288.430125 
L 397.1675 288.430125 
" style="fill: none; stroke: #000000; stroke-width: 0.8; stroke-linejoin: miter; stroke-linecap: square"/>
   </g>
   <g id="patch_6">
    <path d="M 40.0475 22.318125 
L 397.1675 22.318125 
" style="fill: none; stroke: #000000; stroke-width: 0.8; stroke-linejoin: miter; stroke-linecap: square"/>
   </g>
   <g id="text_12">
    <!-- Full time series -->
    <g transform="translate(173.212813 16.318125) scale(0.12 -0.12)">
     <defs>
      <path id="DejaVuSans-46" d="M 628 4666 
L 3309 4666 
L 3309 4134 
L 1259 4134 
L 1259 2759 
L 3109 2759 
L 3109 2228 
L 1259 2228 
L 1259 0 
L 628 0 
L 628 4666 
z
" transform="scale(0.015625)"/>
      <path id="DejaVuSans-75" d="M 544 1381 
L 544 3500 
L 1119 3500 
L 1119 1403 
Q 1119 906 1312 657 
Q 1506 409 1894 409 
Q 2359 409 2629 706 
Q 2900 1003 2900 1516 
L 2900 3500 
L 3475 3500 
L 3475 0 
L 2900 0 
L 2900 538 
Q 2691 219 2414 64 
Q 2138 -91 1772 -91 
Q 1169 -91 856 284 
Q 544 659 544 1381 
z
M 1991 3584 
L 1991 3584 
z
" transform="scale(0.015625)"/>
      <path id="DejaVuSans-6c" d="M 603 4863 
L 1178 4863 
L 1178 0 
L 603 0 
L 603 4863 
z
" transform="scale(0.015625)"/>
      <path id="DejaVuSans-20" transform="scale(0.015625)"/>
      <path id="DejaVuSans-74" d="M 1172 4494 
L 1172 3500 
L 2356 3500 
L 2356 3053 
L 1172 3053 
L 1172 1153 
Q 1172 725 1289 603 
Q 1406 481 1766 481 
L 2356 481 
L 2356 0 
L 1766 0 
Q 1100 0 847 248 
Q 594 497 594 1153 
L 594 3053 
L 172 3053 
L 172 3500 
L 594 3500 
L 594 4494 
L 1172 4494 
z
" transform="scale(0.015625)"/>
      <path id="DejaVuSans-69" d="M 603 3500 
L 1178 3500 
L 1178 0 
L 603 0 
L 603 3500 
z
M 603 4863 
L 1178 4863 
L 1178 4134 
L 603 4134 
L 603 4863 
z
" transform="scale(0.015625)"/>
      <path id="DejaVuSans-6d" d="M 3328 2828 
Q 3544 3216 3844 3400 
Q 4144 3584 4550 3584 
Q 5097 3584 5394 3201 
Q 5691 2819 5691 2113 
L 5691 0 
L 5113 0 
L 5113 2094 
Q 5113 2597 4934 2840 
Q 4756 3084 4391 3084 
Q 3944 3084 3684 2787 
Q 3425 2491 3425 1978 
L 3425 0 
L 2847 0 
L 2847 2094 
Q 2847 2600 2669 2842 
Q 2491 3084 2119 3084 
Q 1678 3084 1418 2786 
Q 1159 2488 1159 1978 
L 1159 0 
L 581 0 
L 581 3500 
L 1159 3500 
L 1159 2956 
Q 1356 3278 1631 3431 
Q 1906 3584 2284 3584 
Q 2666 3584 2933 3390 
Q 3200 3197 3328 2828 
z
" transform="scale(0.015625)"/>
      <path id="DejaVuSans-65" d="M 3597 1894 
L 3597 1613 
L 953 1613 
Q 991 1019 1311 708 
Q 1631 397 2203 397 
Q 2534 397 2845 478 
Q 3156 559 3463 722 
L 3463 178 
Q 3153 47 2828 -22 
Q 2503 -91 2169 -91 
Q 1331 -91 842 396 
Q 353 884 353 1716 
Q 353 2575 817 3079 
Q 1281 3584 2069 3584 
Q 2775 3584 3186 3129 
Q 3597 2675 3597 1894 
z
M 3022 2063 
Q 3016 2534 2758 2815 
Q 2500 3097 2075 3097 
Q 1594 3097 1305 2825 
Q 1016 2553 972 2059 
L 3022 2063 
z
" transform="scale(0.015625)"/>
      <path id="DejaVuSans-73" d="M 2834 3397 
L 2834 2853 
Q 2591 2978 2328 3040 
Q 2066 3103 1784 3103 
Q 1356 3103 1142 2972 
Q 928 2841 928 2578 
Q 928 2378 1081 2264 
Q 1234 2150 1697 2047 
L 1894 2003 
Q 2506 1872 2764 1633 
Q 3022 1394 3022 966 
Q 3022 478 2636 193 
Q 2250 -91 1575 -91 
Q 1294 -91 989 -36 
Q 684 19 347 128 
L 347 722 
Q 666 556 975 473 
Q 1284 391 1588 391 
Q 1994 391 2212 530 
Q 2431 669 2431 922 
Q 2431 1156 2273 1281 
Q 2116 1406 1581 1522 
L 1381 1569 
Q 847 1681 609 1914 
Q 372 2147 372 2553 
Q 372 3047 722 3315 
Q 1072 3584 1716 3584 
Q 2034 3584 2315 3537 
Q 2597 3491 2834 3397 
z
" transform="scale(0.015625)"/>
      <path id="DejaVuSans-72" d="M 2631 2963 
Q 2534 3019 2420 3045 
Q 2306 3072 2169 3072 
Q 1681 3072 1420 2755 
Q 1159 2438 1159 1844 
L 1159 0 
L 581 0 
L 581 3500 
L 1159 3500 
L 1159 2956 
Q 1341 3275 1631 3429 
Q 1922 3584 2338 3584 
Q 2397 3584 2469 3576 
Q 2541 3569 2628 3553 
L 2631 2963 
z
" transform="scale(0.015625)"/>
     </defs>
     <use xlink:href="#DejaVuSans-46"/>
     <use xlink:href="#DejaVuSans-75" x="52.019531"/>
     <use xlink:href="#DejaVuSans-6c" x="115.398438"/>
     <use xlink:href="#DejaVuSans-6c" x="143.181641"/>
     <use xlink:href="#DejaVuSans-20" x="170.964844"/>
     <use xlink:href="#DejaVuSans-74" x="202.751953"/>
     <use xlink:href="#DejaVuSans-69" x="241.960938"/>
     <use xlink:href="#DejaVuSans-6d" x="269.744141"/>
     <use xlink:href="#DejaVuSans-65" x="367.15625"/>
     <use xlink:href="#DejaVuSans-20" x="428.679688"/>
     <use xlink:href="#DejaVuSans-73" x="460.466797"/>
     <use xlink:href="#DejaVuSans-65" x="512.566406"/>
     <use xlink:href="#DejaVuSans-72" x="574.089844"/>
     <use xlink:href="#DejaVuSans-69" x="615.203125"/>
     <use xlink:href="#DejaVuSans-65" x="642.986328"/>
     <use xlink:href="#DejaVuSans-73" x="704.509766"/>
    </g>
   </g>
  </g>
 </g>
 <defs>
  <clipPath id="p5601279c90">
   <rect x="40.0475" y="22.318125" width="357.12" height="266.112"/>
  </clipPath>
 </defs>
</svg>