<?xml version="1.0" encoding="utf-8" standalone="no"?>
<!DOCTYPE svg PUBLIC "-//W3C//DTD SVG 1.1//EN"
  "http://www.w3.org/Graphics/SVG/1.1/DTD/svg11.dtd">
<svg xmlns:xlink="http://www.w3.org/1999/xlink" width="409.165313pt" height="316.675125pt" viewBox="0 0 409.165313 316.675125" xmlns="http://www.w3.org/2000/svg" version="1.1">
 <metadata>
  <rdf:RDF xmlns:dc="http://purl.org/dc/elements/1.1/" xmlns:cc="http://creativecommons.org/ns#" xmlns:rdf="http://www.w3.org/1999/02/22-rdf-syntax-ns#">
   <cc:Work>
    <dc:type rdf:resource="http://purl.org/dc/dcmitype/StillImage"/>
    <dc:date>2024-12-02T08:58:41.485907</dc:date>
    <dc:format>image/svg+xml</dc:format>
    <dc:creator>
     <cc:Agent>
      <dc:title>Matplotlib v3.9.3, https://matplotlib.org/</dc:title>
     </cc:Agent>
    </dc:creator>
   </cc:Work>
  </rdf:RDF>
 </metadata>
 <defs>
  <style type="text/css">*{stroke-linejoin: round; stroke-linecap: butt}</style>
 </defs>
 <g id="figure_1">
  <g id="patch_1">
   <path d="M 0 316.675125 
L 409.165313 316.675125 
L 409.165313 0 
L 0 0 
z
" style="fill: #ffffff"/>
  </g>
  <g id="axes_1">
   <g id="patch_2">
    <path d="M 44.845313 273.312 
L 401.965312 273.312 
L 401.965312 7.2 
L 44.845313 7.2 
z
" style="fill: #ffffff"/>
   </g>
   <g id="matplotlib.axis_1">
    <g id="xtick_1">
     <g id="line2d_1">
      <defs>
       <path id="m47ef7f16ea" d="M 0 0 
L 0 3.5 
" style="stroke: #000000; stroke-width: 0.8"/>
      </defs>
      <g>
       <use xlink:href="#m47ef7f16ea" x="61.07804" y="273.312" style="stroke: #000000; stroke-width: 0.8"/>
      </g>
     </g>
     <g id="text_1">
      <!-- $\mathdefault{10^{-2}}$ -->
      <g transform="translate(49.32804 287.910437) scale(0.1 -0.1)">
       <defs>
        <path id="DejaVuSans-31" d="M 794 531 
L 1825 531 
L 1825 4091 
L 703 3866 
L 703 4441 
L 1819 4666 
L 2450 4666 
L 2450 531 
L 3481 531 
L 3481 0 
L 794 0 
L 794 531 
z
" transform="scale(0.015625)"/>
        <path id="DejaVuSans-30" d="M 2034 4250 
Q 1547 4250 1301 3770 
Q 1056 3291 1056 2328 
Q 1056 1369 1301 889 
Q 1547 409 2034 409 
Q 2525 409 2770 889 
Q 3016 1369 3016 2328 
Q 3016 3291 2770 3770 
Q 2525 4250 2034 4250 
z
M 2034 4750 
Q 2819 4750 3233 4129 
Q 3647 3509 3647 2328 
Q 3647 1150 3233 529 
Q 2819 -91 2034 -91 
Q 1250 -91 836 529 
Q 422 1150 422 2328 
Q 422 3509 836 4129 
Q 1250 4750 2034 4750 
z
" transform="scale(0.015625)"/>
        <path id="DejaVuSans-2212" d="M 678 2272 
L 4684 2272 
L 4684 1741 
L 678 1741 
L 678 2272 
z
" transform="scale(0.015625)"/>
        <path id="DejaVuSans-32" d="M 1228 531 
L 3431 531 
L 3431 0 
L 469 0 
L 469 531 
Q 828 903 1448 1529 
Q 2069 2156 2228 2338 
Q 2531 2678 2651 2914 
Q 2772 3150 2772 3378 
Q 2772 3750 2511 3984 
Q 2250 4219 1831 4219 
Q 1534 4219 1204 4116 
Q 875 4013 500 3803 
L 500 4441 
Q 881 4594 1212 4672 
Q 1544 4750 1819 4750 
Q 2544 4750 2975 4387 
Q 3406 4025 3406 3419 
Q 3406 3131 3298 2873 
Q 3191 2616 2906 2266 
Q 2828 2175 2409 1742 
Q 1991 1309 1228 531 
z
" transform="scale(0.015625)"/>
       </defs>
       <use xlink:href="#DejaVuSans-31" transform="translate(0 0.765625)"/>
       <use xlink:href="#DejaVuSans-30" transform="translate(63.623047 0.765625)"/>
       <use xlink:href="#DejaVuSans-2212" transform="translate(128.203125 39.046875) scale(0.7)"/>
       <use xlink:href="#DejaVuSans-32" transform="translate(186.855469 39.046875) scale(0.7)"/>
      </g>
     </g>
    </g>
    <g id="xtick_2">
     <g id="line2d_2">
      <g>
       <use xlink:href="#m47ef7f16ea" x="223.405313" y="273.312" style="stroke: #000000; stroke-width: 0.8"/>
      </g>
     </g>
     <g id="text_2">
      <!-- $\mathdefault{10^{-1}}$ -->
      <g transform="translate(211.655313 287.910437) scale(0.1 -0.1)">
       <use xlink:href="#DejaVuSans-31" transform="translate(0 0.684375)"/>
       <use xlink:href="#DejaVuSans-30" transform="translate(63.623047 0.684375)"/>
       <use xlink:href="#DejaVuSans-2212" transform="translate(128.203125 38.965625) scale(0.7)"/>
       <use xlink:href="#DejaVuSans-31" transform="translate(186.855469 38.965625) scale(0.7)"/>
      </g>
     </g>
    </g>
    <g id="xtick_3">
     <g id="line2d_3">
      <g>
       <use xlink:href="#m47ef7f16ea" x="385.732585" y="273.312" style="stroke: #000000; stroke-width: 0.8"/>
      </g>
     </g>
     <g id="text_3">
      <!-- $\mathdefault{10^{0}}$ -->
      <g transform="translate(376.932585 287.910437) scale(0.1 -0.1)">
       <use xlink:href="#DejaVuSans-31" transform="translate(0 0.765625)"/>
       <use xlink:href="#DejaVuSans-30" transform="translate(63.623047 0.765625)"/>
       <use xlink:href="#DejaVuSans-30" transform="translate(128.203125 39.046875) scale(0.7)"/>
      </g>
     </g>
    </g>
    <g id="xtick_4">
     <g id="line2d_4">
      <defs>
       <path id="m2d9168dc2c" d="M 0 0 
L 0 2 
" style="stroke: #000000; stroke-width: 0.6"/>
      </defs>
      <g>
       <use xlink:href="#m2d9168dc2c" x="45.346902" y="273.312" style="stroke: #000000; stroke-width: 0.6"/>
      </g>
     </g>
    </g>
    <g id="xtick_5">
     <g id="line2d_5">
      <g>
       <use xlink:href="#m2d9168dc2c" x="53.650351" y="273.312" style="stroke: #000000; stroke-width: 0.6"/>
      </g>
     </g>
    </g>
    <g id="xtick_6">
     <g id="line2d_6">
      <g>
       <use xlink:href="#m2d9168dc2c" x="109.943418" y="273.312" style="stroke: #000000; stroke-width: 0.6"/>
      </g>
     </g>
    </g>
    <g id="xtick_7">
     <g id="line2d_7">
      <g>
       <use xlink:href="#m2d9168dc2c" x="138.527832" y="273.312" style="stroke: #000000; stroke-width: 0.6"/>
      </g>
     </g>
    </g>
    <g id="xtick_8">
     <g id="line2d_8">
      <g>
       <use xlink:href="#m2d9168dc2c" x="158.808796" y="273.312" style="stroke: #000000; stroke-width: 0.6"/>
      </g>
     </g>
    </g>
    <g id="xtick_9">
     <g id="line2d_9">
      <g>
       <use xlink:href="#m2d9168dc2c" x="174.539934" y="273.312" style="stroke: #000000; stroke-width: 0.6"/>
      </g>
     </g>
    </g>
    <g id="xtick_10">
     <g id="line2d_10">
      <g>
       <use xlink:href="#m2d9168dc2c" x="187.39321" y="273.312" style="stroke: #000000; stroke-width: 0.6"/>
      </g>
     </g>
    </g>
    <g id="xtick_11">
     <g id="line2d_11">
      <g>
       <use xlink:href="#m2d9168dc2c" x="198.2605" y="273.312" style="stroke: #000000; stroke-width: 0.6"/>
      </g>
     </g>
    </g>
    <g id="xtick_12">
     <g id="line2d_12">
      <g>
       <use xlink:href="#m2d9168dc2c" x="207.674174" y="273.312" style="stroke: #000000; stroke-width: 0.6"/>
      </g>
     </g>
    </g>
    <g id="xtick_13">
     <g id="line2d_13">
      <g>
       <use xlink:href="#m2d9168dc2c" x="215.977624" y="273.312" style="stroke: #000000; stroke-width: 0.6"/>
      </g>
     </g>
    </g>
    <g id="xtick_14">
     <g id="line2d_14">
      <g>
       <use xlink:href="#m2d9168dc2c" x="272.270691" y="273.312" style="stroke: #000000; stroke-width: 0.6"/>
      </g>
     </g>
    </g>
    <g id="xtick_15">
     <g id="line2d_15">
      <g>
       <use xlink:href="#m2d9168dc2c" x="300.855105" y="273.312" style="stroke: #000000; stroke-width: 0.6"/>
      </g>
     </g>
    </g>
    <g id="xtick_16">
     <g id="line2d_16">
      <g>
       <use xlink:href="#m2d9168dc2c" x="321.136069" y="273.312" style="stroke: #000000; stroke-width: 0.6"/>
      </g>
     </g>
    </g>
    <g id="xtick_17">
     <g id="line2d_17">
      <g>
       <use xlink:href="#m2d9168dc2c" x="336.867207" y="273.312" style="stroke: #000000; stroke-width: 0.6"/>
      </g>
     </g>
    </g>
    <g id="xtick_18">
     <g id="line2d_18">
      <g>
       <use xlink:href="#m2d9168dc2c" x="349.720483" y="273.312" style="stroke: #000000; stroke-width: 0.6"/>
      </g>
     </g>
    </g>
    <g id="xtick_19">
     <g id="line2d_19">
      <g>
       <use xlink:href="#m2d9168dc2c" x="360.587773" y="273.312" style="stroke: #000000; stroke-width: 0.6"/>
      </g>
     </g>
    </g>
    <g id="xtick_20">
     <g id="line2d_20">
      <g>
       <use xlink:href="#m2d9168dc2c" x="370.001447" y="273.312" style="stroke: #000000; stroke-width: 0.6"/>
      </g>
     </g>
    </g>
    <g id="xtick_21">
     <g id="line2d_21">
      <g>
       <use xlink:href="#m2d9168dc2c" x="378.304897" y="273.312" style="stroke: #000000; stroke-width: 0.6"/>
      </g>
     </g>
    </g>
    <g id="text_4">
     <!-- $\lambda$ -->
     <g transform="translate(218.605312 306.147625) scale(0.16 -0.16)">
      <defs>
       <path id="DejaVuSans-Oblique-3bb" d="M 2350 4316 
L 3125 0 
L 2516 0 
L 2038 2588 
L 328 0 
L -281 0 
L 1903 3356 
L 1794 3975 
Q 1725 4369 1391 4369 
L 1091 4369 
L 1184 4863 
L 1550 4856 
Q 2253 4847 2350 4316 
z
" transform="scale(0.015625)"/>
      </defs>
      <use xlink:href="#DejaVuSans-Oblique-3bb" transform="translate(0 0.015625)"/>
     </g>
    </g>
   </g>
   <g id="matplotlib.axis_2">
    <g id="ytick_1">
     <g id="line2d_22">
      <defs>
       <path id="m7d3a77b33b" d="M 0 0 
L -3.5 0 
" style="stroke: #000000; stroke-width: 0.8"/>
      </defs>
      <g>
       <use xlink:href="#m7d3a77b33b" x="44.845313" y="267.899649" style="stroke: #000000; stroke-width: 0.8"/>
      </g>
     </g>
     <g id="text_5">
      <!-- −0.12 -->
      <g transform="translate(7.2 271.698868) scale(0.1 -0.1)">
       <defs>
        <path id="DejaVuSans-2e" d="M 684 794 
L 1344 794 
L 1344 0 
L 684 0 
L 684 794 
z
" transform="scale(0.015625)"/>
       </defs>
       <use xlink:href="#DejaVuSans-2212"/>
       <use xlink:href="#DejaVuSans-30" x="83.789062"/>
       <use xlink:href="#DejaVuSans-2e" x="147.412109"/>
       <use xlink:href="#DejaVuSans-31" x="179.199219"/>
       <use xlink:href="#DejaVuSans-32" x="242.822266"/>
      </g>
     </g>
    </g>
    <g id="ytick_2">
     <g id="line2d_23">
      <g>
       <use xlink:href="#m7d3a77b33b" x="44.845313" y="238.301731" style="stroke: #000000; stroke-width: 0.8"/>
      </g>
     </g>
     <g id="text_6">
      <!-- −0.10 -->
      <g transform="translate(7.2 242.10095) scale(0.1 -0.1)">
       <use xlink:href="#DejaVuSans-2212"/>
       <use xlink:href="#DejaVuSans-30" x="83.789062"/>
       <use xlink:href="#DejaVuSans-2e" x="147.412109"/>
       <use xlink:href="#DejaVuSans-31" x="179.199219"/>
       <use xlink:href="#DejaVuSans-30" x="242.822266"/>
      </g>
     </g>
    </g>
    <g id="ytick_3">
     <g id="line2d_24">
      <g>
       <use xlink:href="#m7d3a77b33b" x="44.845313" y="208.703813" style="stroke: #000000; stroke-width: 0.8"/>
      </g>
     </g>
     <g id="text_7">
      <!-- −0.08 -->
      <g transform="translate(7.2 212.503032) scale(0.1 -0.1)">
       <defs>
        <path id="DejaVuSans-38" d="M 2034 2216 
Q 1584 2216 1326 1975 
Q 1069 1734 1069 1313 
Q 1069 891 1326 650 
Q 1584 409 2034 409 
Q 2484 409 2743 651 
Q 3003 894 3003 1313 
Q 3003 1734 2745 1975 
Q 2488 2216 2034 2216 
z
M 1403 2484 
Q 997 2584 770 2862 
Q 544 3141 544 3541 
Q 544 4100 942 4425 
Q 1341 4750 2034 4750 
Q 2731 4750 3128 4425 
Q 3525 4100 3525 3541 
Q 3525 3141 3298 2862 
Q 3072 2584 2669 2484 
Q 3125 2378 3379 2068 
Q 3634 1759 3634 1313 
Q 3634 634 3220 271 
Q 2806 -91 2034 -91 
Q 1263 -91 848 271 
Q 434 634 434 1313 
Q 434 1759 690 2068 
Q 947 2378 1403 2484 
z
M 1172 3481 
Q 1172 3119 1398 2916 
Q 1625 2713 2034 2713 
Q 2441 2713 2670 2916 
Q 2900 3119 2900 3481 
Q 2900 3844 2670 4047 
Q 2441 4250 2034 4250 
Q 1625 4250 1398 4047 
Q 1172 3844 1172 3481 
z
" transform="scale(0.015625)"/>
       </defs>
       <use xlink:href="#DejaVuSans-2212"/>
       <use xlink:href="#DejaVuSans-30" x="83.789062"/>
       <use xlink:href="#DejaVuSans-2e" x="147.412109"/>
       <use xlink:href="#DejaVuSans-30" x="179.199219"/>
       <use xlink:href="#DejaVuSans-38" x="242.822266"/>
      </g>
     </g>
    </g>
    <g id="ytick_4">
     <g id="line2d_25">
      <g>
       <use xlink:href="#m7d3a77b33b" x="44.845313" y="179.105895" style="stroke: #000000; stroke-width: 0.8"/>
      </g>
     </g>
     <g id="text_8">
      <!-- −0.06 -->
      <g transform="translate(7.2 182.905114) scale(0.1 -0.1)">
       <defs>
        <path id="DejaVuSans-36" d="M 2113 2584 
Q 1688 2584 1439 2293 
Q 1191 2003 1191 1497 
Q 1191 994 1439 701 
Q 1688 409 2113 409 
Q 2538 409 2786 701 
Q 3034 994 3034 1497 
Q 3034 2003 2786 2293 
Q 2538 2584 2113 2584 
z
M 3366 4563 
L 3366 3988 
Q 3128 4100 2886 4159 
Q 2644 4219 2406 4219 
Q 1781 4219 1451 3797 
Q 1122 3375 1075 2522 
Q 1259 2794 1537 2939 
Q 1816 3084 2150 3084 
Q 2853 3084 3261 2657 
Q 3669 2231 3669 1497 
Q 3669 778 3244 343 
Q 2819 -91 2113 -91 
Q 1303 -91 875 529 
Q 447 1150 447 2328 
Q 447 3434 972 4092 
Q 1497 4750 2381 4750 
Q 2619 4750 2861 4703 
Q 3103 4656 3366 4563 
z
" transform="scale(0.015625)"/>
       </defs>
       <use xlink:href="#DejaVuSans-2212"/>
       <use xlink:href="#DejaVuSans-30" x="83.789062"/>
       <use xlink:href="#DejaVuSans-2e" x="147.412109"/>
       <use xlink:href="#DejaVuSans-30" x="179.199219"/>
       <use xlink:href="#DejaVuSans-36" x="242.822266"/>
      </g>
     </g>
    </g>
    <g id="ytick_5">
     <g id="line2d_26">
      <g>
       <use xlink:href="#m7d3a77b33b" x="44.845313" y="149.507977" style="stroke: #000000; stroke-width: 0.8"/>
      </g>
     </g>
     <g id="text_9">
      <!-- −0.04 -->
      <g transform="translate(7.2 153.307195) scale(0.1 -0.1)">
       <defs>
        <path id="DejaVuSans-34" d="M 2419 4116 
L 825 1625 
L 2419 1625 
L 2419 4116 
z
M 2253 4666 
L 3047 4666 
L 3047 1625 
L 3713 1625 
L 3713 1100 
L 3047 1100 
L 3047 0 
L 2419 0 
L 2419 1100 
L 313 1100 
L 313 1709 
L 2253 4666 
z
" transform="scale(0.015625)"/>
       </defs>
       <use xlink:href="#DejaVuSans-2212"/>
       <use xlink:href="#DejaVuSans-30" x="83.789062"/>
       <use xlink:href="#DejaVuSans-2e" x="147.412109"/>
       <use xlink:href="#DejaVuSans-30" x="179.199219"/>
       <use xlink:href="#DejaVuSans-34" x="242.822266"/>
      </g>
     </g>
    </g>
    <g id="ytick_6">
     <g id="line2d_27">
      <g>
       <use xlink:href="#m7d3a77b33b" x="44.845313" y="119.910059" style="stroke: #000000; stroke-width: 0.8"/>
      </g>
     </g>
     <g id="text_10">
      <!-- −0.02 -->
      <g transform="translate(7.2 123.709277) scale(0.1 -0.1)">
       <use xlink:href="#DejaVuSans-2212"/>
       <use xlink:href="#DejaVuSans-30" x="83.789062"/>
       <use xlink:href="#DejaVuSans-2e" x="147.412109"/>
       <use xlink:href="#DejaVuSans-30" x="179.199219"/>
       <use xlink:href="#DejaVuSans-32" x="242.822266"/>
      </g>
     </g>
    </g>
    <g id="ytick_7">
     <g id="line2d_28">
      <g>
       <use xlink:href="#m7d3a77b33b" x="44.845313" y="90.31214" style="stroke: #000000; stroke-width: 0.8"/>
      </g>
     </g>
     <g id="text_11">
      <!-- 0.00 -->
      <g transform="translate(15.579688 94.111359) scale(0.1 -0.1)">
       <use xlink:href="#DejaVuSans-30"/>
       <use xlink:href="#DejaVuSans-2e" x="63.623047"/>
       <use xlink:href="#DejaVuSans-30" x="95.410156"/>
       <use xlink:href="#DejaVuSans-30" x="159.033203"/>
      </g>
     </g>
    </g>
    <g id="ytick_8">
     <g id="line2d_29">
      <g>
       <use xlink:href="#m7d3a77b33b" x="44.845313" y="60.714222" style="stroke: #000000; stroke-width: 0.8"/>
      </g>
     </g>
     <g id="text_12">
      <!-- 0.02 -->
      <g transform="translate(15.579688 64.513441) scale(0.1 -0.1)">
       <use xlink:href="#DejaVuSans-30"/>
       <use xlink:href="#DejaVuSans-2e" x="63.623047"/>
       <use xlink:href="#DejaVuSans-30" x="95.410156"/>
       <use xlink:href="#DejaVuSans-32" x="159.033203"/>
      </g>
     </g>
    </g>
    <g id="ytick_9">
     <g id="line2d_30">
      <g>
       <use xlink:href="#m7d3a77b33b" x="44.845313" y="31.116304" style="stroke: #000000; stroke-width: 0.8"/>
      </g>
     </g>
     <g id="text_13">
      <!-- 0.04 -->
      <g transform="translate(15.579688 34.915523) scale(0.1 -0.1)">
       <use xlink:href="#DejaVuSans-30"/>
       <use xlink:href="#DejaVuSans-2e" x="63.623047"/>
       <use xlink:href="#DejaVuSans-30" x="95.410156"/>
       <use xlink:href="#DejaVuSans-34" x="159.033203"/>
      </g>
     </g>
    </g>
   </g>
   <g id="line2d_31">
    <path d="M 61.07804 57.036695 
L 64.357379 56.505801 
L 67.636717 55.773776 
L 70.916056 55.773776 
L 74.195395 55.939668 
L 77.474734 55.939753 
L 80.754073 56.396091 
L 84.033412 56.947418 
L 87.312751 57.043667 
L 90.592089 57.024295 
L 93.871428 57.338163 
L 97.150767 57.539612 
L 100.430106 57.488461 
L 103.709445 57.393643 
L 106.988784 57.363041 
L 110.268122 57.363038 
L 113.547461 57.363033 
L 116.8268 57.196014 
L 120.106139 56.086124 
L 123.385478 56.08612 
L 126.664817 56.086022 
L 129.944155 56.590102 
L 133.223494 55.857139 
L 136.502833 57.244742 
L 139.782172 58.858257 
L 143.061511 58.923627 
L 146.34085 58.983762 
L 149.620189 58.892838 
L 152.899527 60.622822 
L 156.178866 59.193151 
L 159.458205 59.520171 
L 162.737544 60.699738 
L 166.016883 61.607754 
L 169.296222 59.3747 
L 172.57556 58.848295 
L 175.854899 62.175877 
L 179.134238 63.369954 
L 182.413577 63.172769 
L 185.692916 62.350487 
L 188.972255 63.0074 
L 192.251593 64.924638 
L 195.530932 66.912456 
L 198.810271 69.56203 
L 202.08961 69.031072 
L 205.368949 69.600408 
L 208.648288 72.726331 
L 211.927627 72.544054 
L 215.206965 71.059499 
L 218.486304 73.342926 
L 221.765643 73.545099 
L 225.044982 73.660996 
L 228.324321 75.29907 
L 231.60366 75.889675 
L 234.882998 76.851036 
L 238.162337 78.393117 
L 241.441676 78.850928 
L 244.721015 78.782759 
L 248.000354 78.646987 
L 251.279693 78.591399 
L 254.559032 87.874442 
L 257.83837 87.574087 
L 261.117709 90.026739 
L 264.397048 90.31214 
L 267.676387 90.31214 
L 270.955726 90.31214 
L 274.235065 90.31214 
L 277.514403 90.31214 
L 280.793742 90.31214 
L 284.073081 90.31214 
L 287.35242 90.31214 
L 290.631759 90.31214 
L 293.911098 90.31214 
L 297.190436 90.31214 
L 300.469775 90.31214 
L 303.749114 90.31214 
L 307.028453 90.31214 
L 310.307792 90.31214 
L 313.587131 90.31214 
L 316.86647 90.31214 
L 320.145808 90.31214 
L 323.425147 90.31214 
L 326.704486 90.31214 
L 329.983825 90.31214 
L 333.263164 90.31214 
L 336.542503 90.31214 
L 339.821841 90.31214 
L 343.10118 90.31214 
L 346.380519 90.31214 
L 349.659858 90.31214 
L 352.939197 90.31214 
L 356.218536 90.31214 
L 359.497874 90.31214 
L 362.777213 90.31214 
L 366.056552 90.31214 
L 369.335891 90.31214 
L 372.61523 90.31214 
L 375.894569 90.31214 
L 379.173908 90.31214 
L 382.453246 90.31214 
L 385.732585 90.31214 
" clip-path="url(#p1bed47d200)" style="fill: none; stroke: #1f77b4; stroke-width: 1.5; stroke-linecap: square"/>
   </g>
   <g id="line2d_32">
    <path d="M 61.07804 63.42358 
L 64.357379 63.967795 
L 67.636717 64.672065 
L 70.916056 64.672065 
L 74.195395 66.535264 
L 77.474734 66.535302 
L 80.754073 66.650406 
L 84.033412 67.201417 
L 87.312751 67.806693 
L 90.592089 67.81049 
L 93.871428 68.703547 
L 97.150767 68.652292 
L 100.430106 69.572829 
L 103.709445 69.39887 
L 106.988784 69.496139 
L 110.268122 69.496145 
L 113.547461 69.496147 
L 116.8268 69.70149 
L 120.106139 69.790854 
L 123.385478 69.790851 
L 126.664817 69.790813 
L 129.944155 69.00328 
L 133.223494 68.638964 
L 136.502833 70.253639 
L 139.782172 71.171349 
L 143.061511 70.981034 
L 146.34085 70.97778 
L 149.620189 70.537444 
L 152.899527 70.084405 
L 156.178866 68.971842 
L 159.458205 68.489289 
L 162.737544 69.25749 
L 166.016883 70.074343 
L 169.296222 73.377874 
L 172.57556 74.438076 
L 175.854899 75.855033 
L 179.134238 77.234251 
L 182.413577 77.182018 
L 185.692916 78.26482 
L 188.972255 79.219903 
L 192.251593 81.56739 
L 195.530932 83.175212 
L 198.810271 88.147029 
L 202.08961 89.466844 
L 205.368949 90.312137 
L 208.648288 89.894976 
L 211.927627 89.963493 
L 215.206965 89.485927 
L 218.486304 90.188275 
L 221.765643 90.31214 
L 225.044982 90.31214 
L 228.324321 90.31214 
L 231.60366 90.31214 
L 234.882998 90.31214 
L 238.162337 90.31214 
L 241.441676 90.31214 
L 244.721015 90.31214 
L 248.000354 90.31214 
L 251.279693 90.31214 
L 254.559032 90.31214 
L 257.83837 90.31214 
L 261.117709 90.31214 
L 264.397048 90.31214 
L 267.676387 90.31214 
L 270.955726 90.31214 
L 274.235065 90.31214 
L 277.514403 90.31214 
L 280.793742 90.31214 
L 284.073081 90.31214 
L 287.35242 90.31214 
L 290.631759 90.31214 
L 293.911098 90.31214 
L 297.190436 90.31214 
L 300.469775 90.31214 
L 303.749114 90.31214 
L 307.028453 90.31214 
L 310.307792 90.31214 
L 313.587131 90.31214 
L 316.86647 90.31214 
L 320.145808 90.31214 
L 323.425147 90.31214 
L 326.704486 90.31214 
L 329.983825 90.31214 
L 333.263164 90.31214 
L 336.542503 90.31214 
L 339.821841 90.31214 
L 343.10118 90.31214 
L 346.380519 90.31214 
L 349.659858 90.31214 
L 352.939197 90.31214 
L 356.218536 90.31214 
L 359.497874 90.31214 
L 362.777213 90.31214 
L 366.056552 90.31214 
L 369.335891 90.31214 
L 372.61523 90.31214 
L 375.894569 90.31214 
L 379.173908 90.31214 
L 382.453246 90.31214 
L 385.732585 90.31214 
" clip-path="url(#p1bed47d200)" style="fill: none; stroke: #ff7f0e; stroke-width: 1.5; stroke-linecap: square"/>
   </g>
   <g id="line2d_33">
    <path d="M 61.07804 113.816051 
L 64.357379 113.727198 
L 67.636717 113.48215 
L 70.916056 113.48215 
L 74.195395 112.76627 
L 77.474734 112.766366 
L 80.754073 113.288305 
L 84.033412 113.816922 
L 87.312751 114.054009 
L 90.592089 114.087192 
L 93.871428 113.89982 
L 97.150767 114.214875 
L 100.430106 113.530219 
L 103.709445 113.338413 
L 106.988784 113.44721 
L 110.268122 113.447215 
L 113.547461 113.447214 
L 116.8268 113.48174 
L 120.106139 112.894628 
L 123.385478 112.894621 
L 126.664817 112.89454 
L 129.944155 112.370113 
L 133.223494 113.275752 
L 136.502833 113.417353 
L 139.782172 111.759952 
L 143.061511 112.315201 
L 146.34085 112.419903 
L 149.620189 112.969446 
L 152.899527 111.494435 
L 156.178866 111.963431 
L 159.458205 111.978594 
L 162.737544 111.341025 
L 166.016883 111.298938 
L 169.296222 110.068452 
L 172.57556 109.889939 
L 175.854899 109.974932 
L 179.134238 108.823743 
L 182.413577 108.206308 
L 185.692916 106.836365 
L 188.972255 106.827417 
L 192.251593 107.965545 
L 195.530932 106.595398 
L 198.810271 105.757285 
L 202.08961 104.583576 
L 205.368949 102.166331 
L 208.648288 100.372204 
L 211.927627 97.448005 
L 215.206965 96.84444 
L 218.486304 95.24888 
L 221.765643 95.148186 
L 225.044982 95.240218 
L 228.324321 93.936153 
L 231.60366 94.120837 
L 234.882998 95.21776 
L 238.162337 92.081855 
L 241.441676 91.595856 
L 244.721015 91.594054 
L 248.000354 90.312141 
L 251.279693 90.992693 
L 254.559032 92.088145 
L 257.83837 90.924382 
L 261.117709 90.312141 
L 264.397048 90.312141 
L 267.676387 90.312141 
L 270.955726 90.31214 
L 274.235065 90.312141 
L 277.514403 90.31214 
L 280.793742 90.31214 
L 284.073081 90.31214 
L 287.35242 90.31214 
L 290.631759 90.31214 
L 293.911098 90.31214 
L 297.190436 90.31214 
L 300.469775 90.31214 
L 303.749114 90.31214 
L 307.028453 90.31214 
L 310.307792 90.31214 
L 313.587131 90.31214 
L 316.86647 90.31214 
L 320.145808 90.31214 
L 323.425147 90.31214 
L 326.704486 90.31214 
L 329.983825 90.31214 
L 333.263164 90.31214 
L 336.542503 90.31214 
L 339.821841 90.31214 
L 343.10118 90.31214 
L 346.380519 90.31214 
L 349.659858 90.31214 
L 352.939197 90.31214 
L 356.218536 90.31214 
L 359.497874 90.31214 
L 362.777213 90.31214 
L 366.056552 90.31214 
L 369.335891 90.31214 
L 372.61523 90.31214 
L 375.894569 90.31214 
L 379.173908 90.31214 
L 382.453246 90.31214 
L 385.732585 90.31214 
" clip-path="url(#p1bed47d200)" style="fill: none; stroke: #2ca02c; stroke-width: 1.5; stroke-linecap: square"/>
   </g>
   <g id="line2d_34">
    <path d="M 61.07804 104.53647 
L 64.357379 104.353295 
L 67.636717 103.883474 
L 70.916056 103.883474 
L 74.195395 103.789272 
L 77.474734 103.789337 
L 80.754073 104.150786 
L 84.033412 103.807764 
L 87.312751 102.292678 
L 90.592089 102.160031 
L 93.871428 101.784407 
L 97.150767 101.241492 
L 100.430106 99.945125 
L 103.709445 99.487461 
L 106.988784 99.441138 
L 110.268122 99.441138 
L 113.547461 99.441137 
L 116.8268 99.572146 
L 120.106139 99.193357 
L 123.385478 99.193347 
L 126.664817 99.193269 
L 129.944155 97.970479 
L 133.223494 98.103369 
L 136.502833 95.377358 
L 139.782172 96.133859 
L 143.061511 93.701425 
L 146.34085 93.607479 
L 149.620189 92.944694 
L 152.899527 92.289472 
L 156.178866 91.625781 
L 159.458205 91.09774 
L 162.737544 90.312141 
L 166.016883 90.312141 
L 169.296222 90.31214 
L 172.57556 90.312141 
L 175.854899 90.31214 
L 179.134238 90.312141 
L 182.413577 90.312141 
L 185.692916 90.312141 
L 188.972255 90.312141 
L 192.251593 90.312141 
L 195.530932 90.31214 
L 198.810271 90.31214 
L 202.08961 90.31214 
L 205.368949 90.312141 
L 208.648288 90.31214 
L 211.927627 90.312141 
L 215.206965 90.312141 
L 218.486304 90.312141 
L 221.765643 90.31214 
L 225.044982 90.312141 
L 228.324321 90.31214 
L 231.60366 90.312141 
L 234.882998 90.312141 
L 238.162337 90.31214 
L 241.441676 90.31214 
L 244.721015 90.31214 
L 248.000354 90.31214 
L 251.279693 90.31214 
L 254.559032 90.31214 
L 257.83837 90.31214 
L 261.117709 90.31214 
L 264.397048 90.31214 
L 267.676387 90.31214 
L 270.955726 90.31214 
L 274.235065 90.31214 
L 277.514403 90.31214 
L 280.793742 90.31214 
L 284.073081 90.31214 
L 287.35242 90.31214 
L 290.631759 90.31214 
L 293.911098 90.31214 
L 297.190436 90.31214 
L 300.469775 90.31214 
L 303.749114 90.31214 
L 307.028453 90.31214 
L 310.307792 90.31214 
L 313.587131 90.31214 
L 316.86647 90.31214 
L 320.145808 90.31214 
L 323.425147 90.31214 
L 326.704486 90.31214 
L 329.983825 90.31214 
L 333.263164 90.31214 
L 336.542503 90.31214 
L 339.821841 90.31214 
L 343.10118 90.31214 
L 346.380519 90.31214 
L 349.659858 90.31214 
L 352.939197 90.31214 
L 356.218536 90.31214 
L 359.497874 90.31214 
L 362.777213 90.31214 
L 366.056552 90.31214 
L 369.335891 90.31214 
L 372.61523 90.31214 
L 375.894569 90.31214 
L 379.173908 90.31214 
L 382.453246 90.31214 
L 385.732585 90.31214 
" clip-path="url(#p1bed47d200)" style="fill: none; stroke: #d62728; stroke-width: 1.5; stroke-linecap: square"/>
   </g>
   <g id="line2d_35">
    <path d="M 61.07804 20.47434 
L 64.357379 20.142284 
L 67.636717 20.915917 
L 70.916056 20.915916 
L 74.195395 19.56102 
L 77.474734 19.560965 
L 80.754073 19.296 
L 84.033412 19.878061 
L 87.312751 21.062979 
L 90.592089 21.116979 
L 93.871428 21.702936 
L 97.150767 21.573542 
L 100.430106 22.312668 
L 103.709445 22.40259 
L 106.988784 22.414881 
L 110.268122 22.41488 
L 113.547461 22.414879 
L 116.8268 22.416727 
L 120.106139 22.407532 
L 123.385478 22.407538 
L 126.664817 22.407533 
L 129.944155 22.770091 
L 133.223494 23.513781 
L 136.502833 25.816454 
L 139.782172 25.717806 
L 143.061511 26.796742 
L 146.34085 26.751942 
L 149.620189 25.899945 
L 152.899527 25.781695 
L 156.178866 27.779028 
L 159.458205 27.573629 
L 162.737544 28.977857 
L 166.016883 28.954424 
L 169.296222 32.277063 
L 172.57556 31.804444 
L 175.854899 31.375295 
L 179.134238 31.330564 
L 182.413577 30.360419 
L 185.692916 30.279046 
L 188.972255 30.455419 
L 192.251593 30.360752 
L 195.530932 30.550553 
L 198.810271 30.515421 
L 202.08961 30.016647 
L 205.368949 27.923994 
L 208.648288 27.511114 
L 211.927627 26.338972 
L 215.206965 26.742454 
L 218.486304 27.168831 
L 221.765643 26.995617 
L 225.044982 26.625465 
L 228.324321 26.670234 
L 231.60366 27.386139 
L 234.882998 27.076591 
L 238.162337 25.271624 
L 241.441676 25.402826 
L 244.721015 25.563209 
L 248.000354 25.640521 
L 251.279693 29.994643 
L 254.559032 33.603737 
L 257.83837 33.478232 
L 261.117709 32.84373 
L 264.397048 36.682088 
L 267.676387 41.027547 
L 270.955726 42.87248 
L 274.235065 42.894467 
L 277.514403 45.852868 
L 280.793742 47.851993 
L 284.073081 49.054516 
L 287.35242 51.716227 
L 290.631759 53.687225 
L 293.911098 53.108058 
L 297.190436 54.278679 
L 300.469775 55.943101 
L 303.749114 62.565186 
L 307.028453 64.286465 
L 310.307792 71.955459 
L 313.587131 75.746503 
L 316.86647 78.531319 
L 320.145808 79.10407 
L 323.425147 90.31214 
L 326.704486 90.31214 
L 329.983825 90.31214 
L 333.263164 90.31214 
L 336.542503 90.31214 
L 339.821841 90.31214 
L 343.10118 90.31214 
L 346.380519 90.31214 
L 349.659858 90.31214 
L 352.939197 90.31214 
L 356.218536 90.31214 
L 359.497874 90.31214 
L 362.777213 90.31214 
L 366.056552 90.31214 
L 369.335891 90.31214 
L 372.61523 90.31214 
L 375.894569 90.31214 
L 379.173908 90.31214 
L 382.453246 90.31214 
L 385.732585 90.31214 
" clip-path="url(#p1bed47d200)" style="fill: none; stroke: #9467bd; stroke-width: 1.5; stroke-linecap: square"/>
   </g>
   <g id="line2d_36">
    <path d="M 61.07804 133.01627 
L 64.357379 132.244944 
L 67.636717 131.243127 
L 70.916056 131.243126 
L 74.195395 128.204382 
L 77.474734 128.204283 
L 80.754073 127.793982 
L 84.033412 127.950088 
L 87.312751 127.68171 
L 90.592089 127.634156 
L 93.871428 126.896309 
L 97.150767 126.486773 
L 100.430106 125.703341 
L 103.709445 125.577568 
L 106.988784 125.521636 
L 110.268122 125.521632 
L 113.547461 125.521631 
L 116.8268 125.553553 
L 120.106139 125.624534 
L 123.385478 125.624538 
L 126.664817 125.624534 
L 129.944155 125.242482 
L 133.223494 125.601584 
L 136.502833 125.532711 
L 139.782172 125.974476 
L 143.061511 126.184098 
L 146.34085 126.227431 
L 149.620189 126.261708 
L 152.899527 126.428729 
L 156.178866 126.416962 
L 159.458205 126.311342 
L 162.737544 125.255251 
L 166.016883 124.577017 
L 169.296222 125.925165 
L 172.57556 126.023106 
L 175.854899 127.769671 
L 179.134238 127.454073 
L 182.413577 126.419298 
L 185.692916 124.826163 
L 188.972255 124.036942 
L 192.251593 122.785154 
L 195.530932 123.500703 
L 198.810271 121.034159 
L 202.08961 120.645433 
L 205.368949 119.95467 
L 208.648288 117.912274 
L 211.927627 115.951643 
L 215.206965 113.236536 
L 218.486304 113.487473 
L 221.765643 112.980609 
L 225.044982 112.582651 
L 228.324321 113.209456 
L 231.60366 110.592949 
L 234.882998 108.811314 
L 238.162337 110.828462 
L 241.441676 110.671349 
L 244.721015 110.458366 
L 248.000354 106.871991 
L 251.279693 103.053273 
L 254.559032 97.193334 
L 257.83837 96.295948 
L 261.117709 94.631714 
L 264.397048 94.085793 
L 267.676387 95.506694 
L 270.955726 91.126698 
L 274.235065 90.320747 
L 277.514403 90.31214 
L 280.793742 90.312141 
L 284.073081 90.31214 
L 287.35242 90.312141 
L 290.631759 90.31214 
L 293.911098 90.31214 
L 297.190436 90.31214 
L 300.469775 90.31214 
L 303.749114 90.312141 
L 307.028453 90.31214 
L 310.307792 90.31214 
L 313.587131 90.31214 
L 316.86647 90.31214 
L 320.145808 90.31214 
L 323.425147 90.31214 
L 326.704486 90.31214 
L 329.983825 90.31214 
L 333.263164 90.31214 
L 336.542503 90.31214 
L 339.821841 90.31214 
L 343.10118 90.31214 
L 346.380519 90.31214 
L 349.659858 90.31214 
L 352.939197 90.31214 
L 356.218536 90.31214 
L 359.497874 90.31214 
L 362.777213 90.31214 
L 366.056552 90.31214 
L 369.335891 90.31214 
L 372.61523 90.31214 
L 375.894569 90.31214 
L 379.173908 90.31214 
L 382.453246 90.31214 
L 385.732585 90.31214 
" clip-path="url(#p1bed47d200)" style="fill: none; stroke: #8c564b; stroke-width: 1.5; stroke-linecap: square"/>
   </g>
   <g id="line2d_37">
    <path d="M 61.07804 79.009603 
L 64.357379 79.485083 
L 67.636717 79.306593 
L 70.916056 79.306594 
L 74.195395 81.641241 
L 77.474734 81.64123 
L 80.754073 81.487524 
L 84.033412 82.416091 
L 87.312751 84.103792 
L 90.592089 84.203844 
L 93.871428 83.486312 
L 97.150767 84.303931 
L 100.430106 86.174829 
L 103.709445 85.952247 
L 106.988784 86.130932 
L 110.268122 86.130939 
L 113.547461 86.130937 
L 116.8268 86.120805 
L 120.106139 85.139355 
L 123.385478 85.139349 
L 126.664817 85.139228 
L 129.944155 84.576969 
L 133.223494 86.072637 
L 136.502833 90.312135 
L 139.782172 90.312139 
L 143.061511 89.834072 
L 146.34085 89.831317 
L 149.620189 89.289555 
L 152.899527 90.31214 
L 156.178866 90.31214 
L 159.458205 90.31214 
L 162.737544 90.31214 
L 166.016883 90.31214 
L 169.296222 90.31214 
L 172.57556 90.31214 
L 175.854899 90.31214 
L 179.134238 90.31214 
L 182.413577 90.31214 
L 185.692916 90.31214 
L 188.972255 90.31214 
L 192.251593 90.31214 
L 195.530932 90.31214 
L 198.810271 90.31214 
L 202.08961 90.31214 
L 205.368949 90.31214 
L 208.648288 90.31214 
L 211.927627 90.31214 
L 215.206965 90.31214 
L 218.486304 90.31214 
L 221.765643 90.31214 
L 225.044982 90.31214 
L 228.324321 90.31214 
L 231.60366 90.31214 
L 234.882998 90.31214 
L 238.162337 90.31214 
L 241.441676 90.31214 
L 244.721015 90.31214 
L 248.000354 90.31214 
L 251.279693 90.31214 
L 254.559032 90.31214 
L 257.83837 90.31214 
L 261.117709 90.31214 
L 264.397048 90.31214 
L 267.676387 90.31214 
L 270.955726 90.31214 
L 274.235065 90.31214 
L 277.514403 90.31214 
L 280.793742 90.31214 
L 284.073081 90.31214 
L 287.35242 90.31214 
L 290.631759 90.31214 
L 293.911098 90.31214 
L 297.190436 90.31214 
L 300.469775 90.31214 
L 303.749114 90.31214 
L 307.028453 90.31214 
L 310.307792 90.31214 
L 313.587131 90.31214 
L 316.86647 90.31214 
L 320.145808 90.31214 
L 323.425147 90.31214 
L 326.704486 90.31214 
L 329.983825 90.31214 
L 333.263164 90.31214 
L 336.542503 90.31214 
L 339.821841 90.31214 
L 343.10118 90.31214 
L 346.380519 90.31214 
L 349.659858 90.31214 
L 352.939197 90.31214 
L 356.218536 90.31214 
L 359.497874 90.31214 
L 362.777213 90.31214 
L 366.056552 90.31214 
L 369.335891 90.31214 
L 372.61523 90.31214 
L 375.894569 90.31214 
L 379.173908 90.31214 
L 382.453246 90.31214 
L 385.732585 90.31214 
" clip-path="url(#p1bed47d200)" style="fill: none; stroke: #e377c2; stroke-width: 1.5; stroke-linecap: square"/>
   </g>
   <g id="line2d_38">
    <path d="M 61.07804 111.635145 
L 64.357379 111.69627 
L 67.636717 110.3092 
L 70.916056 110.3092 
L 74.195395 108.431771 
L 77.474734 108.431622 
L 80.754073 107.716945 
L 84.033412 107.237596 
L 87.312751 108.331712 
L 90.592089 108.457693 
L 93.871428 107.433129 
L 97.150767 107.310313 
L 100.430106 107.922185 
L 103.709445 108.114765 
L 106.988784 108.14652 
L 110.268122 108.146519 
L 113.547461 108.14652 
L 116.8268 108.044498 
L 120.106139 108.23649 
L 123.385478 108.236493 
L 126.664817 108.23654 
L 129.944155 108.596964 
L 133.223494 109.059172 
L 136.502833 110.346011 
L 139.782172 108.592832 
L 143.061511 108.433286 
L 146.34085 108.306448 
L 149.620189 106.337173 
L 152.899527 106.103217 
L 156.178866 105.16511 
L 159.458205 103.529922 
L 162.737544 105.426378 
L 166.016883 103.434919 
L 169.296222 101.10358 
L 172.57556 100.15788 
L 175.854899 99.413854 
L 179.134238 98.316724 
L 182.413577 95.776857 
L 185.692916 94.168274 
L 188.972255 93.51591 
L 192.251593 92.02074 
L 195.530932 90.615022 
L 198.810271 90.312141 
L 202.08961 90.31214 
L 205.368949 90.312141 
L 208.648288 90.31214 
L 211.927627 90.312141 
L 215.206965 90.312141 
L 218.486304 90.31214 
L 221.765643 90.31214 
L 225.044982 90.31214 
L 228.324321 90.31214 
L 231.60366 90.31214 
L 234.882998 90.312141 
L 238.162337 90.31214 
L 241.441676 90.31214 
L 244.721015 90.31214 
L 248.000354 90.31214 
L 251.279693 90.312141 
L 254.559032 90.31214 
L 257.83837 90.31214 
L 261.117709 90.31214 
L 264.397048 90.31214 
L 267.676387 90.31214 
L 270.955726 90.31214 
L 274.235065 90.31214 
L 277.514403 90.31214 
L 280.793742 90.31214 
L 284.073081 90.31214 
L 287.35242 90.31214 
L 290.631759 90.31214 
L 293.911098 90.31214 
L 297.190436 90.31214 
L 300.469775 90.31214 
L 303.749114 90.31214 
L 307.028453 90.31214 
L 310.307792 90.31214 
L 313.587131 90.31214 
L 316.86647 90.31214 
L 320.145808 90.31214 
L 323.425147 90.31214 
L 326.704486 90.31214 
L 329.983825 90.31214 
L 333.263164 90.31214 
L 336.542503 90.31214 
L 339.821841 90.31214 
L 343.10118 90.31214 
L 346.380519 90.31214 
L 349.659858 90.31214 
L 352.939197 90.31214 
L 356.218536 90.31214 
L 359.497874 90.31214 
L 362.777213 90.31214 
L 366.056552 90.31214 
L 369.335891 90.31214 
L 372.61523 90.31214 
L 375.894569 90.31214 
L 379.173908 90.31214 
L 382.453246 90.31214 
L 385.732585 90.31214 
" clip-path="url(#p1bed47d200)" style="fill: none; stroke: #7f7f7f; stroke-width: 1.5; stroke-linecap: square"/>
   </g>
   <g id="line2d_39">
    <path d="M 61.07804 90.312141 
L 64.357379 90.312141 
L 67.636717 90.312141 
L 70.916056 90.312141 
L 74.195395 90.312141 
L 77.474734 90.312141 
L 80.754073 90.312141 
L 84.033412 90.312141 
L 87.312751 90.312141 
L 90.592089 90.312141 
L 93.871428 90.312141 
L 97.150767 90.312142 
L 100.430106 90.312143 
L 103.709445 90.312141 
L 106.988784 90.312141 
L 110.268122 90.312141 
L 113.547461 90.31214 
L 116.8268 90.312141 
L 120.106139 90.31214 
L 123.385478 90.312141 
L 126.664817 90.312141 
L 129.944155 90.312141 
L 133.223494 90.312141 
L 136.502833 90.312141 
L 139.782172 90.312141 
L 143.061511 90.31214 
L 146.34085 90.31214 
L 149.620189 90.312141 
L 152.899527 90.31214 
L 156.178866 90.312141 
L 159.458205 90.31214 
L 162.737544 90.31214 
L 166.016883 90.31214 
L 169.296222 90.31214 
L 172.57556 90.312141 
L 175.854899 90.31214 
L 179.134238 90.312141 
L 182.413577 90.312141 
L 185.692916 90.312141 
L 188.972255 90.312141 
L 192.251593 90.312141 
L 195.530932 90.31214 
L 198.810271 90.31214 
L 202.08961 90.31214 
L 205.368949 90.312141 
L 208.648288 90.31214 
L 211.927627 90.312141 
L 215.206965 90.312141 
L 218.486304 90.31214 
L 221.765643 90.31214 
L 225.044982 90.31214 
L 228.324321 90.31214 
L 231.60366 90.31214 
L 234.882998 90.312141 
L 238.162337 90.31214 
L 241.441676 90.31214 
L 244.721015 90.31214 
L 248.000354 90.31214 
L 251.279693 90.31214 
L 254.559032 90.31214 
L 257.83837 90.31214 
L 261.117709 90.31214 
L 264.397048 90.31214 
L 267.676387 90.31214 
L 270.955726 90.31214 
L 274.235065 90.31214 
L 277.514403 90.31214 
L 280.793742 90.31214 
L 284.073081 90.31214 
L 287.35242 90.31214 
L 290.631759 90.31214 
L 293.911098 90.31214 
L 297.190436 90.31214 
L 300.469775 90.31214 
L 303.749114 90.31214 
L 307.028453 90.31214 
L 310.307792 90.31214 
L 313.587131 90.31214 
L 316.86647 90.31214 
L 320.145808 90.31214 
L 323.425147 90.31214 
L 326.704486 90.31214 
L 329.983825 90.31214 
L 333.263164 90.31214 
L 336.542503 90.31214 
L 339.821841 90.31214 
L 343.10118 90.31214 
L 346.380519 90.31214 
L 349.659858 90.31214 
L 352.939197 90.31214 
L 356.218536 90.31214 
L 359.497874 90.31214 
L 362.777213 90.31214 
L 366.056552 90.31214 
L 369.335891 90.31214 
L 372.61523 90.31214 
L 375.894569 90.31214 
L 379.173908 90.31214 
L 382.453246 90.31214 
L 385.732585 90.31214 
" clip-path="url(#p1bed47d200)" style="fill: none; stroke: #bcbd22; stroke-width: 1.5; stroke-linecap: square"/>
   </g>
   <g id="line2d_40">
    <path d="M 61.07804 164.598299 
L 64.357379 164.453807 
L 67.636717 164.193742 
L 70.916056 164.193741 
L 74.195395 164.140083 
L 77.474734 164.140018 
L 80.754073 163.816939 
L 84.033412 163.082559 
L 87.312751 162.322507 
L 90.592089 162.245593 
L 93.871428 162.521543 
L 97.150767 161.853961 
L 100.430106 162.73765 
L 103.709445 162.721609 
L 106.988784 162.765447 
L 110.268122 162.765449 
L 113.547461 162.765452 
L 116.8268 162.884987 
L 120.106139 163.472662 
L 123.385478 163.472664 
L 126.664817 163.472705 
L 129.944155 162.886636 
L 133.223494 161.961519 
L 136.502833 161.090556 
L 139.782172 161.395009 
L 143.061511 161.419471 
L 146.34085 161.40616 
L 149.620189 161.423253 
L 152.899527 160.946511 
L 156.178866 161.018108 
L 159.458205 161.782035 
L 162.737544 162.303041 
L 166.016883 162.835759 
L 169.296222 159.092193 
L 172.57556 159.283934 
L 175.854899 157.893346 
L 179.134238 156.887 
L 182.413577 158.567582 
L 185.692916 160.066922 
L 188.972255 160.348101 
L 192.251593 159.890064 
L 195.530932 160.383897 
L 198.810271 157.300742 
L 202.08961 156.270624 
L 205.368949 155.604322 
L 208.648288 155.926504 
L 211.927627 155.790453 
L 215.206965 155.163374 
L 218.486304 157.182025 
L 221.765643 157.482561 
L 225.044982 156.757495 
L 228.324321 157.562004 
L 231.60366 157.522626 
L 234.882998 156.591522 
L 238.162337 150.750637 
L 241.441676 150.420563 
L 244.721015 150.164949 
L 248.000354 149.257012 
L 251.279693 148.106848 
L 254.559032 142.505838 
L 257.83837 142.500241 
L 261.117709 140.837094 
L 264.397048 139.258198 
L 267.676387 136.699675 
L 270.955726 134.865243 
L 274.235065 135.247274 
L 277.514403 132.269818 
L 280.793742 127.614698 
L 284.073081 126.333617 
L 287.35242 120.227154 
L 290.631759 120.457485 
L 293.911098 116.4292 
L 297.190436 116.468994 
L 300.469775 114.728641 
L 303.749114 109.21002 
L 307.028453 108.763111 
L 310.307792 100.113604 
L 313.587131 96.236107 
L 316.86647 95.906776 
L 320.145808 94.869954 
L 323.425147 90.31214 
L 326.704486 90.31214 
L 329.983825 90.31214 
L 333.263164 90.312141 
L 336.542503 90.31214 
L 339.821841 90.31214 
L 343.10118 90.31214 
L 346.380519 90.31214 
L 349.659858 90.312141 
L 352.939197 90.31214 
L 356.218536 90.31214 
L 359.497874 90.31214 
L 362.777213 90.31214 
L 366.056552 90.31214 
L 369.335891 90.31214 
L 372.61523 90.31214 
L 375.894569 90.31214 
L 379.173908 90.31214 
L 382.453246 90.31214 
L 385.732585 90.31214 
" clip-path="url(#p1bed47d200)" style="fill: none; stroke: #17becf; stroke-width: 1.5; stroke-linecap: square"/>
   </g>
   <g id="line2d_41">
    <path d="M 61.07804 109.084232 
L 64.357379 109.186536 
L 67.636717 109.767795 
L 70.916056 109.767796 
L 74.195395 110.016574 
L 77.474734 110.016664 
L 80.754073 110.472518 
L 84.033412 111.342577 
L 87.312751 111.654997 
L 90.592089 111.691085 
L 93.871428 111.214584 
L 97.150767 111.062438 
L 100.430106 109.724135 
L 103.709445 109.733867 
L 106.988784 109.73903 
L 110.268122 109.739025 
L 113.547461 109.73902 
L 116.8268 109.429431 
L 120.106139 108.513691 
L 123.385478 108.513692 
L 126.664817 108.513647 
L 129.944155 108.911158 
L 133.223494 107.748104 
L 136.502833 105.686496 
L 139.782172 104.422921 
L 143.061511 105.20168 
L 146.34085 105.184088 
L 149.620189 104.470882 
L 152.899527 104.680436 
L 156.178866 102.640501 
L 159.458205 102.781041 
L 162.737544 102.592541 
L 166.016883 102.863372 
L 169.296222 101.272014 
L 172.57556 101.26634 
L 175.854899 103.31619 
L 179.134238 104.976743 
L 182.413577 105.132379 
L 185.692916 103.787879 
L 188.972255 103.494187 
L 192.251593 104.098812 
L 195.530932 103.271655 
L 198.810271 101.48393 
L 202.08961 101.720971 
L 205.368949 100.69203 
L 208.648288 98.034352 
L 211.927627 97.490827 
L 215.206965 97.852665 
L 218.486304 97.576017 
L 221.765643 97.67569 
L 225.044982 97.567773 
L 228.324321 96.844114 
L 231.60366 97.243201 
L 234.882998 98.921173 
L 238.162337 93.526207 
L 241.441676 92.036577 
L 244.721015 91.936186 
L 248.000354 90.931136 
L 251.279693 90.312143 
L 254.559032 90.31214 
L 257.83837 90.31214 
L 261.117709 90.31214 
L 264.397048 90.312141 
L 267.676387 90.312141 
L 270.955726 90.31214 
L 274.235065 90.312141 
L 277.514403 90.31214 
L 280.793742 90.31214 
L 284.073081 90.31214 
L 287.35242 90.31214 
L 290.631759 90.31214 
L 293.911098 90.31214 
L 297.190436 90.31214 
L 300.469775 90.31214 
L 303.749114 90.312141 
L 307.028453 90.31214 
L 310.307792 90.31214 
L 313.587131 90.31214 
L 316.86647 90.31214 
L 320.145808 90.31214 
L 323.425147 90.31214 
L 326.704486 90.31214 
L 329.983825 90.31214 
L 333.263164 90.31214 
L 336.542503 90.31214 
L 339.821841 90.31214 
L 343.10118 90.31214 
L 346.380519 90.31214 
L 349.659858 90.31214 
L 352.939197 90.31214 
L 356.218536 90.31214 
L 359.497874 90.31214 
L 362.777213 90.31214 
L 366.056552 90.31214 
L 369.335891 90.31214 
L 372.61523 90.31214 
L 375.894569 90.31214 
L 379.173908 90.31214 
L 382.453246 90.31214 
L 385.732585 90.31214 
" clip-path="url(#p1bed47d200)" style="fill: none; stroke: #1f77b4; stroke-width: 1.5; stroke-linecap: square"/>
   </g>
   <g id="line2d_42">
    <path d="M 61.07804 258.664913 
L 64.357379 258.839298 
L 67.636717 259.324669 
L 70.916056 259.324669 
L 74.195395 259.887485 
L 77.474734 259.887485 
L 80.754073 259.885182 
L 84.033412 260.406067 
L 87.312751 260.617796 
L 90.592089 260.620456 
L 93.871428 261.216 
L 97.150767 261.163728 
L 100.430106 259.153026 
L 103.709445 259.177448 
L 106.988784 259.014193 
L 110.268122 259.014186 
L 113.547461 259.014185 
L 116.8268 259.107704 
L 120.106139 259.376613 
L 123.385478 259.376614 
L 126.664817 259.37663 
L 129.944155 259.893867 
L 133.223494 258.191979 
L 136.502833 256.924301 
L 139.782172 257.279441 
L 143.061511 256.634402 
L 146.34085 256.567285 
L 149.620189 256.39508 
L 152.899527 256.611363 
L 156.178866 254.945884 
L 159.458205 254.395993 
L 162.737544 255.781649 
L 166.016883 255.922655 
L 169.296222 259.364644 
L 172.57556 259.588562 
L 175.854899 256.889129 
L 179.134238 257.054618 
L 182.413577 257.294529 
L 185.692916 259.016629 
L 188.972255 258.998925 
L 192.251593 258.951868 
L 195.530932 258.869053 
L 198.810271 256.334116 
L 202.08961 256.502629 
L 205.368949 254.366436 
L 208.648288 253.338852 
L 211.927627 253.206736 
L 215.206965 253.034421 
L 218.486304 252.298919 
L 221.765643 252.244655 
L 225.044982 252.15081 
L 228.324321 251.523306 
L 231.60366 252.96219 
L 234.882998 252.786367 
L 238.162337 253.507504 
L 241.441676 253.678045 
L 244.721015 253.791197 
L 248.000354 254.035576 
L 251.279693 254.642986 
L 254.559032 251.842711 
L 257.83837 252.006239 
L 261.117709 251.143337 
L 264.397048 253.420344 
L 267.676387 255.564379 
L 270.955726 254.71437 
L 274.235065 254.584208 
L 277.514403 256.934127 
L 280.793742 257.465008 
L 284.073081 258.073325 
L 287.35242 258.594771 
L 290.631759 258.746681 
L 293.911098 257.120972 
L 297.190436 256.557441 
L 300.469775 255.369166 
L 303.749114 257.193027 
L 307.028453 257.389616 
L 310.307792 259.728941 
L 313.587131 258.173877 
L 316.86647 257.977175 
L 320.145808 256.911662 
L 323.425147 254.839409 
L 326.704486 252.406687 
L 329.983825 251.302148 
L 333.263164 248.058211 
L 336.542503 248.394577 
L 339.821841 243.124656 
L 343.10118 240.982611 
L 346.380519 233.591464 
L 349.659858 232.853127 
L 352.939197 227.46869 
L 356.218536 216.682854 
L 359.497874 90.312204 
L 362.777213 90.312204 
L 366.056552 90.31215 
L 369.335891 90.312142 
L 372.61523 90.312144 
L 375.894569 90.312141 
L 379.173908 90.312141 
L 382.453246 90.312141 
L 385.732585 90.31214 
" clip-path="url(#p1bed47d200)" style="fill: none; stroke: #ff7f0e; stroke-width: 1.5; stroke-linecap: square"/>
   </g>
   <g id="line2d_43">
    <path d="M 61.07804 125.975783 
L 64.357379 125.736947 
L 67.636717 125.419207 
L 70.916056 125.419207 
L 74.195395 125.165869 
L 77.474734 125.165914 
L 80.754073 125.415356 
L 84.033412 124.818724 
L 87.312751 123.933895 
L 90.592089 123.881131 
L 93.871428 123.435338 
L 97.150767 122.935023 
L 100.430106 123.039034 
L 103.709445 122.7093 
L 106.988784 122.868743 
L 110.268122 122.868749 
L 113.547461 122.868748 
L 116.8268 122.817074 
L 120.106139 122.307776 
L 123.385478 122.30777 
L 126.664817 122.307712 
L 129.944155 120.796506 
L 133.223494 120.294391 
L 136.502833 119.178247 
L 139.782172 119.953553 
L 143.061511 118.633122 
L 146.34085 118.539936 
L 149.620189 117.321331 
L 152.899527 117.447894 
L 156.178866 115.039979 
L 159.458205 114.804815 
L 162.737544 112.540257 
L 166.016883 111.952364 
L 169.296222 110.747858 
L 172.57556 110.189199 
L 175.854899 109.888717 
L 179.134238 109.965521 
L 182.413577 108.506243 
L 185.692916 108.234876 
L 188.972255 108.030613 
L 192.251593 108.267513 
L 195.530932 110.571344 
L 198.810271 109.769932 
L 202.08961 109.559602 
L 205.368949 107.145541 
L 208.648288 105.617402 
L 211.927627 104.148227 
L 215.206965 104.214751 
L 218.486304 103.271134 
L 221.765643 102.656723 
L 225.044982 102.66111 
L 228.324321 102.719506 
L 231.60366 102.90454 
L 234.882998 102.23023 
L 238.162337 99.320299 
L 241.441676 99.7026 
L 244.721015 99.646453 
L 248.000354 100.129776 
L 251.279693 95.750843 
L 254.559032 94.670975 
L 257.83837 94.329409 
L 261.117709 94.066012 
L 264.397048 92.289686 
L 267.676387 90.54342 
L 270.955726 91.992434 
L 274.235065 91.80696 
L 277.514403 91.136493 
L 280.793742 90.312141 
L 284.073081 90.312141 
L 287.35242 90.312141 
L 290.631759 90.31214 
L 293.911098 90.31214 
L 297.190436 90.31214 
L 300.469775 90.31214 
L 303.749114 90.312141 
L 307.028453 90.31214 
L 310.307792 90.31214 
L 313.587131 90.31214 
L 316.86647 90.31214 
L 320.145808 90.31214 
L 323.425147 90.31214 
L 326.704486 90.31214 
L 329.983825 90.31214 
L 333.263164 90.31214 
L 336.542503 90.31214 
L 339.821841 90.31214 
L 343.10118 90.31214 
L 346.380519 90.31214 
L 349.659858 90.31214 
L 352.939197 90.31214 
L 356.218536 90.31214 
L 359.497874 90.31214 
L 362.777213 90.31214 
L 366.056552 90.31214 
L 369.335891 90.31214 
L 372.61523 90.31214 
L 375.894569 90.31214 
L 379.173908 90.31214 
L 382.453246 90.31214 
L 385.732585 90.31214 
" clip-path="url(#p1bed47d200)" style="fill: none; stroke: #2ca02c; stroke-width: 1.5; stroke-linecap: square"/>
   </g>
   <g id="line2d_44">
    <path d="M 61.07804 55.766197 
L 64.357379 56.046364 
L 67.636717 56.112521 
L 70.916056 56.112521 
L 74.195395 55.81533 
L 77.474734 55.815352 
L 80.754073 55.915896 
L 84.033412 56.360244 
L 87.312751 57.192225 
L 90.592089 57.285201 
L 93.871428 57.101926 
L 97.150767 57.41586 
L 100.430106 58.113514 
L 103.709445 58.279812 
L 106.988784 58.323357 
L 110.268122 58.323357 
L 113.547461 58.323356 
L 116.8268 58.168872 
L 120.106139 57.934156 
L 123.385478 57.934158 
L 126.664817 57.934166 
L 129.944155 58.478648 
L 133.223494 58.597098 
L 136.502833 60.700986 
L 139.782172 60.609434 
L 143.061511 61.474869 
L 146.34085 61.495206 
L 149.620189 60.993263 
L 152.899527 61.591614 
L 156.178866 60.124063 
L 159.458205 59.953493 
L 162.737544 59.845034 
L 166.016883 60.181868 
L 169.296222 58.736684 
L 172.57556 58.900882 
L 175.854899 58.788993 
L 179.134238 60.723645 
L 182.413577 63.142791 
L 185.692916 65.03667 
L 188.972255 65.633394 
L 192.251593 65.002266 
L 195.530932 64.931296 
L 198.810271 64.433918 
L 202.08961 65.195331 
L 205.368949 66.544961 
L 208.648288 68.648992 
L 211.927627 69.636768 
L 215.206965 72.225793 
L 218.486304 73.53596 
L 221.765643 73.931852 
L 225.044982 73.727547 
L 228.324321 74.293329 
L 231.60366 75.663591 
L 234.882998 77.223178 
L 238.162337 79.920291 
L 241.441676 79.705381 
L 244.721015 79.68097 
L 248.000354 80.29613 
L 251.279693 79.830776 
L 254.559032 83.919185 
L 257.83837 85.393898 
L 261.117709 87.767185 
L 264.397048 87.138443 
L 267.676387 86.511684 
L 270.955726 88.861715 
L 274.235065 89.256411 
L 277.514403 88.020541 
L 280.793742 89.845014 
L 284.073081 90.31214 
L 287.35242 90.31214 
L 290.631759 90.31214 
L 293.911098 90.31214 
L 297.190436 90.31214 
L 300.469775 90.31214 
L 303.749114 90.31214 
L 307.028453 90.31214 
L 310.307792 90.31214 
L 313.587131 90.31214 
L 316.86647 90.31214 
L 320.145808 90.31214 
L 323.425147 90.31214 
L 326.704486 90.31214 
L 329.983825 90.31214 
L 333.263164 90.31214 
L 336.542503 90.31214 
L 339.821841 90.31214 
L 343.10118 90.31214 
L 346.380519 90.31214 
L 349.659858 90.31214 
L 352.939197 90.31214 
L 356.218536 90.31214 
L 359.497874 90.31214 
L 362.777213 90.31214 
L 366.056552 90.31214 
L 369.335891 90.31214 
L 372.61523 90.31214 
L 375.894569 90.31214 
L 379.173908 90.31214 
L 382.453246 90.31214 
L 385.732585 90.31214 
" clip-path="url(#p1bed47d200)" style="fill: none; stroke: #d62728; stroke-width: 1.5; stroke-linecap: square"/>
   </g>
   <g id="line2d_45">
    <path d="M 61.07804 106.985159 
L 64.357379 106.464813 
L 67.636717 106.657827 
L 70.916056 106.657826 
L 74.195395 105.157816 
L 77.474734 105.157766 
L 80.754073 104.941046 
L 84.033412 105.045919 
L 87.312751 105.452202 
L 90.592089 105.475031 
L 93.871428 106.037862 
L 97.150767 105.404719 
L 100.430106 104.958233 
L 103.709445 105.299079 
L 106.988784 105.308891 
L 110.268122 105.308887 
L 113.547461 105.308887 
L 116.8268 105.019069 
L 120.106139 105.345033 
L 123.385478 105.345044 
L 126.664817 105.345147 
L 129.944155 105.950996 
L 133.223494 105.87393 
L 136.502833 105.803687 
L 139.782172 106.660145 
L 143.061511 106.21169 
L 146.34085 106.134653 
L 149.620189 105.913333 
L 152.899527 104.847912 
L 156.178866 103.769011 
L 159.458205 103.647773 
L 162.737544 102.114702 
L 166.016883 101.780875 
L 169.296222 100.461527 
L 172.57556 100.403579 
L 175.854899 99.799406 
L 179.134238 99.528828 
L 182.413577 99.623728 
L 185.692916 99.11779 
L 188.972255 99.235867 
L 192.251593 98.436602 
L 195.530932 95.804626 
L 198.810271 92.478292 
L 202.08961 91.581434 
L 205.368949 90.312148 
L 208.648288 90.31214 
L 211.927627 90.312141 
L 215.206965 90.312141 
L 218.486304 90.312141 
L 221.765643 90.31214 
L 225.044982 90.312141 
L 228.324321 90.31214 
L 231.60366 90.312141 
L 234.882998 90.312141 
L 238.162337 90.312141 
L 241.441676 90.312141 
L 244.721015 90.31214 
L 248.000354 90.312141 
L 251.279693 90.312141 
L 254.559032 90.31214 
L 257.83837 90.31214 
L 261.117709 90.31214 
L 264.397048 90.31214 
L 267.676387 90.31214 
L 270.955726 90.31214 
L 274.235065 90.31214 
L 277.514403 90.31214 
L 280.793742 90.31214 
L 284.073081 90.31214 
L 287.35242 90.31214 
L 290.631759 90.31214 
L 293.911098 90.31214 
L 297.190436 90.31214 
L 300.469775 90.31214 
L 303.749114 90.31214 
L 307.028453 90.31214 
L 310.307792 90.31214 
L 313.587131 90.31214 
L 316.86647 90.31214 
L 320.145808 90.31214 
L 323.425147 90.31214 
L 326.704486 90.31214 
L 329.983825 90.31214 
L 333.263164 90.31214 
L 336.542503 90.31214 
L 339.821841 90.31214 
L 343.10118 90.31214 
L 346.380519 90.31214 
L 349.659858 90.31214 
L 352.939197 90.31214 
L 356.218536 90.31214 
L 359.497874 90.31214 
L 362.777213 90.31214 
L 366.056552 90.31214 
L 369.335891 90.31214 
L 372.61523 90.31214 
L 375.894569 90.31214 
L 379.173908 90.31214 
L 382.453246 90.31214 
L 385.732585 90.31214 
" clip-path="url(#p1bed47d200)" style="fill: none; stroke: #9467bd; stroke-width: 1.5; stroke-linecap: square"/>
   </g>
   <g id="line2d_46">
    <path d="M 61.07804 94.469843 
L 64.357379 94.449574 
L 67.636717 94.711121 
L 70.916056 94.711121 
L 74.195395 95.556091 
L 77.474734 95.555977 
L 80.754073 94.930213 
L 84.033412 94.497279 
L 87.312751 95.192951 
L 90.592089 95.273486 
L 93.871428 94.080813 
L 97.150767 94.75755 
L 100.430106 95.960531 
L 103.709445 96.072234 
L 106.988784 96.034762 
L 110.268122 96.034759 
L 113.547461 96.034756 
L 116.8268 95.840303 
L 120.106139 95.254627 
L 123.385478 95.254627 
L 126.664817 95.254602 
L 129.944155 96.100151 
L 133.223494 95.47405 
L 136.502833 94.863573 
L 139.782172 93.57705 
L 143.061511 93.695554 
L 146.34085 93.74621 
L 149.620189 93.836142 
L 152.899527 93.631197 
L 156.178866 94.99086 
L 159.458205 95.130907 
L 162.737544 95.715474 
L 166.016883 95.752898 
L 169.296222 96.497862 
L 172.57556 96.645388 
L 175.854899 95.67207 
L 179.134238 95.519482 
L 182.413577 95.042244 
L 185.692916 94.673619 
L 188.972255 95.597094 
L 192.251593 97.046044 
L 195.530932 95.52447 
L 198.810271 94.203066 
L 202.08961 93.790289 
L 205.368949 92.81544 
L 208.648288 91.251348 
L 211.927627 91.38775 
L 215.206965 90.393151 
L 218.486304 90.312141 
L 221.765643 90.407455 
L 225.044982 90.474005 
L 228.324321 90.31214 
L 231.60366 90.312141 
L 234.882998 90.312146 
L 238.162337 90.468986 
L 241.441676 90.312144 
L 244.721015 90.312141 
L 248.000354 90.312141 
L 251.279693 90.312141 
L 254.559032 90.31214 
L 257.83837 90.31214 
L 261.117709 90.312141 
L 264.397048 90.31214 
L 267.676387 90.312141 
L 270.955726 90.31214 
L 274.235065 90.312141 
L 277.514403 90.31214 
L 280.793742 90.31214 
L 284.073081 90.31214 
L 287.35242 90.31214 
L 290.631759 90.31214 
L 293.911098 90.31214 
L 297.190436 90.31214 
L 300.469775 90.31214 
L 303.749114 90.31214 
L 307.028453 90.31214 
L 310.307792 90.31214 
L 313.587131 90.31214 
L 316.86647 90.31214 
L 320.145808 90.31214 
L 323.425147 90.31214 
L 326.704486 90.31214 
L 329.983825 90.31214 
L 333.263164 90.31214 
L 336.542503 90.31214 
L 339.821841 90.31214 
L 343.10118 90.31214 
L 346.380519 90.31214 
L 349.659858 90.31214 
L 352.939197 90.31214 
L 356.218536 90.31214 
L 359.497874 90.31214 
L 362.777213 90.31214 
L 366.056552 90.31214 
L 369.335891 90.31214 
L 372.61523 90.31214 
L 375.894569 90.31214 
L 379.173908 90.31214 
L 382.453246 90.31214 
L 385.732585 90.31214 
" clip-path="url(#p1bed47d200)" style="fill: none; stroke: #8c564b; stroke-width: 1.5; stroke-linecap: square"/>
   </g>
   <g id="line2d_47">
    <path d="M 61.07804 95.453561 
L 64.357379 95.053191 
L 67.636717 94.536933 
L 70.916056 94.536933 
L 74.195395 94.874463 
L 77.474734 94.874485 
L 80.754073 94.966851 
L 84.033412 94.974996 
L 87.312751 94.542589 
L 90.592089 94.482987 
L 93.871428 94.863704 
L 97.150767 95.18485 
L 100.430106 96.114961 
L 103.709445 96.02137 
L 106.988784 96.039365 
L 110.268122 96.039368 
L 113.547461 96.039369 
L 116.8268 96.265679 
L 120.106139 96.109046 
L 123.385478 96.109043 
L 126.664817 96.108974 
L 129.944155 96.203129 
L 133.223494 97.159021 
L 136.502833 99.999949 
L 139.782172 100.018354 
L 143.061511 99.077585 
L 146.34085 98.991035 
L 149.620189 97.474295 
L 152.899527 96.554078 
L 156.178866 94.838322 
L 159.458205 94.988587 
L 162.737544 93.615348 
L 166.016883 92.82646 
L 169.296222 93.645632 
L 172.57556 93.68507 
L 175.854899 91.677222 
L 179.134238 91.696568 
L 182.413577 91.61519 
L 185.692916 92.77964 
L 188.972255 93.00616 
L 192.251593 92.508801 
L 195.530932 93.594433 
L 198.810271 92.101659 
L 202.08961 92.061962 
L 205.368949 91.001834 
L 208.648288 90.312141 
L 211.927627 90.312141 
L 215.206965 90.312141 
L 218.486304 90.31214 
L 221.765643 90.31214 
L 225.044982 90.31214 
L 228.324321 90.31214 
L 231.60366 90.31214 
L 234.882998 90.312141 
L 238.162337 90.31214 
L 241.441676 90.31214 
L 244.721015 90.31214 
L 248.000354 90.31214 
L 251.279693 90.312141 
L 254.559032 90.31214 
L 257.83837 90.31214 
L 261.117709 90.31214 
L 264.397048 90.31214 
L 267.676387 90.31214 
L 270.955726 90.31214 
L 274.235065 90.31214 
L 277.514403 90.31214 
L 280.793742 90.31214 
L 284.073081 90.31214 
L 287.35242 90.31214 
L 290.631759 90.31214 
L 293.911098 90.31214 
L 297.190436 90.31214 
L 300.469775 90.31214 
L 303.749114 90.31214 
L 307.028453 90.31214 
L 310.307792 90.31214 
L 313.587131 90.31214 
L 316.86647 90.31214 
L 320.145808 90.31214 
L 323.425147 90.31214 
L 326.704486 90.31214 
L 329.983825 90.31214 
L 333.263164 90.31214 
L 336.542503 90.31214 
L 339.821841 90.31214 
L 343.10118 90.31214 
L 346.380519 90.31214 
L 349.659858 90.31214 
L 352.939197 90.31214 
L 356.218536 90.31214 
L 359.497874 90.31214 
L 362.777213 90.31214 
L 366.056552 90.31214 
L 369.335891 90.31214 
L 372.61523 90.31214 
L 375.894569 90.31214 
L 379.173908 90.31214 
L 382.453246 90.31214 
L 385.732585 90.31214 
" clip-path="url(#p1bed47d200)" style="fill: none; stroke: #e377c2; stroke-width: 1.5; stroke-linecap: square"/>
   </g>
   <g id="line2d_48">
    <path d="M 61.07804 196.951228 
L 64.357379 196.498152 
L 67.636717 195.62476 
L 70.916056 195.62476 
L 74.195395 195.376793 
L 77.474734 195.376749 
L 80.754073 195.156476 
L 84.033412 195.317331 
L 87.312751 195.398769 
L 90.592089 195.366123 
L 93.871428 195.756311 
L 97.150767 195.405349 
L 100.430106 195.351407 
L 103.709445 195.174648 
L 106.988784 195.19208 
L 110.268122 195.19208 
L 113.547461 195.192078 
L 116.8268 195.201771 
L 120.106139 194.85035 
L 123.385478 194.85035 
L 126.664817 194.8503 
L 129.944155 194.399735 
L 133.223494 194.446562 
L 136.502833 195.53628 
L 139.782172 196.740924 
L 143.061511 194.801027 
L 146.34085 194.680795 
L 149.620189 194.527098 
L 152.899527 194.191186 
L 156.178866 194.58328 
L 159.458205 194.928837 
L 162.737544 194.938576 
L 166.016883 194.614544 
L 169.296222 193.248133 
L 172.57556 193.436019 
L 175.854899 194.997024 
L 179.134238 192.220275 
L 182.413577 190.772974 
L 185.692916 189.17781 
L 188.972255 189.511859 
L 192.251593 190.086621 
L 195.530932 189.90502 
L 198.810271 190.535522 
L 202.08961 191.279478 
L 205.368949 191.540448 
L 208.648288 191.358293 
L 211.927627 189.160371 
L 215.206965 186.870482 
L 218.486304 186.176707 
L 221.765643 185.269507 
L 225.044982 185.300814 
L 228.324321 185.832066 
L 231.60366 183.928485 
L 234.882998 183.370783 
L 238.162337 182.285208 
L 241.441676 182.514898 
L 244.721015 182.447943 
L 248.000354 181.870991 
L 251.279693 177.489799 
L 254.559032 177.868897 
L 257.83837 176.759226 
L 261.117709 176.214725 
L 264.397048 174.206093 
L 267.676387 171.971745 
L 270.955726 172.030707 
L 274.235065 172.021414 
L 277.514403 169.459952 
L 280.793742 167.777824 
L 284.073081 167.094221 
L 287.35242 162.352383 
L 290.631759 161.5419 
L 293.911098 159.153151 
L 297.190436 157.995375 
L 300.469775 154.332772 
L 303.749114 148.945177 
L 307.028453 147.827561 
L 310.307792 140.929783 
L 313.587131 136.479343 
L 316.86647 134.868195 
L 320.145808 132.808478 
L 323.425147 118.126587 
L 326.704486 116.189805 
L 329.983825 115.057985 
L 333.263164 111.101643 
L 336.542503 102.770195 
L 339.821841 95.180428 
L 343.10118 90.31214 
L 346.380519 90.31214 
L 349.659858 90.312141 
L 352.939197 90.31214 
L 356.218536 90.31214 
L 359.497874 90.31214 
L 362.777213 90.312141 
L 366.056552 90.31214 
L 369.335891 90.31214 
L 372.61523 90.312141 
L 375.894569 90.31214 
L 379.173908 90.31214 
L 382.453246 90.31214 
L 385.732585 90.31214 
" clip-path="url(#p1bed47d200)" style="fill: none; stroke: #7f7f7f; stroke-width: 1.5; stroke-linecap: square"/>
   </g>
   <g id="line2d_49">
    <path d="M 61.07804 67.900036 
L 64.357379 67.714415 
L 67.636717 67.74812 
L 70.916056 67.74812 
L 74.195395 67.567399 
L 77.474734 67.56744 
L 80.754073 67.788739 
L 84.033412 67.819376 
L 87.312751 67.724612 
L 90.592089 67.735583 
L 93.871428 69.352459 
L 97.150767 69.341544 
L 100.430106 68.798815 
L 103.709445 68.940181 
L 106.988784 68.927076 
L 110.268122 68.927074 
L 113.547461 68.927074 
L 116.8268 68.816074 
L 120.106139 68.826794 
L 123.385478 68.826797 
L 126.664817 68.826825 
L 129.944155 69.273339 
L 133.223494 68.90981 
L 136.502833 69.6119 
L 139.782172 71.297621 
L 143.061511 72.985984 
L 146.34085 73.070686 
L 149.620189 73.325205 
L 152.899527 76.066747 
L 156.178866 75.881248 
L 159.458205 75.273425 
L 162.737544 75.854732 
L 166.016883 75.639399 
L 169.296222 75.454405 
L 172.57556 76.064318 
L 175.854899 77.036931 
L 179.134238 78.410084 
L 182.413577 79.147962 
L 185.692916 80.401091 
L 188.972255 80.174474 
L 192.251593 80.087263 
L 195.530932 82.412859 
L 198.810271 85.290972 
L 202.08961 84.3725 
L 205.368949 84.913235 
L 208.648288 90.31214 
L 211.927627 90.312137 
L 215.206965 88.786645 
L 218.486304 88.363975 
L 221.765643 88.965345 
L 225.044982 89.662678 
L 228.324321 89.313202 
L 231.60366 89.063624 
L 234.882998 89.453857 
L 238.162337 90.31214 
L 241.441676 90.31214 
L 244.721015 90.31214 
L 248.000354 90.31214 
L 251.279693 90.312139 
L 254.559032 90.31214 
L 257.83837 90.31214 
L 261.117709 90.31214 
L 264.397048 90.31214 
L 267.676387 90.31214 
L 270.955726 90.31214 
L 274.235065 90.31214 
L 277.514403 90.31214 
L 280.793742 90.31214 
L 284.073081 90.31214 
L 287.35242 90.31214 
L 290.631759 90.31214 
L 293.911098 90.31214 
L 297.190436 90.31214 
L 300.469775 90.31214 
L 303.749114 90.31214 
L 307.028453 90.31214 
L 310.307792 90.31214 
L 313.587131 90.31214 
L 316.86647 90.31214 
L 320.145808 90.31214 
L 323.425147 90.31214 
L 326.704486 90.31214 
L 329.983825 90.31214 
L 333.263164 90.31214 
L 336.542503 90.31214 
L 339.821841 90.31214 
L 343.10118 90.31214 
L 346.380519 90.31214 
L 349.659858 90.31214 
L 352.939197 90.31214 
L 356.218536 90.31214 
L 359.497874 90.31214 
L 362.777213 90.31214 
L 366.056552 90.31214 
L 369.335891 90.31214 
L 372.61523 90.31214 
L 375.894569 90.31214 
L 379.173908 90.31214 
L 382.453246 90.31214 
L 385.732585 90.31214 
" clip-path="url(#p1bed47d200)" style="fill: none; stroke: #bcbd22; stroke-width: 1.5; stroke-linecap: square"/>
   </g>
   <g id="line2d_50">
    <path d="M 61.07804 80.6358 
L 64.357379 80.675917 
L 67.636717 81.867835 
L 70.916056 81.867835 
L 74.195395 83.327692 
L 77.474734 83.327622 
L 80.754073 82.928479 
L 84.033412 83.449362 
L 87.312751 83.746214 
L 90.592089 83.705323 
L 93.871428 83.974815 
L 97.150767 83.430425 
L 100.430106 81.793989 
L 103.709445 81.841615 
L 106.988784 81.783842 
L 110.268122 81.783839 
L 113.547461 81.783841 
L 116.8268 81.931125 
L 120.106139 82.577854 
L 123.385478 82.577864 
L 126.664817 82.577905 
L 129.944155 82.578343 
L 133.223494 82.878099 
L 136.502833 84.242755 
L 139.782172 85.421221 
L 143.061511 85.067456 
L 146.34085 85.109007 
L 149.620189 86.096141 
L 152.899527 87.250769 
L 156.178866 87.018963 
L 159.458205 87.956969 
L 162.737544 86.736659 
L 166.016883 87.76336 
L 169.296222 90.312139 
L 172.57556 90.31214 
L 175.854899 90.31214 
L 179.134238 90.312139 
L 182.413577 90.31214 
L 185.692916 90.31214 
L 188.972255 90.31214 
L 192.251593 90.31214 
L 195.530932 90.31214 
L 198.810271 90.31214 
L 202.08961 90.31214 
L 205.368949 90.31214 
L 208.648288 90.31214 
L 211.927627 90.31214 
L 215.206965 90.31214 
L 218.486304 90.31214 
L 221.765643 90.31214 
L 225.044982 90.31214 
L 228.324321 90.31214 
L 231.60366 90.31214 
L 234.882998 90.31214 
L 238.162337 90.31214 
L 241.441676 90.31214 
L 244.721015 90.31214 
L 248.000354 90.31214 
L 251.279693 90.31214 
L 254.559032 90.31214 
L 257.83837 90.31214 
L 261.117709 90.31214 
L 264.397048 90.31214 
L 267.676387 90.31214 
L 270.955726 90.31214 
L 274.235065 90.31214 
L 277.514403 90.31214 
L 280.793742 90.31214 
L 284.073081 90.31214 
L 287.35242 90.31214 
L 290.631759 90.31214 
L 293.911098 90.31214 
L 297.190436 90.31214 
L 300.469775 90.31214 
L 303.749114 90.31214 
L 307.028453 90.31214 
L 310.307792 90.31214 
L 313.587131 90.31214 
L 316.86647 90.31214 
L 320.145808 90.31214 
L 323.425147 90.31214 
L 326.704486 90.31214 
L 329.983825 90.31214 
L 333.263164 90.31214 
L 336.542503 90.31214 
L 339.821841 90.31214 
L 343.10118 90.31214 
L 346.380519 90.31214 
L 349.659858 90.31214 
L 352.939197 90.31214 
L 356.218536 90.31214 
L 359.497874 90.31214 
L 362.777213 90.31214 
L 366.056552 90.31214 
L 369.335891 90.31214 
L 372.61523 90.31214 
L 375.894569 90.31214 
L 379.173908 90.31214 
L 382.453246 90.31214 
L 385.732585 90.31214 
" clip-path="url(#p1bed47d200)" style="fill: none; stroke: #17becf; stroke-width: 1.5; stroke-linecap: square"/>
   </g>
   <g id="patch_3">
    <path d="M 44.845313 273.312 
L 44.845313 7.2 
" style="fill: none; stroke: #000000; stroke-width: 0.8; stroke-linejoin: miter; stroke-linecap: square"/>
   </g>
   <g id="patch_4">
    <path d="M 401.965312 273.312 
L 401.965312 7.2 
" style="fill: none; stroke: #000000; stroke-width: 0.8; stroke-linejoin: miter; stroke-linecap: square"/>
   </g>
   <g id="patch_5">
    <path d="M 44.845313 273.312 
L 401.965313 273.312 
" style="fill: none; stroke: #000000; stroke-width: 0.8; stroke-linejoin: miter; stroke-linecap: square"/>
   </g>
   <g id="patch_6">
    <path d="M 44.845313 7.2 
L 401.965313 7.2 
" style="fill: none; stroke: #000000; stroke-width: 0.8; stroke-linejoin: miter; stroke-linecap: square"/>
   </g>
  </g>
 </g>
 <defs>
  <clipPath id="p1bed47d200">
   <rect x="44.845313" y="7.2" width="357.12" height="266.112"/>
  </clipPath>
 </defs>
</svg>