<?xml version="1.0" encoding="utf-8" standalone="no"?>
<!DOCTYPE svg PUBLIC "-//W3C//DTD SVG 1.1//EN"
  "http://www.w3.org/Graphics/SVG/1.1/DTD/svg11.dtd">
<svg xmlns:xlink="http://www.w3.org/1999/xlink" width="376.240625pt" height="262.19625pt" viewBox="0 0 376.240625 262.19625" xmlns="http://www.w3.org/2000/svg" version="1.1">
 <metadata>
  <rdf:RDF xmlns:dc="http://purl.org/dc/elements/1.1/" xmlns:cc="http://creativecommons.org/ns#" xmlns:rdf="http://www.w3.org/1999/02/22-rdf-syntax-ns#">
   <cc:Work>
    <dc:type rdf:resource="http://purl.org/dc/dcmitype/StillImage"/>
    <dc:date>2022-06-04T10:33:10.581595</dc:date>
    <dc:format>image/svg+xml</dc:format>
    <dc:creator>
     <cc:Agent>
      <dc:title>Matplotlib v3.5.2, https://matplotlib.org/</dc:title>
     </cc:Agent>
    </dc:creator>
   </cc:Work>
  </rdf:RDF>
 </metadata>
 <defs>
  <style type="text/css">*{stroke-linejoin: round; stroke-linecap: butt}</style>
 </defs>
 <g id="figure_1">
  <g id="patch_1">
   <path d="M 0 262.19625 
L 376.240625 262.19625 
L 376.240625 0 
L 0 0 
L 0 262.19625 
z
" style="fill: none"/>
  </g>
  <g id="axes_1">
   <g id="patch_2">
    <path d="M 34.240625 224.64 
L 369.040625 224.64 
L 369.040625 7.2 
L 34.240625 7.2 
z
" style="fill: #ffffff"/>
   </g>
   <g id="matplotlib.axis_1">
    <g id="xtick_1">
     <g id="line2d_1">
      <defs>
       <path id="mc903dc863d" d="M 0 0 
L 0 3.5 
" style="stroke: #000000; stroke-width: 0.8"/>
      </defs>
      <g>
       <use xlink:href="#mc903dc863d" x="34.607685" y="224.64" style="stroke: #000000; stroke-width: 0.8"/>
      </g>
     </g>
     <g id="text_1">
      <!-- 0 -->
      <g transform="translate(31.426435 239.238437)scale(0.1 -0.1)">
       <defs>
        <path id="DejaVuSans-30" d="M 2034 4250 
Q 1547 4250 1301 3770 
Q 1056 3291 1056 2328 
Q 1056 1369 1301 889 
Q 1547 409 2034 409 
Q 2525 409 2770 889 
Q 3016 1369 3016 2328 
Q 3016 3291 2770 3770 
Q 2525 4250 2034 4250 
z
M 2034 4750 
Q 2819 4750 3233 4129 
Q 3647 3509 3647 2328 
Q 3647 1150 3233 529 
Q 2819 -91 2034 -91 
Q 1250 -91 836 529 
Q 422 1150 422 2328 
Q 422 3509 836 4129 
Q 1250 4750 2034 4750 
z
" transform="scale(0.015625)"/>
       </defs>
       <use xlink:href="#DejaVuSans-30"/>
      </g>
     </g>
    </g>
    <g id="xtick_2">
     <g id="line2d_2">
      <g>
       <use xlink:href="#mc903dc863d" x="77.511609" y="224.64" style="stroke: #000000; stroke-width: 0.8"/>
      </g>
     </g>
     <g id="text_2">
      <!-- 1 -->
      <g transform="translate(74.330359 239.238437)scale(0.1 -0.1)">
       <defs>
        <path id="DejaVuSans-31" d="M 794 531 
L 1825 531 
L 1825 4091 
L 703 3866 
L 703 4441 
L 1819 4666 
L 2450 4666 
L 2450 531 
L 3481 531 
L 3481 0 
L 794 0 
L 794 531 
z
" transform="scale(0.015625)"/>
       </defs>
       <use xlink:href="#DejaVuSans-31"/>
      </g>
     </g>
    </g>
    <g id="xtick_3">
     <g id="line2d_3">
      <g>
       <use xlink:href="#mc903dc863d" x="120.415532" y="224.64" style="stroke: #000000; stroke-width: 0.8"/>
      </g>
     </g>
     <g id="text_3">
      <!-- 2 -->
      <g transform="translate(117.234282 239.238437)scale(0.1 -0.1)">
       <defs>
        <path id="DejaVuSans-32" d="M 1228 531 
L 3431 531 
L 3431 0 
L 469 0 
L 469 531 
Q 828 903 1448 1529 
Q 2069 2156 2228 2338 
Q 2531 2678 2651 2914 
Q 2772 3150 2772 3378 
Q 2772 3750 2511 3984 
Q 2250 4219 1831 4219 
Q 1534 4219 1204 4116 
Q 875 4013 500 3803 
L 500 4441 
Q 881 4594 1212 4672 
Q 1544 4750 1819 4750 
Q 2544 4750 2975 4387 
Q 3406 4025 3406 3419 
Q 3406 3131 3298 2873 
Q 3191 2616 2906 2266 
Q 2828 2175 2409 1742 
Q 1991 1309 1228 531 
z
" transform="scale(0.015625)"/>
       </defs>
       <use xlink:href="#DejaVuSans-32"/>
      </g>
     </g>
    </g>
    <g id="xtick_4">
     <g id="line2d_4">
      <g>
       <use xlink:href="#mc903dc863d" x="163.319456" y="224.64" style="stroke: #000000; stroke-width: 0.8"/>
      </g>
     </g>
     <g id="text_4">
      <!-- 3 -->
      <g transform="translate(160.138206 239.238437)scale(0.1 -0.1)">
       <defs>
        <path id="DejaVuSans-33" d="M 2597 2516 
Q 3050 2419 3304 2112 
Q 3559 1806 3559 1356 
Q 3559 666 3084 287 
Q 2609 -91 1734 -91 
Q 1441 -91 1130 -33 
Q 819 25 488 141 
L 488 750 
Q 750 597 1062 519 
Q 1375 441 1716 441 
Q 2309 441 2620 675 
Q 2931 909 2931 1356 
Q 2931 1769 2642 2001 
Q 2353 2234 1838 2234 
L 1294 2234 
L 1294 2753 
L 1863 2753 
Q 2328 2753 2575 2939 
Q 2822 3125 2822 3475 
Q 2822 3834 2567 4026 
Q 2313 4219 1838 4219 
Q 1578 4219 1281 4162 
Q 984 4106 628 3988 
L 628 4550 
Q 988 4650 1302 4700 
Q 1616 4750 1894 4750 
Q 2613 4750 3031 4423 
Q 3450 4097 3450 3541 
Q 3450 3153 3228 2886 
Q 3006 2619 2597 2516 
z
" transform="scale(0.015625)"/>
       </defs>
       <use xlink:href="#DejaVuSans-33"/>
      </g>
     </g>
    </g>
    <g id="xtick_5">
     <g id="line2d_5">
      <g>
       <use xlink:href="#mc903dc863d" x="206.223379" y="224.64" style="stroke: #000000; stroke-width: 0.8"/>
      </g>
     </g>
     <g id="text_5">
      <!-- 4 -->
      <g transform="translate(203.042129 239.238437)scale(0.1 -0.1)">
       <defs>
        <path id="DejaVuSans-34" d="M 2419 4116 
L 825 1625 
L 2419 1625 
L 2419 4116 
z
M 2253 4666 
L 3047 4666 
L 3047 1625 
L 3713 1625 
L 3713 1100 
L 3047 1100 
L 3047 0 
L 2419 0 
L 2419 1100 
L 313 1100 
L 313 1709 
L 2253 4666 
z
" transform="scale(0.015625)"/>
       </defs>
       <use xlink:href="#DejaVuSans-34"/>
      </g>
     </g>
    </g>
    <g id="xtick_6">
     <g id="line2d_6">
      <g>
       <use xlink:href="#mc903dc863d" x="249.127303" y="224.64" style="stroke: #000000; stroke-width: 0.8"/>
      </g>
     </g>
     <g id="text_6">
      <!-- 5 -->
      <g transform="translate(245.946053 239.238437)scale(0.1 -0.1)">
       <defs>
        <path id="DejaVuSans-35" d="M 691 4666 
L 3169 4666 
L 3169 4134 
L 1269 4134 
L 1269 2991 
Q 1406 3038 1543 3061 
Q 1681 3084 1819 3084 
Q 2600 3084 3056 2656 
Q 3513 2228 3513 1497 
Q 3513 744 3044 326 
Q 2575 -91 1722 -91 
Q 1428 -91 1123 -41 
Q 819 9 494 109 
L 494 744 
Q 775 591 1075 516 
Q 1375 441 1709 441 
Q 2250 441 2565 725 
Q 2881 1009 2881 1497 
Q 2881 1984 2565 2268 
Q 2250 2553 1709 2553 
Q 1456 2553 1204 2497 
Q 953 2441 691 2322 
L 691 4666 
z
" transform="scale(0.015625)"/>
       </defs>
       <use xlink:href="#DejaVuSans-35"/>
      </g>
     </g>
    </g>
    <g id="xtick_7">
     <g id="line2d_7">
      <g>
       <use xlink:href="#mc903dc863d" x="292.031226" y="224.64" style="stroke: #000000; stroke-width: 0.8"/>
      </g>
     </g>
     <g id="text_7">
      <!-- 6 -->
      <g transform="translate(288.849976 239.238437)scale(0.1 -0.1)">
       <defs>
        <path id="DejaVuSans-36" d="M 2113 2584 
Q 1688 2584 1439 2293 
Q 1191 2003 1191 1497 
Q 1191 994 1439 701 
Q 1688 409 2113 409 
Q 2538 409 2786 701 
Q 3034 994 3034 1497 
Q 3034 2003 2786 2293 
Q 2538 2584 2113 2584 
z
M 3366 4563 
L 3366 3988 
Q 3128 4100 2886 4159 
Q 2644 4219 2406 4219 
Q 1781 4219 1451 3797 
Q 1122 3375 1075 2522 
Q 1259 2794 1537 2939 
Q 1816 3084 2150 3084 
Q 2853 3084 3261 2657 
Q 3669 2231 3669 1497 
Q 3669 778 3244 343 
Q 2819 -91 2113 -91 
Q 1303 -91 875 529 
Q 447 1150 447 2328 
Q 447 3434 972 4092 
Q 1497 4750 2381 4750 
Q 2619 4750 2861 4703 
Q 3103 4656 3366 4563 
z
" transform="scale(0.015625)"/>
       </defs>
       <use xlink:href="#DejaVuSans-36"/>
      </g>
     </g>
    </g>
    <g id="xtick_8">
     <g id="line2d_8">
      <g>
       <use xlink:href="#mc903dc863d" x="334.93515" y="224.64" style="stroke: #000000; stroke-width: 0.8"/>
      </g>
     </g>
     <g id="text_8">
      <!-- 7 -->
      <g transform="translate(331.7539 239.238437)scale(0.1 -0.1)">
       <defs>
        <path id="DejaVuSans-37" d="M 525 4666 
L 3525 4666 
L 3525 4397 
L 1831 0 
L 1172 0 
L 2766 4134 
L 525 4134 
L 525 4666 
z
" transform="scale(0.015625)"/>
       </defs>
       <use xlink:href="#DejaVuSans-37"/>
      </g>
     </g>
    </g>
    <g id="text_9">
     <!-- Standard deviation -->
     <g transform="translate(154.063281 252.916562)scale(0.1 -0.1)">
      <defs>
       <path id="DejaVuSans-53" d="M 3425 4513 
L 3425 3897 
Q 3066 4069 2747 4153 
Q 2428 4238 2131 4238 
Q 1616 4238 1336 4038 
Q 1056 3838 1056 3469 
Q 1056 3159 1242 3001 
Q 1428 2844 1947 2747 
L 2328 2669 
Q 3034 2534 3370 2195 
Q 3706 1856 3706 1288 
Q 3706 609 3251 259 
Q 2797 -91 1919 -91 
Q 1588 -91 1214 -16 
Q 841 59 441 206 
L 441 856 
Q 825 641 1194 531 
Q 1563 422 1919 422 
Q 2459 422 2753 634 
Q 3047 847 3047 1241 
Q 3047 1584 2836 1778 
Q 2625 1972 2144 2069 
L 1759 2144 
Q 1053 2284 737 2584 
Q 422 2884 422 3419 
Q 422 4038 858 4394 
Q 1294 4750 2059 4750 
Q 2388 4750 2728 4690 
Q 3069 4631 3425 4513 
z
" transform="scale(0.015625)"/>
       <path id="DejaVuSans-74" d="M 1172 4494 
L 1172 3500 
L 2356 3500 
L 2356 3053 
L 1172 3053 
L 1172 1153 
Q 1172 725 1289 603 
Q 1406 481 1766 481 
L 2356 481 
L 2356 0 
L 1766 0 
Q 1100 0 847 248 
Q 594 497 594 1153 
L 594 3053 
L 172 3053 
L 172 3500 
L 594 3500 
L 594 4494 
L 1172 4494 
z
" transform="scale(0.015625)"/>
       <path id="DejaVuSans-61" d="M 2194 1759 
Q 1497 1759 1228 1600 
Q 959 1441 959 1056 
Q 959 750 1161 570 
Q 1363 391 1709 391 
Q 2188 391 2477 730 
Q 2766 1069 2766 1631 
L 2766 1759 
L 2194 1759 
z
M 3341 1997 
L 3341 0 
L 2766 0 
L 2766 531 
Q 2569 213 2275 61 
Q 1981 -91 1556 -91 
Q 1019 -91 701 211 
Q 384 513 384 1019 
Q 384 1609 779 1909 
Q 1175 2209 1959 2209 
L 2766 2209 
L 2766 2266 
Q 2766 2663 2505 2880 
Q 2244 3097 1772 3097 
Q 1472 3097 1187 3025 
Q 903 2953 641 2809 
L 641 3341 
Q 956 3463 1253 3523 
Q 1550 3584 1831 3584 
Q 2591 3584 2966 3190 
Q 3341 2797 3341 1997 
z
" transform="scale(0.015625)"/>
       <path id="DejaVuSans-6e" d="M 3513 2113 
L 3513 0 
L 2938 0 
L 2938 2094 
Q 2938 2591 2744 2837 
Q 2550 3084 2163 3084 
Q 1697 3084 1428 2787 
Q 1159 2491 1159 1978 
L 1159 0 
L 581 0 
L 581 3500 
L 1159 3500 
L 1159 2956 
Q 1366 3272 1645 3428 
Q 1925 3584 2291 3584 
Q 2894 3584 3203 3211 
Q 3513 2838 3513 2113 
z
" transform="scale(0.015625)"/>
       <path id="DejaVuSans-64" d="M 2906 2969 
L 2906 4863 
L 3481 4863 
L 3481 0 
L 2906 0 
L 2906 525 
Q 2725 213 2448 61 
Q 2172 -91 1784 -91 
Q 1150 -91 751 415 
Q 353 922 353 1747 
Q 353 2572 751 3078 
Q 1150 3584 1784 3584 
Q 2172 3584 2448 3432 
Q 2725 3281 2906 2969 
z
M 947 1747 
Q 947 1113 1208 752 
Q 1469 391 1925 391 
Q 2381 391 2643 752 
Q 2906 1113 2906 1747 
Q 2906 2381 2643 2742 
Q 2381 3103 1925 3103 
Q 1469 3103 1208 2742 
Q 947 2381 947 1747 
z
" transform="scale(0.015625)"/>
       <path id="DejaVuSans-72" d="M 2631 2963 
Q 2534 3019 2420 3045 
Q 2306 3072 2169 3072 
Q 1681 3072 1420 2755 
Q 1159 2438 1159 1844 
L 1159 0 
L 581 0 
L 581 3500 
L 1159 3500 
L 1159 2956 
Q 1341 3275 1631 3429 
Q 1922 3584 2338 3584 
Q 2397 3584 2469 3576 
Q 2541 3569 2628 3553 
L 2631 2963 
z
" transform="scale(0.015625)"/>
       <path id="DejaVuSans-20" transform="scale(0.015625)"/>
       <path id="DejaVuSans-65" d="M 3597 1894 
L 3597 1613 
L 953 1613 
Q 991 1019 1311 708 
Q 1631 397 2203 397 
Q 2534 397 2845 478 
Q 3156 559 3463 722 
L 3463 178 
Q 3153 47 2828 -22 
Q 2503 -91 2169 -91 
Q 1331 -91 842 396 
Q 353 884 353 1716 
Q 353 2575 817 3079 
Q 1281 3584 2069 3584 
Q 2775 3584 3186 3129 
Q 3597 2675 3597 1894 
z
M 3022 2063 
Q 3016 2534 2758 2815 
Q 2500 3097 2075 3097 
Q 1594 3097 1305 2825 
Q 1016 2553 972 2059 
L 3022 2063 
z
" transform="scale(0.015625)"/>
       <path id="DejaVuSans-76" d="M 191 3500 
L 800 3500 
L 1894 563 
L 2988 3500 
L 3597 3500 
L 2284 0 
L 1503 0 
L 191 3500 
z
" transform="scale(0.015625)"/>
       <path id="DejaVuSans-69" d="M 603 3500 
L 1178 3500 
L 1178 0 
L 603 0 
L 603 3500 
z
M 603 4863 
L 1178 4863 
L 1178 4134 
L 603 4134 
L 603 4863 
z
" transform="scale(0.015625)"/>
       <path id="DejaVuSans-6f" d="M 1959 3097 
Q 1497 3097 1228 2736 
Q 959 2375 959 1747 
Q 959 1119 1226 758 
Q 1494 397 1959 397 
Q 2419 397 2687 759 
Q 2956 1122 2956 1747 
Q 2956 2369 2687 2733 
Q 2419 3097 1959 3097 
z
M 1959 3584 
Q 2709 3584 3137 3096 
Q 3566 2609 3566 1747 
Q 3566 888 3137 398 
Q 2709 -91 1959 -91 
Q 1206 -91 779 398 
Q 353 888 353 1747 
Q 353 2609 779 3096 
Q 1206 3584 1959 3584 
z
" transform="scale(0.015625)"/>
      </defs>
      <use xlink:href="#DejaVuSans-53"/>
      <use xlink:href="#DejaVuSans-74" x="63.476562"/>
      <use xlink:href="#DejaVuSans-61" x="102.685547"/>
      <use xlink:href="#DejaVuSans-6e" x="163.964844"/>
      <use xlink:href="#DejaVuSans-64" x="227.34375"/>
      <use xlink:href="#DejaVuSans-61" x="290.820312"/>
      <use xlink:href="#DejaVuSans-72" x="352.099609"/>
      <use xlink:href="#DejaVuSans-64" x="391.462891"/>
      <use xlink:href="#DejaVuSans-20" x="454.939453"/>
      <use xlink:href="#DejaVuSans-64" x="486.726562"/>
      <use xlink:href="#DejaVuSans-65" x="550.203125"/>
      <use xlink:href="#DejaVuSans-76" x="611.726562"/>
      <use xlink:href="#DejaVuSans-69" x="670.90625"/>
      <use xlink:href="#DejaVuSans-61" x="698.689453"/>
      <use xlink:href="#DejaVuSans-74" x="759.96875"/>
      <use xlink:href="#DejaVuSans-69" x="799.177734"/>
      <use xlink:href="#DejaVuSans-6f" x="826.960938"/>
      <use xlink:href="#DejaVuSans-6e" x="888.142578"/>
     </g>
    </g>
   </g>
   <g id="matplotlib.axis_2">
    <g id="ytick_1">
     <g id="line2d_9">
      <defs>
       <path id="m3d81cc3eda" d="M 0 0 
L -3.5 0 
" style="stroke: #000000; stroke-width: 0.8"/>
      </defs>
      <g>
       <use xlink:href="#m3d81cc3eda" x="34.240625" y="208.505202" style="stroke: #000000; stroke-width: 0.8"/>
      </g>
     </g>
     <g id="text_10">
      <!-- 1 -->
      <g transform="translate(20.878125 212.304421)scale(0.1 -0.1)">
       <use xlink:href="#DejaVuSans-31"/>
      </g>
     </g>
    </g>
    <g id="ytick_2">
     <g id="line2d_10">
      <g>
       <use xlink:href="#m3d81cc3eda" x="34.240625" y="164.077306" style="stroke: #000000; stroke-width: 0.8"/>
      </g>
     </g>
     <g id="text_11">
      <!-- 2 -->
      <g transform="translate(20.878125 167.876525)scale(0.1 -0.1)">
       <use xlink:href="#DejaVuSans-32"/>
      </g>
     </g>
    </g>
    <g id="ytick_3">
     <g id="line2d_11">
      <g>
       <use xlink:href="#m3d81cc3eda" x="34.240625" y="119.649411" style="stroke: #000000; stroke-width: 0.8"/>
      </g>
     </g>
     <g id="text_12">
      <!-- 3 -->
      <g transform="translate(20.878125 123.44863)scale(0.1 -0.1)">
       <use xlink:href="#DejaVuSans-33"/>
      </g>
     </g>
    </g>
    <g id="ytick_4">
     <g id="line2d_12">
      <g>
       <use xlink:href="#m3d81cc3eda" x="34.240625" y="75.221515" style="stroke: #000000; stroke-width: 0.8"/>
      </g>
     </g>
     <g id="text_13">
      <!-- 4 -->
      <g transform="translate(20.878125 79.020734)scale(0.1 -0.1)">
       <use xlink:href="#DejaVuSans-34"/>
      </g>
     </g>
    </g>
    <g id="ytick_5">
     <g id="line2d_13">
      <g>
       <use xlink:href="#m3d81cc3eda" x="34.240625" y="30.79362" style="stroke: #000000; stroke-width: 0.8"/>
      </g>
     </g>
     <g id="text_14">
      <!-- 5 -->
      <g transform="translate(20.878125 34.592838)scale(0.1 -0.1)">
       <use xlink:href="#DejaVuSans-35"/>
      </g>
     </g>
    </g>
    <g id="text_15">
     <!-- Return -->
     <g transform="translate(14.798437 132.511406)rotate(-90)scale(0.1 -0.1)">
      <defs>
       <path id="DejaVuSans-52" d="M 2841 2188 
Q 3044 2119 3236 1894 
Q 3428 1669 3622 1275 
L 4263 0 
L 3584 0 
L 2988 1197 
Q 2756 1666 2539 1819 
Q 2322 1972 1947 1972 
L 1259 1972 
L 1259 0 
L 628 0 
L 628 4666 
L 2053 4666 
Q 2853 4666 3247 4331 
Q 3641 3997 3641 3322 
Q 3641 2881 3436 2590 
Q 3231 2300 2841 2188 
z
M 1259 4147 
L 1259 2491 
L 2053 2491 
Q 2509 2491 2742 2702 
Q 2975 2913 2975 3322 
Q 2975 3731 2742 3939 
Q 2509 4147 2053 4147 
L 1259 4147 
z
" transform="scale(0.015625)"/>
       <path id="DejaVuSans-75" d="M 544 1381 
L 544 3500 
L 1119 3500 
L 1119 1403 
Q 1119 906 1312 657 
Q 1506 409 1894 409 
Q 2359 409 2629 706 
Q 2900 1003 2900 1516 
L 2900 3500 
L 3475 3500 
L 3475 0 
L 2900 0 
L 2900 538 
Q 2691 219 2414 64 
Q 2138 -91 1772 -91 
Q 1169 -91 856 284 
Q 544 659 544 1381 
z
M 1991 3584 
L 1991 3584 
z
" transform="scale(0.015625)"/>
      </defs>
      <use xlink:href="#DejaVuSans-52"/>
      <use xlink:href="#DejaVuSans-65" x="64.982422"/>
      <use xlink:href="#DejaVuSans-74" x="126.505859"/>
      <use xlink:href="#DejaVuSans-75" x="165.714844"/>
      <use xlink:href="#DejaVuSans-72" x="229.09375"/>
      <use xlink:href="#DejaVuSans-6e" x="268.457031"/>
     </g>
    </g>
   </g>
   <g id="line2d_14">
    <path d="M 144.589591 150.680129 
L 144.591369 150.679556 
L 144.588596 150.68058 
L 144.588511 150.68061 
L 144.588103 150.680753 
L 144.586612 150.681284 
L 144.582199 150.682891 
L 144.587667 150.680921 
L 144.585199 150.681864 
L 144.587358 150.681061 
L 144.583281 150.682284 
L 144.588597 150.680579 
L 144.588603 150.680576 
L 144.588259 150.680656 
L 144.587315 150.680884 
L 139.58597 152.09374 
L 134.498571 153.616645 
L 130.274866 154.972355 
L 126.789983 156.179192 
L 121.380494 158.204208 
L 115.637098 160.446734 
L 110.039922 162.742307 
L 103.974905 165.33042 
L 98.118888 167.896658 
L 93.062876 170.181208 
L 88.721755 172.215862 
L 85.016543 174.026454 
L 81.874379 175.638275 
L 79.227371 177.073097 
L 77.012437 178.350265 
L 75.171327 179.487231 
L 73.650634 180.499274 
L 72.402135 181.400507 
L 71.225593 182.33183 
L 69.195018 184.0457 
L 67.206444 185.8264 
L 65.507114 187.440376 
L 64.090724 188.877357 
L 62.901816 190.175068 
L 60.772241 192.633971 
L 58.953251 194.822144 
L 57.40876 196.770273 
L 56.106128 198.504461 
L 55.014853 200.048222 
L 54.10622 201.423304 
L 53.355213 202.646888 
L 52.737971 203.73614 
L 52.233473 204.705806 
L 51.823153 205.56891 
L 51.490962 206.336828 
L 51.223108 207.020892 
L 51.007405 207.630494 
L 50.834571 208.172635 
L 50.625036 208.906 
L 50.43654 209.634485 
L 50.29665 210.232904 
L 50.241548 210.497144 
L 50.197725 210.732481 
L 50.162926 210.94188 
L 50.135284 211.128363 
L 50.11335 211.294332 
L 50.095981 211.441769 
L 50.08214 211.573628 
L 50.07125 211.690054 
L 50.062538 211.794625 
L 50.05563 211.887763 
L 50.050157 211.970673 
L 50.045883 212.04332 
L 50.042447 212.108899 
L 50.039733 212.167076 
L 50.037577 212.218988 
L 50.035871 212.265122 
L 50.034518 212.306232 
L 50.033444 212.342887 
L 50.032595 212.375413 
L 50.031919 212.40458 
L 50.031389 212.43018 
L 50.030965 212.453239 
L 50.030631 212.473572 
L 50.030366 212.491856 
L 50.030155 212.508115 
L 50.029989 212.52238 
L 50.029856 212.53548 
L 50.029752 212.546702 
L 50.029669 212.557045 
L 50.029603 212.565862 
L 50.02955 212.574041 
L 50.02951 212.58134 
L 50.029476 212.587506 
L 50.02945 212.593268 
L 50.02943 212.59842 
L 50.029414 212.602868 
L 50.029401 212.606955 
L 50.029387 212.610226 
L 50.029383 212.613922 
L 50.029375 212.61639 
L 50.029371 212.618964 
L 50.029367 212.621273 
L 50.029363 212.623146 
L 50.029361 212.624926 
" clip-path="url(#p2b4b2a9302)" style="fill: none; stroke: #1f77b4; stroke-width: 1.5; stroke-linecap: square"/>
   </g>
   <g id="line2d_15">
    <path d="M 216.14649 105.62409 
L 215.448827 105.68866 
L 214.89374 105.746259 
L 214.451294 105.79809 
L 214.095457 105.846094 
L 213.823774 105.883943 
L 211.451574 106.282161 
L 206.872201 107.103221 
L 203.149407 107.83676 
L 200.151413 108.483648 
L 197.736494 109.05969 
L 192.591776 110.444994 
L 182.377862 113.31137 
L 173.75294 115.8617 
L 166.515793 118.13474 
L 160.488997 120.154194 
L 155.497724 121.954152 
L 151.21421 123.628155 
L 143.879964 126.683058 
L 137.697762 129.402574 
L 132.521624 131.823527 
L 126.481519 134.841447 
L 120.150135 138.141532 
L 113.485258 141.755954 
L 108.002336 144.84382 
L 103.894459 147.283243 
L 98.759074 150.492014 
L 94.235774 153.432476 
L 90.391237 156.050119 
L 87.145067 158.380384 
L 84.422514 160.454821 
L 82.298061 162.183647 
L 79.408357 164.700284 
L 76.858997 167.042147 
L 74.723748 169.126923 
L 72.947219 170.982846 
L 71.245255 172.899132 
L 69.607944 174.871511 
L 68.161604 176.742921 
L 66.399818 179.216789 
L 63.707002 183.121955 
L 61.381196 186.598549 
L 59.383587 189.693238 
L 57.677966 192.448183 
L 56.230998 194.900552 
L 55.011046 197.084571 
L 53.990176 199.028123 
L 53.141299 200.758196 
L 52.439472 202.299275 
L 51.863312 203.67053 
L 51.392673 204.891245 
L 51.010111 205.977947 
L 50.700479 206.945348 
L 50.450804 207.806544 
L 50.250112 208.573192 
L 50.089218 209.255679 
L 49.96054 209.863119 
L 49.857774 210.403967 
L 49.77584 210.885437 
L 49.710592 211.31405 
L 49.658684 211.695607 
L 49.61742 212.035275 
L 49.584638 212.337653 
L 49.558608 212.606835 
L 49.537948 212.846465 
L 49.521554 213.059788 
L 49.50855 213.249692 
L 49.498236 213.418747 
L 49.490057 213.569244 
L 49.483573 213.70322 
L 49.478432 213.822488 
L 49.474356 213.928663 
L 49.471126 214.023182 
L 49.468565 214.107327 
L 49.466532 214.182373 
L 49.464926 214.248947 
L 49.463652 214.30831 
L 49.462641 214.361145 
L 49.461841 214.408198 
L 49.461206 214.450087 
L 49.460703 214.487381 
L 49.460304 214.520583 
L 49.459988 214.550144 
L 49.459738 214.576464 
L 49.45954 214.599897 
L 49.459383 214.620762 
L 49.459258 214.63934 
L 49.459159 214.655882 
L 49.459081 214.670611 
L 49.45902 214.683463 
L 49.458971 214.695112 
L 49.458932 214.70548 
L 49.458901 214.714719 
L 49.458877 214.72296 
L 49.458857 214.730466 
L 49.458842 214.736741 
L 49.45883 214.742532 
L 49.45882 214.747781 
L 49.458813 214.752303 
L 49.458807 214.756364 
" clip-path="url(#p2b4b2a9302)" style="fill: none; stroke: #ff7f0e; stroke-width: 1.5; stroke-linecap: square"/>
   </g>
   <g id="line2d_16">
    <path d="M 353.822443 17.083636 
L 343.556355 18.728249 
L 335.162511 20.199303 
L 328.352366 21.500025 
L 322.830714 22.665301 
L 318.386504 23.69742 
L 314.804689 24.622416 
L 302.019435 28.268803 
L 286.780896 32.833161 
L 274.01497 36.898678 
L 263.395877 40.512612 
L 254.612169 43.735467 
L 247.401751 46.5964 
L 235.18725 51.816147 
L 224.426503 56.682861 
L 215.449217 61.009133 
L 208.002625 64.863977 
L 196.654959 71.174618 
L 181.466755 79.8267 
L 168.210344 87.528084 
L 156.685868 94.384854 
L 146.711109 100.48952 
L 138.128236 105.92385 
L 130.78401 110.760591 
L 124.538832 115.066902 
L 119.263036 118.900449 
L 114.264995 122.753423 
L 110.344953 125.951451 
L 107.109869 128.78067 
L 104.439752 131.299305 
L 100.317121 135.474777 
L 96.583608 139.461545 
L 93.453642 143.013944 
L 90.849615 146.176346 
L 87.034059 151.162884 
L 81.767407 158.146554 
L 77.131284 164.365506 
L 73.062866 169.900954 
L 69.503422 174.828663 
L 66.40092 179.215213 
L 63.708286 183.120066 
L 61.381641 186.597873 
L 59.383323 189.693655 
L 57.67759 192.448805 
L 56.230465 194.90148 
L 55.010873 197.084889 
L 53.989938 199.028593 
L 53.140963 200.758907 
L 52.439479 202.299259 
L 51.863322 203.670504 
L 51.392688 204.891206 
L 51.010298 205.977391 
L 50.700485 206.945328 
L 50.450812 207.806516 
L 50.25012 208.573161 
L 50.089227 209.25564 
L 49.960525 209.863195 
L 49.857759 210.404051 
L 49.775837 210.885453 
L 49.71059 211.314067 
L 49.658682 211.695627 
L 49.617418 212.035298 
L 49.584636 212.337679 
L 49.558606 212.606865 
L 49.537945 212.846499 
L 49.521551 213.059826 
L 49.508547 213.249734 
L 49.498233 213.418794 
L 49.490055 213.569296 
L 49.483567 213.703351 
L 49.478428 213.822583 
L 49.474352 213.928766 
L 49.471123 214.02327 
L 49.468562 214.10742 
L 49.466533 214.182333 
L 49.464925 214.249027 
L 49.46365 214.308405 
L 49.462639 214.361269 
L 49.461838 214.408335 
L 49.461206 214.450079 
L 49.460703 214.487348 
L 49.460305 214.520547 
L 49.459989 214.550104 
L 49.459739 214.576423 
L 49.45954 214.599861 
L 49.459383 214.620735 
L 49.45926 214.639091 
L 49.459161 214.655608 
L 49.459083 214.670312 
L 49.459021 214.683401 
L 49.458971 214.695053 
L 49.458932 214.705427 
L 49.458902 214.714661 
L 49.458877 214.722883 
L 49.458858 214.730199 
L 49.458842 214.736713 
L 49.45883 214.742511 
L 49.458821 214.747671 
L 49.458813 214.752265 
L 49.458807 214.756354 
" clip-path="url(#p2b4b2a9302)" style="fill: none; stroke: #2ca02c; stroke-width: 1.5; stroke-linecap: square"/>
   </g>
   <g id="patch_3">
    <path d="M 34.240625 224.64 
L 34.240625 7.2 
" style="fill: none; stroke: #000000; stroke-width: 0.8; stroke-linejoin: miter; stroke-linecap: square"/>
   </g>
   <g id="patch_4">
    <path d="M 369.040625 224.64 
L 369.040625 7.2 
" style="fill: none; stroke: #000000; stroke-width: 0.8; stroke-linejoin: miter; stroke-linecap: square"/>
   </g>
   <g id="patch_5">
    <path d="M 34.240625 224.64 
L 369.040625 224.64 
" style="fill: none; stroke: #000000; stroke-width: 0.8; stroke-linejoin: miter; stroke-linecap: square"/>
   </g>
   <g id="patch_6">
    <path d="M 34.240625 7.2 
L 369.040625 7.2 
" style="fill: none; stroke: #000000; stroke-width: 0.8; stroke-linejoin: miter; stroke-linecap: square"/>
   </g>
   <g id="legend_1">
    <g id="patch_7">
     <path d="M 287.140625 219.64 
L 362.040625 219.64 
Q 364.040625 219.64 364.040625 217.64 
L 364.040625 174.605625 
Q 364.040625 172.605625 362.040625 172.605625 
L 287.140625 172.605625 
Q 285.140625 172.605625 285.140625 174.605625 
L 285.140625 217.64 
Q 285.140625 219.64 287.140625 219.64 
z
" style="fill: #ffffff; opacity: 0.8; stroke: #cccccc; stroke-linejoin: miter"/>
    </g>
    <g id="line2d_17">
     <path d="M 289.140625 180.704062 
L 299.140625 180.704062 
L 309.140625 180.704062 
" style="fill: none; stroke: #1f77b4; stroke-width: 1.5; stroke-linecap: square"/>
    </g>
    <g id="text_16">
     <!-- $L^{\max}$ = 1 -->
     <g transform="translate(317.140625 184.204062)scale(0.1 -0.1)">
      <defs>
       <path id="DejaVuSans-Oblique-4c" d="M 1075 4666 
L 1709 4666 
L 909 525 
L 3181 525 
L 3078 0 
L 172 0 
L 1075 4666 
z
" transform="scale(0.015625)"/>
       <path id="DejaVuSans-6d" d="M 3328 2828 
Q 3544 3216 3844 3400 
Q 4144 3584 4550 3584 
Q 5097 3584 5394 3201 
Q 5691 2819 5691 2113 
L 5691 0 
L 5113 0 
L 5113 2094 
Q 5113 2597 4934 2840 
Q 4756 3084 4391 3084 
Q 3944 3084 3684 2787 
Q 3425 2491 3425 1978 
L 3425 0 
L 2847 0 
L 2847 2094 
Q 2847 2600 2669 2842 
Q 2491 3084 2119 3084 
Q 1678 3084 1418 2786 
Q 1159 2488 1159 1978 
L 1159 0 
L 581 0 
L 581 3500 
L 1159 3500 
L 1159 2956 
Q 1356 3278 1631 3431 
Q 1906 3584 2284 3584 
Q 2666 3584 2933 3390 
Q 3200 3197 3328 2828 
z
" transform="scale(0.015625)"/>
       <path id="DejaVuSans-78" d="M 3513 3500 
L 2247 1797 
L 3578 0 
L 2900 0 
L 1881 1375 
L 863 0 
L 184 0 
L 1544 1831 
L 300 3500 
L 978 3500 
L 1906 2253 
L 2834 3500 
L 3513 3500 
z
" transform="scale(0.015625)"/>
       <path id="DejaVuSans-3d" d="M 678 2906 
L 4684 2906 
L 4684 2381 
L 678 2381 
L 678 2906 
z
M 678 1631 
L 4684 1631 
L 4684 1100 
L 678 1100 
L 678 1631 
z
" transform="scale(0.015625)"/>
      </defs>
      <use xlink:href="#DejaVuSans-Oblique-4c" transform="translate(0 0.51875)"/>
      <use xlink:href="#DejaVuSans-6d" transform="translate(62.729661 38.8)scale(0.7)"/>
      <use xlink:href="#DejaVuSans-61" transform="translate(130.918138 38.8)scale(0.7)"/>
      <use xlink:href="#DejaVuSans-78" transform="translate(173.813646 38.8)scale(0.7)"/>
      <use xlink:href="#DejaVuSans-20" transform="translate(217.973802 0.51875)"/>
      <use xlink:href="#DejaVuSans-3d" transform="translate(249.760911 0.51875)"/>
      <use xlink:href="#DejaVuSans-20" transform="translate(333.549974 0.51875)"/>
      <use xlink:href="#DejaVuSans-31" transform="translate(365.337083 0.51875)"/>
     </g>
    </g>
    <g id="line2d_18">
     <path d="M 289.140625 195.382187 
L 299.140625 195.382187 
L 309.140625 195.382187 
" style="fill: none; stroke: #ff7f0e; stroke-width: 1.5; stroke-linecap: square"/>
    </g>
    <g id="text_17">
     <!-- $L^{\max}$ = 2 -->
     <g transform="translate(317.140625 198.882187)scale(0.1 -0.1)">
      <use xlink:href="#DejaVuSans-Oblique-4c" transform="translate(0 0.51875)"/>
      <use xlink:href="#DejaVuSans-6d" transform="translate(62.729661 38.8)scale(0.7)"/>
      <use xlink:href="#DejaVuSans-61" transform="translate(130.918138 38.8)scale(0.7)"/>
      <use xlink:href="#DejaVuSans-78" transform="translate(173.813646 38.8)scale(0.7)"/>
      <use xlink:href="#DejaVuSans-20" transform="translate(217.973802 0.51875)"/>
      <use xlink:href="#DejaVuSans-3d" transform="translate(249.760911 0.51875)"/>
      <use xlink:href="#DejaVuSans-20" transform="translate(333.549974 0.51875)"/>
      <use xlink:href="#DejaVuSans-32" transform="translate(365.337083 0.51875)"/>
     </g>
    </g>
    <g id="line2d_19">
     <path d="M 289.140625 210.060312 
L 299.140625 210.060312 
L 309.140625 210.060312 
" style="fill: none; stroke: #2ca02c; stroke-width: 1.5; stroke-linecap: square"/>
    </g>
    <g id="text_18">
     <!-- $L^{\max}$ = 4 -->
     <g transform="translate(317.140625 213.560312)scale(0.1 -0.1)">
      <use xlink:href="#DejaVuSans-Oblique-4c" transform="translate(0 0.51875)"/>
      <use xlink:href="#DejaVuSans-6d" transform="translate(62.729661 38.8)scale(0.7)"/>
      <use xlink:href="#DejaVuSans-61" transform="translate(130.918138 38.8)scale(0.7)"/>
      <use xlink:href="#DejaVuSans-78" transform="translate(173.813646 38.8)scale(0.7)"/>
      <use xlink:href="#DejaVuSans-20" transform="translate(217.973802 0.51875)"/>
      <use xlink:href="#DejaVuSans-3d" transform="translate(249.760911 0.51875)"/>
      <use xlink:href="#DejaVuSans-20" transform="translate(333.549974 0.51875)"/>
      <use xlink:href="#DejaVuSans-34" transform="translate(365.337083 0.51875)"/>
     </g>
    </g>
   </g>
  </g>
 </g>
 <defs>
  <clipPath id="p2b4b2a9302">
   <rect x="34.240625" y="7.2" width="334.8" height="217.44"/>
  </clipPath>
 </defs>
</svg>