<?xml version="1.0" encoding="utf-8" standalone="no"?>
<!DOCTYPE svg PUBLIC "-//W3C//DTD SVG 1.1//EN"
  "http://www.w3.org/Graphics/SVG/1.1/DTD/svg11.dtd">
<svg xmlns:xlink="http://www.w3.org/1999/xlink" width="416.052813pt" height="310.86825pt" viewBox="0 0 416.052813 310.86825" xmlns="http://www.w3.org/2000/svg" version="1.1">
 <metadata>
  <rdf:RDF xmlns:dc="http://purl.org/dc/elements/1.1/" xmlns:cc="http://creativecommons.org/ns#" xmlns:rdf="http://www.w3.org/1999/02/22-rdf-syntax-ns#">
   <cc:Work>
    <dc:type rdf:resource="http://purl.org/dc/dcmitype/StillImage"/>
    <dc:date>2023-08-19T05:06:05.344458</dc:date>
    <dc:format>image/svg+xml</dc:format>
    <dc:creator>
     <cc:Agent>
      <dc:title>Matplotlib v3.7.2, https://matplotlib.org/</dc:title>
     </cc:Agent>
    </dc:creator>
   </cc:Work>
  </rdf:RDF>
 </metadata>
 <defs>
  <style type="text/css">*{stroke-linejoin: round; stroke-linecap: butt}</style>
 </defs>
 <g id="figure_1">
  <g id="patch_1">
   <path d="M 0 310.86825 
L 416.052813 310.86825 
L 416.052813 0 
L 0 0 
z
" style="fill: #ffffff"/>
  </g>
  <g id="axes_1">
   <g id="patch_2">
    <path d="M 43.78125 273.312 
L 400.90125 273.312 
L 400.90125 7.2 
L 43.78125 7.2 
z
" style="fill: #ffffff"/>
   </g>
   <g id="matplotlib.axis_1">
    <g id="xtick_1">
     <g id="line2d_1">
      <defs>
       <path id="m0d9e9e2bbd" d="M 0 0 
L 0 3.5 
" style="stroke: #000000; stroke-width: 0.8"/>
      </defs>
      <g>
       <use xlink:href="#m0d9e9e2bbd" x="43.78125" y="273.312" style="stroke: #000000; stroke-width: 0.8"/>
      </g>
     </g>
     <g id="text_1">
      <!-- −0.6 -->
      <g transform="translate(31.639844 287.910437) scale(0.1 -0.1)">
       <defs>
        <path id="DejaVuSans-2212" d="M 678 2272 
L 4684 2272 
L 4684 1741 
L 678 1741 
L 678 2272 
z
" transform="scale(0.015625)"/>
        <path id="DejaVuSans-30" d="M 2034 4250 
Q 1547 4250 1301 3770 
Q 1056 3291 1056 2328 
Q 1056 1369 1301 889 
Q 1547 409 2034 409 
Q 2525 409 2770 889 
Q 3016 1369 3016 2328 
Q 3016 3291 2770 3770 
Q 2525 4250 2034 4250 
z
M 2034 4750 
Q 2819 4750 3233 4129 
Q 3647 3509 3647 2328 
Q 3647 1150 3233 529 
Q 2819 -91 2034 -91 
Q 1250 -91 836 529 
Q 422 1150 422 2328 
Q 422 3509 836 4129 
Q 1250 4750 2034 4750 
z
" transform="scale(0.015625)"/>
        <path id="DejaVuSans-2e" d="M 684 794 
L 1344 794 
L 1344 0 
L 684 0 
L 684 794 
z
" transform="scale(0.015625)"/>
        <path id="DejaVuSans-36" d="M 2113 2584 
Q 1688 2584 1439 2293 
Q 1191 2003 1191 1497 
Q 1191 994 1439 701 
Q 1688 409 2113 409 
Q 2538 409 2786 701 
Q 3034 994 3034 1497 
Q 3034 2003 2786 2293 
Q 2538 2584 2113 2584 
z
M 3366 4563 
L 3366 3988 
Q 3128 4100 2886 4159 
Q 2644 4219 2406 4219 
Q 1781 4219 1451 3797 
Q 1122 3375 1075 2522 
Q 1259 2794 1537 2939 
Q 1816 3084 2150 3084 
Q 2853 3084 3261 2657 
Q 3669 2231 3669 1497 
Q 3669 778 3244 343 
Q 2819 -91 2113 -91 
Q 1303 -91 875 529 
Q 447 1150 447 2328 
Q 447 3434 972 4092 
Q 1497 4750 2381 4750 
Q 2619 4750 2861 4703 
Q 3103 4656 3366 4563 
z
" transform="scale(0.015625)"/>
       </defs>
       <use xlink:href="#DejaVuSans-2212"/>
       <use xlink:href="#DejaVuSans-30" x="83.789062"/>
       <use xlink:href="#DejaVuSans-2e" x="147.412109"/>
       <use xlink:href="#DejaVuSans-36" x="179.199219"/>
      </g>
     </g>
    </g>
    <g id="xtick_2">
     <g id="line2d_2">
      <g>
       <use xlink:href="#m0d9e9e2bbd" x="103.30125" y="273.312" style="stroke: #000000; stroke-width: 0.8"/>
      </g>
     </g>
     <g id="text_2">
      <!-- −0.4 -->
      <g transform="translate(91.159844 287.910437) scale(0.1 -0.1)">
       <defs>
        <path id="DejaVuSans-34" d="M 2419 4116 
L 825 1625 
L 2419 1625 
L 2419 4116 
z
M 2253 4666 
L 3047 4666 
L 3047 1625 
L 3713 1625 
L 3713 1100 
L 3047 1100 
L 3047 0 
L 2419 0 
L 2419 1100 
L 313 1100 
L 313 1709 
L 2253 4666 
z
" transform="scale(0.015625)"/>
       </defs>
       <use xlink:href="#DejaVuSans-2212"/>
       <use xlink:href="#DejaVuSans-30" x="83.789062"/>
       <use xlink:href="#DejaVuSans-2e" x="147.412109"/>
       <use xlink:href="#DejaVuSans-34" x="179.199219"/>
      </g>
     </g>
    </g>
    <g id="xtick_3">
     <g id="line2d_3">
      <g>
       <use xlink:href="#m0d9e9e2bbd" x="162.82125" y="273.312" style="stroke: #000000; stroke-width: 0.8"/>
      </g>
     </g>
     <g id="text_3">
      <!-- −0.2 -->
      <g transform="translate(150.679844 287.910437) scale(0.1 -0.1)">
       <defs>
        <path id="DejaVuSans-32" d="M 1228 531 
L 3431 531 
L 3431 0 
L 469 0 
L 469 531 
Q 828 903 1448 1529 
Q 2069 2156 2228 2338 
Q 2531 2678 2651 2914 
Q 2772 3150 2772 3378 
Q 2772 3750 2511 3984 
Q 2250 4219 1831 4219 
Q 1534 4219 1204 4116 
Q 875 4013 500 3803 
L 500 4441 
Q 881 4594 1212 4672 
Q 1544 4750 1819 4750 
Q 2544 4750 2975 4387 
Q 3406 4025 3406 3419 
Q 3406 3131 3298 2873 
Q 3191 2616 2906 2266 
Q 2828 2175 2409 1742 
Q 1991 1309 1228 531 
z
" transform="scale(0.015625)"/>
       </defs>
       <use xlink:href="#DejaVuSans-2212"/>
       <use xlink:href="#DejaVuSans-30" x="83.789062"/>
       <use xlink:href="#DejaVuSans-2e" x="147.412109"/>
       <use xlink:href="#DejaVuSans-32" x="179.199219"/>
      </g>
     </g>
    </g>
    <g id="xtick_4">
     <g id="line2d_4">
      <g>
       <use xlink:href="#m0d9e9e2bbd" x="222.34125" y="273.312" style="stroke: #000000; stroke-width: 0.8"/>
      </g>
     </g>
     <g id="text_4">
      <!-- 0.0 -->
      <g transform="translate(214.389688 287.910437) scale(0.1 -0.1)">
       <use xlink:href="#DejaVuSans-30"/>
       <use xlink:href="#DejaVuSans-2e" x="63.623047"/>
       <use xlink:href="#DejaVuSans-30" x="95.410156"/>
      </g>
     </g>
    </g>
    <g id="xtick_5">
     <g id="line2d_5">
      <g>
       <use xlink:href="#m0d9e9e2bbd" x="281.86125" y="273.312" style="stroke: #000000; stroke-width: 0.8"/>
      </g>
     </g>
     <g id="text_5">
      <!-- 0.2 -->
      <g transform="translate(273.909688 287.910437) scale(0.1 -0.1)">
       <use xlink:href="#DejaVuSans-30"/>
       <use xlink:href="#DejaVuSans-2e" x="63.623047"/>
       <use xlink:href="#DejaVuSans-32" x="95.410156"/>
      </g>
     </g>
    </g>
    <g id="xtick_6">
     <g id="line2d_6">
      <g>
       <use xlink:href="#m0d9e9e2bbd" x="341.38125" y="273.312" style="stroke: #000000; stroke-width: 0.8"/>
      </g>
     </g>
     <g id="text_6">
      <!-- 0.4 -->
      <g transform="translate(333.429688 287.910437) scale(0.1 -0.1)">
       <use xlink:href="#DejaVuSans-30"/>
       <use xlink:href="#DejaVuSans-2e" x="63.623047"/>
       <use xlink:href="#DejaVuSans-34" x="95.410156"/>
      </g>
     </g>
    </g>
    <g id="xtick_7">
     <g id="line2d_7">
      <g>
       <use xlink:href="#m0d9e9e2bbd" x="400.90125" y="273.312" style="stroke: #000000; stroke-width: 0.8"/>
      </g>
     </g>
     <g id="text_7">
      <!-- 0.6 -->
      <g transform="translate(392.949688 287.910437) scale(0.1 -0.1)">
       <use xlink:href="#DejaVuSans-30"/>
       <use xlink:href="#DejaVuSans-2e" x="63.623047"/>
       <use xlink:href="#DejaVuSans-36" x="95.410156"/>
      </g>
     </g>
    </g>
    <g id="text_8">
     <!-- Residual -->
     <g transform="translate(201.225625 301.588562) scale(0.1 -0.1)">
      <defs>
       <path id="DejaVuSans-52" d="M 2841 2188 
Q 3044 2119 3236 1894 
Q 3428 1669 3622 1275 
L 4263 0 
L 3584 0 
L 2988 1197 
Q 2756 1666 2539 1819 
Q 2322 1972 1947 1972 
L 1259 1972 
L 1259 0 
L 628 0 
L 628 4666 
L 2053 4666 
Q 2853 4666 3247 4331 
Q 3641 3997 3641 3322 
Q 3641 2881 3436 2590 
Q 3231 2300 2841 2188 
z
M 1259 4147 
L 1259 2491 
L 2053 2491 
Q 2509 2491 2742 2702 
Q 2975 2913 2975 3322 
Q 2975 3731 2742 3939 
Q 2509 4147 2053 4147 
L 1259 4147 
z
" transform="scale(0.015625)"/>
       <path id="DejaVuSans-65" d="M 3597 1894 
L 3597 1613 
L 953 1613 
Q 991 1019 1311 708 
Q 1631 397 2203 397 
Q 2534 397 2845 478 
Q 3156 559 3463 722 
L 3463 178 
Q 3153 47 2828 -22 
Q 2503 -91 2169 -91 
Q 1331 -91 842 396 
Q 353 884 353 1716 
Q 353 2575 817 3079 
Q 1281 3584 2069 3584 
Q 2775 3584 3186 3129 
Q 3597 2675 3597 1894 
z
M 3022 2063 
Q 3016 2534 2758 2815 
Q 2500 3097 2075 3097 
Q 1594 3097 1305 2825 
Q 1016 2553 972 2059 
L 3022 2063 
z
" transform="scale(0.015625)"/>
       <path id="DejaVuSans-73" d="M 2834 3397 
L 2834 2853 
Q 2591 2978 2328 3040 
Q 2066 3103 1784 3103 
Q 1356 3103 1142 2972 
Q 928 2841 928 2578 
Q 928 2378 1081 2264 
Q 1234 2150 1697 2047 
L 1894 2003 
Q 2506 1872 2764 1633 
Q 3022 1394 3022 966 
Q 3022 478 2636 193 
Q 2250 -91 1575 -91 
Q 1294 -91 989 -36 
Q 684 19 347 128 
L 347 722 
Q 666 556 975 473 
Q 1284 391 1588 391 
Q 1994 391 2212 530 
Q 2431 669 2431 922 
Q 2431 1156 2273 1281 
Q 2116 1406 1581 1522 
L 1381 1569 
Q 847 1681 609 1914 
Q 372 2147 372 2553 
Q 372 3047 722 3315 
Q 1072 3584 1716 3584 
Q 2034 3584 2315 3537 
Q 2597 3491 2834 3397 
z
" transform="scale(0.015625)"/>
       <path id="DejaVuSans-69" d="M 603 3500 
L 1178 3500 
L 1178 0 
L 603 0 
L 603 3500 
z
M 603 4863 
L 1178 4863 
L 1178 4134 
L 603 4134 
L 603 4863 
z
" transform="scale(0.015625)"/>
       <path id="DejaVuSans-64" d="M 2906 2969 
L 2906 4863 
L 3481 4863 
L 3481 0 
L 2906 0 
L 2906 525 
Q 2725 213 2448 61 
Q 2172 -91 1784 -91 
Q 1150 -91 751 415 
Q 353 922 353 1747 
Q 353 2572 751 3078 
Q 1150 3584 1784 3584 
Q 2172 3584 2448 3432 
Q 2725 3281 2906 2969 
z
M 947 1747 
Q 947 1113 1208 752 
Q 1469 391 1925 391 
Q 2381 391 2643 752 
Q 2906 1113 2906 1747 
Q 2906 2381 2643 2742 
Q 2381 3103 1925 3103 
Q 1469 3103 1208 2742 
Q 947 2381 947 1747 
z
" transform="scale(0.015625)"/>
       <path id="DejaVuSans-75" d="M 544 1381 
L 544 3500 
L 1119 3500 
L 1119 1403 
Q 1119 906 1312 657 
Q 1506 409 1894 409 
Q 2359 409 2629 706 
Q 2900 1003 2900 1516 
L 2900 3500 
L 3475 3500 
L 3475 0 
L 2900 0 
L 2900 538 
Q 2691 219 2414 64 
Q 2138 -91 1772 -91 
Q 1169 -91 856 284 
Q 544 659 544 1381 
z
M 1991 3584 
L 1991 3584 
z
" transform="scale(0.015625)"/>
       <path id="DejaVuSans-61" d="M 2194 1759 
Q 1497 1759 1228 1600 
Q 959 1441 959 1056 
Q 959 750 1161 570 
Q 1363 391 1709 391 
Q 2188 391 2477 730 
Q 2766 1069 2766 1631 
L 2766 1759 
L 2194 1759 
z
M 3341 1997 
L 3341 0 
L 2766 0 
L 2766 531 
Q 2569 213 2275 61 
Q 1981 -91 1556 -91 
Q 1019 -91 701 211 
Q 384 513 384 1019 
Q 384 1609 779 1909 
Q 1175 2209 1959 2209 
L 2766 2209 
L 2766 2266 
Q 2766 2663 2505 2880 
Q 2244 3097 1772 3097 
Q 1472 3097 1187 3025 
Q 903 2953 641 2809 
L 641 3341 
Q 956 3463 1253 3523 
Q 1550 3584 1831 3584 
Q 2591 3584 2966 3190 
Q 3341 2797 3341 1997 
z
" transform="scale(0.015625)"/>
       <path id="DejaVuSans-6c" d="M 603 4863 
L 1178 4863 
L 1178 0 
L 603 0 
L 603 4863 
z
" transform="scale(0.015625)"/>
      </defs>
      <use xlink:href="#DejaVuSans-52"/>
      <use xlink:href="#DejaVuSans-65" x="64.982422"/>
      <use xlink:href="#DejaVuSans-73" x="126.505859"/>
      <use xlink:href="#DejaVuSans-69" x="178.605469"/>
      <use xlink:href="#DejaVuSans-64" x="206.388672"/>
      <use xlink:href="#DejaVuSans-75" x="269.865234"/>
      <use xlink:href="#DejaVuSans-61" x="333.244141"/>
      <use xlink:href="#DejaVuSans-6c" x="394.523438"/>
     </g>
    </g>
   </g>
   <g id="matplotlib.axis_2">
    <g id="ytick_1">
     <g id="line2d_8">
      <defs>
       <path id="m884484da72" d="M 0 0 
L -3.5 0 
" style="stroke: #000000; stroke-width: 0.8"/>
      </defs>
      <g>
       <use xlink:href="#m884484da72" x="43.78125" y="261.216" style="stroke: #000000; stroke-width: 0.8"/>
      </g>
     </g>
     <g id="text_9">
      <!-- 0.0 -->
      <g transform="translate(20.878125 265.015219) scale(0.1 -0.1)">
       <use xlink:href="#DejaVuSans-30"/>
       <use xlink:href="#DejaVuSans-2e" x="63.623047"/>
       <use xlink:href="#DejaVuSans-30" x="95.410156"/>
      </g>
     </g>
    </g>
    <g id="ytick_2">
     <g id="line2d_9">
      <g>
       <use xlink:href="#m884484da72" x="43.78125" y="211.844571" style="stroke: #000000; stroke-width: 0.8"/>
      </g>
     </g>
     <g id="text_10">
      <!-- 0.2 -->
      <g transform="translate(20.878125 215.64379) scale(0.1 -0.1)">
       <use xlink:href="#DejaVuSans-30"/>
       <use xlink:href="#DejaVuSans-2e" x="63.623047"/>
       <use xlink:href="#DejaVuSans-32" x="95.410156"/>
      </g>
     </g>
    </g>
    <g id="ytick_3">
     <g id="line2d_10">
      <g>
       <use xlink:href="#m884484da72" x="43.78125" y="162.473143" style="stroke: #000000; stroke-width: 0.8"/>
      </g>
     </g>
     <g id="text_11">
      <!-- 0.4 -->
      <g transform="translate(20.878125 166.272362) scale(0.1 -0.1)">
       <use xlink:href="#DejaVuSans-30"/>
       <use xlink:href="#DejaVuSans-2e" x="63.623047"/>
       <use xlink:href="#DejaVuSans-34" x="95.410156"/>
      </g>
     </g>
    </g>
    <g id="ytick_4">
     <g id="line2d_11">
      <g>
       <use xlink:href="#m884484da72" x="43.78125" y="113.101714" style="stroke: #000000; stroke-width: 0.8"/>
      </g>
     </g>
     <g id="text_12">
      <!-- 0.6 -->
      <g transform="translate(20.878125 116.900933) scale(0.1 -0.1)">
       <use xlink:href="#DejaVuSans-30"/>
       <use xlink:href="#DejaVuSans-2e" x="63.623047"/>
       <use xlink:href="#DejaVuSans-36" x="95.410156"/>
      </g>
     </g>
    </g>
    <g id="ytick_5">
     <g id="line2d_12">
      <g>
       <use xlink:href="#m884484da72" x="43.78125" y="63.730286" style="stroke: #000000; stroke-width: 0.8"/>
      </g>
     </g>
     <g id="text_13">
      <!-- 0.8 -->
      <g transform="translate(20.878125 67.529504) scale(0.1 -0.1)">
       <defs>
        <path id="DejaVuSans-38" d="M 2034 2216 
Q 1584 2216 1326 1975 
Q 1069 1734 1069 1313 
Q 1069 891 1326 650 
Q 1584 409 2034 409 
Q 2484 409 2743 651 
Q 3003 894 3003 1313 
Q 3003 1734 2745 1975 
Q 2488 2216 2034 2216 
z
M 1403 2484 
Q 997 2584 770 2862 
Q 544 3141 544 3541 
Q 544 4100 942 4425 
Q 1341 4750 2034 4750 
Q 2731 4750 3128 4425 
Q 3525 4100 3525 3541 
Q 3525 3141 3298 2862 
Q 3072 2584 2669 2484 
Q 3125 2378 3379 2068 
Q 3634 1759 3634 1313 
Q 3634 634 3220 271 
Q 2806 -91 2034 -91 
Q 1263 -91 848 271 
Q 434 634 434 1313 
Q 434 1759 690 2068 
Q 947 2378 1403 2484 
z
M 1172 3481 
Q 1172 3119 1398 2916 
Q 1625 2713 2034 2713 
Q 2441 2713 2670 2916 
Q 2900 3119 2900 3481 
Q 2900 3844 2670 4047 
Q 2441 4250 2034 4250 
Q 1625 4250 1398 4047 
Q 1172 3844 1172 3481 
z
" transform="scale(0.015625)"/>
       </defs>
       <use xlink:href="#DejaVuSans-30"/>
       <use xlink:href="#DejaVuSans-2e" x="63.623047"/>
       <use xlink:href="#DejaVuSans-38" x="95.410156"/>
      </g>
     </g>
    </g>
    <g id="ytick_6">
     <g id="line2d_13">
      <g>
       <use xlink:href="#m884484da72" x="43.78125" y="14.358857" style="stroke: #000000; stroke-width: 0.8"/>
      </g>
     </g>
     <g id="text_14">
      <!-- 1.0 -->
      <g transform="translate(20.878125 18.158076) scale(0.1 -0.1)">
       <defs>
        <path id="DejaVuSans-31" d="M 794 531 
L 1825 531 
L 1825 4091 
L 703 3866 
L 703 4441 
L 1819 4666 
L 2450 4666 
L 2450 531 
L 3481 531 
L 3481 0 
L 794 0 
L 794 531 
z
" transform="scale(0.015625)"/>
       </defs>
       <use xlink:href="#DejaVuSans-31"/>
       <use xlink:href="#DejaVuSans-2e" x="63.623047"/>
       <use xlink:href="#DejaVuSans-30" x="95.410156"/>
      </g>
     </g>
    </g>
    <g id="text_15">
     <!-- Cumulative density in testing -->
     <g transform="translate(14.798438 213.784906) rotate(-90) scale(0.1 -0.1)">
      <defs>
       <path id="DejaVuSans-43" d="M 4122 4306 
L 4122 3641 
Q 3803 3938 3442 4084 
Q 3081 4231 2675 4231 
Q 1875 4231 1450 3742 
Q 1025 3253 1025 2328 
Q 1025 1406 1450 917 
Q 1875 428 2675 428 
Q 3081 428 3442 575 
Q 3803 722 4122 1019 
L 4122 359 
Q 3791 134 3420 21 
Q 3050 -91 2638 -91 
Q 1578 -91 968 557 
Q 359 1206 359 2328 
Q 359 3453 968 4101 
Q 1578 4750 2638 4750 
Q 3056 4750 3426 4639 
Q 3797 4528 4122 4306 
z
" transform="scale(0.015625)"/>
       <path id="DejaVuSans-6d" d="M 3328 2828 
Q 3544 3216 3844 3400 
Q 4144 3584 4550 3584 
Q 5097 3584 5394 3201 
Q 5691 2819 5691 2113 
L 5691 0 
L 5113 0 
L 5113 2094 
Q 5113 2597 4934 2840 
Q 4756 3084 4391 3084 
Q 3944 3084 3684 2787 
Q 3425 2491 3425 1978 
L 3425 0 
L 2847 0 
L 2847 2094 
Q 2847 2600 2669 2842 
Q 2491 3084 2119 3084 
Q 1678 3084 1418 2786 
Q 1159 2488 1159 1978 
L 1159 0 
L 581 0 
L 581 3500 
L 1159 3500 
L 1159 2956 
Q 1356 3278 1631 3431 
Q 1906 3584 2284 3584 
Q 2666 3584 2933 3390 
Q 3200 3197 3328 2828 
z
" transform="scale(0.015625)"/>
       <path id="DejaVuSans-74" d="M 1172 4494 
L 1172 3500 
L 2356 3500 
L 2356 3053 
L 1172 3053 
L 1172 1153 
Q 1172 725 1289 603 
Q 1406 481 1766 481 
L 2356 481 
L 2356 0 
L 1766 0 
Q 1100 0 847 248 
Q 594 497 594 1153 
L 594 3053 
L 172 3053 
L 172 3500 
L 594 3500 
L 594 4494 
L 1172 4494 
z
" transform="scale(0.015625)"/>
       <path id="DejaVuSans-76" d="M 191 3500 
L 800 3500 
L 1894 563 
L 2988 3500 
L 3597 3500 
L 2284 0 
L 1503 0 
L 191 3500 
z
" transform="scale(0.015625)"/>
       <path id="DejaVuSans-20" transform="scale(0.015625)"/>
       <path id="DejaVuSans-6e" d="M 3513 2113 
L 3513 0 
L 2938 0 
L 2938 2094 
Q 2938 2591 2744 2837 
Q 2550 3084 2163 3084 
Q 1697 3084 1428 2787 
Q 1159 2491 1159 1978 
L 1159 0 
L 581 0 
L 581 3500 
L 1159 3500 
L 1159 2956 
Q 1366 3272 1645 3428 
Q 1925 3584 2291 3584 
Q 2894 3584 3203 3211 
Q 3513 2838 3513 2113 
z
" transform="scale(0.015625)"/>
       <path id="DejaVuSans-79" d="M 2059 -325 
Q 1816 -950 1584 -1140 
Q 1353 -1331 966 -1331 
L 506 -1331 
L 506 -850 
L 844 -850 
Q 1081 -850 1212 -737 
Q 1344 -625 1503 -206 
L 1606 56 
L 191 3500 
L 800 3500 
L 1894 763 
L 2988 3500 
L 3597 3500 
L 2059 -325 
z
" transform="scale(0.015625)"/>
       <path id="DejaVuSans-67" d="M 2906 1791 
Q 2906 2416 2648 2759 
Q 2391 3103 1925 3103 
Q 1463 3103 1205 2759 
Q 947 2416 947 1791 
Q 947 1169 1205 825 
Q 1463 481 1925 481 
Q 2391 481 2648 825 
Q 2906 1169 2906 1791 
z
M 3481 434 
Q 3481 -459 3084 -895 
Q 2688 -1331 1869 -1331 
Q 1566 -1331 1297 -1286 
Q 1028 -1241 775 -1147 
L 775 -588 
Q 1028 -725 1275 -790 
Q 1522 -856 1778 -856 
Q 2344 -856 2625 -561 
Q 2906 -266 2906 331 
L 2906 616 
Q 2728 306 2450 153 
Q 2172 0 1784 0 
Q 1141 0 747 490 
Q 353 981 353 1791 
Q 353 2603 747 3093 
Q 1141 3584 1784 3584 
Q 2172 3584 2450 3431 
Q 2728 3278 2906 2969 
L 2906 3500 
L 3481 3500 
L 3481 434 
z
" transform="scale(0.015625)"/>
      </defs>
      <use xlink:href="#DejaVuSans-43"/>
      <use xlink:href="#DejaVuSans-75" x="69.824219"/>
      <use xlink:href="#DejaVuSans-6d" x="133.203125"/>
      <use xlink:href="#DejaVuSans-75" x="230.615234"/>
      <use xlink:href="#DejaVuSans-6c" x="293.994141"/>
      <use xlink:href="#DejaVuSans-61" x="321.777344"/>
      <use xlink:href="#DejaVuSans-74" x="383.056641"/>
      <use xlink:href="#DejaVuSans-69" x="422.265625"/>
      <use xlink:href="#DejaVuSans-76" x="450.048828"/>
      <use xlink:href="#DejaVuSans-65" x="509.228516"/>
      <use xlink:href="#DejaVuSans-20" x="570.751953"/>
      <use xlink:href="#DejaVuSans-64" x="602.539062"/>
      <use xlink:href="#DejaVuSans-65" x="666.015625"/>
      <use xlink:href="#DejaVuSans-6e" x="727.539062"/>
      <use xlink:href="#DejaVuSans-73" x="790.917969"/>
      <use xlink:href="#DejaVuSans-69" x="843.017578"/>
      <use xlink:href="#DejaVuSans-74" x="870.800781"/>
      <use xlink:href="#DejaVuSans-79" x="910.009766"/>
      <use xlink:href="#DejaVuSans-20" x="969.189453"/>
      <use xlink:href="#DejaVuSans-69" x="1000.976562"/>
      <use xlink:href="#DejaVuSans-6e" x="1028.759766"/>
      <use xlink:href="#DejaVuSans-20" x="1092.138672"/>
      <use xlink:href="#DejaVuSans-74" x="1123.925781"/>
      <use xlink:href="#DejaVuSans-65" x="1163.134766"/>
      <use xlink:href="#DejaVuSans-73" x="1224.658203"/>
      <use xlink:href="#DejaVuSans-74" x="1276.757812"/>
      <use xlink:href="#DejaVuSans-69" x="1315.966797"/>
      <use xlink:href="#DejaVuSans-6e" x="1343.75"/>
      <use xlink:href="#DejaVuSans-67" x="1407.128906"/>
     </g>
    </g>
   </g>
   <g id="line2d_14">
    <path d="M -1 256.08876 
L 41.38552 251.341714 
L 42.102109 246.404571 
L 45.773536 241.467429 
L 45.955265 236.530286 
L 52.389687 231.593143 
L 97.798399 226.656 
L 109.807198 221.718857 
L 116.88145 216.781714 
L 128.707703 211.844571 
L 142.678032 206.907429 
L 144.096677 201.970286 
L 149.217877 197.033143 
L 150.273746 192.096 
L 156.799142 187.158857 
L 164.269867 182.221714 
L 176.589789 177.284571 
L 178.301246 172.347429 
L 183.734211 167.410286 
L 185.528992 162.473143 
L 186.790512 157.536 
L 187.258879 152.598857 
L 189.626609 147.661714 
L 193.625385 142.724571 
L 194.072768 137.787429 
L 194.79919 132.850286 
L 196.062642 127.913143 
L 197.8143 122.976 
L 201.356025 118.038857 
L 201.594146 113.101714 
L 202.627382 108.164571 
L 202.727635 103.227429 
L 203.0572 98.290286 
L 203.495524 93.353143 
L 205.238174 88.416 
L 206.008267 83.478857 
L 206.40218 78.541714 
L 207.806526 73.604571 
L 207.839594 68.667429 
L 210.074292 63.730286 
L 211.823639 58.793143 
L 216.70451 53.856 
L 224.348794 48.918857 
L 224.549602 43.981714 
L 237.753819 39.044571 
L 242.866119 34.107429 
L 269.359155 29.170286 
L 314.206093 24.233143 
L 329.42018 19.296 
" clip-path="url(#p0604416cde)" style="fill: none; stroke: #ff0000; stroke-width: 1.5; stroke-linecap: square"/>
   </g>
   <g id="line2d_15">
    <path d="M 25.364064 261.216 
L 122.690163 256.278857 
L 124.751914 251.341714 
L 157.599484 246.404571 
L 168.377375 241.467429 
L 179.339048 236.530286 
L 186.059042 231.593143 
L 195.766325 226.656 
L 197.333983 221.718857 
L 197.446751 216.781714 
L 198.423878 211.844571 
L 198.514132 206.907429 
L 201.560467 201.970286 
L 203.625707 197.033143 
L 203.897583 192.096 
L 205.657286 187.158857 
L 205.989479 182.221714 
L 209.173587 177.284571 
L 209.751982 172.347429 
L 211.534605 167.410286 
L 211.924713 162.473143 
L 214.053295 157.536 
L 215.813038 152.598857 
L 215.931161 147.661714 
L 217.449645 142.724571 
L 219.983164 137.787429 
L 220.379403 132.850286 
L 221.783549 127.913143 
L 221.839236 122.976 
L 223.820078 118.038857 
L 225.57761 113.101714 
L 226.877612 108.164571 
L 227.535524 103.227429 
L 229.581864 98.290286 
L 229.603464 93.353143 
L 231.794009 88.416 
L 235.969976 83.478857 
L 237.973929 78.541714 
L 245.744882 73.604571 
L 247.617665 68.667429 
L 248.684648 63.730286 
L 262.043315 58.793143 
L 268.756371 53.856 
L 270.153273 48.918857 
L 271.589478 43.981714 
L 299.520185 39.044571 
L 323.779918 34.107429 
L 374.890044 29.170286 
L 383.466983 24.233143 
L 417.052813 20.785229 
" clip-path="url(#p0604416cde)" style="fill: none; stroke: #008000; stroke-width: 1.5; stroke-linecap: square"/>
   </g>
   <g id="line2d_16">
    <path d="M 197.345745 261.216 
L 204.278248 256.278857 
L 209.011905 251.341714 
L 217.191628 246.404571 
L 217.228762 241.467429 
L 225.016643 236.530286 
L 227.801886 231.593143 
L 230.904323 226.656 
L 231.073841 221.718857 
L 231.510385 216.781714 
L 231.781662 211.844571 
L 232.222886 206.907429 
L 234.184314 201.970286 
L 236.244666 197.033143 
L 236.818964 192.096 
L 238.488064 187.158857 
L 239.886905 182.221714 
L 239.88736 177.284571 
L 240.550586 172.347429 
L 242.180803 167.410286 
L 242.400225 162.473143 
L 243.241751 157.536 
L 243.979689 152.598857 
L 245.94767 147.661714 
L 250.334402 142.724571 
L 252.7179 137.787429 
L 256.851243 132.850286 
L 256.886276 127.913143 
L 260.041767 122.976 
L 264.696651 118.038857 
L 265.055024 113.101714 
L 266.812105 108.164571 
L 273.861836 103.227429 
L 274.826318 98.290286 
L 278.840194 93.353143 
L 283.385669 88.416 
L 293.663667 83.478857 
L 299.345623 78.541714 
L 304.195728 73.604571 
L 309.513411 68.667429 
L 323.03354 63.730286 
L 336.992846 58.793143 
L 341.063136 53.856 
L 347.131252 48.918857 
L 365.6769 43.981714 
L 408.188416 39.044571 
L 410.199444 34.107429 
L 417.052813 32.522381 
" clip-path="url(#p0604416cde)" style="fill: none; stroke: #0000ff; stroke-width: 1.5; stroke-linecap: square"/>
   </g>
   <g id="line2d_17">
    <path d="M -1 236.530286 
L 2.898826 236.530286 
L 8.910947 236.530286 
L 14.923068 236.530286 
L 20.935189 236.530286 
L 26.947311 236.530286 
L 32.959432 236.530286 
L 38.971553 236.530286 
L 44.983674 236.530286 
L 50.995795 236.530286 
L 57.007917 236.530286 
L 63.020038 236.530286 
L 69.032159 236.530286 
L 75.04428 236.530286 
L 81.056402 236.530286 
L 87.068523 236.530286 
L 93.080644 236.530286 
L 99.092765 236.530286 
L 105.104886 236.530286 
L 111.117008 236.530286 
L 117.129129 236.530286 
L 123.14125 236.530286 
L 129.153371 236.530286 
L 135.165492 236.530286 
L 141.177614 236.530286 
L 147.189735 236.530286 
L 153.201856 236.530286 
L 159.213977 236.530286 
L 165.226098 236.530286 
L 171.23822 236.530286 
L 177.250341 236.530286 
L 183.262462 236.530286 
L 189.274583 236.530286 
L 195.286705 236.530286 
L 201.298826 236.530286 
L 207.310947 236.530286 
L 213.323068 236.530286 
L 219.335189 236.530286 
L 225.347311 236.530286 
L 231.359432 236.530286 
L 237.371553 236.530286 
L 243.383674 236.530286 
L 249.395795 236.530286 
L 255.407917 236.530286 
L 261.420038 236.530286 
L 267.432159 236.530286 
L 273.44428 236.530286 
L 279.456402 236.530286 
L 285.468523 236.530286 
L 291.480644 236.530286 
L 297.492765 236.530286 
L 303.504886 236.530286 
L 309.517008 236.530286 
L 315.529129 236.530286 
L 321.54125 236.530286 
L 327.553371 236.530286 
L 333.565492 236.530286 
L 339.577614 236.530286 
L 345.589735 236.530286 
L 351.601856 236.530286 
L 357.613977 236.530286 
L 363.626098 236.530286 
L 369.63822 236.530286 
L 375.650341 236.530286 
L 381.662462 236.530286 
L 387.674583 236.530286 
L 393.686705 236.530286 
L 399.698826 236.530286 
L 405.710947 236.530286 
L 411.723068 236.530286 
L 417.052813 236.530286 
" clip-path="url(#p0604416cde)" style="fill: none; stroke-dasharray: 5.55,2.4; stroke-dashoffset: 0; stroke: #000000; stroke-width: 1.5"/>
   </g>
   <g id="line2d_18">
    <path d="M -1 137.787429 
L 2.898826 137.787429 
L 8.910947 137.787429 
L 14.923068 137.787429 
L 20.935189 137.787429 
L 26.947311 137.787429 
L 32.959432 137.787429 
L 38.971553 137.787429 
L 44.983674 137.787429 
L 50.995795 137.787429 
L 57.007917 137.787429 
L 63.020038 137.787429 
L 69.032159 137.787429 
L 75.04428 137.787429 
L 81.056402 137.787429 
L 87.068523 137.787429 
L 93.080644 137.787429 
L 99.092765 137.787429 
L 105.104886 137.787429 
L 111.117008 137.787429 
L 117.129129 137.787429 
L 123.14125 137.787429 
L 129.153371 137.787429 
L 135.165492 137.787429 
L 141.177614 137.787429 
L 147.189735 137.787429 
L 153.201856 137.787429 
L 159.213977 137.787429 
L 165.226098 137.787429 
L 171.23822 137.787429 
L 177.250341 137.787429 
L 183.262462 137.787429 
L 189.274583 137.787429 
L 195.286705 137.787429 
L 201.298826 137.787429 
L 207.310947 137.787429 
L 213.323068 137.787429 
L 219.335189 137.787429 
L 225.347311 137.787429 
L 231.359432 137.787429 
L 237.371553 137.787429 
L 243.383674 137.787429 
L 249.395795 137.787429 
L 255.407917 137.787429 
L 261.420038 137.787429 
L 267.432159 137.787429 
L 273.44428 137.787429 
L 279.456402 137.787429 
L 285.468523 137.787429 
L 291.480644 137.787429 
L 297.492765 137.787429 
L 303.504886 137.787429 
L 309.517008 137.787429 
L 315.529129 137.787429 
L 321.54125 137.787429 
L 327.553371 137.787429 
L 333.565492 137.787429 
L 339.577614 137.787429 
L 345.589735 137.787429 
L 351.601856 137.787429 
L 357.613977 137.787429 
L 363.626098 137.787429 
L 369.63822 137.787429 
L 375.650341 137.787429 
L 381.662462 137.787429 
L 387.674583 137.787429 
L 393.686705 137.787429 
L 399.698826 137.787429 
L 405.710947 137.787429 
L 411.723068 137.787429 
L 417.052813 137.787429 
" clip-path="url(#p0604416cde)" style="fill: none; stroke-dasharray: 5.55,2.4; stroke-dashoffset: 0; stroke: #000000; stroke-width: 1.5"/>
   </g>
   <g id="line2d_19">
    <path d="M -1 39.044571 
L 2.898826 39.044571 
L 8.910947 39.044571 
L 14.923068 39.044571 
L 20.935189 39.044571 
L 26.947311 39.044571 
L 32.959432 39.044571 
L 38.971553 39.044571 
L 44.983674 39.044571 
L 50.995795 39.044571 
L 57.007917 39.044571 
L 63.020038 39.044571 
L 69.032159 39.044571 
L 75.04428 39.044571 
L 81.056402 39.044571 
L 87.068523 39.044571 
L 93.080644 39.044571 
L 99.092765 39.044571 
L 105.104886 39.044571 
L 111.117008 39.044571 
L 117.129129 39.044571 
L 123.14125 39.044571 
L 129.153371 39.044571 
L 135.165492 39.044571 
L 141.177614 39.044571 
L 147.189735 39.044571 
L 153.201856 39.044571 
L 159.213977 39.044571 
L 165.226098 39.044571 
L 171.23822 39.044571 
L 177.250341 39.044571 
L 183.262462 39.044571 
L 189.274583 39.044571 
L 195.286705 39.044571 
L 201.298826 39.044571 
L 207.310947 39.044571 
L 213.323068 39.044571 
L 219.335189 39.044571 
L 225.347311 39.044571 
L 231.359432 39.044571 
L 237.371553 39.044571 
L 243.383674 39.044571 
L 249.395795 39.044571 
L 255.407917 39.044571 
L 261.420038 39.044571 
L 267.432159 39.044571 
L 273.44428 39.044571 
L 279.456402 39.044571 
L 285.468523 39.044571 
L 291.480644 39.044571 
L 297.492765 39.044571 
L 303.504886 39.044571 
L 309.517008 39.044571 
L 315.529129 39.044571 
L 321.54125 39.044571 
L 327.553371 39.044571 
L 333.565492 39.044571 
L 339.577614 39.044571 
L 345.589735 39.044571 
L 351.601856 39.044571 
L 357.613977 39.044571 
L 363.626098 39.044571 
L 369.63822 39.044571 
L 375.650341 39.044571 
L 381.662462 39.044571 
L 387.674583 39.044571 
L 393.686705 39.044571 
L 399.698826 39.044571 
L 405.710947 39.044571 
L 411.723068 39.044571 
L 417.052813 39.044571 
" clip-path="url(#p0604416cde)" style="fill: none; stroke-dasharray: 5.55,2.4; stroke-dashoffset: 0; stroke: #000000; stroke-width: 1.5"/>
   </g>
   <g id="patch_3">
    <path d="M 43.78125 273.312 
L 43.78125 7.2 
" style="fill: none; stroke: #000000; stroke-width: 0.8; stroke-linejoin: miter; stroke-linecap: square"/>
   </g>
   <g id="patch_4">
    <path d="M 400.90125 273.312 
L 400.90125 7.2 
" style="fill: none; stroke: #000000; stroke-width: 0.8; stroke-linejoin: miter; stroke-linecap: square"/>
   </g>
   <g id="patch_5">
    <path d="M 43.78125 273.312 
L 400.90125 273.312 
" style="fill: none; stroke: #000000; stroke-width: 0.8; stroke-linejoin: miter; stroke-linecap: square"/>
   </g>
   <g id="patch_6">
    <path d="M 43.78125 7.2 
L 400.90125 7.2 
" style="fill: none; stroke: #000000; stroke-width: 0.8; stroke-linejoin: miter; stroke-linecap: square"/>
   </g>
   <g id="legend_1">
    <g id="patch_7">
     <path d="M 50.78125 59.234375 
L 116.98125 59.234375 
Q 118.98125 59.234375 118.98125 57.234375 
L 118.98125 14.2 
Q 118.98125 12.2 116.98125 12.2 
L 50.78125 12.2 
Q 48.78125 12.2 48.78125 14.2 
L 48.78125 57.234375 
Q 48.78125 59.234375 50.78125 59.234375 
z
" style="fill: #ffffff; opacity: 0.8; stroke: #cccccc; stroke-linejoin: miter"/>
    </g>
    <g id="line2d_20">
     <path d="M 52.78125 20.298437 
L 62.78125 20.298437 
L 72.78125 20.298437 
" style="fill: none; stroke: #ff0000; stroke-width: 1.5; stroke-linecap: square"/>
    </g>
    <g id="text_16">
     <!-- $\tau = 0.9$ -->
     <g transform="translate(80.78125 23.798437) scale(0.1 -0.1)">
      <defs>
       <path id="DejaVuSans-Oblique-3c4" d="M 2103 638 
Q 2188 488 2525 488 
L 2800 488 
L 2706 0 
L 2363 0 
Q 1800 0 1600 300 
Q 1403 606 1534 1269 
L 1856 2925 
L 541 2925 
L 653 3500 
L 3881 3500 
L 3769 2925 
L 2444 2925 
L 2113 1234 
Q 2025 781 2103 638 
z
" transform="scale(0.015625)"/>
       <path id="DejaVuSans-3d" d="M 678 2906 
L 4684 2906 
L 4684 2381 
L 678 2381 
L 678 2906 
z
M 678 1631 
L 4684 1631 
L 4684 1100 
L 678 1100 
L 678 1631 
z
" transform="scale(0.015625)"/>
       <path id="DejaVuSans-39" d="M 703 97 
L 703 672 
Q 941 559 1184 500 
Q 1428 441 1663 441 
Q 2288 441 2617 861 
Q 2947 1281 2994 2138 
Q 2813 1869 2534 1725 
Q 2256 1581 1919 1581 
Q 1219 1581 811 2004 
Q 403 2428 403 3163 
Q 403 3881 828 4315 
Q 1253 4750 1959 4750 
Q 2769 4750 3195 4129 
Q 3622 3509 3622 2328 
Q 3622 1225 3098 567 
Q 2575 -91 1691 -91 
Q 1453 -91 1209 -44 
Q 966 3 703 97 
z
M 1959 2075 
Q 2384 2075 2632 2365 
Q 2881 2656 2881 3163 
Q 2881 3666 2632 3958 
Q 2384 4250 1959 4250 
Q 1534 4250 1286 3958 
Q 1038 3666 1038 3163 
Q 1038 2656 1286 2365 
Q 1534 2075 1959 2075 
z
" transform="scale(0.015625)"/>
      </defs>
      <use xlink:href="#DejaVuSans-Oblique-3c4" transform="translate(0 0.78125)"/>
      <use xlink:href="#DejaVuSans-3d" transform="translate(79.6875 0.78125)"/>
      <use xlink:href="#DejaVuSans-30" transform="translate(182.958984 0.78125)"/>
      <use xlink:href="#DejaVuSans-2e" transform="translate(246.582031 0.78125)"/>
      <use xlink:href="#DejaVuSans-39" transform="translate(278.369141 0.78125)"/>
     </g>
    </g>
    <g id="line2d_21">
     <path d="M 52.78125 34.976562 
L 62.78125 34.976562 
L 72.78125 34.976562 
" style="fill: none; stroke: #008000; stroke-width: 1.5; stroke-linecap: square"/>
    </g>
    <g id="text_17">
     <!-- $\tau = 0.5$ -->
     <g transform="translate(80.78125 38.476562) scale(0.1 -0.1)">
      <defs>
       <path id="DejaVuSans-35" d="M 691 4666 
L 3169 4666 
L 3169 4134 
L 1269 4134 
L 1269 2991 
Q 1406 3038 1543 3061 
Q 1681 3084 1819 3084 
Q 2600 3084 3056 2656 
Q 3513 2228 3513 1497 
Q 3513 744 3044 326 
Q 2575 -91 1722 -91 
Q 1428 -91 1123 -41 
Q 819 9 494 109 
L 494 744 
Q 775 591 1075 516 
Q 1375 441 1709 441 
Q 2250 441 2565 725 
Q 2881 1009 2881 1497 
Q 2881 1984 2565 2268 
Q 2250 2553 1709 2553 
Q 1456 2553 1204 2497 
Q 953 2441 691 2322 
L 691 4666 
z
" transform="scale(0.015625)"/>
      </defs>
      <use xlink:href="#DejaVuSans-Oblique-3c4" transform="translate(0 0.78125)"/>
      <use xlink:href="#DejaVuSans-3d" transform="translate(79.6875 0.78125)"/>
      <use xlink:href="#DejaVuSans-30" transform="translate(182.958984 0.78125)"/>
      <use xlink:href="#DejaVuSans-2e" transform="translate(246.582031 0.78125)"/>
      <use xlink:href="#DejaVuSans-35" transform="translate(278.369141 0.78125)"/>
     </g>
    </g>
    <g id="line2d_22">
     <path d="M 52.78125 49.654687 
L 62.78125 49.654687 
L 72.78125 49.654687 
" style="fill: none; stroke: #0000ff; stroke-width: 1.5; stroke-linecap: square"/>
    </g>
    <g id="text_18">
     <!-- $\tau = 0.1$ -->
     <g transform="translate(80.78125 53.154687) scale(0.1 -0.1)">
      <use xlink:href="#DejaVuSans-Oblique-3c4" transform="translate(0 0.78125)"/>
      <use xlink:href="#DejaVuSans-3d" transform="translate(79.6875 0.78125)"/>
      <use xlink:href="#DejaVuSans-30" transform="translate(182.958984 0.78125)"/>
      <use xlink:href="#DejaVuSans-2e" transform="translate(246.582031 0.78125)"/>
      <use xlink:href="#DejaVuSans-31" transform="translate(278.369141 0.78125)"/>
     </g>
    </g>
   </g>
  </g>
 </g>
 <defs>
  <clipPath id="p0604416cde">
   <rect x="43.78125" y="7.2" width="357.12" height="266.112"/>
  </clipPath>
 </defs>
</svg>