<?xml version="1.0" encoding="utf-8" standalone="no"?>
<!DOCTYPE svg PUBLIC "-//W3C//DTD SVG 1.1//EN"
  "http://www.w3.org/Graphics/SVG/1.1/DTD/svg11.dtd">
<svg xmlns:xlink="http://www.w3.org/1999/xlink" width="386.22pt" height="297.190125pt" viewBox="0 0 386.22 297.190125" xmlns="http://www.w3.org/2000/svg" version="1.1">
 <metadata>
  <rdf:RDF xmlns:dc="http://purl.org/dc/elements/1.1/" xmlns:cc="http://creativecommons.org/ns#" xmlns:rdf="http://www.w3.org/1999/02/22-rdf-syntax-ns#">
   <cc:Work>
    <dc:type rdf:resource="http://purl.org/dc/dcmitype/StillImage"/>
    <dc:date>2024-02-12T19:32:42.322013</dc:date>
    <dc:format>image/svg+xml</dc:format>
    <dc:creator>
     <cc:Agent>
      <dc:title>Matplotlib v3.8.2, https://matplotlib.org/</dc:title>
     </cc:Agent>
    </dc:creator>
   </cc:Work>
  </rdf:RDF>
 </metadata>
 <defs>
  <style type="text/css">*{stroke-linejoin: round; stroke-linecap: butt}</style>
 </defs>
 <g id="figure_1">
  <g id="patch_1">
   <path d="M 0 297.190125 
L 386.22 297.190125 
L 386.22 0 
L 0 0 
z
" style="fill: #ffffff"/>
  </g>
  <g id="axes_1">
   <g id="patch_2">
    <path d="M 21.9 289.990125 
L 379.02 289.990125 
L 379.02 23.878125 
L 21.9 23.878125 
z
" style="fill: #ffffff"/>
   </g>
   <g id="PolyQuadMesh_1">
    <path d="M 21.9 23.878125 
L 21.9 77.100525 
L 36.78 77.100525 
L 36.78 23.878125 
L 21.9 23.878125 
z
" clip-path="url(#pc6334a6085)" style="fill: #f7fbff"/>
    <path d="M 36.78 23.878125 
L 36.78 77.100525 
L 51.66 77.100525 
L 51.66 23.878125 
L 36.78 23.878125 
z
" clip-path="url(#pc6334a6085)" style="fill: #f7fbff"/>
    <path d="M 51.66 23.878125 
L 51.66 77.100525 
L 66.54 77.100525 
L 66.54 23.878125 
L 51.66 23.878125 
z
" clip-path="url(#pc6334a6085)" style="fill: #f7fbff"/>
    <path d="M 66.54 23.878125 
L 66.54 77.100525 
L 81.42 77.100525 
L 81.42 23.878125 
L 66.54 23.878125 
z
" clip-path="url(#pc6334a6085)" style="fill: #f7fbff"/>
    <path d="M 81.42 23.878125 
L 81.42 77.100525 
L 96.3 77.100525 
L 96.3 23.878125 
L 81.42 23.878125 
z
" clip-path="url(#pc6334a6085)" style="fill: #f7fbff"/>
    <path d="M 96.3 23.878125 
L 96.3 77.100525 
L 111.18 77.100525 
L 111.18 23.878125 
L 96.3 23.878125 
z
" clip-path="url(#pc6334a6085)" style="fill: #f7fbff"/>
    <path d="M 111.18 23.878125 
L 111.18 77.100525 
L 126.06 77.100525 
L 126.06 23.878125 
L 111.18 23.878125 
z
" clip-path="url(#pc6334a6085)" style="fill: #f7fbff"/>
    <path d="M 126.06 23.878125 
L 126.06 77.100525 
L 140.94 77.100525 
L 140.94 23.878125 
L 126.06 23.878125 
z
" clip-path="url(#pc6334a6085)" style="fill: #f7fbff"/>
    <path d="M 140.94 23.878125 
L 140.94 77.100525 
L 155.82 77.100525 
L 155.82 23.878125 
L 140.94 23.878125 
z
" clip-path="url(#pc6334a6085)" style="fill: #f7fbff"/>
    <path d="M 155.82 23.878125 
L 155.82 77.100525 
L 170.7 77.100525 
L 170.7 23.878125 
L 155.82 23.878125 
z
" clip-path="url(#pc6334a6085)" style="fill: #f7fbff"/>
    <path d="M 170.7 23.878125 
L 170.7 77.100525 
L 185.58 77.100525 
L 185.58 23.878125 
L 170.7 23.878125 
z
" clip-path="url(#pc6334a6085)" style="fill: #f7fbff"/>
    <path d="M 185.58 23.878125 
L 185.58 77.100525 
L 200.46 77.100525 
L 200.46 23.878125 
L 185.58 23.878125 
z
" clip-path="url(#pc6334a6085)" style="fill: #4997c9"/>
    <path d="M 200.46 23.878125 
L 200.46 77.100525 
L 215.34 77.100525 
L 215.34 23.878125 
L 200.46 23.878125 
z
" clip-path="url(#pc6334a6085)" style="fill: #08306b"/>
    <path d="M 215.34 23.878125 
L 215.34 77.100525 
L 230.22 77.100525 
L 230.22 23.878125 
L 215.34 23.878125 
z
" clip-path="url(#pc6334a6085)" style="fill: #f7fbff"/>
    <path d="M 230.22 23.878125 
L 230.22 77.100525 
L 245.1 77.100525 
L 245.1 23.878125 
L 230.22 23.878125 
z
" clip-path="url(#pc6334a6085)" style="fill: #f7fbff"/>
    <path d="M 245.1 23.878125 
L 245.1 77.100525 
L 259.98 77.100525 
L 259.98 23.878125 
L 245.1 23.878125 
z
" clip-path="url(#pc6334a6085)" style="fill: #afd1e7"/>
    <path d="M 259.98 23.878125 
L 259.98 77.100525 
L 274.86 77.100525 
L 274.86 23.878125 
L 259.98 23.878125 
z
" clip-path="url(#pc6334a6085)" style="fill: #f7fbff"/>
    <path d="M 274.86 23.878125 
L 274.86 77.100525 
L 289.74 77.100525 
L 289.74 23.878125 
L 274.86 23.878125 
z
" clip-path="url(#pc6334a6085)" style="fill: #f7fbff"/>
    <path d="M 289.74 23.878125 
L 289.74 77.100525 
L 304.62 77.100525 
L 304.62 23.878125 
L 289.74 23.878125 
z
" clip-path="url(#pc6334a6085)" style="fill: #f7fbff"/>
    <path d="M 304.62 23.878125 
L 304.62 77.100525 
L 319.5 77.100525 
L 319.5 23.878125 
L 304.62 23.878125 
z
" clip-path="url(#pc6334a6085)" style="fill: #f7fbff"/>
    <path d="M 319.5 23.878125 
L 319.5 77.100525 
L 334.38 77.100525 
L 334.38 23.878125 
L 319.5 23.878125 
z
" clip-path="url(#pc6334a6085)" style="fill: #f7fbff"/>
    <path d="M 334.38 23.878125 
L 334.38 77.100525 
L 349.26 77.100525 
L 349.26 23.878125 
L 334.38 23.878125 
z
" clip-path="url(#pc6334a6085)" style="fill: #f7fbff"/>
    <path d="M 349.26 23.878125 
L 349.26 77.100525 
L 364.14 77.100525 
L 364.14 23.878125 
L 349.26 23.878125 
z
" clip-path="url(#pc6334a6085)" style="fill: #f7fbff"/>
    <path d="M 364.14 23.878125 
L 364.14 77.100525 
L 379.02 77.100525 
L 379.02 23.878125 
L 364.14 23.878125 
z
" clip-path="url(#pc6334a6085)" style="fill: #084184"/>
    <path d="M 21.9 77.100525 
L 21.9 130.322925 
L 36.78 130.322925 
L 36.78 77.100525 
L 21.9 77.100525 
z
" clip-path="url(#pc6334a6085)" style="fill: #f7fbff"/>
    <path d="M 36.78 77.100525 
L 36.78 130.322925 
L 51.66 130.322925 
L 51.66 77.100525 
L 36.78 77.100525 
z
" clip-path="url(#pc6334a6085)" style="fill: #e5eff9"/>
    <path d="M 51.66 77.100525 
L 51.66 130.322925 
L 66.54 130.322925 
L 66.54 77.100525 
L 51.66 77.100525 
z
" clip-path="url(#pc6334a6085)" style="fill: #f7fbff"/>
    <path d="M 66.54 77.100525 
L 66.54 130.322925 
L 81.42 130.322925 
L 81.42 77.100525 
L 66.54 77.100525 
z
" clip-path="url(#pc6334a6085)" style="fill: #7fb9da"/>
    <path d="M 81.42 77.100525 
L 81.42 130.322925 
L 96.3 130.322925 
L 96.3 77.100525 
L 81.42 77.100525 
z
" clip-path="url(#pc6334a6085)" style="fill: #9dcae1"/>
    <path d="M 96.3 77.100525 
L 96.3 130.322925 
L 111.18 130.322925 
L 111.18 77.100525 
L 96.3 77.100525 
z
" clip-path="url(#pc6334a6085)" style="fill: #f7fbff"/>
    <path d="M 111.18 77.100525 
L 111.18 130.322925 
L 126.06 130.322925 
L 126.06 77.100525 
L 111.18 77.100525 
z
" clip-path="url(#pc6334a6085)" style="fill: #f7fbff"/>
    <path d="M 126.06 77.100525 
L 126.06 130.322925 
L 140.94 130.322925 
L 140.94 77.100525 
L 126.06 77.100525 
z
" clip-path="url(#pc6334a6085)" style="fill: #c7dcef"/>
    <path d="M 140.94 77.100525 
L 140.94 130.322925 
L 155.82 130.322925 
L 155.82 77.100525 
L 140.94 77.100525 
z
" clip-path="url(#pc6334a6085)" style="fill: #f7fbff"/>
    <path d="M 155.82 77.100525 
L 155.82 130.322925 
L 170.7 130.322925 
L 170.7 77.100525 
L 155.82 77.100525 
z
" clip-path="url(#pc6334a6085)" style="fill: #f7fbff"/>
    <path d="M 170.7 77.100525 
L 170.7 130.322925 
L 185.58 130.322925 
L 185.58 77.100525 
L 170.7 77.100525 
z
" clip-path="url(#pc6334a6085)" style="fill: #f7fbff"/>
    <path d="M 185.58 77.100525 
L 185.58 130.322925 
L 200.46 130.322925 
L 200.46 77.100525 
L 185.58 77.100525 
z
" clip-path="url(#pc6334a6085)" style="fill: #bfd8ed"/>
    <path d="M 200.46 77.100525 
L 200.46 130.322925 
L 215.34 130.322925 
L 215.34 77.100525 
L 200.46 77.100525 
z
" clip-path="url(#pc6334a6085)" style="fill: #f7fbff"/>
    <path d="M 215.34 77.100525 
L 215.34 130.322925 
L 230.22 130.322925 
L 230.22 77.100525 
L 215.34 77.100525 
z
" clip-path="url(#pc6334a6085)" style="fill: #0e59a2"/>
    <path d="M 230.22 77.100525 
L 230.22 130.322925 
L 245.1 130.322925 
L 245.1 77.100525 
L 230.22 77.100525 
z
" clip-path="url(#pc6334a6085)" style="fill: #f7fbff"/>
    <path d="M 245.1 77.100525 
L 245.1 130.322925 
L 259.98 130.322925 
L 259.98 77.100525 
L 245.1 77.100525 
z
" clip-path="url(#pc6334a6085)" style="fill: #08468b"/>
    <path d="M 259.98 77.100525 
L 259.98 130.322925 
L 274.86 130.322925 
L 274.86 77.100525 
L 259.98 77.100525 
z
" clip-path="url(#pc6334a6085)" style="fill: #e2edf8"/>
    <path d="M 274.86 77.100525 
L 274.86 130.322925 
L 289.74 130.322925 
L 289.74 77.100525 
L 274.86 77.100525 
z
" clip-path="url(#pc6334a6085)" style="fill: #f7fbff"/>
    <path d="M 289.74 77.100525 
L 289.74 130.322925 
L 304.62 130.322925 
L 304.62 77.100525 
L 289.74 77.100525 
z
" clip-path="url(#pc6334a6085)" style="fill: #f7fbff"/>
    <path d="M 304.62 77.100525 
L 304.62 130.322925 
L 319.5 130.322925 
L 319.5 77.100525 
L 304.62 77.100525 
z
" clip-path="url(#pc6334a6085)" style="fill: #f7fbff"/>
    <path d="M 319.5 77.100525 
L 319.5 130.322925 
L 334.38 130.322925 
L 334.38 77.100525 
L 319.5 77.100525 
z
" clip-path="url(#pc6334a6085)" style="fill: #81badb"/>
    <path d="M 334.38 77.100525 
L 334.38 130.322925 
L 349.26 130.322925 
L 349.26 77.100525 
L 334.38 77.100525 
z
" clip-path="url(#pc6334a6085)" style="fill: #f7fbff"/>
    <path d="M 349.26 77.100525 
L 349.26 130.322925 
L 364.14 130.322925 
L 364.14 77.100525 
L 349.26 77.100525 
z
" clip-path="url(#pc6334a6085)" style="fill: #f7fbff"/>
    <path d="M 364.14 77.100525 
L 364.14 130.322925 
L 379.02 130.322925 
L 379.02 77.100525 
L 364.14 77.100525 
z
" clip-path="url(#pc6334a6085)" style="fill: #f7fbff"/>
    <path d="M 21.9 130.322925 
L 21.9 183.545325 
L 36.78 183.545325 
L 36.78 130.322925 
L 21.9 130.322925 
z
" clip-path="url(#pc6334a6085)" style="fill: #94c4df"/>
    <path d="M 36.78 130.322925 
L 36.78 183.545325 
L 51.66 183.545325 
L 51.66 130.322925 
L 36.78 130.322925 
z
" clip-path="url(#pc6334a6085)" style="fill: #b5d4e9"/>
    <path d="M 51.66 130.322925 
L 51.66 183.545325 
L 66.54 183.545325 
L 66.54 130.322925 
L 51.66 130.322925 
z
" clip-path="url(#pc6334a6085)" style="fill: #b8d5ea"/>
    <path d="M 66.54 130.322925 
L 66.54 183.545325 
L 81.42 183.545325 
L 81.42 130.322925 
L 66.54 130.322925 
z
" clip-path="url(#pc6334a6085)" style="fill: #f7fbff"/>
    <path d="M 81.42 130.322925 
L 81.42 183.545325 
L 96.3 183.545325 
L 96.3 130.322925 
L 81.42 130.322925 
z
" clip-path="url(#pc6334a6085)" style="fill: #f7fbff"/>
    <path d="M 96.3 130.322925 
L 96.3 183.545325 
L 111.18 183.545325 
L 111.18 130.322925 
L 96.3 130.322925 
z
" clip-path="url(#pc6334a6085)" style="fill: #d3e4f3"/>
    <path d="M 111.18 130.322925 
L 111.18 183.545325 
L 126.06 183.545325 
L 126.06 130.322925 
L 111.18 130.322925 
z
" clip-path="url(#pc6334a6085)" style="fill: #d8e7f5"/>
    <path d="M 126.06 130.322925 
L 126.06 183.545325 
L 140.94 183.545325 
L 140.94 130.322925 
L 126.06 130.322925 
z
" clip-path="url(#pc6334a6085)" style="fill: #edf4fc"/>
    <path d="M 140.94 130.322925 
L 140.94 183.545325 
L 155.82 183.545325 
L 155.82 130.322925 
L 140.94 130.322925 
z
" clip-path="url(#pc6334a6085)" style="fill: #ccdff1"/>
    <path d="M 155.82 130.322925 
L 155.82 183.545325 
L 170.7 183.545325 
L 170.7 130.322925 
L 155.82 130.322925 
z
" clip-path="url(#pc6334a6085)" style="fill: #caddf0"/>
    <path d="M 170.7 130.322925 
L 170.7 183.545325 
L 185.58 183.545325 
L 185.58 130.322925 
L 170.7 130.322925 
z
" clip-path="url(#pc6334a6085)" style="fill: #b9d6ea"/>
    <path d="M 185.58 130.322925 
L 185.58 183.545325 
L 200.46 183.545325 
L 200.46 130.322925 
L 185.58 130.322925 
z
" clip-path="url(#pc6334a6085)" style="fill: #f7fbff"/>
    <path d="M 200.46 130.322925 
L 200.46 183.545325 
L 215.34 183.545325 
L 215.34 130.322925 
L 200.46 130.322925 
z
" clip-path="url(#pc6334a6085)" style="fill: #f7fbff"/>
    <path d="M 215.34 130.322925 
L 215.34 183.545325 
L 230.22 183.545325 
L 230.22 130.322925 
L 215.34 130.322925 
z
" clip-path="url(#pc6334a6085)" style="fill: #f5fafe"/>
    <path d="M 230.22 130.322925 
L 230.22 183.545325 
L 245.1 183.545325 
L 245.1 130.322925 
L 230.22 130.322925 
z
" clip-path="url(#pc6334a6085)" style="fill: #2979b9"/>
    <path d="M 245.1 130.322925 
L 245.1 183.545325 
L 259.98 183.545325 
L 259.98 130.322925 
L 245.1 130.322925 
z
" clip-path="url(#pc6334a6085)" style="fill: #f4f9fe"/>
    <path d="M 259.98 130.322925 
L 259.98 183.545325 
L 274.86 183.545325 
L 274.86 130.322925 
L 259.98 130.322925 
z
" clip-path="url(#pc6334a6085)" style="fill: #4a98c9"/>
    <path d="M 274.86 130.322925 
L 274.86 183.545325 
L 289.74 183.545325 
L 289.74 130.322925 
L 274.86 130.322925 
z
" clip-path="url(#pc6334a6085)" style="fill: #2777b8"/>
    <path d="M 289.74 130.322925 
L 289.74 183.545325 
L 304.62 183.545325 
L 304.62 130.322925 
L 289.74 130.322925 
z
" clip-path="url(#pc6334a6085)" style="fill: #3787c0"/>
    <path d="M 304.62 130.322925 
L 304.62 183.545325 
L 319.5 183.545325 
L 319.5 130.322925 
L 304.62 130.322925 
z
" clip-path="url(#pc6334a6085)" style="fill: #3989c1"/>
    <path d="M 319.5 130.322925 
L 319.5 183.545325 
L 334.38 183.545325 
L 334.38 130.322925 
L 319.5 130.322925 
z
" clip-path="url(#pc6334a6085)" style="fill: #add0e6"/>
    <path d="M 334.38 130.322925 
L 334.38 183.545325 
L 349.26 183.545325 
L 349.26 130.322925 
L 334.38 130.322925 
z
" clip-path="url(#pc6334a6085)" style="fill: #5ca4d0"/>
    <path d="M 349.26 130.322925 
L 349.26 183.545325 
L 364.14 183.545325 
L 364.14 130.322925 
L 349.26 130.322925 
z
" clip-path="url(#pc6334a6085)" style="fill: #60a7d2"/>
    <path d="M 364.14 130.322925 
L 364.14 183.545325 
L 379.02 183.545325 
L 379.02 130.322925 
L 364.14 130.322925 
z
" clip-path="url(#pc6334a6085)" style="fill: #f7fbff"/>
    <path d="M 21.9 183.545325 
L 21.9 236.767725 
L 36.78 236.767725 
L 36.78 183.545325 
L 21.9 183.545325 
z
" clip-path="url(#pc6334a6085)" style="fill: #f6faff"/>
    <path d="M 36.78 183.545325 
L 36.78 236.767725 
L 51.66 236.767725 
L 51.66 183.545325 
L 36.78 183.545325 
z
" clip-path="url(#pc6334a6085)" style="fill: #eaf2fb"/>
    <path d="M 51.66 183.545325 
L 51.66 236.767725 
L 66.54 236.767725 
L 66.54 183.545325 
L 51.66 183.545325 
z
" clip-path="url(#pc6334a6085)" style="fill: #f4f9fe"/>
    <path d="M 66.54 183.545325 
L 66.54 236.767725 
L 81.42 236.767725 
L 81.42 183.545325 
L 66.54 183.545325 
z
" clip-path="url(#pc6334a6085)" style="fill: #dbe9f6"/>
    <path d="M 81.42 183.545325 
L 81.42 236.767725 
L 96.3 236.767725 
L 96.3 183.545325 
L 81.42 183.545325 
z
" clip-path="url(#pc6334a6085)" style="fill: #dae8f6"/>
    <path d="M 96.3 183.545325 
L 96.3 236.767725 
L 111.18 236.767725 
L 111.18 183.545325 
L 96.3 183.545325 
z
" clip-path="url(#pc6334a6085)" style="fill: #f6faff"/>
    <path d="M 111.18 183.545325 
L 111.18 236.767725 
L 126.06 236.767725 
L 126.06 183.545325 
L 111.18 183.545325 
z
" clip-path="url(#pc6334a6085)" style="fill: #f7fbff"/>
    <path d="M 126.06 183.545325 
L 126.06 236.767725 
L 140.94 236.767725 
L 140.94 183.545325 
L 126.06 183.545325 
z
" clip-path="url(#pc6334a6085)" style="fill: #deebf7"/>
    <path d="M 140.94 183.545325 
L 140.94 236.767725 
L 155.82 236.767725 
L 155.82 183.545325 
L 140.94 183.545325 
z
" clip-path="url(#pc6334a6085)" style="fill: #f6faff"/>
    <path d="M 155.82 183.545325 
L 155.82 236.767725 
L 170.7 236.767725 
L 170.7 183.545325 
L 155.82 183.545325 
z
" clip-path="url(#pc6334a6085)" style="fill: #f7fbff"/>
    <path d="M 170.7 183.545325 
L 170.7 236.767725 
L 185.58 236.767725 
L 185.58 183.545325 
L 170.7 183.545325 
z
" clip-path="url(#pc6334a6085)" style="fill: #f7fbff"/>
    <path d="M 185.58 183.545325 
L 185.58 236.767725 
L 200.46 236.767725 
L 200.46 183.545325 
L 185.58 183.545325 
z
" clip-path="url(#pc6334a6085)" style="fill: #f7fbff"/>
    <path d="M 200.46 183.545325 
L 200.46 236.767725 
L 215.34 236.767725 
L 215.34 183.545325 
L 200.46 183.545325 
z
" clip-path="url(#pc6334a6085)" style="fill: #f7fbff"/>
    <path d="M 215.34 183.545325 
L 215.34 236.767725 
L 230.22 236.767725 
L 230.22 183.545325 
L 215.34 183.545325 
z
" clip-path="url(#pc6334a6085)" style="fill: #c3daee"/>
    <path d="M 230.22 183.545325 
L 230.22 236.767725 
L 245.1 236.767725 
L 245.1 183.545325 
L 230.22 183.545325 
z
" clip-path="url(#pc6334a6085)" style="fill: #f7fbff"/>
    <path d="M 245.1 183.545325 
L 245.1 236.767725 
L 259.98 236.767725 
L 259.98 183.545325 
L 245.1 183.545325 
z
" clip-path="url(#pc6334a6085)" style="fill: #eef5fc"/>
    <path d="M 259.98 183.545325 
L 259.98 236.767725 
L 274.86 236.767725 
L 274.86 183.545325 
L 259.98 183.545325 
z
" clip-path="url(#pc6334a6085)" style="fill: #ecf4fb"/>
    <path d="M 274.86 183.545325 
L 274.86 236.767725 
L 289.74 236.767725 
L 289.74 183.545325 
L 274.86 183.545325 
z
" clip-path="url(#pc6334a6085)" style="fill: #f7fbff"/>
    <path d="M 289.74 183.545325 
L 289.74 236.767725 
L 304.62 236.767725 
L 304.62 183.545325 
L 289.74 183.545325 
z
" clip-path="url(#pc6334a6085)" style="fill: #f6faff"/>
    <path d="M 304.62 183.545325 
L 304.62 236.767725 
L 319.5 236.767725 
L 319.5 183.545325 
L 304.62 183.545325 
z
" clip-path="url(#pc6334a6085)" style="fill: #f7fbff"/>
    <path d="M 319.5 183.545325 
L 319.5 236.767725 
L 334.38 236.767725 
L 334.38 183.545325 
L 319.5 183.545325 
z
" clip-path="url(#pc6334a6085)" style="fill: #d4e4f4"/>
    <path d="M 334.38 183.545325 
L 334.38 236.767725 
L 349.26 236.767725 
L 349.26 183.545325 
L 334.38 183.545325 
z
" clip-path="url(#pc6334a6085)" style="fill: #f7fbff"/>
    <path d="M 349.26 183.545325 
L 349.26 236.767725 
L 364.14 236.767725 
L 364.14 183.545325 
L 349.26 183.545325 
z
" clip-path="url(#pc6334a6085)" style="fill: #f7fbff"/>
    <path d="M 364.14 183.545325 
L 364.14 236.767725 
L 379.02 236.767725 
L 379.02 183.545325 
L 364.14 183.545325 
z
" clip-path="url(#pc6334a6085)" style="fill: #f7fbff"/>
    <path d="M 21.9 236.767725 
L 21.9 289.990125 
L 36.78 289.990125 
L 36.78 236.767725 
L 21.9 236.767725 
z
" clip-path="url(#pc6334a6085)" style="fill: #61a7d2"/>
    <path d="M 36.78 236.767725 
L 36.78 289.990125 
L 51.66 289.990125 
L 51.66 236.767725 
L 36.78 236.767725 
z
" clip-path="url(#pc6334a6085)" style="fill: #a8cee4"/>
    <path d="M 51.66 236.767725 
L 51.66 289.990125 
L 66.54 289.990125 
L 66.54 236.767725 
L 51.66 236.767725 
z
" clip-path="url(#pc6334a6085)" style="fill: #9cc9e1"/>
    <path d="M 66.54 236.767725 
L 66.54 289.990125 
L 81.42 289.990125 
L 81.42 236.767725 
L 66.54 236.767725 
z
" clip-path="url(#pc6334a6085)" style="fill: #f7fbff"/>
    <path d="M 81.42 236.767725 
L 81.42 289.990125 
L 96.3 289.990125 
L 96.3 236.767725 
L 81.42 236.767725 
z
" clip-path="url(#pc6334a6085)" style="fill: #f7fbff"/>
    <path d="M 96.3 236.767725 
L 96.3 289.990125 
L 111.18 289.990125 
L 111.18 236.767725 
L 96.3 236.767725 
z
" clip-path="url(#pc6334a6085)" style="fill: #b9d6ea"/>
    <path d="M 111.18 236.767725 
L 111.18 289.990125 
L 126.06 289.990125 
L 126.06 236.767725 
L 111.18 236.767725 
z
" clip-path="url(#pc6334a6085)" style="fill: #b4d3e9"/>
    <path d="M 126.06 236.767725 
L 126.06 289.990125 
L 140.94 289.990125 
L 140.94 236.767725 
L 126.06 236.767725 
z
" clip-path="url(#pc6334a6085)" style="fill: #eaf2fb"/>
    <path d="M 140.94 236.767725 
L 140.94 289.990125 
L 155.82 289.990125 
L 155.82 236.767725 
L 140.94 236.767725 
z
" clip-path="url(#pc6334a6085)" style="fill: #aed1e7"/>
    <path d="M 155.82 236.767725 
L 155.82 289.990125 
L 170.7 289.990125 
L 170.7 236.767725 
L 155.82 236.767725 
z
" clip-path="url(#pc6334a6085)" style="fill: #92c4de"/>
    <path d="M 170.7 236.767725 
L 170.7 289.990125 
L 185.58 289.990125 
L 185.58 236.767725 
L 170.7 236.767725 
z
" clip-path="url(#pc6334a6085)" style="fill: #7cb7da"/>
    <path d="M 185.58 236.767725 
L 185.58 289.990125 
L 200.46 289.990125 
L 200.46 236.767725 
L 185.58 236.767725 
z
" clip-path="url(#pc6334a6085)" style="fill: #f7fbff"/>
    <path d="M 200.46 236.767725 
L 200.46 289.990125 
L 215.34 289.990125 
L 215.34 236.767725 
L 200.46 236.767725 
z
" clip-path="url(#pc6334a6085)" style="fill: #f7fbff"/>
    <path d="M 215.34 236.767725 
L 215.34 289.990125 
L 230.22 289.990125 
L 230.22 236.767725 
L 215.34 236.767725 
z
" clip-path="url(#pc6334a6085)" style="fill: #f5fafe"/>
    <path d="M 230.22 236.767725 
L 230.22 289.990125 
L 245.1 289.990125 
L 245.1 236.767725 
L 230.22 236.767725 
z
" clip-path="url(#pc6334a6085)" style="fill: #68acd5"/>
    <path d="M 245.1 236.767725 
L 245.1 289.990125 
L 259.98 289.990125 
L 259.98 236.767725 
L 245.1 236.767725 
z
" clip-path="url(#pc6334a6085)" style="fill: #f4f9fe"/>
    <path d="M 259.98 236.767725 
L 259.98 289.990125 
L 274.86 289.990125 
L 274.86 236.767725 
L 259.98 236.767725 
z
" clip-path="url(#pc6334a6085)" style="fill: #4594c7"/>
    <path d="M 274.86 236.767725 
L 274.86 289.990125 
L 289.74 289.990125 
L 289.74 236.767725 
L 274.86 236.767725 
z
" clip-path="url(#pc6334a6085)" style="fill: #3484bf"/>
    <path d="M 289.74 236.767725 
L 289.74 289.990125 
L 304.62 289.990125 
L 304.62 236.767725 
L 289.74 236.767725 
z
" clip-path="url(#pc6334a6085)" style="fill: #2979b9"/>
    <path d="M 304.62 236.767725 
L 304.62 289.990125 
L 319.5 289.990125 
L 319.5 236.767725 
L 304.62 236.767725 
z
" clip-path="url(#pc6334a6085)" style="fill: #3080bd"/>
    <path d="M 319.5 236.767725 
L 319.5 289.990125 
L 334.38 289.990125 
L 334.38 236.767725 
L 319.5 236.767725 
z
" clip-path="url(#pc6334a6085)" style="fill: #afd1e7"/>
    <path d="M 334.38 236.767725 
L 334.38 289.990125 
L 349.26 289.990125 
L 349.26 236.767725 
L 334.38 236.767725 
z
" clip-path="url(#pc6334a6085)" style="fill: #4090c5"/>
    <path d="M 349.26 236.767725 
L 349.26 289.990125 
L 364.14 289.990125 
L 364.14 236.767725 
L 349.26 236.767725 
z
" clip-path="url(#pc6334a6085)" style="fill: #61a7d2"/>
    <path d="M 364.14 236.767725 
L 364.14 289.990125 
L 379.02 289.990125 
L 379.02 236.767725 
L 364.14 236.767725 
z
" clip-path="url(#pc6334a6085)" style="fill: #f7fbff"/>
   </g>
   <g id="matplotlib.axis_1">
    <g id="xtick_1">
     <g id="line2d_1">
      <defs>
       <path id="m2a335995ee" d="M 0 0 
L 0 -3.5 
" style="stroke: #000000; stroke-width: 0.8"/>
      </defs>
      <g>
       <use xlink:href="#m2a335995ee" x="29.34" y="23.878125" style="stroke: #000000; stroke-width: 0.8"/>
      </g>
     </g>
     <g id="text_1">
      <!-- 0 -->
      <g transform="translate(26.15875 14.798437) scale(0.1 -0.1)">
       <defs>
        <path id="DejaVuSans-30" d="M 2034 4250 
Q 1547 4250 1301 3770 
Q 1056 3291 1056 2328 
Q 1056 1369 1301 889 
Q 1547 409 2034 409 
Q 2525 409 2770 889 
Q 3016 1369 3016 2328 
Q 3016 3291 2770 3770 
Q 2525 4250 2034 4250 
z
M 2034 4750 
Q 2819 4750 3233 4129 
Q 3647 3509 3647 2328 
Q 3647 1150 3233 529 
Q 2819 -91 2034 -91 
Q 1250 -91 836 529 
Q 422 1150 422 2328 
Q 422 3509 836 4129 
Q 1250 4750 2034 4750 
z
" transform="scale(0.015625)"/>
       </defs>
       <use xlink:href="#DejaVuSans-30"/>
      </g>
     </g>
    </g>
    <g id="xtick_2">
     <g id="line2d_2">
      <g>
       <use xlink:href="#m2a335995ee" x="44.22" y="23.878125" style="stroke: #000000; stroke-width: 0.8"/>
      </g>
     </g>
     <g id="text_2">
      <!-- 1 -->
      <g transform="translate(41.03875 14.798437) scale(0.1 -0.1)">
       <defs>
        <path id="DejaVuSans-31" d="M 794 531 
L 1825 531 
L 1825 4091 
L 703 3866 
L 703 4441 
L 1819 4666 
L 2450 4666 
L 2450 531 
L 3481 531 
L 3481 0 
L 794 0 
L 794 531 
z
" transform="scale(0.015625)"/>
       </defs>
       <use xlink:href="#DejaVuSans-31"/>
      </g>
     </g>
    </g>
    <g id="xtick_3">
     <g id="line2d_3">
      <g>
       <use xlink:href="#m2a335995ee" x="59.1" y="23.878125" style="stroke: #000000; stroke-width: 0.8"/>
      </g>
     </g>
     <g id="text_3">
      <!-- 2 -->
      <g transform="translate(55.91875 14.798437) scale(0.1 -0.1)">
       <defs>
        <path id="DejaVuSans-32" d="M 1228 531 
L 3431 531 
L 3431 0 
L 469 0 
L 469 531 
Q 828 903 1448 1529 
Q 2069 2156 2228 2338 
Q 2531 2678 2651 2914 
Q 2772 3150 2772 3378 
Q 2772 3750 2511 3984 
Q 2250 4219 1831 4219 
Q 1534 4219 1204 4116 
Q 875 4013 500 3803 
L 500 4441 
Q 881 4594 1212 4672 
Q 1544 4750 1819 4750 
Q 2544 4750 2975 4387 
Q 3406 4025 3406 3419 
Q 3406 3131 3298 2873 
Q 3191 2616 2906 2266 
Q 2828 2175 2409 1742 
Q 1991 1309 1228 531 
z
" transform="scale(0.015625)"/>
       </defs>
       <use xlink:href="#DejaVuSans-32"/>
      </g>
     </g>
    </g>
    <g id="xtick_4">
     <g id="line2d_4">
      <g>
       <use xlink:href="#m2a335995ee" x="73.98" y="23.878125" style="stroke: #000000; stroke-width: 0.8"/>
      </g>
     </g>
     <g id="text_4">
      <!-- 3 -->
      <g transform="translate(70.79875 14.798437) scale(0.1 -0.1)">
       <defs>
        <path id="DejaVuSans-33" d="M 2597 2516 
Q 3050 2419 3304 2112 
Q 3559 1806 3559 1356 
Q 3559 666 3084 287 
Q 2609 -91 1734 -91 
Q 1441 -91 1130 -33 
Q 819 25 488 141 
L 488 750 
Q 750 597 1062 519 
Q 1375 441 1716 441 
Q 2309 441 2620 675 
Q 2931 909 2931 1356 
Q 2931 1769 2642 2001 
Q 2353 2234 1838 2234 
L 1294 2234 
L 1294 2753 
L 1863 2753 
Q 2328 2753 2575 2939 
Q 2822 3125 2822 3475 
Q 2822 3834 2567 4026 
Q 2313 4219 1838 4219 
Q 1578 4219 1281 4162 
Q 984 4106 628 3988 
L 628 4550 
Q 988 4650 1302 4700 
Q 1616 4750 1894 4750 
Q 2613 4750 3031 4423 
Q 3450 4097 3450 3541 
Q 3450 3153 3228 2886 
Q 3006 2619 2597 2516 
z
" transform="scale(0.015625)"/>
       </defs>
       <use xlink:href="#DejaVuSans-33"/>
      </g>
     </g>
    </g>
    <g id="xtick_5">
     <g id="line2d_5">
      <g>
       <use xlink:href="#m2a335995ee" x="88.86" y="23.878125" style="stroke: #000000; stroke-width: 0.8"/>
      </g>
     </g>
     <g id="text_5">
      <!-- 4 -->
      <g transform="translate(85.67875 14.798437) scale(0.1 -0.1)">
       <defs>
        <path id="DejaVuSans-34" d="M 2419 4116 
L 825 1625 
L 2419 1625 
L 2419 4116 
z
M 2253 4666 
L 3047 4666 
L 3047 1625 
L 3713 1625 
L 3713 1100 
L 3047 1100 
L 3047 0 
L 2419 0 
L 2419 1100 
L 313 1100 
L 313 1709 
L 2253 4666 
z
" transform="scale(0.015625)"/>
       </defs>
       <use xlink:href="#DejaVuSans-34"/>
      </g>
     </g>
    </g>
    <g id="xtick_6">
     <g id="line2d_6">
      <g>
       <use xlink:href="#m2a335995ee" x="103.74" y="23.878125" style="stroke: #000000; stroke-width: 0.8"/>
      </g>
     </g>
     <g id="text_6">
      <!-- 5 -->
      <g transform="translate(100.55875 14.798437) scale(0.1 -0.1)">
       <defs>
        <path id="DejaVuSans-35" d="M 691 4666 
L 3169 4666 
L 3169 4134 
L 1269 4134 
L 1269 2991 
Q 1406 3038 1543 3061 
Q 1681 3084 1819 3084 
Q 2600 3084 3056 2656 
Q 3513 2228 3513 1497 
Q 3513 744 3044 326 
Q 2575 -91 1722 -91 
Q 1428 -91 1123 -41 
Q 819 9 494 109 
L 494 744 
Q 775 591 1075 516 
Q 1375 441 1709 441 
Q 2250 441 2565 725 
Q 2881 1009 2881 1497 
Q 2881 1984 2565 2268 
Q 2250 2553 1709 2553 
Q 1456 2553 1204 2497 
Q 953 2441 691 2322 
L 691 4666 
z
" transform="scale(0.015625)"/>
       </defs>
       <use xlink:href="#DejaVuSans-35"/>
      </g>
     </g>
    </g>
    <g id="xtick_7">
     <g id="line2d_7">
      <g>
       <use xlink:href="#m2a335995ee" x="118.62" y="23.878125" style="stroke: #000000; stroke-width: 0.8"/>
      </g>
     </g>
     <g id="text_7">
      <!-- 6 -->
      <g transform="translate(115.43875 14.798437) scale(0.1 -0.1)">
       <defs>
        <path id="DejaVuSans-36" d="M 2113 2584 
Q 1688 2584 1439 2293 
Q 1191 2003 1191 1497 
Q 1191 994 1439 701 
Q 1688 409 2113 409 
Q 2538 409 2786 701 
Q 3034 994 3034 1497 
Q 3034 2003 2786 2293 
Q 2538 2584 2113 2584 
z
M 3366 4563 
L 3366 3988 
Q 3128 4100 2886 4159 
Q 2644 4219 2406 4219 
Q 1781 4219 1451 3797 
Q 1122 3375 1075 2522 
Q 1259 2794 1537 2939 
Q 1816 3084 2150 3084 
Q 2853 3084 3261 2657 
Q 3669 2231 3669 1497 
Q 3669 778 3244 343 
Q 2819 -91 2113 -91 
Q 1303 -91 875 529 
Q 447 1150 447 2328 
Q 447 3434 972 4092 
Q 1497 4750 2381 4750 
Q 2619 4750 2861 4703 
Q 3103 4656 3366 4563 
z
" transform="scale(0.015625)"/>
       </defs>
       <use xlink:href="#DejaVuSans-36"/>
      </g>
     </g>
    </g>
    <g id="xtick_8">
     <g id="line2d_8">
      <g>
       <use xlink:href="#m2a335995ee" x="133.5" y="23.878125" style="stroke: #000000; stroke-width: 0.8"/>
      </g>
     </g>
     <g id="text_8">
      <!-- 7 -->
      <g transform="translate(130.31875 14.798437) scale(0.1 -0.1)">
       <defs>
        <path id="DejaVuSans-37" d="M 525 4666 
L 3525 4666 
L 3525 4397 
L 1831 0 
L 1172 0 
L 2766 4134 
L 525 4134 
L 525 4666 
z
" transform="scale(0.015625)"/>
       </defs>
       <use xlink:href="#DejaVuSans-37"/>
      </g>
     </g>
    </g>
    <g id="xtick_9">
     <g id="line2d_9">
      <g>
       <use xlink:href="#m2a335995ee" x="148.38" y="23.878125" style="stroke: #000000; stroke-width: 0.8"/>
      </g>
     </g>
     <g id="text_9">
      <!-- 8 -->
      <g transform="translate(145.19875 14.798437) scale(0.1 -0.1)">
       <defs>
        <path id="DejaVuSans-38" d="M 2034 2216 
Q 1584 2216 1326 1975 
Q 1069 1734 1069 1313 
Q 1069 891 1326 650 
Q 1584 409 2034 409 
Q 2484 409 2743 651 
Q 3003 894 3003 1313 
Q 3003 1734 2745 1975 
Q 2488 2216 2034 2216 
z
M 1403 2484 
Q 997 2584 770 2862 
Q 544 3141 544 3541 
Q 544 4100 942 4425 
Q 1341 4750 2034 4750 
Q 2731 4750 3128 4425 
Q 3525 4100 3525 3541 
Q 3525 3141 3298 2862 
Q 3072 2584 2669 2484 
Q 3125 2378 3379 2068 
Q 3634 1759 3634 1313 
Q 3634 634 3220 271 
Q 2806 -91 2034 -91 
Q 1263 -91 848 271 
Q 434 634 434 1313 
Q 434 1759 690 2068 
Q 947 2378 1403 2484 
z
M 1172 3481 
Q 1172 3119 1398 2916 
Q 1625 2713 2034 2713 
Q 2441 2713 2670 2916 
Q 2900 3119 2900 3481 
Q 2900 3844 2670 4047 
Q 2441 4250 2034 4250 
Q 1625 4250 1398 4047 
Q 1172 3844 1172 3481 
z
" transform="scale(0.015625)"/>
       </defs>
       <use xlink:href="#DejaVuSans-38"/>
      </g>
     </g>
    </g>
    <g id="xtick_10">
     <g id="line2d_10">
      <g>
       <use xlink:href="#m2a335995ee" x="163.26" y="23.878125" style="stroke: #000000; stroke-width: 0.8"/>
      </g>
     </g>
     <g id="text_10">
      <!-- 9 -->
      <g transform="translate(160.07875 14.798437) scale(0.1 -0.1)">
       <defs>
        <path id="DejaVuSans-39" d="M 703 97 
L 703 672 
Q 941 559 1184 500 
Q 1428 441 1663 441 
Q 2288 441 2617 861 
Q 2947 1281 2994 2138 
Q 2813 1869 2534 1725 
Q 2256 1581 1919 1581 
Q 1219 1581 811 2004 
Q 403 2428 403 3163 
Q 403 3881 828 4315 
Q 1253 4750 1959 4750 
Q 2769 4750 3195 4129 
Q 3622 3509 3622 2328 
Q 3622 1225 3098 567 
Q 2575 -91 1691 -91 
Q 1453 -91 1209 -44 
Q 966 3 703 97 
z
M 1959 2075 
Q 2384 2075 2632 2365 
Q 2881 2656 2881 3163 
Q 2881 3666 2632 3958 
Q 2384 4250 1959 4250 
Q 1534 4250 1286 3958 
Q 1038 3666 1038 3163 
Q 1038 2656 1286 2365 
Q 1534 2075 1959 2075 
z
" transform="scale(0.015625)"/>
       </defs>
       <use xlink:href="#DejaVuSans-39"/>
      </g>
     </g>
    </g>
    <g id="xtick_11">
     <g id="line2d_11">
      <g>
       <use xlink:href="#m2a335995ee" x="178.14" y="23.878125" style="stroke: #000000; stroke-width: 0.8"/>
      </g>
     </g>
     <g id="text_11">
      <!-- 10 -->
      <g transform="translate(171.7775 14.798437) scale(0.1 -0.1)">
       <use xlink:href="#DejaVuSans-31"/>
       <use xlink:href="#DejaVuSans-30" x="63.623047"/>
      </g>
     </g>
    </g>
    <g id="xtick_12">
     <g id="line2d_12">
      <g>
       <use xlink:href="#m2a335995ee" x="193.02" y="23.878125" style="stroke: #000000; stroke-width: 0.8"/>
      </g>
     </g>
     <g id="text_12">
      <!-- 11 -->
      <g transform="translate(186.6575 14.798437) scale(0.1 -0.1)">
       <use xlink:href="#DejaVuSans-31"/>
       <use xlink:href="#DejaVuSans-31" x="63.623047"/>
      </g>
     </g>
    </g>
    <g id="xtick_13">
     <g id="line2d_13">
      <g>
       <use xlink:href="#m2a335995ee" x="207.9" y="23.878125" style="stroke: #000000; stroke-width: 0.8"/>
      </g>
     </g>
     <g id="text_13">
      <!-- 12 -->
      <g transform="translate(201.5375 14.798437) scale(0.1 -0.1)">
       <use xlink:href="#DejaVuSans-31"/>
       <use xlink:href="#DejaVuSans-32" x="63.623047"/>
      </g>
     </g>
    </g>
    <g id="xtick_14">
     <g id="line2d_14">
      <g>
       <use xlink:href="#m2a335995ee" x="222.78" y="23.878125" style="stroke: #000000; stroke-width: 0.8"/>
      </g>
     </g>
     <g id="text_14">
      <!-- 13 -->
      <g transform="translate(216.4175 14.798437) scale(0.1 -0.1)">
       <use xlink:href="#DejaVuSans-31"/>
       <use xlink:href="#DejaVuSans-33" x="63.623047"/>
      </g>
     </g>
    </g>
    <g id="xtick_15">
     <g id="line2d_15">
      <g>
       <use xlink:href="#m2a335995ee" x="237.66" y="23.878125" style="stroke: #000000; stroke-width: 0.8"/>
      </g>
     </g>
     <g id="text_15">
      <!-- 14 -->
      <g transform="translate(231.2975 14.798437) scale(0.1 -0.1)">
       <use xlink:href="#DejaVuSans-31"/>
       <use xlink:href="#DejaVuSans-34" x="63.623047"/>
      </g>
     </g>
    </g>
    <g id="xtick_16">
     <g id="line2d_16">
      <g>
       <use xlink:href="#m2a335995ee" x="252.54" y="23.878125" style="stroke: #000000; stroke-width: 0.8"/>
      </g>
     </g>
     <g id="text_16">
      <!-- 15 -->
      <g transform="translate(246.1775 14.798437) scale(0.1 -0.1)">
       <use xlink:href="#DejaVuSans-31"/>
       <use xlink:href="#DejaVuSans-35" x="63.623047"/>
      </g>
     </g>
    </g>
    <g id="xtick_17">
     <g id="line2d_17">
      <g>
       <use xlink:href="#m2a335995ee" x="267.42" y="23.878125" style="stroke: #000000; stroke-width: 0.8"/>
      </g>
     </g>
     <g id="text_17">
      <!-- 16 -->
      <g transform="translate(261.0575 14.798437) scale(0.1 -0.1)">
       <use xlink:href="#DejaVuSans-31"/>
       <use xlink:href="#DejaVuSans-36" x="63.623047"/>
      </g>
     </g>
    </g>
    <g id="xtick_18">
     <g id="line2d_18">
      <g>
       <use xlink:href="#m2a335995ee" x="282.3" y="23.878125" style="stroke: #000000; stroke-width: 0.8"/>
      </g>
     </g>
     <g id="text_18">
      <!-- 17 -->
      <g transform="translate(275.9375 14.798437) scale(0.1 -0.1)">
       <use xlink:href="#DejaVuSans-31"/>
       <use xlink:href="#DejaVuSans-37" x="63.623047"/>
      </g>
     </g>
    </g>
    <g id="xtick_19">
     <g id="line2d_19">
      <g>
       <use xlink:href="#m2a335995ee" x="297.18" y="23.878125" style="stroke: #000000; stroke-width: 0.8"/>
      </g>
     </g>
     <g id="text_19">
      <!-- 18 -->
      <g transform="translate(290.8175 14.798437) scale(0.1 -0.1)">
       <use xlink:href="#DejaVuSans-31"/>
       <use xlink:href="#DejaVuSans-38" x="63.623047"/>
      </g>
     </g>
    </g>
    <g id="xtick_20">
     <g id="line2d_20">
      <g>
       <use xlink:href="#m2a335995ee" x="312.06" y="23.878125" style="stroke: #000000; stroke-width: 0.8"/>
      </g>
     </g>
     <g id="text_20">
      <!-- 19 -->
      <g transform="translate(305.6975 14.798437) scale(0.1 -0.1)">
       <use xlink:href="#DejaVuSans-31"/>
       <use xlink:href="#DejaVuSans-39" x="63.623047"/>
      </g>
     </g>
    </g>
    <g id="xtick_21">
     <g id="line2d_21">
      <g>
       <use xlink:href="#m2a335995ee" x="326.94" y="23.878125" style="stroke: #000000; stroke-width: 0.8"/>
      </g>
     </g>
     <g id="text_21">
      <!-- 20 -->
      <g transform="translate(320.5775 14.798437) scale(0.1 -0.1)">
       <use xlink:href="#DejaVuSans-32"/>
       <use xlink:href="#DejaVuSans-30" x="63.623047"/>
      </g>
     </g>
    </g>
    <g id="xtick_22">
     <g id="line2d_22">
      <g>
       <use xlink:href="#m2a335995ee" x="341.82" y="23.878125" style="stroke: #000000; stroke-width: 0.8"/>
      </g>
     </g>
     <g id="text_22">
      <!-- 21 -->
      <g transform="translate(335.4575 14.798437) scale(0.1 -0.1)">
       <use xlink:href="#DejaVuSans-32"/>
       <use xlink:href="#DejaVuSans-31" x="63.623047"/>
      </g>
     </g>
    </g>
    <g id="xtick_23">
     <g id="line2d_23">
      <g>
       <use xlink:href="#m2a335995ee" x="356.7" y="23.878125" style="stroke: #000000; stroke-width: 0.8"/>
      </g>
     </g>
     <g id="text_23">
      <!-- 22 -->
      <g transform="translate(350.3375 14.798437) scale(0.1 -0.1)">
       <use xlink:href="#DejaVuSans-32"/>
       <use xlink:href="#DejaVuSans-32" x="63.623047"/>
      </g>
     </g>
    </g>
    <g id="xtick_24">
     <g id="line2d_24">
      <g>
       <use xlink:href="#m2a335995ee" x="371.58" y="23.878125" style="stroke: #000000; stroke-width: 0.8"/>
      </g>
     </g>
     <g id="text_24">
      <!-- 23 -->
      <g transform="translate(365.2175 14.798437) scale(0.1 -0.1)">
       <use xlink:href="#DejaVuSans-32"/>
       <use xlink:href="#DejaVuSans-33" x="63.623047"/>
      </g>
     </g>
    </g>
   </g>
   <g id="matplotlib.axis_2">
    <g id="ytick_1">
     <g id="line2d_25">
      <defs>
       <path id="m2a97be57e9" d="M 0 0 
L -3.5 0 
" style="stroke: #000000; stroke-width: 0.8"/>
      </defs>
      <g>
       <use xlink:href="#m2a97be57e9" x="21.9" y="50.489325" style="stroke: #000000; stroke-width: 0.8"/>
      </g>
     </g>
     <g id="text_25">
      <!-- A -->
      <g transform="translate(8.059375 54.288544) scale(0.1 -0.1)">
       <defs>
        <path id="DejaVuSans-41" d="M 2188 4044 
L 1331 1722 
L 3047 1722 
L 2188 4044 
z
M 1831 4666 
L 2547 4666 
L 4325 0 
L 3669 0 
L 3244 1197 
L 1141 1197 
L 716 0 
L 50 0 
L 1831 4666 
z
" transform="scale(0.015625)"/>
       </defs>
       <use xlink:href="#DejaVuSans-41"/>
      </g>
     </g>
    </g>
    <g id="ytick_2">
     <g id="line2d_26">
      <g>
       <use xlink:href="#m2a97be57e9" x="21.9" y="103.711725" style="stroke: #000000; stroke-width: 0.8"/>
      </g>
     </g>
     <g id="text_26">
      <!-- B -->
      <g transform="translate(8.039062 107.510944) scale(0.1 -0.1)">
       <defs>
        <path id="DejaVuSans-42" d="M 1259 2228 
L 1259 519 
L 2272 519 
Q 2781 519 3026 730 
Q 3272 941 3272 1375 
Q 3272 1813 3026 2020 
Q 2781 2228 2272 2228 
L 1259 2228 
z
M 1259 4147 
L 1259 2741 
L 2194 2741 
Q 2656 2741 2882 2914 
Q 3109 3088 3109 3444 
Q 3109 3797 2882 3972 
Q 2656 4147 2194 4147 
L 1259 4147 
z
M 628 4666 
L 2241 4666 
Q 2963 4666 3353 4366 
Q 3744 4066 3744 3513 
Q 3744 3084 3544 2831 
Q 3344 2578 2956 2516 
Q 3422 2416 3680 2098 
Q 3938 1781 3938 1306 
Q 3938 681 3513 340 
Q 3088 0 2303 0 
L 628 0 
L 628 4666 
z
" transform="scale(0.015625)"/>
       </defs>
       <use xlink:href="#DejaVuSans-42"/>
      </g>
     </g>
    </g>
    <g id="ytick_3">
     <g id="line2d_27">
      <g>
       <use xlink:href="#m2a97be57e9" x="21.9" y="156.934125" style="stroke: #000000; stroke-width: 0.8"/>
      </g>
     </g>
     <g id="text_27">
      <!-- C -->
      <g transform="translate(7.917187 160.733344) scale(0.1 -0.1)">
       <defs>
        <path id="DejaVuSans-43" d="M 4122 4306 
L 4122 3641 
Q 3803 3938 3442 4084 
Q 3081 4231 2675 4231 
Q 1875 4231 1450 3742 
Q 1025 3253 1025 2328 
Q 1025 1406 1450 917 
Q 1875 428 2675 428 
Q 3081 428 3442 575 
Q 3803 722 4122 1019 
L 4122 359 
Q 3791 134 3420 21 
Q 3050 -91 2638 -91 
Q 1578 -91 968 557 
Q 359 1206 359 2328 
Q 359 3453 968 4101 
Q 1578 4750 2638 4750 
Q 3056 4750 3426 4639 
Q 3797 4528 4122 4306 
z
" transform="scale(0.015625)"/>
       </defs>
       <use xlink:href="#DejaVuSans-43"/>
      </g>
     </g>
    </g>
    <g id="ytick_4">
     <g id="line2d_28">
      <g>
       <use xlink:href="#m2a97be57e9" x="21.9" y="210.156525" style="stroke: #000000; stroke-width: 0.8"/>
      </g>
     </g>
     <g id="text_28">
      <!-- D -->
      <g transform="translate(7.2 213.955744) scale(0.1 -0.1)">
       <defs>
        <path id="DejaVuSans-44" d="M 1259 4147 
L 1259 519 
L 2022 519 
Q 2988 519 3436 956 
Q 3884 1394 3884 2338 
Q 3884 3275 3436 3711 
Q 2988 4147 2022 4147 
L 1259 4147 
z
M 628 4666 
L 1925 4666 
Q 3281 4666 3915 4102 
Q 4550 3538 4550 2338 
Q 4550 1131 3912 565 
Q 3275 0 1925 0 
L 628 0 
L 628 4666 
z
" transform="scale(0.015625)"/>
       </defs>
       <use xlink:href="#DejaVuSans-44"/>
      </g>
     </g>
    </g>
    <g id="ytick_5">
     <g id="line2d_29">
      <g>
       <use xlink:href="#m2a97be57e9" x="21.9" y="263.378925" style="stroke: #000000; stroke-width: 0.8"/>
      </g>
     </g>
     <g id="text_29">
      <!-- E -->
      <g transform="translate(8.58125 267.178144) scale(0.1 -0.1)">
       <defs>
        <path id="DejaVuSans-45" d="M 628 4666 
L 3578 4666 
L 3578 4134 
L 1259 4134 
L 1259 2753 
L 3481 2753 
L 3481 2222 
L 1259 2222 
L 1259 531 
L 3634 531 
L 3634 0 
L 628 0 
L 628 4666 
z
" transform="scale(0.015625)"/>
       </defs>
       <use xlink:href="#DejaVuSans-45"/>
      </g>
     </g>
    </g>
   </g>
   <g id="patch_3">
    <path d="M 21.9 289.990125 
L 21.9 23.878125 
" style="fill: none; stroke: #000000; stroke-width: 0.8; stroke-linejoin: miter; stroke-linecap: square"/>
   </g>
   <g id="patch_4">
    <path d="M 379.02 289.990125 
L 379.02 23.878125 
" style="fill: none; stroke: #000000; stroke-width: 0.8; stroke-linejoin: miter; stroke-linecap: square"/>
   </g>
   <g id="patch_5">
    <path d="M 21.9 289.990125 
L 379.02 289.990125 
" style="fill: none; stroke: #000000; stroke-width: 0.8; stroke-linejoin: miter; stroke-linecap: square"/>
   </g>
   <g id="patch_6">
    <path d="M 21.9 23.878125 
L 379.02 23.878125 
" style="fill: none; stroke: #000000; stroke-width: 0.8; stroke-linejoin: miter; stroke-linecap: square"/>
   </g>
  </g>
 </g>
 <defs>
  <clipPath id="pc6334a6085">
   <rect x="21.9" y="23.878125" width="357.12" height="266.112"/>
  </clipPath>
 </defs>
</svg>