<?xml version="1.0" encoding="utf-8" standalone="no"?>
<!DOCTYPE svg PUBLIC "-//W3C//DTD SVG 1.1//EN"
  "http://www.w3.org/Graphics/SVG/1.1/DTD/svg11.dtd">
<svg xmlns:xlink="http://www.w3.org/1999/xlink" width="452.137687pt" height="339.000215pt" viewBox="0 0 452.137687 339.000215" xmlns="http://www.w3.org/2000/svg" version="1.1">
 <metadata>
  <rdf:RDF xmlns:dc="http://purl.org/dc/elements/1.1/" xmlns:cc="http://creativecommons.org/ns#" xmlns:rdf="http://www.w3.org/1999/02/22-rdf-syntax-ns#">
   <cc:Work>
    <dc:type rdf:resource="http://purl.org/dc/dcmitype/StillImage"/>
    <dc:date>2023-08-26T14:23:44.429423</dc:date>
    <dc:format>image/svg+xml</dc:format>
    <dc:creator>
     <cc:Agent>
      <dc:title>Matplotlib v3.7.2, https://matplotlib.org/</dc:title>
     </cc:Agent>
    </dc:creator>
   </cc:Work>
  </rdf:RDF>
 </metadata>
 <defs>
  <style type="text/css">*{stroke-linejoin: round; stroke-linecap: butt}</style>
 </defs>
 <g id="figure_1">
  <g id="patch_1">
   <path d="M 0 339.000215 
L 452.137687 339.000215 
L 452.137687 0 
L 0 0 
z
" style="fill: #ffffff"/>
  </g>
  <g id="axes_1">
   <g id="patch_2">
    <path d="M 54.789688 64.584679 
L 444.937687 64.584679 
L 444.937687 8.447209 
L 54.789688 8.447209 
z
" style="fill: #ffffff"/>
   </g>
   <g id="matplotlib.axis_1"/>
   <g id="matplotlib.axis_2">
    <g id="ytick_1">
     <g id="line2d_1">
      <defs>
       <path id="mef5e5f1053" d="M 0 0 
L -3.5 0 
" style="stroke: #000000; stroke-width: 0.8"/>
      </defs>
      <g>
       <use xlink:href="#mef5e5f1053" x="54.789688" y="62.031657" style="stroke: #000000; stroke-width: 0.8"/>
      </g>
     </g>
     <g id="text_1">
      <!-- −1 -->
      <g transform="translate(33.0475 65.830875) scale(0.1 -0.1)">
       <defs>
        <path id="DejaVuSans-2212" d="M 678 2272 
L 4684 2272 
L 4684 1741 
L 678 1741 
L 678 2272 
z
" transform="scale(0.015625)"/>
        <path id="DejaVuSans-31" d="M 794 531 
L 1825 531 
L 1825 4091 
L 703 3866 
L 703 4441 
L 1819 4666 
L 2450 4666 
L 2450 531 
L 3481 531 
L 3481 0 
L 794 0 
L 794 531 
z
" transform="scale(0.015625)"/>
       </defs>
       <use xlink:href="#DejaVuSans-2212"/>
       <use xlink:href="#DejaVuSans-31" x="83.789062"/>
      </g>
     </g>
    </g>
    <g id="ytick_2">
     <g id="line2d_2">
      <g>
       <use xlink:href="#mef5e5f1053" x="54.789688" y="36.515438" style="stroke: #000000; stroke-width: 0.8"/>
      </g>
     </g>
     <g id="text_2">
      <!-- 0 -->
      <g transform="translate(41.427188 40.314656) scale(0.1 -0.1)">
       <defs>
        <path id="DejaVuSans-30" d="M 2034 4250 
Q 1547 4250 1301 3770 
Q 1056 3291 1056 2328 
Q 1056 1369 1301 889 
Q 1547 409 2034 409 
Q 2525 409 2770 889 
Q 3016 1369 3016 2328 
Q 3016 3291 2770 3770 
Q 2525 4250 2034 4250 
z
M 2034 4750 
Q 2819 4750 3233 4129 
Q 3647 3509 3647 2328 
Q 3647 1150 3233 529 
Q 2819 -91 2034 -91 
Q 1250 -91 836 529 
Q 422 1150 422 2328 
Q 422 3509 836 4129 
Q 1250 4750 2034 4750 
z
" transform="scale(0.015625)"/>
       </defs>
       <use xlink:href="#DejaVuSans-30"/>
      </g>
     </g>
    </g>
    <g id="ytick_3">
     <g id="line2d_3">
      <g>
       <use xlink:href="#mef5e5f1053" x="54.789688" y="10.999219" style="stroke: #000000; stroke-width: 0.8"/>
      </g>
     </g>
     <g id="text_3">
      <!-- 1 -->
      <g transform="translate(41.427188 14.798437) scale(0.1 -0.1)">
       <use xlink:href="#DejaVuSans-31"/>
      </g>
     </g>
    </g>
    <g id="text_4">
     <!-- $(u_t)_1$ -->
     <g transform="translate(25.72 54.115944) rotate(-90) scale(0.16 -0.16)">
      <defs>
       <path id="DejaVuSans-28" d="M 1984 4856 
Q 1566 4138 1362 3434 
Q 1159 2731 1159 2009 
Q 1159 1288 1364 580 
Q 1569 -128 1984 -844 
L 1484 -844 
Q 1016 -109 783 600 
Q 550 1309 550 2009 
Q 550 2706 781 3412 
Q 1013 4119 1484 4856 
L 1984 4856 
z
" transform="scale(0.015625)"/>
       <path id="DejaVuSans-Oblique-75" d="M 428 1388 
L 838 3500 
L 1416 3500 
L 1006 1409 
Q 975 1256 961 1147 
Q 947 1038 947 966 
Q 947 700 1109 554 
Q 1272 409 1569 409 
Q 2031 409 2368 721 
Q 2706 1034 2809 1563 
L 3194 3500 
L 3769 3500 
L 3091 0 
L 2516 0 
L 2631 550 
Q 2388 244 2052 76 
Q 1716 -91 1338 -91 
Q 878 -91 622 161 
Q 366 413 366 863 
Q 366 956 381 1097 
Q 397 1238 428 1388 
z
" transform="scale(0.015625)"/>
       <path id="DejaVuSans-Oblique-74" d="M 2706 3500 
L 2619 3053 
L 1472 3053 
L 1100 1153 
Q 1081 1047 1072 975 
Q 1063 903 1063 863 
Q 1063 663 1183 572 
Q 1303 481 1569 481 
L 2150 481 
L 2053 0 
L 1503 0 
Q 991 0 739 200 
Q 488 400 488 806 
Q 488 878 497 964 
Q 506 1050 525 1153 
L 897 3053 
L 409 3053 
L 500 3500 
L 978 3500 
L 1172 4494 
L 1747 4494 
L 1556 3500 
L 2706 3500 
z
" transform="scale(0.015625)"/>
       <path id="DejaVuSans-29" d="M 513 4856 
L 1013 4856 
Q 1481 4119 1714 3412 
Q 1947 2706 1947 2009 
Q 1947 1309 1714 600 
Q 1481 -109 1013 -844 
L 513 -844 
Q 928 -128 1133 580 
Q 1338 1288 1338 2009 
Q 1338 2731 1133 3434 
Q 928 4138 513 4856 
z
" transform="scale(0.015625)"/>
      </defs>
      <use xlink:href="#DejaVuSans-28" transform="translate(0 0.125)"/>
      <use xlink:href="#DejaVuSans-Oblique-75" transform="translate(39.013672 0.125)"/>
      <use xlink:href="#DejaVuSans-Oblique-74" transform="translate(102.392578 -16.28125) scale(0.7)"/>
      <use xlink:href="#DejaVuSans-29" transform="translate(132.573242 0.125)"/>
      <use xlink:href="#DejaVuSans-31" transform="translate(172.543945 -16.28125) scale(0.7)"/>
     </g>
    </g>
   </g>
   <g id="line2d_4">
    <path d="M 72.523687 62.032976 
L 79.762055 62.032782 
L 87.000422 62.032573 
L 94.23879 62.032356 
L 101.477157 15.394265 
L 108.715524 10.998912 
L 115.953892 10.999042 
L 123.192259 10.999179 
L 130.430626 22.372724 
L 137.668994 30.947079 
L 144.907361 33.499101 
L 152.145728 33.75467 
L 159.384096 33.248763 
L 166.622463 32.615242 
L 173.86083 32.100226 
L 181.099198 31.779959 
L 188.337565 31.657695 
L 195.575932 31.707752 
L 202.8143 31.895513 
L 210.052667 32.186248 
L 217.291034 32.548714 
L 224.529402 32.956335 
L 231.767769 33.387294 
L 239.006136 33.824172 
L 246.244504 34.253421 
L 253.482871 34.664813 
L 260.721239 35.050912 
L 267.959606 35.406601 
L 275.197973 35.728662 
L 282.436341 36.015403 
L 289.674708 36.266341 
L 296.913075 36.481916 
L 304.151443 36.663244 
L 311.38981 36.8119 
L 318.628177 36.929719 
L 325.866545 37.018627 
L 333.104912 37.0805 
L 340.343279 37.117063 
L 347.581647 37.129864 
L 354.820014 37.120415 
L 362.058381 37.090649 
L 369.296749 37.044068 
L 376.535116 36.98831 
L 383.773483 36.940684 
L 391.011851 36.939872 
L 398.250218 37.070628 
L 405.488585 37.517148 
L 412.726953 38.697541 
L 419.96532 41.870683 
L 427.203687 55.2138 
" clip-path="url(#p19a7f5c206)" style="fill: none; stroke: #1f77b4; stroke-width: 1.5; stroke-linecap: square"/>
   </g>
   <g id="patch_3">
    <path d="M 54.789688 64.584679 
L 54.789688 8.447209 
" style="fill: none; stroke: #000000; stroke-width: 0.8; stroke-linejoin: miter; stroke-linecap: square"/>
   </g>
   <g id="patch_4">
    <path d="M 444.937687 64.584679 
L 444.937687 8.447209 
" style="fill: none; stroke: #000000; stroke-width: 0.8; stroke-linejoin: miter; stroke-linecap: square"/>
   </g>
   <g id="patch_5">
    <path d="M 54.789687 64.584679 
L 444.937687 64.584679 
" style="fill: none; stroke: #000000; stroke-width: 0.8; stroke-linejoin: miter; stroke-linecap: square"/>
   </g>
   <g id="patch_6">
    <path d="M 54.789687 8.447209 
L 444.937687 8.447209 
" style="fill: none; stroke: #000000; stroke-width: 0.8; stroke-linejoin: miter; stroke-linecap: square"/>
   </g>
  </g>
  <g id="axes_2">
   <g id="patch_7">
    <path d="M 54.789688 141.60215 
L 444.937687 141.60215 
L 444.937687 85.464679 
L 54.789688 85.464679 
z
" style="fill: #ffffff"/>
   </g>
   <g id="matplotlib.axis_3"/>
   <g id="matplotlib.axis_4">
    <g id="ytick_4">
     <g id="line2d_5">
      <g>
       <use xlink:href="#mef5e5f1053" x="54.789688" y="139.047811" style="stroke: #000000; stroke-width: 0.8"/>
      </g>
     </g>
     <g id="text_5">
      <!-- −1 -->
      <g transform="translate(33.0475 142.84703) scale(0.1 -0.1)">
       <use xlink:href="#DejaVuSans-2212"/>
       <use xlink:href="#DejaVuSans-31" x="83.789062"/>
      </g>
     </g>
    </g>
    <g id="ytick_5">
     <g id="line2d_6">
      <g>
       <use xlink:href="#mef5e5f1053" x="54.789688" y="112.727328" style="stroke: #000000; stroke-width: 0.8"/>
      </g>
     </g>
     <g id="text_6">
      <!-- 0 -->
      <g transform="translate(41.427188 116.526546) scale(0.1 -0.1)">
       <use xlink:href="#DejaVuSans-30"/>
      </g>
     </g>
    </g>
    <g id="ytick_6">
     <g id="line2d_7">
      <g>
       <use xlink:href="#mef5e5f1053" x="54.789688" y="86.406844" style="stroke: #000000; stroke-width: 0.8"/>
      </g>
     </g>
     <g id="text_7">
      <!-- 1 -->
      <g transform="translate(41.427188 90.206063) scale(0.1 -0.1)">
       <use xlink:href="#DejaVuSans-31"/>
      </g>
     </g>
    </g>
    <g id="text_8">
     <!-- $(u_t)_2$ -->
     <g transform="translate(25.72 131.133415) rotate(-90) scale(0.16 -0.16)">
      <defs>
       <path id="DejaVuSans-32" d="M 1228 531 
L 3431 531 
L 3431 0 
L 469 0 
L 469 531 
Q 828 903 1448 1529 
Q 2069 2156 2228 2338 
Q 2531 2678 2651 2914 
Q 2772 3150 2772 3378 
Q 2772 3750 2511 3984 
Q 2250 4219 1831 4219 
Q 1534 4219 1204 4116 
Q 875 4013 500 3803 
L 500 4441 
Q 881 4594 1212 4672 
Q 1544 4750 1819 4750 
Q 2544 4750 2975 4387 
Q 3406 4025 3406 3419 
Q 3406 3131 3298 2873 
Q 3191 2616 2906 2266 
Q 2828 2175 2409 1742 
Q 1991 1309 1228 531 
z
" transform="scale(0.015625)"/>
      </defs>
      <use xlink:href="#DejaVuSans-28" transform="translate(0 0.125)"/>
      <use xlink:href="#DejaVuSans-Oblique-75" transform="translate(39.013672 0.125)"/>
      <use xlink:href="#DejaVuSans-Oblique-74" transform="translate(102.392578 -16.28125) scale(0.7)"/>
      <use xlink:href="#DejaVuSans-29" transform="translate(132.573242 0.125)"/>
      <use xlink:href="#DejaVuSans-32" transform="translate(172.543945 -16.28125) scale(0.7)"/>
     </g>
    </g>
   </g>
   <g id="line2d_8">
    <path d="M 72.523687 139.050446 
L 79.762055 139.05001 
L 87.000422 139.049582 
L 94.23879 139.04917 
L 101.477157 139.048771 
L 108.715524 139.048452 
L 115.953892 139.04816 
L 123.192259 110.258449 
L 130.430626 91.716741 
L 137.668994 88.016383 
L 144.907361 88.72522 
L 152.145728 91.004843 
L 159.384096 93.712869 
L 166.622463 96.363006 
L 173.86083 98.763282 
L 181.099198 100.856003 
L 188.337565 102.64311 
L 195.575932 104.151084 
L 202.8143 105.41458 
L 210.052667 106.469007 
L 217.291034 107.347352 
L 224.529402 108.079003 
L 231.767769 108.689502 
L 239.006136 109.200692 
L 246.244504 109.631032 
L 253.482871 109.995953 
L 260.721239 110.308209 
L 267.959606 110.57821 
L 275.197973 110.814313 
L 282.436341 111.023084 
L 289.674708 111.209528 
L 296.913075 111.377287 
L 304.151443 111.528816 
L 311.38981 111.665522 
L 318.628177 111.787884 
L 325.866545 111.895523 
L 333.104912 111.987226 
L 340.343279 112.060861 
L 347.581647 112.1131 
L 354.820014 112.138761 
L 362.058381 112.129377 
L 369.296749 112.07018 
L 376.535116 111.93384 
L 383.773483 111.667528 
L 391.011851 111.166301 
L 398.250218 110.218657 
L 405.488585 108.399946 
L 412.726953 104.934386 
L 419.96532 99.634482 
L 427.203687 113.260224 
" clip-path="url(#p91d6f778a5)" style="fill: none; stroke: #1f77b4; stroke-width: 1.5; stroke-linecap: square"/>
   </g>
   <g id="patch_8">
    <path d="M 54.789688 141.60215 
L 54.789688 85.464679 
" style="fill: none; stroke: #000000; stroke-width: 0.8; stroke-linejoin: miter; stroke-linecap: square"/>
   </g>
   <g id="patch_9">
    <path d="M 444.937687 141.60215 
L 444.937687 85.464679 
" style="fill: none; stroke: #000000; stroke-width: 0.8; stroke-linejoin: miter; stroke-linecap: square"/>
   </g>
   <g id="patch_10">
    <path d="M 54.789687 141.60215 
L 444.937687 141.60215 
" style="fill: none; stroke: #000000; stroke-width: 0.8; stroke-linejoin: miter; stroke-linecap: square"/>
   </g>
   <g id="patch_11">
    <path d="M 54.789687 85.464679 
L 444.937687 85.464679 
" style="fill: none; stroke: #000000; stroke-width: 0.8; stroke-linejoin: miter; stroke-linecap: square"/>
   </g>
  </g>
  <g id="axes_3">
   <g id="patch_12">
    <path d="M 54.789688 218.61962 
L 444.937687 218.61962 
L 444.937687 162.48215 
L 54.789688 162.48215 
z
" style="fill: #ffffff"/>
   </g>
   <g id="matplotlib.axis_5"/>
   <g id="matplotlib.axis_6">
    <g id="ytick_7">
     <g id="line2d_9">
      <g>
       <use xlink:href="#mef5e5f1053" x="54.789688" y="218.61962" style="stroke: #000000; stroke-width: 0.8"/>
      </g>
     </g>
     <g id="text_9">
      <!-- −10 -->
      <g transform="translate(26.685 222.418839) scale(0.1 -0.1)">
       <use xlink:href="#DejaVuSans-2212"/>
       <use xlink:href="#DejaVuSans-31" x="83.789062"/>
       <use xlink:href="#DejaVuSans-30" x="147.412109"/>
      </g>
     </g>
    </g>
    <g id="ytick_8">
     <g id="line2d_10">
      <g>
       <use xlink:href="#mef5e5f1053" x="54.789688" y="190.550885" style="stroke: #000000; stroke-width: 0.8"/>
      </g>
     </g>
     <g id="text_10">
      <!-- 0 -->
      <g transform="translate(41.427188 194.350104) scale(0.1 -0.1)">
       <use xlink:href="#DejaVuSans-30"/>
      </g>
     </g>
    </g>
    <g id="ytick_9">
     <g id="line2d_11">
      <g>
       <use xlink:href="#mef5e5f1053" x="54.789688" y="162.48215" style="stroke: #000000; stroke-width: 0.8"/>
      </g>
     </g>
     <g id="text_11">
      <!-- 10 -->
      <g transform="translate(35.064688 166.281368) scale(0.1 -0.1)">
       <use xlink:href="#DejaVuSans-31"/>
       <use xlink:href="#DejaVuSans-30" x="63.623047"/>
      </g>
     </g>
    </g>
    <g id="text_12">
     <!-- $(x_t)_1$ -->
     <g transform="translate(19.3575 207.830885) rotate(-90) scale(0.16 -0.16)">
      <defs>
       <path id="DejaVuSans-Oblique-78" d="M 3841 3500 
L 2234 1784 
L 3219 0 
L 2559 0 
L 1819 1388 
L 531 0 
L -166 0 
L 1556 1844 
L 641 3500 
L 1300 3500 
L 1972 2234 
L 3144 3500 
L 3841 3500 
z
" transform="scale(0.015625)"/>
      </defs>
      <use xlink:href="#DejaVuSans-28" transform="translate(0 0.125)"/>
      <use xlink:href="#DejaVuSans-Oblique-78" transform="translate(39.013672 0.125)"/>
      <use xlink:href="#DejaVuSans-Oblique-74" transform="translate(98.193359 -16.28125) scale(0.7)"/>
      <use xlink:href="#DejaVuSans-29" transform="translate(128.374023 0.125)"/>
      <use xlink:href="#DejaVuSans-31" transform="translate(168.344727 -16.28125) scale(0.7)"/>
     </g>
    </g>
   </g>
   <g id="line2d_12">
    <path d="M 72.523688 196.903384 
L 79.617288 197.444671 
L 86.710888 195.920116 
L 93.804488 193.535878 
L 100.898088 190.645083 
L 107.991688 187.081897 
L 115.085288 183.423287 
L 122.178888 179.574167 
L 129.272488 177.42712 
L 136.366087 177.32185 
L 143.459688 178.320447 
L 150.553288 179.74774 
L 157.646887 181.281588 
L 164.740488 182.774753 
L 171.834088 184.163886 
L 178.927687 185.425359 
L 186.021287 186.554004 
L 193.114888 187.552939 
L 200.208487 188.428736 
L 207.302087 189.18918 
L 214.395688 189.842242 
L 221.489287 190.395653 
L 228.582887 190.856748 
L 235.676488 191.232422 
L 242.770087 191.529154 
L 249.863687 191.753039 
L 256.957288 191.909831 
L 264.050887 192.004981 
L 271.144487 192.043676 
L 278.238088 192.030872 
L 285.331687 191.971321 
L 292.425287 191.869606 
L 299.518888 191.730163 
L 306.612487 191.557314 
L 313.706087 191.355294 
L 320.799688 191.128281 
L 327.893287 190.88044 
L 334.986887 190.61597 
L 342.080487 190.339169 
L 349.174087 190.054542 
L 356.267687 189.76698 
L 363.361287 189.482073 
L 370.454887 189.206727 
L 377.548487 188.95036 
L 384.642087 188.727309 
L 391.735687 188.561708 
L 398.829287 188.497425 
L 405.922887 188.618006 
L 413.016487 189.081616 
L 420.110087 190.102447 
L 427.203687 190.550885 
" clip-path="url(#pd1f2690b14)" style="fill: none; stroke: #1f77b4; stroke-width: 1.5; stroke-linecap: square"/>
   </g>
   <g id="patch_13">
    <path d="M 54.789688 218.61962 
L 54.789688 162.48215 
" style="fill: none; stroke: #000000; stroke-width: 0.8; stroke-linejoin: miter; stroke-linecap: square"/>
   </g>
   <g id="patch_14">
    <path d="M 444.937687 218.61962 
L 444.937687 162.48215 
" style="fill: none; stroke: #000000; stroke-width: 0.8; stroke-linejoin: miter; stroke-linecap: square"/>
   </g>
   <g id="patch_15">
    <path d="M 54.789688 218.61962 
L 444.937687 218.61962 
" style="fill: none; stroke: #000000; stroke-width: 0.8; stroke-linejoin: miter; stroke-linecap: square"/>
   </g>
   <g id="patch_16">
    <path d="M 54.789688 162.48215 
L 444.937687 162.48215 
" style="fill: none; stroke: #000000; stroke-width: 0.8; stroke-linejoin: miter; stroke-linecap: square"/>
   </g>
  </g>
  <g id="axes_4">
   <g id="patch_17">
    <path d="M 54.789688 295.63709 
L 444.937687 295.63709 
L 444.937687 239.49962 
L 54.789688 239.49962 
z
" style="fill: #ffffff"/>
   </g>
   <g id="matplotlib.axis_7">
    <g id="xtick_1">
     <g id="line2d_13">
      <defs>
       <path id="m02a63c022f" d="M 0 0 
L 0 3.5 
" style="stroke: #000000; stroke-width: 0.8"/>
      </defs>
      <g>
       <use xlink:href="#m02a63c022f" x="72.523688" y="295.63709" style="stroke: #000000; stroke-width: 0.8"/>
      </g>
     </g>
     <g id="text_13">
      <!-- 0 -->
      <g transform="translate(69.342438 310.235528) scale(0.1 -0.1)">
       <use xlink:href="#DejaVuSans-30"/>
      </g>
     </g>
    </g>
    <g id="xtick_2">
     <g id="line2d_14">
      <g>
       <use xlink:href="#m02a63c022f" x="143.459688" y="295.63709" style="stroke: #000000; stroke-width: 0.8"/>
      </g>
     </g>
     <g id="text_14">
      <!-- 10 -->
      <g transform="translate(137.097187 310.235528) scale(0.1 -0.1)">
       <use xlink:href="#DejaVuSans-31"/>
       <use xlink:href="#DejaVuSans-30" x="63.623047"/>
      </g>
     </g>
    </g>
    <g id="xtick_3">
     <g id="line2d_15">
      <g>
       <use xlink:href="#m02a63c022f" x="214.395688" y="295.63709" style="stroke: #000000; stroke-width: 0.8"/>
      </g>
     </g>
     <g id="text_15">
      <!-- 20 -->
      <g transform="translate(208.033187 310.235528) scale(0.1 -0.1)">
       <use xlink:href="#DejaVuSans-32"/>
       <use xlink:href="#DejaVuSans-30" x="63.623047"/>
      </g>
     </g>
    </g>
    <g id="xtick_4">
     <g id="line2d_16">
      <g>
       <use xlink:href="#m02a63c022f" x="285.331687" y="295.63709" style="stroke: #000000; stroke-width: 0.8"/>
      </g>
     </g>
     <g id="text_16">
      <!-- 30 -->
      <g transform="translate(278.969187 310.235528) scale(0.1 -0.1)">
       <defs>
        <path id="DejaVuSans-33" d="M 2597 2516 
Q 3050 2419 3304 2112 
Q 3559 1806 3559 1356 
Q 3559 666 3084 287 
Q 2609 -91 1734 -91 
Q 1441 -91 1130 -33 
Q 819 25 488 141 
L 488 750 
Q 750 597 1062 519 
Q 1375 441 1716 441 
Q 2309 441 2620 675 
Q 2931 909 2931 1356 
Q 2931 1769 2642 2001 
Q 2353 2234 1838 2234 
L 1294 2234 
L 1294 2753 
L 1863 2753 
Q 2328 2753 2575 2939 
Q 2822 3125 2822 3475 
Q 2822 3834 2567 4026 
Q 2313 4219 1838 4219 
Q 1578 4219 1281 4162 
Q 984 4106 628 3988 
L 628 4550 
Q 988 4650 1302 4700 
Q 1616 4750 1894 4750 
Q 2613 4750 3031 4423 
Q 3450 4097 3450 3541 
Q 3450 3153 3228 2886 
Q 3006 2619 2597 2516 
z
" transform="scale(0.015625)"/>
       </defs>
       <use xlink:href="#DejaVuSans-33"/>
       <use xlink:href="#DejaVuSans-30" x="63.623047"/>
      </g>
     </g>
    </g>
    <g id="xtick_5">
     <g id="line2d_17">
      <g>
       <use xlink:href="#m02a63c022f" x="356.267687" y="295.63709" style="stroke: #000000; stroke-width: 0.8"/>
      </g>
     </g>
     <g id="text_17">
      <!-- 40 -->
      <g transform="translate(349.905187 310.235528) scale(0.1 -0.1)">
       <defs>
        <path id="DejaVuSans-34" d="M 2419 4116 
L 825 1625 
L 2419 1625 
L 2419 4116 
z
M 2253 4666 
L 3047 4666 
L 3047 1625 
L 3713 1625 
L 3713 1100 
L 3047 1100 
L 3047 0 
L 2419 0 
L 2419 1100 
L 313 1100 
L 313 1709 
L 2253 4666 
z
" transform="scale(0.015625)"/>
       </defs>
       <use xlink:href="#DejaVuSans-34"/>
       <use xlink:href="#DejaVuSans-30" x="63.623047"/>
      </g>
     </g>
    </g>
    <g id="xtick_6">
     <g id="line2d_18">
      <g>
       <use xlink:href="#m02a63c022f" x="427.203687" y="295.63709" style="stroke: #000000; stroke-width: 0.8"/>
      </g>
     </g>
     <g id="text_18">
      <!-- 50 -->
      <g transform="translate(420.841187 310.235528) scale(0.1 -0.1)">
       <defs>
        <path id="DejaVuSans-35" d="M 691 4666 
L 3169 4666 
L 3169 4134 
L 1269 4134 
L 1269 2991 
Q 1406 3038 1543 3061 
Q 1681 3084 1819 3084 
Q 2600 3084 3056 2656 
Q 3513 2228 3513 1497 
Q 3513 744 3044 326 
Q 2575 -91 1722 -91 
Q 1428 -91 1123 -41 
Q 819 9 494 109 
L 494 744 
Q 775 591 1075 516 
Q 1375 441 1709 441 
Q 2250 441 2565 725 
Q 2881 1009 2881 1497 
Q 2881 1984 2565 2268 
Q 2250 2553 1709 2553 
Q 1456 2553 1204 2497 
Q 953 2441 691 2322 
L 691 4666 
z
" transform="scale(0.015625)"/>
       </defs>
       <use xlink:href="#DejaVuSans-35"/>
       <use xlink:href="#DejaVuSans-30" x="63.623047"/>
      </g>
     </g>
    </g>
    <g id="text_19">
     <!-- $t$ -->
     <g transform="translate(246.663688 328.472715) scale(0.16 -0.16)">
      <use xlink:href="#DejaVuSans-Oblique-74" transform="translate(0 0.78125)"/>
     </g>
    </g>
   </g>
   <g id="matplotlib.axis_8">
    <g id="ytick_10">
     <g id="line2d_19">
      <g>
       <use xlink:href="#mef5e5f1053" x="54.789688" y="295.63709" style="stroke: #000000; stroke-width: 0.8"/>
      </g>
     </g>
     <g id="text_20">
      <!-- −25 -->
      <g transform="translate(26.685 299.436309) scale(0.1 -0.1)">
       <use xlink:href="#DejaVuSans-2212"/>
       <use xlink:href="#DejaVuSans-32" x="83.789062"/>
       <use xlink:href="#DejaVuSans-35" x="147.412109"/>
      </g>
     </g>
    </g>
    <g id="ytick_11">
     <g id="line2d_20">
      <g>
       <use xlink:href="#mef5e5f1053" x="54.789688" y="267.568355" style="stroke: #000000; stroke-width: 0.8"/>
      </g>
     </g>
     <g id="text_21">
      <!-- 0 -->
      <g transform="translate(41.427188 271.367574) scale(0.1 -0.1)">
       <use xlink:href="#DejaVuSans-30"/>
      </g>
     </g>
    </g>
    <g id="ytick_12">
     <g id="line2d_21">
      <g>
       <use xlink:href="#mef5e5f1053" x="54.789688" y="239.49962" style="stroke: #000000; stroke-width: 0.8"/>
      </g>
     </g>
     <g id="text_22">
      <!-- 25 -->
      <g transform="translate(35.064688 243.298839) scale(0.1 -0.1)">
       <use xlink:href="#DejaVuSans-32"/>
       <use xlink:href="#DejaVuSans-35" x="63.623047"/>
      </g>
     </g>
    </g>
    <g id="text_23">
     <!-- $(x_t)_2$ -->
     <g transform="translate(19.3575 284.848355) rotate(-90) scale(0.16 -0.16)">
      <use xlink:href="#DejaVuSans-28" transform="translate(0 0.125)"/>
      <use xlink:href="#DejaVuSans-Oblique-78" transform="translate(39.013672 0.125)"/>
      <use xlink:href="#DejaVuSans-Oblique-74" transform="translate(98.193359 -16.28125) scale(0.7)"/>
      <use xlink:href="#DejaVuSans-29" transform="translate(128.374023 0.125)"/>
      <use xlink:href="#DejaVuSans-32" transform="translate(168.344727 -16.28125) scale(0.7)"/>
     </g>
    </g>
   </g>
   <g id="line2d_22">
    <path d="M 72.523688 263.348384 
L 79.617288 266.911308 
L 86.710888 269.231716 
L 93.804488 271.237758 
L 100.898088 273.215871 
L 107.991688 274.867756 
L 115.085288 276.655828 
L 122.178888 278.515392 
L 129.272488 277.824917 
L 136.366087 276.068724 
L 143.459688 274.486967 
L 150.553288 273.164112 
L 157.646887 272.087453 
L 164.740488 271.227756 
L 171.834088 270.553508 
L 178.927687 270.035023 
L 186.021287 269.645738 
L 193.114888 269.362474 
L 200.208487 269.165293 
L 207.302087 269.037212 
L 214.395688 268.963867 
L 221.489287 268.933186 
L 228.582887 268.935093 
L 235.676488 268.961231 
L 242.770087 269.004718 
L 249.863687 269.059942 
L 256.957288 269.122364 
L 264.050887 269.188357 
L 271.144487 269.255061 
L 278.238088 269.320254 
L 285.331687 269.382235 
L 292.425287 269.439731 
L 299.518888 269.491798 
L 306.612487 269.537751 
L 313.706087 269.577081 
L 320.799688 269.609395 
L 327.893287 269.634345 
L 334.986887 269.651565 
L 342.080487 269.66059 
L 349.174087 269.66076 
L 356.267687 269.651059 
L 363.361287 269.629848 
L 370.454887 269.594362 
L 377.548487 269.539717 
L 384.642087 269.456925 
L 391.735687 269.328854 
L 398.829287 269.122019 
L 405.922887 268.770269 
L 413.016487 268.149243 
L 420.110087 267.142739 
L 427.203687 267.568355 
" clip-path="url(#pe6b519db47)" style="fill: none; stroke: #1f77b4; stroke-width: 1.5; stroke-linecap: square"/>
   </g>
   <g id="patch_18">
    <path d="M 54.789688 295.63709 
L 54.789688 239.49962 
" style="fill: none; stroke: #000000; stroke-width: 0.8; stroke-linejoin: miter; stroke-linecap: square"/>
   </g>
   <g id="patch_19">
    <path d="M 444.937687 295.63709 
L 444.937687 239.49962 
" style="fill: none; stroke: #000000; stroke-width: 0.8; stroke-linejoin: miter; stroke-linecap: square"/>
   </g>
   <g id="patch_20">
    <path d="M 54.789688 295.63709 
L 444.937687 295.63709 
" style="fill: none; stroke: #000000; stroke-width: 0.8; stroke-linejoin: miter; stroke-linecap: square"/>
   </g>
   <g id="patch_21">
    <path d="M 54.789688 239.49962 
L 444.937687 239.49962 
" style="fill: none; stroke: #000000; stroke-width: 0.8; stroke-linejoin: miter; stroke-linecap: square"/>
   </g>
  </g>
 </g>
 <defs>
  <clipPath id="p19a7f5c206">
   <rect x="54.789688" y="8.447209" width="390.148" height="56.13747"/>
  </clipPath>
  <clipPath id="p91d6f778a5">
   <rect x="54.789688" y="85.464679" width="390.148" height="56.13747"/>
  </clipPath>
  <clipPath id="pd1f2690b14">
   <rect x="54.789688" y="162.48215" width="390.148" height="56.13747"/>
  </clipPath>
  <clipPath id="pe6b519db47">
   <rect x="54.789688" y="239.49962" width="390.148" height="56.13747"/>
  </clipPath>
 </defs>
</svg>