<?xml version="1.0" encoding="utf-8" standalone="no"?>
<!DOCTYPE svg PUBLIC "-//W3C//DTD SVG 1.1//EN"
  "http://www.w3.org/Graphics/SVG/1.1/DTD/svg11.dtd">
<svg xmlns:xlink="http://www.w3.org/1999/xlink" width="394.423125pt" height="331.79325pt" viewBox="0 0 394.423125 331.79325" xmlns="http://www.w3.org/2000/svg" version="1.1">
 <metadata>
  <rdf:RDF xmlns:dc="http://purl.org/dc/elements/1.1/" xmlns:cc="http://creativecommons.org/ns#" xmlns:rdf="http://www.w3.org/1999/02/22-rdf-syntax-ns#">
   <cc:Work>
    <dc:type rdf:resource="http://purl.org/dc/dcmitype/StillImage"/>
    <dc:date>2024-02-12T19:31:10.564137</dc:date>
    <dc:format>image/svg+xml</dc:format>
    <dc:creator>
     <cc:Agent>
      <dc:title>Matplotlib v3.8.2, https://matplotlib.org/</dc:title>
     </cc:Agent>
    </dc:creator>
   </cc:Work>
  </rdf:RDF>
 </metadata>
 <defs>
  <style type="text/css">*{stroke-linejoin: round; stroke-linecap: butt}</style>
 </defs>
 <g id="figure_1">
  <g id="patch_1">
   <path d="M 0 331.79325 
L 394.423125 331.79325 
L 394.423125 0 
L 0 0 
z
" style="fill: #ffffff"/>
  </g>
  <g id="axes_1">
   <g id="patch_2">
    <path d="M 30.103125 288.430125 
L 387.223125 288.430125 
L 387.223125 22.318125 
L 30.103125 22.318125 
z
" style="fill: #ffffff"/>
   </g>
   <g id="matplotlib.axis_1">
    <g id="xtick_1">
     <g id="line2d_1">
      <defs>
       <path id="m64dfc378b8" d="M 0 0 
L 0 3.5 
" style="stroke: #000000; stroke-width: 0.8"/>
      </defs>
      <g>
       <use xlink:href="#m64dfc378b8" x="46.335852" y="288.430125" style="stroke: #000000; stroke-width: 0.8"/>
      </g>
     </g>
     <g id="text_1">
      <!-- 0 -->
      <g transform="translate(43.154602 303.028562) scale(0.1 -0.1)">
       <defs>
        <path id="DejaVuSans-30" d="M 2034 4250 
Q 1547 4250 1301 3770 
Q 1056 3291 1056 2328 
Q 1056 1369 1301 889 
Q 1547 409 2034 409 
Q 2525 409 2770 889 
Q 3016 1369 3016 2328 
Q 3016 3291 2770 3770 
Q 2525 4250 2034 4250 
z
M 2034 4750 
Q 2819 4750 3233 4129 
Q 3647 3509 3647 2328 
Q 3647 1150 3233 529 
Q 2819 -91 2034 -91 
Q 1250 -91 836 529 
Q 422 1150 422 2328 
Q 422 3509 836 4129 
Q 1250 4750 2034 4750 
z
" transform="scale(0.015625)"/>
       </defs>
       <use xlink:href="#DejaVuSans-30"/>
      </g>
     </g>
    </g>
    <g id="xtick_2">
     <g id="line2d_2">
      <g>
       <use xlink:href="#m64dfc378b8" x="87.019379" y="288.430125" style="stroke: #000000; stroke-width: 0.8"/>
      </g>
     </g>
     <g id="text_2">
      <!-- 50 -->
      <g transform="translate(80.656879 303.028562) scale(0.1 -0.1)">
       <defs>
        <path id="DejaVuSans-35" d="M 691 4666 
L 3169 4666 
L 3169 4134 
L 1269 4134 
L 1269 2991 
Q 1406 3038 1543 3061 
Q 1681 3084 1819 3084 
Q 2600 3084 3056 2656 
Q 3513 2228 3513 1497 
Q 3513 744 3044 326 
Q 2575 -91 1722 -91 
Q 1428 -91 1123 -41 
Q 819 9 494 109 
L 494 744 
Q 775 591 1075 516 
Q 1375 441 1709 441 
Q 2250 441 2565 725 
Q 2881 1009 2881 1497 
Q 2881 1984 2565 2268 
Q 2250 2553 1709 2553 
Q 1456 2553 1204 2497 
Q 953 2441 691 2322 
L 691 4666 
z
" transform="scale(0.015625)"/>
       </defs>
       <use xlink:href="#DejaVuSans-35"/>
       <use xlink:href="#DejaVuSans-30" x="63.623047"/>
      </g>
     </g>
    </g>
    <g id="xtick_3">
     <g id="line2d_3">
      <g>
       <use xlink:href="#m64dfc378b8" x="127.702906" y="288.430125" style="stroke: #000000; stroke-width: 0.8"/>
      </g>
     </g>
     <g id="text_3">
      <!-- 100 -->
      <g transform="translate(118.159156 303.028562) scale(0.1 -0.1)">
       <defs>
        <path id="DejaVuSans-31" d="M 794 531 
L 1825 531 
L 1825 4091 
L 703 3866 
L 703 4441 
L 1819 4666 
L 2450 4666 
L 2450 531 
L 3481 531 
L 3481 0 
L 794 0 
L 794 531 
z
" transform="scale(0.015625)"/>
       </defs>
       <use xlink:href="#DejaVuSans-31"/>
       <use xlink:href="#DejaVuSans-30" x="63.623047"/>
       <use xlink:href="#DejaVuSans-30" x="127.246094"/>
      </g>
     </g>
    </g>
    <g id="xtick_4">
     <g id="line2d_4">
      <g>
       <use xlink:href="#m64dfc378b8" x="168.386433" y="288.430125" style="stroke: #000000; stroke-width: 0.8"/>
      </g>
     </g>
     <g id="text_4">
      <!-- 150 -->
      <g transform="translate(158.842683 303.028562) scale(0.1 -0.1)">
       <use xlink:href="#DejaVuSans-31"/>
       <use xlink:href="#DejaVuSans-35" x="63.623047"/>
       <use xlink:href="#DejaVuSans-30" x="127.246094"/>
      </g>
     </g>
    </g>
    <g id="xtick_5">
     <g id="line2d_5">
      <g>
       <use xlink:href="#m64dfc378b8" x="209.06996" y="288.430125" style="stroke: #000000; stroke-width: 0.8"/>
      </g>
     </g>
     <g id="text_5">
      <!-- 200 -->
      <g transform="translate(199.52621 303.028562) scale(0.1 -0.1)">
       <defs>
        <path id="DejaVuSans-32" d="M 1228 531 
L 3431 531 
L 3431 0 
L 469 0 
L 469 531 
Q 828 903 1448 1529 
Q 2069 2156 2228 2338 
Q 2531 2678 2651 2914 
Q 2772 3150 2772 3378 
Q 2772 3750 2511 3984 
Q 2250 4219 1831 4219 
Q 1534 4219 1204 4116 
Q 875 4013 500 3803 
L 500 4441 
Q 881 4594 1212 4672 
Q 1544 4750 1819 4750 
Q 2544 4750 2975 4387 
Q 3406 4025 3406 3419 
Q 3406 3131 3298 2873 
Q 3191 2616 2906 2266 
Q 2828 2175 2409 1742 
Q 1991 1309 1228 531 
z
" transform="scale(0.015625)"/>
       </defs>
       <use xlink:href="#DejaVuSans-32"/>
       <use xlink:href="#DejaVuSans-30" x="63.623047"/>
       <use xlink:href="#DejaVuSans-30" x="127.246094"/>
      </g>
     </g>
    </g>
    <g id="xtick_6">
     <g id="line2d_6">
      <g>
       <use xlink:href="#m64dfc378b8" x="249.753487" y="288.430125" style="stroke: #000000; stroke-width: 0.8"/>
      </g>
     </g>
     <g id="text_6">
      <!-- 250 -->
      <g transform="translate(240.209737 303.028562) scale(0.1 -0.1)">
       <use xlink:href="#DejaVuSans-32"/>
       <use xlink:href="#DejaVuSans-35" x="63.623047"/>
       <use xlink:href="#DejaVuSans-30" x="127.246094"/>
      </g>
     </g>
    </g>
    <g id="xtick_7">
     <g id="line2d_7">
      <g>
       <use xlink:href="#m64dfc378b8" x="290.437014" y="288.430125" style="stroke: #000000; stroke-width: 0.8"/>
      </g>
     </g>
     <g id="text_7">
      <!-- 300 -->
      <g transform="translate(280.893264 303.028562) scale(0.1 -0.1)">
       <defs>
        <path id="DejaVuSans-33" d="M 2597 2516 
Q 3050 2419 3304 2112 
Q 3559 1806 3559 1356 
Q 3559 666 3084 287 
Q 2609 -91 1734 -91 
Q 1441 -91 1130 -33 
Q 819 25 488 141 
L 488 750 
Q 750 597 1062 519 
Q 1375 441 1716 441 
Q 2309 441 2620 675 
Q 2931 909 2931 1356 
Q 2931 1769 2642 2001 
Q 2353 2234 1838 2234 
L 1294 2234 
L 1294 2753 
L 1863 2753 
Q 2328 2753 2575 2939 
Q 2822 3125 2822 3475 
Q 2822 3834 2567 4026 
Q 2313 4219 1838 4219 
Q 1578 4219 1281 4162 
Q 984 4106 628 3988 
L 628 4550 
Q 988 4650 1302 4700 
Q 1616 4750 1894 4750 
Q 2613 4750 3031 4423 
Q 3450 4097 3450 3541 
Q 3450 3153 3228 2886 
Q 3006 2619 2597 2516 
z
" transform="scale(0.015625)"/>
       </defs>
       <use xlink:href="#DejaVuSans-33"/>
       <use xlink:href="#DejaVuSans-30" x="63.623047"/>
       <use xlink:href="#DejaVuSans-30" x="127.246094"/>
      </g>
     </g>
    </g>
    <g id="xtick_8">
     <g id="line2d_8">
      <g>
       <use xlink:href="#m64dfc378b8" x="331.120541" y="288.430125" style="stroke: #000000; stroke-width: 0.8"/>
      </g>
     </g>
     <g id="text_8">
      <!-- 350 -->
      <g transform="translate(321.576791 303.028562) scale(0.1 -0.1)">
       <use xlink:href="#DejaVuSans-33"/>
       <use xlink:href="#DejaVuSans-35" x="63.623047"/>
       <use xlink:href="#DejaVuSans-30" x="127.246094"/>
      </g>
     </g>
    </g>
    <g id="xtick_9">
     <g id="line2d_9">
      <g>
       <use xlink:href="#m64dfc378b8" x="371.804068" y="288.430125" style="stroke: #000000; stroke-width: 0.8"/>
      </g>
     </g>
     <g id="text_9">
      <!-- 400 -->
      <g transform="translate(362.260318 303.028562) scale(0.1 -0.1)">
       <defs>
        <path id="DejaVuSans-34" d="M 2419 4116 
L 825 1625 
L 2419 1625 
L 2419 4116 
z
M 2253 4666 
L 3047 4666 
L 3047 1625 
L 3713 1625 
L 3713 1100 
L 3047 1100 
L 3047 0 
L 2419 0 
L 2419 1100 
L 313 1100 
L 313 1709 
L 2253 4666 
z
" transform="scale(0.015625)"/>
       </defs>
       <use xlink:href="#DejaVuSans-34"/>
       <use xlink:href="#DejaVuSans-30" x="63.623047"/>
       <use xlink:href="#DejaVuSans-30" x="127.246094"/>
      </g>
     </g>
    </g>
    <g id="text_10">
     <!-- $t$ -->
     <g transform="translate(205.463125 321.26575) scale(0.16 -0.16)">
      <defs>
       <path id="DejaVuSans-Oblique-74" d="M 2706 3500 
L 2619 3053 
L 1472 3053 
L 1100 1153 
Q 1081 1047 1072 975 
Q 1063 903 1063 863 
Q 1063 663 1183 572 
Q 1303 481 1569 481 
L 2150 481 
L 2053 0 
L 1503 0 
Q 991 0 739 200 
Q 488 400 488 806 
Q 488 878 497 964 
Q 506 1050 525 1153 
L 897 3053 
L 409 3053 
L 500 3500 
L 978 3500 
L 1172 4494 
L 1747 4494 
L 1556 3500 
L 2706 3500 
z
" transform="scale(0.015625)"/>
      </defs>
      <use xlink:href="#DejaVuSans-Oblique-74" transform="translate(0 0.78125)"/>
     </g>
    </g>
   </g>
   <g id="matplotlib.axis_2">
    <g id="ytick_1">
     <g id="line2d_10">
      <defs>
       <path id="m6ce1a4f45e" d="M 0 0 
L -3.5 0 
" style="stroke: #000000; stroke-width: 0.8"/>
      </defs>
      <g>
       <use xlink:href="#m6ce1a4f45e" x="30.103125" y="258.280322" style="stroke: #000000; stroke-width: 0.8"/>
      </g>
     </g>
     <g id="text_11">
      <!-- 0.5 -->
      <g transform="translate(7.2 262.07954) scale(0.1 -0.1)">
       <defs>
        <path id="DejaVuSans-2e" d="M 684 794 
L 1344 794 
L 1344 0 
L 684 0 
L 684 794 
z
" transform="scale(0.015625)"/>
       </defs>
       <use xlink:href="#DejaVuSans-30"/>
       <use xlink:href="#DejaVuSans-2e" x="63.623047"/>
       <use xlink:href="#DejaVuSans-35" x="95.410156"/>
      </g>
     </g>
    </g>
    <g id="ytick_2">
     <g id="line2d_11">
      <g>
       <use xlink:href="#m6ce1a4f45e" x="30.103125" y="225.459434" style="stroke: #000000; stroke-width: 0.8"/>
      </g>
     </g>
     <g id="text_12">
      <!-- 1.0 -->
      <g transform="translate(7.2 229.258653) scale(0.1 -0.1)">
       <use xlink:href="#DejaVuSans-31"/>
       <use xlink:href="#DejaVuSans-2e" x="63.623047"/>
       <use xlink:href="#DejaVuSans-30" x="95.410156"/>
      </g>
     </g>
    </g>
    <g id="ytick_3">
     <g id="line2d_12">
      <g>
       <use xlink:href="#m6ce1a4f45e" x="30.103125" y="192.638546" style="stroke: #000000; stroke-width: 0.8"/>
      </g>
     </g>
     <g id="text_13">
      <!-- 1.5 -->
      <g transform="translate(7.2 196.437765) scale(0.1 -0.1)">
       <use xlink:href="#DejaVuSans-31"/>
       <use xlink:href="#DejaVuSans-2e" x="63.623047"/>
       <use xlink:href="#DejaVuSans-35" x="95.410156"/>
      </g>
     </g>
    </g>
    <g id="ytick_4">
     <g id="line2d_13">
      <g>
       <use xlink:href="#m6ce1a4f45e" x="30.103125" y="159.817658" style="stroke: #000000; stroke-width: 0.8"/>
      </g>
     </g>
     <g id="text_14">
      <!-- 2.0 -->
      <g transform="translate(7.2 163.616877) scale(0.1 -0.1)">
       <use xlink:href="#DejaVuSans-32"/>
       <use xlink:href="#DejaVuSans-2e" x="63.623047"/>
       <use xlink:href="#DejaVuSans-30" x="95.410156"/>
      </g>
     </g>
    </g>
    <g id="ytick_5">
     <g id="line2d_14">
      <g>
       <use xlink:href="#m6ce1a4f45e" x="30.103125" y="126.99677" style="stroke: #000000; stroke-width: 0.8"/>
      </g>
     </g>
     <g id="text_15">
      <!-- 2.5 -->
      <g transform="translate(7.2 130.795989) scale(0.1 -0.1)">
       <use xlink:href="#DejaVuSans-32"/>
       <use xlink:href="#DejaVuSans-2e" x="63.623047"/>
       <use xlink:href="#DejaVuSans-35" x="95.410156"/>
      </g>
     </g>
    </g>
    <g id="ytick_6">
     <g id="line2d_15">
      <g>
       <use xlink:href="#m6ce1a4f45e" x="30.103125" y="94.175883" style="stroke: #000000; stroke-width: 0.8"/>
      </g>
     </g>
     <g id="text_16">
      <!-- 3.0 -->
      <g transform="translate(7.2 97.975101) scale(0.1 -0.1)">
       <use xlink:href="#DejaVuSans-33"/>
       <use xlink:href="#DejaVuSans-2e" x="63.623047"/>
       <use xlink:href="#DejaVuSans-30" x="95.410156"/>
      </g>
     </g>
    </g>
    <g id="ytick_7">
     <g id="line2d_16">
      <g>
       <use xlink:href="#m6ce1a4f45e" x="30.103125" y="61.354995" style="stroke: #000000; stroke-width: 0.8"/>
      </g>
     </g>
     <g id="text_17">
      <!-- 3.5 -->
      <g transform="translate(7.2 65.154213) scale(0.1 -0.1)">
       <use xlink:href="#DejaVuSans-33"/>
       <use xlink:href="#DejaVuSans-2e" x="63.623047"/>
       <use xlink:href="#DejaVuSans-35" x="95.410156"/>
      </g>
     </g>
    </g>
    <g id="ytick_8">
     <g id="line2d_17">
      <g>
       <use xlink:href="#m6ce1a4f45e" x="30.103125" y="28.534107" style="stroke: #000000; stroke-width: 0.8"/>
      </g>
     </g>
     <g id="text_18">
      <!-- 4.0 -->
      <g transform="translate(7.2 32.333326) scale(0.1 -0.1)">
       <use xlink:href="#DejaVuSans-34"/>
       <use xlink:href="#DejaVuSans-2e" x="63.623047"/>
       <use xlink:href="#DejaVuSans-30" x="95.410156"/>
      </g>
     </g>
    </g>
   </g>
   <g id="line2d_18">
    <path d="M 46.335852 205.752332 
L 47.149523 202.504654 
L 47.963193 202.849511 
L 48.776864 196.749297 
L 49.590534 193.600078 
L 50.404205 202.336935 
L 51.217876 203.477741 
L 52.031546 195.564217 
L 52.845217 203.734421 
L 53.658887 208.821515 
L 54.472558 216.878598 
L 55.286228 220.301221 
L 56.099899 233.664712 
L 56.913569 227.784399 
L 57.72724 232.926677 
L 58.54091 229.661789 
L 59.354581 238.005551 
L 60.168251 241.215135 
L 60.981922 243.604647 
L 61.795593 250.824797 
L 62.609263 248.313563 
L 63.422934 252.745637 
L 65.050275 247.165713 
L 65.863945 239.034211 
L 66.677616 241.797102 
L 67.491286 233.534231 
L 69.118627 213.899617 
L 69.932298 208.516414 
L 70.745968 199.580996 
L 71.559639 194.611574 
L 73.18698 206.637316 
L 74.000651 192.420621 
L 74.814321 194.329111 
L 75.627992 211.439884 
L 76.441662 204.017892 
L 77.255333 208.763061 
L 78.069003 209.649826 
L 78.882674 213.291672 
L 79.696344 219.159842 
L 80.510015 218.521403 
L 81.323685 218.336846 
L 82.137356 212.198958 
L 82.951027 208.686724 
L 83.764697 203.491973 
L 84.578368 194.276532 
L 85.392038 187.295676 
L 86.205709 194.168272 
L 87.019379 183.553286 
L 87.83305 182.117677 
L 88.64672 182.932775 
L 89.460391 194.174107 
L 90.274061 179.659746 
L 91.087732 183.041622 
L 91.901403 175.963737 
L 92.715073 182.168019 
L 93.528744 167.531486 
L 94.342414 179.185403 
L 95.156085 193.437667 
L 95.969755 198.786637 
L 96.783426 217.436194 
L 97.597096 216.945365 
L 98.410767 223.857065 
L 99.224437 227.326563 
L 100.038108 227.199302 
L 100.851778 232.499108 
L 101.665449 228.197529 
L 102.47912 221.646376 
L 103.29279 222.978781 
L 104.106461 230.839562 
L 104.920131 219.486471 
L 105.733802 214.248646 
L 106.547472 203.806604 
L 107.361143 202.474217 
L 108.174813 190.741092 
L 108.988484 181.522942 
L 109.802154 175.813264 
L 110.615825 168.753765 
L 111.429495 157.754249 
L 112.243166 165.375832 
L 113.056837 171.892851 
L 113.870507 158.042675 
L 114.684178 177.544259 
L 115.497848 174.696675 
L 116.311519 181.826792 
L 117.125189 174.641281 
L 117.93886 181.689383 
L 118.75253 192.352914 
L 119.566201 186.446843 
L 121.193542 165.721023 
L 122.007212 167.72134 
L 123.634554 119.515466 
L 124.448224 124.13097 
L 125.261895 111.037043 
L 126.075565 113.670756 
L 126.889236 105.307387 
L 127.702906 104.530781 
L 128.516577 81.21586 
L 129.330247 92.155684 
L 130.143918 85.373456 
L 130.957588 92.647744 
L 131.771259 91.891462 
L 133.3986 163.938433 
L 134.212271 189.999158 
L 135.025941 210.815599 
L 135.839612 220.669967 
L 136.653282 222.775408 
L 137.466953 240.370386 
L 138.280623 243.862094 
L 139.094294 241.200088 
L 139.907964 249.365547 
L 140.721635 255.989737 
L 141.535305 251.469035 
L 142.348976 252.34572 
L 143.162647 254.074053 
L 143.976317 247.442564 
L 144.789988 239.426657 
L 145.603658 228.542902 
L 146.417329 213.396643 
L 148.04467 191.367798 
L 148.85834 179.012893 
L 150.485681 163.374019 
L 151.299352 153.14218 
L 152.113022 171.988113 
L 152.926693 157.852229 
L 153.740364 171.579956 
L 154.554034 166.536491 
L 155.367705 150.244602 
L 156.181375 138.485204 
L 156.995046 165.988331 
L 157.808716 172.169763 
L 158.622387 182.545298 
L 159.436057 205.356862 
L 160.249728 210.252072 
L 161.063398 230.215547 
L 161.877069 230.543121 
L 162.690739 236.290321 
L 163.50441 244.814551 
L 164.318081 249.491911 
L 165.131751 257.142186 
L 165.945422 253.988914 
L 166.759092 258.29323 
L 167.572763 253.048351 
L 168.386433 254.653642 
L 169.200104 252.445595 
L 170.013774 252.456463 
L 170.827445 260.682278 
L 171.641115 258.410183 
L 172.454786 257.05615 
L 173.268457 257.587448 
L 174.082127 254.689215 
L 174.895798 243.881622 
L 175.709468 241.259953 
L 176.523139 232.944007 
L 177.336809 234.412354 
L 178.15048 236.221351 
L 178.96415 230.717194 
L 179.777821 232.047436 
L 180.591491 221.371911 
L 181.405162 223.485415 
L 182.218832 214.716269 
L 183.032503 214.317836 
L 183.846174 209.071753 
L 184.659844 206.431509 
L 185.473515 200.302631 
L 186.287185 186.951774 
L 187.100856 179.040722 
L 187.914526 166.588733 
L 189.541867 157.97916 
L 190.355538 166.522818 
L 191.169208 171.096783 
L 191.982879 179.663552 
L 192.796549 180.877393 
L 193.61022 180.637093 
L 194.423891 184.939113 
L 195.237561 193.561068 
L 196.051232 193.456555 
L 196.864902 195.693421 
L 197.678573 191.002008 
L 198.492243 198.580298 
L 199.305914 196.362398 
L 200.119584 201.761681 
L 200.933255 205.423477 
L 201.746925 207.397167 
L 202.560596 215.205256 
L 203.374266 217.30697 
L 204.187937 228.164466 
L 205.001608 224.717464 
L 205.815278 222.800971 
L 206.628949 234.032852 
L 208.25629 232.618126 
L 209.06996 228.375658 
L 209.883631 222.663977 
L 210.697301 224.828782 
L 211.510972 225.185734 
L 212.324642 226.037851 
L 213.138313 231.377089 
L 213.951984 224.01479 
L 215.579325 229.773497 
L 216.392995 227.522057 
L 217.206666 231.108699 
L 218.020336 230.014161 
L 218.834007 222.65034 
L 219.647677 213.07773 
L 220.461348 215.840746 
L 222.088689 174.278602 
L 222.902359 146.831659 
L 224.529701 116.75643 
L 225.343371 123.202208 
L 226.157042 122.198178 
L 226.970712 157.015028 
L 227.784383 144.256534 
L 229.411724 179.952525 
L 230.225394 179.655488 
L 231.852735 194.353838 
L 232.666406 192.292147 
L 233.480076 186.104942 
L 234.293747 184.568892 
L 235.107418 171.593952 
L 235.921088 176.825071 
L 236.734759 178.474445 
L 237.548429 177.559633 
L 238.3621 175.386486 
L 239.17577 188.400573 
L 239.989441 197.447354 
L 240.803111 226.305162 
L 241.616782 248.064746 
L 242.430452 256.836817 
L 243.244123 262.947672 
L 244.057793 269.936157 
L 244.871464 267.808033 
L 245.685135 271.097467 
L 246.498805 269.264006 
L 247.312476 270.90809 
L 248.126146 271.14898 
L 248.939817 267.836674 
L 249.753487 269.862444 
L 250.567158 266.895007 
L 252.194499 258.545697 
L 253.008169 253.099471 
L 253.82184 250.791756 
L 254.635511 249.836585 
L 255.449181 240.401217 
L 256.262852 243.973349 
L 257.076522 236.462739 
L 257.890193 242.568044 
L 258.703863 239.888478 
L 259.517534 238.517438 
L 260.331204 246.827968 
L 261.144875 245.013306 
L 261.958545 245.42085 
L 262.772216 244.591682 
L 263.585886 244.343061 
L 265.213228 250.380866 
L 266.026898 252.133394 
L 266.840569 247.430963 
L 267.654239 251.047628 
L 268.46791 244.965942 
L 269.28158 245.638559 
L 270.095251 243.557588 
L 270.908921 234.840458 
L 271.722592 221.58155 
L 273.349933 206.320456 
L 274.163603 206.367612 
L 274.977274 189.423955 
L 275.790945 187.466953 
L 276.604615 199.647075 
L 277.418286 201.277501 
L 278.231956 204.439762 
L 279.045627 212.901988 
L 279.859297 206.005528 
L 280.672968 209.760366 
L 281.486638 216.688065 
L 282.300309 228.280927 
L 283.113979 232.924687 
L 283.92765 238.334063 
L 284.74132 237.801875 
L 285.554991 235.950914 
L 286.368662 243.030972 
L 287.182332 246.547302 
L 287.996003 247.88892 
L 288.809673 246.496864 
L 289.623344 245.492359 
L 290.437014 245.906585 
L 291.250685 242.280066 
L 292.064355 239.500971 
L 292.878026 236.227408 
L 293.691696 228.509007 
L 294.505367 229.981159 
L 295.319038 224.375718 
L 296.132708 223.42639 
L 296.946379 231.018802 
L 297.760049 233.650596 
L 298.57372 230.514907 
L 299.38739 233.27342 
L 300.201061 225.22455 
L 301.014731 215.641338 
L 301.828402 208.678682 
L 302.642072 209.455198 
L 303.455743 212.331156 
L 304.269413 222.739298 
L 305.083084 227.548778 
L 305.896755 226.071817 
L 306.710425 237.090649 
L 307.524096 240.289296 
L 308.337766 240.883741 
L 309.151437 243.747155 
L 309.965107 249.069227 
L 310.778778 236.637136 
L 311.592448 236.123176 
L 312.406119 242.080777 
L 313.219789 233.533261 
L 314.03346 228.481161 
L 314.84713 229.466977 
L 315.660801 221.99927 
L 316.474472 219.302017 
L 317.288142 204.122164 
L 318.101813 196.10646 
L 318.915483 183.449258 
L 319.729154 172.907755 
L 320.542824 159.092011 
L 321.356495 138.041459 
L 322.170165 131.384443 
L 322.983836 101.370311 
L 323.797506 67.224419 
L 324.611177 69.495201 
L 325.424847 81.149859 
L 326.238518 81.938721 
L 327.052189 87.532131 
L 327.865859 110.210998 
L 328.67953 144.495994 
L 329.4932 135.686402 
L 330.306871 144.449641 
L 331.120541 149.46726 
L 331.934212 155.952026 
L 332.747882 170.328232 
L 333.561553 148.327919 
L 334.375223 158.788559 
L 335.188894 164.866774 
L 336.002565 167.066818 
L 336.816235 178.311649 
L 337.629906 176.0476 
L 338.443576 185.777259 
L 339.257247 192.054862 
L 340.070917 206.422027 
L 340.884588 224.981399 
L 341.698258 229.636894 
L 342.511929 223.184944 
L 343.325599 223.422564 
L 344.13927 230.800943 
L 344.95294 228.143866 
L 345.766611 228.821612 
L 346.580282 222.486036 
L 347.393952 214.684797 
L 348.207623 203.881404 
L 349.834964 194.351806 
L 350.648634 184.12526 
L 351.462305 170.437853 
L 352.275975 163.908108 
L 353.089646 183.409904 
L 353.903316 189.65345 
L 354.716987 211.940254 
L 355.530657 221.439345 
L 356.344328 224.144277 
L 357.157999 234.202695 
L 357.971669 237.639574 
L 358.78534 245.807375 
L 359.59901 240.205464 
L 360.412681 240.473887 
L 361.226351 227.650169 
L 362.040022 226.049716 
L 362.853692 210.89426 
L 363.667363 199.914428 
L 364.481033 203.235987 
L 365.294704 180.775972 
L 366.108374 176.738195 
L 366.922045 173.508237 
L 367.735716 188.37106 
L 368.549386 197.685024 
L 369.363057 193.223473 
L 370.990398 219.71594 
L 370.990398 219.71594 
" clip-path="url(#pa6bfa7732c)" style="fill: none; stroke: #000000; stroke-width: 1.5; stroke-linecap: square"/>
   </g>
   <g id="line2d_19">
    <path d="M 46.335852 197.503051 
L 47.149523 198.457332 
L 47.963193 191.184983 
L 48.776864 191.00492 
L 49.590534 186.092652 
L 50.404205 179.562704 
L 51.217876 190.096836 
L 52.031546 193.208225 
L 52.845217 187.065199 
L 54.472558 197.528693 
L 55.286228 210.055596 
L 56.099899 217.412923 
L 56.913569 227.784399 
L 57.72724 223.175969 
L 58.54091 226.030616 
L 59.354581 222.3343 
L 60.168251 228.51505 
L 60.981922 236.137714 
L 61.795593 238.284564 
L 62.609263 245.440801 
L 63.422934 242.947201 
L 64.236604 246.0752 
L 65.050275 244.800676 
L 65.863945 238.694865 
L 66.677616 230.514853 
L 67.491286 230.199439 
L 68.304957 223.454298 
L 69.932298 199.941161 
L 71.559639 184.279109 
L 72.37331 180.404472 
L 73.18698 186.187244 
L 74.000651 196.220175 
L 74.814321 184.443965 
L 75.627992 182.317475 
L 76.441662 198.656964 
L 77.255333 196.8661 
L 78.069003 204.039874 
L 78.882674 201.14852 
L 79.696344 200.546458 
L 80.510015 213.135566 
L 81.323685 212.177028 
L 82.137356 209.859321 
L 83.764697 195.228302 
L 84.578368 190.958954 
L 85.392038 180.031026 
L 86.205709 171.664137 
L 87.019379 178.278973 
L 87.83305 170.624965 
L 88.64672 169.061835 
L 89.460391 169.287369 
L 90.274061 180.516737 
L 91.087732 172.063493 
L 91.901403 170.920908 
L 92.715073 161.260014 
L 93.528744 166.156371 
L 94.342414 156.791843 
L 95.156085 164.069411 
L 95.969755 182.230283 
L 96.783426 192.682922 
L 97.597096 215.720435 
L 98.410767 214.83325 
L 99.224437 216.817341 
L 100.038108 223.395307 
L 100.851778 219.205564 
L 101.665449 226.266739 
L 102.47912 220.635262 
L 103.29279 210.6496 
L 104.106461 211.468759 
L 104.920131 219.19723 
L 105.733802 212.249422 
L 106.547472 204.165237 
L 107.361143 188.815599 
L 108.174813 184.838918 
L 108.988484 177.530461 
L 109.802154 165.859423 
L 111.429495 150.178911 
L 112.243166 140.261745 
L 113.056837 148.531107 
L 113.870507 158.011048 
L 114.684178 147.559162 
L 115.497848 165.382685 
L 116.311519 163.897598 
L 117.125189 171.35205 
L 117.93886 168.635138 
L 118.75253 166.759048 
L 119.566201 181.771316 
L 120.379871 178.892976 
L 121.193542 164.826787 
L 122.007212 148.48878 
L 122.820883 145.511429 
L 123.634554 126.661404 
L 124.448224 96.77612 
L 125.261895 95.69315 
L 126.075565 84.696401 
L 126.889236 94.073414 
L 127.702906 89.253651 
L 128.516577 81.21586 
L 129.330247 60.686383 
L 130.143918 66.769727 
L 130.957588 64.832288 
L 131.771259 73.576001 
L 132.58493 77.169205 
L 133.3986 113.883279 
L 134.212271 161.588307 
L 135.025941 198.331053 
L 135.839612 220.669967 
L 136.653282 223.513308 
L 137.466953 219.606445 
L 138.280623 237.754705 
L 139.094294 241.200088 
L 139.907964 237.689844 
L 141.535305 246.958622 
L 142.348976 246.052311 
L 143.162647 247.201441 
L 143.976317 245.142776 
L 144.789988 238.696189 
L 145.603658 230.736623 
L 146.417329 215.960146 
L 147.230999 196.800436 
L 149.672011 160.054855 
L 152.113022 134.430753 
L 152.926693 155.527369 
L 153.740364 147.044047 
L 154.554034 159.56091 
L 155.367705 157.450448 
L 156.181375 133.662824 
L 156.995046 121.078276 
L 157.808716 145.096503 
L 159.436057 181.36602 
L 160.249728 202.614433 
L 161.063398 205.089185 
L 161.877069 228.770303 
L 162.690739 232.940843 
L 163.50441 231.124237 
L 164.318081 241.297385 
L 165.131751 243.542875 
L 165.945422 253.988914 
L 166.759092 250.890765 
L 167.572763 250.507059 
L 168.386433 246.613641 
L 169.200104 245.751995 
L 170.013774 245.595681 
L 170.827445 244.051535 
L 171.641115 253.939736 
L 172.454786 253.757371 
L 173.268457 251.420505 
L 174.082127 251.314249 
L 174.895798 246.081741 
L 175.709468 236.108884 
L 176.523139 230.526226 
L 177.336809 220.337261 
L 178.15048 222.215175 
L 178.96415 227.476187 
L 179.777821 222.196965 
L 180.591491 223.156998 
L 181.405162 211.168754 
L 182.218832 210.78934 
L 183.032503 204.734677 
L 184.659844 198.187895 
L 186.287185 187.852957 
L 187.100856 172.718724 
L 187.914526 161.223314 
L 188.728197 147.927845 
L 189.541867 142.452549 
L 190.355538 141.014161 
L 191.982879 160.140943 
L 192.796549 170.813191 
L 193.61022 173.583467 
L 194.423891 170.896013 
L 195.237561 174.103305 
L 196.051232 183.865519 
L 197.678573 187.583928 
L 198.492243 179.693131 
L 199.305914 185.325089 
L 200.119584 186.548241 
L 201.746925 197.099047 
L 202.560596 197.894483 
L 203.374266 207.269249 
L 204.187937 210.741171 
L 205.001608 221.414541 
L 205.815278 220.38199 
L 206.628949 214.32134 
L 207.442619 225.435435 
L 208.25629 225.996654 
L 209.06996 226.889574 
L 209.883631 221.118571 
L 210.697301 209.418621 
L 211.510972 213.06319 
L 212.324642 215.596382 
L 213.138313 217.48839 
L 213.951984 224.01479 
L 214.765654 215.542711 
L 215.579325 217.281798 
L 216.392995 221.177804 
L 217.206666 218.974213 
L 218.020336 224.348413 
L 218.834007 221.903717 
L 219.647677 212.667739 
L 220.461348 201.848941 
L 221.275018 201.108691 
L 222.088689 182.00209 
L 222.902359 156.401449 
L 223.71603 122.036871 
L 224.529701 98.934876 
L 225.343371 88.45904 
L 226.157042 99.209603 
L 226.970712 104.561416 
L 227.784383 144.256534 
L 228.598053 140.306991 
L 229.411724 153.708839 
L 230.225394 174.771152 
L 231.039065 172.915507 
L 231.852735 184.636588 
L 232.666406 187.369326 
L 233.480076 180.100912 
L 234.293747 177.448617 
L 235.107418 169.528147 
L 235.921088 154.889572 
L 236.734759 159.3837 
L 237.548429 164.529251 
L 238.3621 164.917359 
L 239.17577 164.322219 
L 239.989441 175.074962 
L 240.803111 188.736915 
L 241.616782 224.490577 
L 242.430452 253.374652 
L 243.244123 262.947672 
L 244.057793 266.360639 
L 244.871464 267.707956 
L 245.685135 264.145558 
L 246.498805 268.053464 
L 247.312476 263.837089 
L 248.126146 263.374725 
L 248.939817 264.846673 
L 249.753487 261.01804 
L 250.567158 262.980774 
L 251.380828 260.469787 
L 252.194499 255.256252 
L 253.008169 251.009269 
L 253.82184 243.20961 
L 254.635511 240.980498 
L 255.449181 241.043054 
L 256.262852 231.370243 
L 257.076522 233.902078 
L 257.890193 226.964823 
L 258.703863 232.789961 
L 259.517534 233.887433 
L 260.331204 230.147909 
L 261.144875 239.92653 
L 261.958545 238.994889 
L 262.772216 239.432772 
L 263.585886 238.817275 
L 264.399557 234.935197 
L 265.213228 240.393426 
L 266.026898 244.420245 
L 266.840569 246.620556 
L 267.654239 241.642173 
L 268.46791 242.705154 
L 269.28158 237.200717 
L 270.095251 236.925137 
L 270.908921 235.893397 
L 271.722592 224.834738 
L 272.536262 209.65385 
L 273.349933 197.680087 
L 274.163603 189.223035 
L 274.977274 192.127578 
L 275.790945 176.544121 
L 276.604615 170.700366 
L 277.418286 184.457134 
L 279.859297 206.712415 
L 280.672968 196.431746 
L 281.486638 200.884592 
L 282.300309 208.382386 
L 283.113979 221.089184 
L 283.92765 231.023292 
L 284.74132 234.638228 
L 285.554991 231.850809 
L 286.368662 228.143609 
L 287.182332 235.132709 
L 287.996003 240.818741 
L 288.809673 242.94014 
L 289.623344 241.047227 
L 290.437014 236.532194 
L 291.250685 237.220617 
L 292.064355 234.537698 
L 292.878026 230.852321 
L 293.691696 226.443978 
L 294.505367 217.14585 
L 295.319038 218.439438 
L 296.132708 213.860332 
L 296.946379 212.500483 
L 297.760049 222.077874 
L 298.57372 226.266926 
L 299.38739 225.015826 
L 300.201061 226.151587 
L 301.828402 204.124192 
L 302.642072 195.187354 
L 303.455743 193.889583 
L 304.269413 200.626981 
L 305.083084 215.096806 
L 305.896755 222.646471 
L 306.710425 220.827876 
L 307.524096 230.544145 
L 308.337766 235.221626 
L 309.151437 236.792292 
L 309.965107 239.552994 
L 310.778778 241.566886 
L 311.592448 229.781619 
L 312.406119 226.370088 
L 313.219789 231.117714 
L 314.03346 224.374173 
L 314.84713 220.203422 
L 315.660801 217.980379 
L 316.474472 208.838137 
L 317.288142 208.929344 
L 318.101813 192.069205 
L 321.356495 140.096007 
L 322.170165 115.657 
L 322.983836 105.657693 
L 323.797506 75.945882 
L 324.611177 35.361975 
L 325.424847 34.414125 
L 327.052189 66.242532 
L 327.865859 76.953763 
L 328.67953 94.14043 
L 329.4932 135.686402 
L 330.306871 138.222152 
L 331.120541 139.920182 
L 331.934212 136.795828 
L 332.747882 140.053229 
L 333.561553 164.110711 
L 334.375223 139.732507 
L 335.188894 139.764499 
L 336.002565 148.925602 
L 336.816235 152.626857 
L 337.629906 172.923914 
L 338.443576 166.269924 
L 339.257247 173.157731 
L 340.070917 184.799472 
L 340.884588 198.566228 
L 341.698258 223.908591 
L 342.511929 229.254259 
L 343.325599 219.840194 
L 344.13927 214.180406 
L 344.95294 218.659377 
L 345.766611 221.154602 
L 346.580282 222.486036 
L 347.393952 212.544088 
L 349.021293 189.419454 
L 349.834964 182.723246 
L 350.648634 178.873775 
L 351.462305 169.279631 
L 352.275975 153.374554 
L 353.089646 143.708276 
L 353.903316 165.393473 
L 354.716987 182.352052 
L 355.530657 210.1991 
L 356.344328 222.887842 
L 357.157999 220.80968 
L 357.971669 231.399809 
L 358.78534 233.555653 
L 359.59901 241.700167 
L 360.412681 237.523318 
L 361.226351 231.038699 
L 362.040022 217.097354 
L 362.853692 211.396995 
L 364.481033 182.911411 
L 365.294704 186.288984 
L 366.108374 164.809223 
L 366.922045 158.365933 
L 367.735716 156.229459 
L 368.549386 171.090141 
L 369.363057 193.223473 
L 370.176727 189.022229 
L 370.990398 197.798435 
L 370.990398 197.798435 
" clip-path="url(#pa6bfa7732c)" style="fill: none; stroke: #ff0000; stroke-width: 1.5; stroke-linecap: square"/>
   </g>
   <g id="line2d_20">
    <path d="M 46.335852 207.108584 
L 47.149523 206.704855 
L 47.963193 202.849511 
L 48.776864 201.464405 
L 50.404205 190.449784 
L 51.217876 202.279631 
L 52.031546 205.055325 
L 52.845217 197.028877 
L 53.658887 202.635717 
L 54.472558 210.370821 
L 55.286228 220.699959 
L 56.099899 223.244382 
L 56.913569 236.33763 
L 57.72724 231.969793 
L 58.54091 232.673801 
L 59.354581 228.072928 
L 60.168251 237.264585 
L 60.981922 241.860217 
L 61.795593 244.035574 
L 62.609263 250.909016 
L 63.422934 249.203308 
L 64.236604 250.827679 
L 65.050275 248.664479 
L 65.863945 243.677387 
L 66.677616 235.197012 
L 67.491286 236.42315 
L 68.304957 230.017442 
L 69.932298 206.757483 
L 70.745968 202.416405 
L 71.559639 194.611574 
L 72.37331 189.907375 
L 73.18698 197.328127 
L 74.000651 208.716979 
L 74.814321 194.015574 
L 75.627992 191.717559 
L 76.441662 211.565701 
L 77.255333 208.866595 
L 78.069003 209.649826 
L 78.882674 209.525359 
L 79.696344 214.925956 
L 80.510015 221.426358 
L 81.323685 218.558978 
L 82.137356 218.803147 
L 83.764697 204.786474 
L 84.578368 200.70903 
L 85.392038 190.368077 
L 86.205709 182.908403 
L 87.019379 191.392719 
L 87.83305 183.606147 
L 88.64672 180.725296 
L 89.460391 181.572695 
L 90.274061 196.059897 
L 91.087732 183.041622 
L 91.901403 181.305694 
L 92.715073 175.034964 
L 93.528744 182.723513 
L 94.342414 167.467032 
L 95.156085 177.594119 
L 95.969755 197.37423 
L 96.783426 206.938015 
L 97.597096 223.295275 
L 98.410767 224.225374 
L 100.038108 230.134796 
L 100.851778 226.593565 
L 101.665449 233.182898 
L 102.47912 227.791995 
L 103.29279 218.807098 
L 104.106461 219.997623 
L 104.920131 228.624516 
L 106.547472 210.49008 
L 107.361143 198.456407 
L 108.174813 198.045175 
L 109.802154 176.039054 
L 111.429495 166.157812 
L 112.243166 154.380079 
L 113.056837 163.262895 
L 113.870507 174.335116 
L 114.684178 162.3929 
L 115.497848 178.178249 
L 116.311519 179.782177 
L 117.125189 186.743659 
L 117.93886 177.470083 
L 118.75253 181.490999 
L 119.566201 196.743361 
L 120.379871 190.899998 
L 121.193542 174.479808 
L 122.007212 163.035026 
L 122.820883 163.597454 
L 123.634554 141.824681 
L 124.448224 111.09614 
L 125.261895 116.490985 
L 126.075565 110.714685 
L 126.889236 114.268224 
L 127.702906 107.034308 
L 128.516577 106.834347 
L 129.330247 84.364327 
L 130.143918 90.003714 
L 130.957588 89.083077 
L 131.771259 99.222838 
L 132.58493 98.214743 
L 134.212271 183.702843 
L 135.025941 213.14997 
L 135.839612 228.544073 
L 136.653282 235.394254 
L 137.466953 229.877465 
L 138.280623 243.862094 
L 139.094294 246.528557 
L 139.907964 243.895315 
L 140.721635 248.018835 
L 141.535305 256.092641 
L 142.348976 252.34572 
L 143.162647 249.365542 
L 143.976317 250.502031 
L 144.789988 245.815514 
L 146.417329 221.052197 
L 147.230999 205.82932 
L 148.85834 182.885748 
L 149.672011 172.338555 
L 150.485681 165.027416 
L 151.299352 158.813966 
L 152.113022 150.159829 
L 152.926693 171.247868 
L 153.740364 162.146584 
L 154.554034 174.047577 
L 155.367705 170.369623 
L 156.181375 151.068695 
L 156.995046 134.907297 
L 157.808716 163.589368 
L 158.622387 180.46735 
L 159.436057 193.050074 
L 160.249728 212.248276 
L 161.063398 221.996286 
L 161.877069 238.558865 
L 162.690739 236.222365 
L 163.50441 238.307733 
L 164.318081 248.066119 
L 165.131751 250.235853 
L 165.945422 258.595651 
L 166.759092 254.817078 
L 167.572763 255.773499 
L 168.386433 251.71663 
L 169.200104 250.267115 
L 170.013774 249.242598 
L 170.827445 249.153824 
L 171.641115 258.446379 
L 172.454786 258.068677 
L 173.268457 254.624281 
L 174.082127 254.657796 
L 174.895798 251.081017 
L 175.709468 239.763681 
L 176.523139 234.303814 
L 177.336809 227.039593 
L 178.15048 229.885502 
L 178.96415 233.166536 
L 179.777821 229.014991 
L 180.591491 229.792185 
L 181.405162 218.516439 
L 182.218832 219.067449 
L 183.032503 211.908833 
L 183.846174 210.166564 
L 184.659844 206.693558 
L 185.473515 203.748225 
L 186.287185 197.655381 
L 187.100856 183.498222 
L 188.728197 161.845099 
L 189.541867 157.363592 
L 190.355538 155.896294 
L 191.169208 166.58458 
L 192.796549 185.220041 
L 193.61022 186.194205 
L 194.423891 184.276317 
L 195.237561 186.758075 
L 196.051232 196.558439 
L 196.864902 197.080301 
L 197.678573 198.25672 
L 198.492243 191.674256 
L 199.305914 199.03748 
L 200.119584 197.83149 
L 201.746925 207.397167 
L 202.560596 209.791718 
L 203.374266 217.127913 
L 204.187937 219.887972 
L 205.001608 230.194187 
L 205.815278 227.842631 
L 206.628949 221.923937 
L 207.442619 233.316108 
L 208.25629 234.599895 
L 209.06996 232.665183 
L 209.883631 226.389797 
L 210.697301 218.945674 
L 211.510972 222.08812 
L 212.324642 222.691054 
L 213.138313 224.91034 
L 213.951984 231.713768 
L 214.765654 223.609106 
L 215.579325 225.079154 
L 216.392995 228.38739 
L 217.206666 226.862999 
L 218.020336 230.316621 
L 218.834007 228.95367 
L 219.647677 221.011756 
L 220.461348 209.111685 
L 221.275018 210.113393 
L 222.088689 192.263221 
L 222.902359 166.221504 
L 223.71603 134.635033 
L 224.529701 119.144821 
L 225.343371 108.265423 
L 226.157042 118.790941 
L 226.970712 124.878875 
L 227.784383 165.858504 
L 228.598053 157.243199 
L 229.411724 169.812056 
L 230.225394 188.381666 
L 231.039065 189.621202 
L 231.852735 192.787125 
L 232.666406 198.153592 
L 233.480076 195.701563 
L 234.293747 188.956521 
L 235.921088 170.454082 
L 237.548429 178.070485 
L 238.3621 179.935512 
L 239.17577 177.108472 
L 240.803111 203.048917 
L 241.616782 234.751709 
L 242.430452 259.586896 
L 243.244123 268.952152 
L 244.057793 269.103798 
L 244.871464 271.597671 
L 245.685135 267.541495 
L 246.498805 268.657769 
L 247.312476 265.159935 
L 248.126146 268.056071 
L 248.939817 268.063517 
L 249.753487 263.84604 
L 250.567158 265.732027 
L 251.380828 263.399204 
L 252.194499 257.947521 
L 253.008169 253.448885 
L 253.82184 247.191943 
L 254.635511 245.526304 
L 255.449181 245.277234 
L 256.262852 235.999043 
L 257.076522 239.328411 
L 257.890193 233.004293 
L 258.703863 239.327797 
L 259.517534 238.425459 
L 260.331204 236.278839 
L 261.144875 245.370865 
L 261.958545 245.045775 
L 263.585886 242.829751 
L 264.399557 241.28132 
L 265.213228 245.988255 
L 266.840569 251.217041 
L 267.654239 246.290464 
L 268.46791 247.651882 
L 269.28158 242.449893 
L 270.095251 241.908825 
L 270.908921 240.176866 
L 271.722592 231.152442 
L 272.536262 215.757576 
L 273.349933 205.71612 
L 274.163603 199.377368 
L 274.977274 202.157154 
L 275.790945 185.562812 
L 276.604615 182.455033 
L 277.418286 198.015303 
L 278.231956 204.726388 
L 279.045627 207.556024 
L 279.859297 215.223167 
L 280.672968 208.704283 
L 281.486638 210.270483 
L 282.300309 215.815411 
L 283.113979 231.224542 
L 283.92765 237.975638 
L 284.74132 240.559909 
L 285.554991 239.198838 
L 286.368662 235.565976 
L 287.182332 240.586258 
L 287.996003 246.551598 
L 288.809673 248.04364 
L 290.437014 242.869531 
L 291.250685 243.536806 
L 292.878026 235.644284 
L 293.691696 232.703232 
L 294.505367 224.359789 
L 295.319038 225.537332 
L 296.132708 221.204778 
L 296.946379 220.408976 
L 297.760049 229.460571 
L 298.57372 234.421269 
L 299.38739 231.274084 
L 300.201061 231.819009 
L 301.014731 223.145552 
L 302.642072 202.19573 
L 303.455743 204.443277 
L 304.269413 211.261848 
L 305.083084 223.802221 
L 305.896755 230.784201 
L 306.710425 229.092098 
L 307.524096 237.6802 
L 308.337766 242.222079 
L 309.151437 241.985993 
L 309.965107 243.066613 
L 310.778778 248.222413 
L 311.592448 236.061491 
L 312.406119 231.029464 
L 313.219789 237.839198 
L 314.03346 232.738115 
L 314.84713 224.587651 
L 315.660801 224.621938 
L 316.474472 219.40916 
L 317.288142 216.276271 
L 318.101813 198.502104 
L 318.915483 189.820308 
L 321.356495 153.268213 
L 322.170165 131.620781 
L 322.983836 124.0862 
L 323.797506 96.189097 
L 324.611177 57.136097 
L 325.424847 59.672622 
L 326.238518 81.938722 
L 327.052189 91.967071 
L 327.865859 96.68597 
L 328.67953 120.418898 
L 329.4932 163.041382 
L 330.306871 153.383619 
L 331.120541 151.490081 
L 331.934212 155.952026 
L 332.747882 162.824411 
L 333.561553 176.520032 
L 334.375223 152.478357 
L 335.188894 158.610794 
L 336.002565 168.65579 
L 336.816235 170.606584 
L 337.629906 183.83613 
L 338.443576 180.482807 
L 339.257247 190.129851 
L 340.070917 197.618888 
L 340.884588 209.9317 
L 341.698258 233.701011 
L 342.511929 237.597127 
L 343.325599 226.708172 
L 344.13927 222.181883 
L 344.95294 228.593336 
L 345.766611 228.821612 
L 346.580282 227.159102 
L 347.393952 220.381985 
L 348.207623 211.654017 
L 349.021293 198.582859 
L 349.834964 192.343431 
L 350.648634 190.149678 
L 351.462305 181.121968 
L 352.275975 165.462562 
L 353.089646 158.693842 
L 353.903316 182.018082 
L 354.716987 195.991937 
L 355.530657 219.862399 
L 356.344328 231.404455 
L 357.157999 231.660006 
L 357.971669 237.949551 
L 358.78534 239.588111 
L 359.59901 247.326767 
L 360.412681 241.620981 
L 361.226351 237.266502 
L 362.040022 224.714597 
L 362.853692 219.760273 
L 363.667363 204.94356 
L 364.481033 192.72395 
L 365.294704 196.884096 
L 366.108374 177.549857 
L 366.922045 170.160116 
L 367.735716 169.365689 
L 369.363057 204.457966 
L 370.176727 198.024084 
L 370.990398 208.763285 
L 370.990398 208.763285 
" clip-path="url(#pa6bfa7732c)" style="fill: none; stroke: #008000; stroke-width: 1.5; stroke-linecap: square"/>
   </g>
   <g id="line2d_21">
    <path d="M 46.335852 219.448838 
L 47.149523 215.932264 
L 48.776864 210.58293 
L 50.404205 202.336935 
L 51.217876 212.268642 
L 52.031546 215.561491 
L 52.845217 207.345785 
L 53.658887 215.076694 
L 54.472558 219.700409 
L 55.286228 228.561321 
L 56.099899 233.316249 
L 56.913569 246.431288 
L 57.72724 237.074163 
L 58.54091 241.329836 
L 59.354581 235.519958 
L 60.168251 244.34227 
L 60.981922 247.327221 
L 62.609263 257.062933 
L 63.422934 254.544753 
L 64.236604 256.779626 
L 65.050275 253.638462 
L 65.863945 250.024803 
L 66.677616 240.249372 
L 67.491286 244.051188 
L 69.118627 226.537636 
L 69.932298 215.986793 
L 70.745968 211.426429 
L 71.559639 203.10366 
L 72.37331 201.405294 
L 73.18698 209.066832 
L 74.000651 218.107159 
L 74.814321 204.292816 
L 75.627992 204.938222 
L 76.441662 221.687113 
L 77.255333 215.69192 
L 78.069003 221.214871 
L 78.882674 221.665795 
L 79.696344 222.521987 
L 80.510015 228.260798 
L 81.323685 230.341457 
L 82.137356 226.959417 
L 82.951027 219.920413 
L 83.764697 214.991051 
L 84.578368 209.355129 
L 85.392038 201.171174 
L 86.205709 194.167866 
L 87.019379 203.214635 
L 87.83305 194.090761 
L 88.64672 193.788863 
L 89.460391 194.714551 
L 90.274061 207.43389 
L 91.087732 192.61615 
L 91.901403 197.015965 
L 92.715073 186.568061 
L 93.528744 194.023479 
L 94.342414 179.185403 
L 95.969755 207.723381 
L 96.783426 217.436194 
L 97.597096 235.137115 
L 98.410767 234.356624 
L 99.224437 235.369232 
L 100.038108 236.73227 
L 100.851778 236.089573 
L 101.665449 239.021892 
L 102.47912 236.179201 
L 103.29279 226.984979 
L 104.106461 227.864028 
L 104.920131 237.202816 
L 105.733802 226.319639 
L 106.547472 221.23064 
L 107.361143 208.384116 
L 108.174813 206.620171 
L 108.988484 196.152993 
L 110.615825 183.418629 
L 111.429495 178.513065 
L 112.243166 168.033906 
L 113.056837 178.766399 
L 113.870507 187.715293 
L 114.684178 175.10809 
L 115.497848 194.834844 
L 116.311519 191.884532 
L 117.125189 198.256728 
L 117.93886 190.174755 
L 119.566201 204.709803 
L 120.379871 202.982155 
L 121.193542 188.366907 
L 122.007212 176.325823 
L 122.820883 176.419361 
L 124.448224 130.790248 
L 125.261895 135.396689 
L 126.075565 126.099722 
L 126.889236 133.146106 
L 127.702906 129.220818 
L 128.516577 127.935406 
L 129.330247 100.989792 
L 130.143918 115.104355 
L 130.957588 108.111835 
L 131.771259 120.661733 
L 132.58493 120.059772 
L 133.3986 162.793661 
L 135.025941 228.190308 
L 135.839612 242.638816 
L 136.653282 245.165194 
L 137.466953 235.853116 
L 138.280623 250.799672 
L 139.094294 253.353826 
L 139.907964 249.365547 
L 141.535305 261.821924 
L 142.348976 255.487934 
L 143.162647 256.857874 
L 143.976317 257.07447 
L 145.603658 240.755201 
L 146.417329 229.424612 
L 147.230999 212.675993 
L 149.672011 183.674136 
L 151.299352 172.871994 
L 152.113022 164.030336 
L 152.926693 186.488872 
L 153.740364 174.932585 
L 154.554034 189.765828 
L 155.367705 183.614304 
L 156.995046 148.5173 
L 157.808716 181.780674 
L 158.622387 190.178681 
L 159.436057 207.179823 
L 160.249728 229.056311 
L 161.063398 230.215547 
L 161.877069 245.221551 
L 162.690739 245.626912 
L 163.50441 246.92392 
L 164.318081 251.809301 
L 165.131751 257.853936 
L 165.945422 263.062459 
L 166.759092 260.66287 
L 167.572763 262.004012 
L 168.386433 254.92828 
L 169.200104 256.595311 
L 170.013774 253.724257 
L 170.827445 255.226982 
L 171.641115 263.299356 
L 172.454786 262.790078 
L 173.268457 260.035176 
L 174.082127 259.734595 
L 174.895798 255.941216 
L 175.709468 243.873482 
L 176.523139 241.934912 
L 177.336809 233.190159 
L 178.15048 236.262623 
L 178.96415 240.606717 
L 179.777821 236.906058 
L 180.591491 237.224614 
L 181.405162 226.347271 
L 182.218832 227.340501 
L 183.032503 219.135199 
L 183.846174 220.48759 
L 184.659844 214.884143 
L 185.473515 214.363673 
L 186.287185 206.98532 
L 187.100856 194.67774 
L 187.914526 185.242607 
L 188.728197 173.816296 
L 189.541867 171.323726 
L 190.355538 169.70931 
L 191.169208 182.102149 
L 191.982879 188.673109 
L 192.796549 199.448579 
L 193.61022 198.975113 
L 194.423891 197.01252 
L 195.237561 198.438289 
L 196.051232 207.922716 
L 196.864902 207.837189 
L 197.678573 210.152122 
L 198.492243 203.328181 
L 199.305914 209.690868 
L 200.119584 207.532469 
L 200.933255 214.538259 
L 201.746925 217.586154 
L 202.560596 220.094557 
L 203.374266 226.35149 
L 204.187937 229.301237 
L 205.001608 239.048619 
L 206.628949 231.332059 
L 207.442619 240.738869 
L 208.25629 241.224528 
L 209.06996 239.720677 
L 209.883631 235.218103 
L 210.697301 227.125067 
L 211.510972 228.196341 
L 212.324642 231.578422 
L 213.138313 233.342937 
L 213.951984 239.604708 
L 214.765654 231.721661 
L 215.579325 233.05175 
L 216.392995 236.042797 
L 217.206666 234.318303 
L 218.020336 237.775878 
L 218.834007 237.606761 
L 220.461348 217.347073 
L 221.275018 220.328635 
L 222.902359 178.457997 
L 223.71603 149.217626 
L 224.529701 134.395794 
L 225.343371 123.202208 
L 226.157042 139.118607 
L 226.970712 143.310567 
L 227.784383 184.396324 
L 228.598053 171.671294 
L 229.411724 188.182533 
L 230.225394 200.931635 
L 231.039065 201.301504 
L 231.852735 203.534836 
L 232.666406 213.208241 
L 233.480076 204.922405 
L 234.293747 197.981193 
L 235.107418 196.218462 
L 235.921088 180.442816 
L 236.734759 187.08743 
L 237.548429 191.590872 
L 238.3621 192.763574 
L 239.17577 190.036947 
L 239.989441 204.213081 
L 240.803111 212.54212 
L 241.616782 245.134317 
L 242.430452 268.318677 
L 243.244123 275.140814 
L 244.057793 274.240263 
L 244.871464 276.334125 
L 245.685135 268.910267 
L 246.498805 272.053319 
L 247.312476 270.081395 
L 248.126146 271.148981 
L 248.939817 271.25601 
L 249.753487 268.553095 
L 250.567158 269.45907 
L 251.380828 267.01213 
L 253.82184 252.474423 
L 254.635511 250.111251 
L 255.449181 250.96449 
L 256.262852 242.079077 
L 257.076522 246.065105 
L 257.890193 239.081791 
L 258.703863 246.216674 
L 259.517534 244.340645 
L 260.331204 244.153641 
L 261.144875 251.143138 
L 261.958545 251.18517 
L 262.772216 249.944004 
L 263.585886 249.210703 
L 264.399557 247.952578 
L 265.213228 250.380866 
L 266.026898 255.468326 
L 266.840569 256.939118 
L 267.654239 251.581105 
L 268.46791 254.188387 
L 269.28158 247.155291 
L 270.095251 248.136639 
L 270.908921 246.236224 
L 271.722592 237.945516 
L 272.536262 222.635686 
L 274.163603 207.812808 
L 274.977274 211.278312 
L 275.790945 196.591505 
L 276.604615 195.292805 
L 277.418286 208.739622 
L 278.231956 214.217215 
L 279.045627 218.491837 
L 279.859297 227.606328 
L 280.672968 216.880895 
L 281.486638 218.612681 
L 282.300309 226.618314 
L 283.113979 239.184672 
L 284.74132 250.367448 
L 285.554991 245.597607 
L 286.368662 241.541419 
L 287.182332 247.551377 
L 287.996003 252.395532 
L 288.809673 254.015125 
L 289.623344 252.11433 
L 290.437014 249.474661 
L 291.250685 248.381263 
L 293.691696 239.293325 
L 294.505367 231.34413 
L 295.319038 233.205479 
L 296.132708 228.842641 
L 296.946379 228.718988 
L 297.760049 237.566674 
L 298.57372 242.070593 
L 299.38739 238.144547 
L 300.201061 240.57438 
L 301.828402 218.933921 
L 302.642072 211.952983 
L 303.455743 214.165701 
L 304.269413 219.251069 
L 305.083084 234.009107 
L 305.896755 239.893318 
L 306.710425 237.090649 
L 307.524096 245.843393 
L 308.337766 248.28048 
L 309.151437 247.957307 
L 309.965107 250.238854 
L 310.778778 254.984565 
L 311.592448 240.086244 
L 312.406119 239.327032 
L 313.219789 245.001557 
L 314.03346 237.496532 
L 314.84713 232.579076 
L 315.660801 234.404483 
L 316.474472 225.528405 
L 317.288142 223.622228 
L 318.101813 209.47388 
L 318.915483 200.015994 
L 319.729154 187.212313 
L 320.542824 179.245337 
L 321.356495 166.152952 
L 322.170165 147.221296 
L 322.983836 140.894854 
L 323.797506 112.901925 
L 324.611177 78.863921 
L 325.424847 83.504267 
L 326.238518 103.611023 
L 327.052189 112.014546 
L 327.865859 123.1268 
L 328.67953 144.495994 
L 329.4932 177.108126 
L 330.306871 168.673732 
L 331.120541 173.226836 
L 331.934212 170.643906 
L 332.747882 174.590012 
L 333.561553 189.816801 
L 334.375223 170.14776 
L 335.188894 174.421031 
L 336.002565 180.548379 
L 336.816235 185.13463 
L 337.629906 196.810167 
L 338.443576 196.878595 
L 339.257247 201.044321 
L 340.070917 208.096812 
L 340.884588 223.249767 
L 341.698258 241.384946 
L 342.511929 246.955186 
L 343.325599 234.905205 
L 344.13927 230.800942 
L 344.95294 235.692808 
L 345.766611 234.120702 
L 346.580282 236.858393 
L 347.393952 229.488794 
L 348.207623 219.212592 
L 349.021293 207.078582 
L 350.648634 199.994015 
L 351.462305 192.296269 
L 352.275975 178.796711 
L 353.089646 172.511525 
L 353.903316 194.912682 
L 354.716987 206.624095 
L 355.530657 233.12345 
L 356.344328 241.798551 
L 357.157999 240.378874 
L 357.971669 244.355329 
L 358.78534 247.291828 
L 359.59901 252.772202 
L 360.412681 247.402378 
L 361.226351 245.893572 
L 362.040022 229.667691 
L 362.853692 228.316455 
L 363.667363 212.324358 
L 364.481033 203.235987 
L 365.294704 207.133024 
L 366.108374 187.731824 
L 366.922045 183.423309 
L 367.735716 182.585845 
L 368.549386 200.852045 
L 369.363057 213.509311 
L 370.176727 212.673398 
L 370.990398 220.340385 
L 370.990398 220.340385 
" clip-path="url(#pa6bfa7732c)" style="fill: none; stroke: #0000ff; stroke-width: 1.5; stroke-linecap: square"/>
   </g>
   <g id="patch_3">
    <path d="M 30.103125 288.430125 
L 30.103125 22.318125 
" style="fill: none; stroke: #000000; stroke-width: 0.8; stroke-linejoin: miter; stroke-linecap: square"/>
   </g>
   <g id="patch_4">
    <path d="M 387.223125 288.430125 
L 387.223125 22.318125 
" style="fill: none; stroke: #000000; stroke-width: 0.8; stroke-linejoin: miter; stroke-linecap: square"/>
   </g>
   <g id="patch_5">
    <path d="M 30.103125 288.430125 
L 387.223125 288.430125 
" style="fill: none; stroke: #000000; stroke-width: 0.8; stroke-linejoin: miter; stroke-linecap: square"/>
   </g>
   <g id="patch_6">
    <path d="M 30.103125 22.318125 
L 387.223125 22.318125 
" style="fill: none; stroke: #000000; stroke-width: 0.8; stroke-linejoin: miter; stroke-linecap: square"/>
   </g>
   <g id="text_19">
    <!-- Training data -->
    <g transform="translate(169.570312 16.318125) scale(0.12 -0.12)">
     <defs>
      <path id="DejaVuSans-54" d="M -19 4666 
L 3928 4666 
L 3928 4134 
L 2272 4134 
L 2272 0 
L 1638 0 
L 1638 4134 
L -19 4134 
L -19 4666 
z
" transform="scale(0.015625)"/>
      <path id="DejaVuSans-72" d="M 2631 2963 
Q 2534 3019 2420 3045 
Q 2306 3072 2169 3072 
Q 1681 3072 1420 2755 
Q 1159 2438 1159 1844 
L 1159 0 
L 581 0 
L 581 3500 
L 1159 3500 
L 1159 2956 
Q 1341 3275 1631 3429 
Q 1922 3584 2338 3584 
Q 2397 3584 2469 3576 
Q 2541 3569 2628 3553 
L 2631 2963 
z
" transform="scale(0.015625)"/>
      <path id="DejaVuSans-61" d="M 2194 1759 
Q 1497 1759 1228 1600 
Q 959 1441 959 1056 
Q 959 750 1161 570 
Q 1363 391 1709 391 
Q 2188 391 2477 730 
Q 2766 1069 2766 1631 
L 2766 1759 
L 2194 1759 
z
M 3341 1997 
L 3341 0 
L 2766 0 
L 2766 531 
Q 2569 213 2275 61 
Q 1981 -91 1556 -91 
Q 1019 -91 701 211 
Q 384 513 384 1019 
Q 384 1609 779 1909 
Q 1175 2209 1959 2209 
L 2766 2209 
L 2766 2266 
Q 2766 2663 2505 2880 
Q 2244 3097 1772 3097 
Q 1472 3097 1187 3025 
Q 903 2953 641 2809 
L 641 3341 
Q 956 3463 1253 3523 
Q 1550 3584 1831 3584 
Q 2591 3584 2966 3190 
Q 3341 2797 3341 1997 
z
" transform="scale(0.015625)"/>
      <path id="DejaVuSans-69" d="M 603 3500 
L 1178 3500 
L 1178 0 
L 603 0 
L 603 3500 
z
M 603 4863 
L 1178 4863 
L 1178 4134 
L 603 4134 
L 603 4863 
z
" transform="scale(0.015625)"/>
      <path id="DejaVuSans-6e" d="M 3513 2113 
L 3513 0 
L 2938 0 
L 2938 2094 
Q 2938 2591 2744 2837 
Q 2550 3084 2163 3084 
Q 1697 3084 1428 2787 
Q 1159 2491 1159 1978 
L 1159 0 
L 581 0 
L 581 3500 
L 1159 3500 
L 1159 2956 
Q 1366 3272 1645 3428 
Q 1925 3584 2291 3584 
Q 2894 3584 3203 3211 
Q 3513 2838 3513 2113 
z
" transform="scale(0.015625)"/>
      <path id="DejaVuSans-67" d="M 2906 1791 
Q 2906 2416 2648 2759 
Q 2391 3103 1925 3103 
Q 1463 3103 1205 2759 
Q 947 2416 947 1791 
Q 947 1169 1205 825 
Q 1463 481 1925 481 
Q 2391 481 2648 825 
Q 2906 1169 2906 1791 
z
M 3481 434 
Q 3481 -459 3084 -895 
Q 2688 -1331 1869 -1331 
Q 1566 -1331 1297 -1286 
Q 1028 -1241 775 -1147 
L 775 -588 
Q 1028 -725 1275 -790 
Q 1522 -856 1778 -856 
Q 2344 -856 2625 -561 
Q 2906 -266 2906 331 
L 2906 616 
Q 2728 306 2450 153 
Q 2172 0 1784 0 
Q 1141 0 747 490 
Q 353 981 353 1791 
Q 353 2603 747 3093 
Q 1141 3584 1784 3584 
Q 2172 3584 2450 3431 
Q 2728 3278 2906 2969 
L 2906 3500 
L 3481 3500 
L 3481 434 
z
" transform="scale(0.015625)"/>
      <path id="DejaVuSans-20" transform="scale(0.015625)"/>
      <path id="DejaVuSans-64" d="M 2906 2969 
L 2906 4863 
L 3481 4863 
L 3481 0 
L 2906 0 
L 2906 525 
Q 2725 213 2448 61 
Q 2172 -91 1784 -91 
Q 1150 -91 751 415 
Q 353 922 353 1747 
Q 353 2572 751 3078 
Q 1150 3584 1784 3584 
Q 2172 3584 2448 3432 
Q 2725 3281 2906 2969 
z
M 947 1747 
Q 947 1113 1208 752 
Q 1469 391 1925 391 
Q 2381 391 2643 752 
Q 2906 1113 2906 1747 
Q 2906 2381 2643 2742 
Q 2381 3103 1925 3103 
Q 1469 3103 1208 2742 
Q 947 2381 947 1747 
z
" transform="scale(0.015625)"/>
      <path id="DejaVuSans-74" d="M 1172 4494 
L 1172 3500 
L 2356 3500 
L 2356 3053 
L 1172 3053 
L 1172 1153 
Q 1172 725 1289 603 
Q 1406 481 1766 481 
L 2356 481 
L 2356 0 
L 1766 0 
Q 1100 0 847 248 
Q 594 497 594 1153 
L 594 3053 
L 172 3053 
L 172 3500 
L 594 3500 
L 594 4494 
L 1172 4494 
z
" transform="scale(0.015625)"/>
     </defs>
     <use xlink:href="#DejaVuSans-54"/>
     <use xlink:href="#DejaVuSans-72" x="46.333984"/>
     <use xlink:href="#DejaVuSans-61" x="87.447266"/>
     <use xlink:href="#DejaVuSans-69" x="148.726562"/>
     <use xlink:href="#DejaVuSans-6e" x="176.509766"/>
     <use xlink:href="#DejaVuSans-69" x="239.888672"/>
     <use xlink:href="#DejaVuSans-6e" x="267.671875"/>
     <use xlink:href="#DejaVuSans-67" x="331.050781"/>
     <use xlink:href="#DejaVuSans-20" x="394.527344"/>
     <use xlink:href="#DejaVuSans-64" x="426.314453"/>
     <use xlink:href="#DejaVuSans-61" x="489.791016"/>
     <use xlink:href="#DejaVuSans-74" x="551.070312"/>
     <use xlink:href="#DejaVuSans-61" x="590.279297"/>
    </g>
   </g>
  </g>
 </g>
 <defs>
  <clipPath id="pa6bfa7732c">
   <rect x="30.103125" y="22.318125" width="357.12" height="266.112"/>
  </clipPath>
 </defs>
</svg>