<?xml version="1.0" encoding="utf-8" standalone="no"?>
<!DOCTYPE svg PUBLIC "-//W3C//DTD SVG 1.1//EN"
  "http://www.w3.org/Graphics/SVG/1.1/DTD/svg11.dtd">
<svg xmlns:xlink="http://www.w3.org/1999/xlink" width="416.052813pt" height="310.86825pt" viewBox="0 0 416.052813 310.86825" xmlns="http://www.w3.org/2000/svg" version="1.1">
 <metadata>
  <rdf:RDF xmlns:dc="http://purl.org/dc/elements/1.1/" xmlns:cc="http://creativecommons.org/ns#" xmlns:rdf="http://www.w3.org/1999/02/22-rdf-syntax-ns#">
   <cc:Work>
    <dc:type rdf:resource="http://purl.org/dc/dcmitype/StillImage"/>
    <dc:date>2023-08-26T20:14:59.216215</dc:date>
    <dc:format>image/svg+xml</dc:format>
    <dc:creator>
     <cc:Agent>
      <dc:title>Matplotlib v3.7.2, https://matplotlib.org/</dc:title>
     </cc:Agent>
    </dc:creator>
   </cc:Work>
  </rdf:RDF>
 </metadata>
 <defs>
  <style type="text/css">*{stroke-linejoin: round; stroke-linecap: butt}</style>
 </defs>
 <g id="figure_1">
  <g id="patch_1">
   <path d="M 0 310.86825 
L 416.052813 310.86825 
L 416.052813 0 
L 0 0 
z
" style="fill: #ffffff"/>
  </g>
  <g id="axes_1">
   <g id="patch_2">
    <path d="M 43.78125 273.312 
L 400.90125 273.312 
L 400.90125 7.2 
L 43.78125 7.2 
z
" style="fill: #ffffff"/>
   </g>
   <g id="matplotlib.axis_1">
    <g id="xtick_1">
     <g id="line2d_1">
      <defs>
       <path id="m8f0d96de3d" d="M 0 0 
L 0 3.5 
" style="stroke: #000000; stroke-width: 0.8"/>
      </defs>
      <g>
       <use xlink:href="#m8f0d96de3d" x="43.78125" y="273.312" style="stroke: #000000; stroke-width: 0.8"/>
      </g>
     </g>
     <g id="text_1">
      <!-- −0.6 -->
      <g transform="translate(31.639844 287.910437) scale(0.1 -0.1)">
       <defs>
        <path id="DejaVuSans-2212" d="M 678 2272 
L 4684 2272 
L 4684 1741 
L 678 1741 
L 678 2272 
z
" transform="scale(0.015625)"/>
        <path id="DejaVuSans-30" d="M 2034 4250 
Q 1547 4250 1301 3770 
Q 1056 3291 1056 2328 
Q 1056 1369 1301 889 
Q 1547 409 2034 409 
Q 2525 409 2770 889 
Q 3016 1369 3016 2328 
Q 3016 3291 2770 3770 
Q 2525 4250 2034 4250 
z
M 2034 4750 
Q 2819 4750 3233 4129 
Q 3647 3509 3647 2328 
Q 3647 1150 3233 529 
Q 2819 -91 2034 -91 
Q 1250 -91 836 529 
Q 422 1150 422 2328 
Q 422 3509 836 4129 
Q 1250 4750 2034 4750 
z
" transform="scale(0.015625)"/>
        <path id="DejaVuSans-2e" d="M 684 794 
L 1344 794 
L 1344 0 
L 684 0 
L 684 794 
z
" transform="scale(0.015625)"/>
        <path id="DejaVuSans-36" d="M 2113 2584 
Q 1688 2584 1439 2293 
Q 1191 2003 1191 1497 
Q 1191 994 1439 701 
Q 1688 409 2113 409 
Q 2538 409 2786 701 
Q 3034 994 3034 1497 
Q 3034 2003 2786 2293 
Q 2538 2584 2113 2584 
z
M 3366 4563 
L 3366 3988 
Q 3128 4100 2886 4159 
Q 2644 4219 2406 4219 
Q 1781 4219 1451 3797 
Q 1122 3375 1075 2522 
Q 1259 2794 1537 2939 
Q 1816 3084 2150 3084 
Q 2853 3084 3261 2657 
Q 3669 2231 3669 1497 
Q 3669 778 3244 343 
Q 2819 -91 2113 -91 
Q 1303 -91 875 529 
Q 447 1150 447 2328 
Q 447 3434 972 4092 
Q 1497 4750 2381 4750 
Q 2619 4750 2861 4703 
Q 3103 4656 3366 4563 
z
" transform="scale(0.015625)"/>
       </defs>
       <use xlink:href="#DejaVuSans-2212"/>
       <use xlink:href="#DejaVuSans-30" x="83.789062"/>
       <use xlink:href="#DejaVuSans-2e" x="147.412109"/>
       <use xlink:href="#DejaVuSans-36" x="179.199219"/>
      </g>
     </g>
    </g>
    <g id="xtick_2">
     <g id="line2d_2">
      <g>
       <use xlink:href="#m8f0d96de3d" x="103.30125" y="273.312" style="stroke: #000000; stroke-width: 0.8"/>
      </g>
     </g>
     <g id="text_2">
      <!-- −0.4 -->
      <g transform="translate(91.159844 287.910437) scale(0.1 -0.1)">
       <defs>
        <path id="DejaVuSans-34" d="M 2419 4116 
L 825 1625 
L 2419 1625 
L 2419 4116 
z
M 2253 4666 
L 3047 4666 
L 3047 1625 
L 3713 1625 
L 3713 1100 
L 3047 1100 
L 3047 0 
L 2419 0 
L 2419 1100 
L 313 1100 
L 313 1709 
L 2253 4666 
z
" transform="scale(0.015625)"/>
       </defs>
       <use xlink:href="#DejaVuSans-2212"/>
       <use xlink:href="#DejaVuSans-30" x="83.789062"/>
       <use xlink:href="#DejaVuSans-2e" x="147.412109"/>
       <use xlink:href="#DejaVuSans-34" x="179.199219"/>
      </g>
     </g>
    </g>
    <g id="xtick_3">
     <g id="line2d_3">
      <g>
       <use xlink:href="#m8f0d96de3d" x="162.82125" y="273.312" style="stroke: #000000; stroke-width: 0.8"/>
      </g>
     </g>
     <g id="text_3">
      <!-- −0.2 -->
      <g transform="translate(150.679844 287.910437) scale(0.1 -0.1)">
       <defs>
        <path id="DejaVuSans-32" d="M 1228 531 
L 3431 531 
L 3431 0 
L 469 0 
L 469 531 
Q 828 903 1448 1529 
Q 2069 2156 2228 2338 
Q 2531 2678 2651 2914 
Q 2772 3150 2772 3378 
Q 2772 3750 2511 3984 
Q 2250 4219 1831 4219 
Q 1534 4219 1204 4116 
Q 875 4013 500 3803 
L 500 4441 
Q 881 4594 1212 4672 
Q 1544 4750 1819 4750 
Q 2544 4750 2975 4387 
Q 3406 4025 3406 3419 
Q 3406 3131 3298 2873 
Q 3191 2616 2906 2266 
Q 2828 2175 2409 1742 
Q 1991 1309 1228 531 
z
" transform="scale(0.015625)"/>
       </defs>
       <use xlink:href="#DejaVuSans-2212"/>
       <use xlink:href="#DejaVuSans-30" x="83.789062"/>
       <use xlink:href="#DejaVuSans-2e" x="147.412109"/>
       <use xlink:href="#DejaVuSans-32" x="179.199219"/>
      </g>
     </g>
    </g>
    <g id="xtick_4">
     <g id="line2d_4">
      <g>
       <use xlink:href="#m8f0d96de3d" x="222.34125" y="273.312" style="stroke: #000000; stroke-width: 0.8"/>
      </g>
     </g>
     <g id="text_4">
      <!-- 0.0 -->
      <g transform="translate(214.389688 287.910437) scale(0.1 -0.1)">
       <use xlink:href="#DejaVuSans-30"/>
       <use xlink:href="#DejaVuSans-2e" x="63.623047"/>
       <use xlink:href="#DejaVuSans-30" x="95.410156"/>
      </g>
     </g>
    </g>
    <g id="xtick_5">
     <g id="line2d_5">
      <g>
       <use xlink:href="#m8f0d96de3d" x="281.86125" y="273.312" style="stroke: #000000; stroke-width: 0.8"/>
      </g>
     </g>
     <g id="text_5">
      <!-- 0.2 -->
      <g transform="translate(273.909688 287.910437) scale(0.1 -0.1)">
       <use xlink:href="#DejaVuSans-30"/>
       <use xlink:href="#DejaVuSans-2e" x="63.623047"/>
       <use xlink:href="#DejaVuSans-32" x="95.410156"/>
      </g>
     </g>
    </g>
    <g id="xtick_6">
     <g id="line2d_6">
      <g>
       <use xlink:href="#m8f0d96de3d" x="341.38125" y="273.312" style="stroke: #000000; stroke-width: 0.8"/>
      </g>
     </g>
     <g id="text_6">
      <!-- 0.4 -->
      <g transform="translate(333.429688 287.910437) scale(0.1 -0.1)">
       <use xlink:href="#DejaVuSans-30"/>
       <use xlink:href="#DejaVuSans-2e" x="63.623047"/>
       <use xlink:href="#DejaVuSans-34" x="95.410156"/>
      </g>
     </g>
    </g>
    <g id="xtick_7">
     <g id="line2d_7">
      <g>
       <use xlink:href="#m8f0d96de3d" x="400.90125" y="273.312" style="stroke: #000000; stroke-width: 0.8"/>
      </g>
     </g>
     <g id="text_7">
      <!-- 0.6 -->
      <g transform="translate(392.949688 287.910437) scale(0.1 -0.1)">
       <use xlink:href="#DejaVuSans-30"/>
       <use xlink:href="#DejaVuSans-2e" x="63.623047"/>
       <use xlink:href="#DejaVuSans-36" x="95.410156"/>
      </g>
     </g>
    </g>
    <g id="text_8">
     <!-- Residual -->
     <g transform="translate(201.225625 301.588562) scale(0.1 -0.1)">
      <defs>
       <path id="DejaVuSans-52" d="M 2841 2188 
Q 3044 2119 3236 1894 
Q 3428 1669 3622 1275 
L 4263 0 
L 3584 0 
L 2988 1197 
Q 2756 1666 2539 1819 
Q 2322 1972 1947 1972 
L 1259 1972 
L 1259 0 
L 628 0 
L 628 4666 
L 2053 4666 
Q 2853 4666 3247 4331 
Q 3641 3997 3641 3322 
Q 3641 2881 3436 2590 
Q 3231 2300 2841 2188 
z
M 1259 4147 
L 1259 2491 
L 2053 2491 
Q 2509 2491 2742 2702 
Q 2975 2913 2975 3322 
Q 2975 3731 2742 3939 
Q 2509 4147 2053 4147 
L 1259 4147 
z
" transform="scale(0.015625)"/>
       <path id="DejaVuSans-65" d="M 3597 1894 
L 3597 1613 
L 953 1613 
Q 991 1019 1311 708 
Q 1631 397 2203 397 
Q 2534 397 2845 478 
Q 3156 559 3463 722 
L 3463 178 
Q 3153 47 2828 -22 
Q 2503 -91 2169 -91 
Q 1331 -91 842 396 
Q 353 884 353 1716 
Q 353 2575 817 3079 
Q 1281 3584 2069 3584 
Q 2775 3584 3186 3129 
Q 3597 2675 3597 1894 
z
M 3022 2063 
Q 3016 2534 2758 2815 
Q 2500 3097 2075 3097 
Q 1594 3097 1305 2825 
Q 1016 2553 972 2059 
L 3022 2063 
z
" transform="scale(0.015625)"/>
       <path id="DejaVuSans-73" d="M 2834 3397 
L 2834 2853 
Q 2591 2978 2328 3040 
Q 2066 3103 1784 3103 
Q 1356 3103 1142 2972 
Q 928 2841 928 2578 
Q 928 2378 1081 2264 
Q 1234 2150 1697 2047 
L 1894 2003 
Q 2506 1872 2764 1633 
Q 3022 1394 3022 966 
Q 3022 478 2636 193 
Q 2250 -91 1575 -91 
Q 1294 -91 989 -36 
Q 684 19 347 128 
L 347 722 
Q 666 556 975 473 
Q 1284 391 1588 391 
Q 1994 391 2212 530 
Q 2431 669 2431 922 
Q 2431 1156 2273 1281 
Q 2116 1406 1581 1522 
L 1381 1569 
Q 847 1681 609 1914 
Q 372 2147 372 2553 
Q 372 3047 722 3315 
Q 1072 3584 1716 3584 
Q 2034 3584 2315 3537 
Q 2597 3491 2834 3397 
z
" transform="scale(0.015625)"/>
       <path id="DejaVuSans-69" d="M 603 3500 
L 1178 3500 
L 1178 0 
L 603 0 
L 603 3500 
z
M 603 4863 
L 1178 4863 
L 1178 4134 
L 603 4134 
L 603 4863 
z
" transform="scale(0.015625)"/>
       <path id="DejaVuSans-64" d="M 2906 2969 
L 2906 4863 
L 3481 4863 
L 3481 0 
L 2906 0 
L 2906 525 
Q 2725 213 2448 61 
Q 2172 -91 1784 -91 
Q 1150 -91 751 415 
Q 353 922 353 1747 
Q 353 2572 751 3078 
Q 1150 3584 1784 3584 
Q 2172 3584 2448 3432 
Q 2725 3281 2906 2969 
z
M 947 1747 
Q 947 1113 1208 752 
Q 1469 391 1925 391 
Q 2381 391 2643 752 
Q 2906 1113 2906 1747 
Q 2906 2381 2643 2742 
Q 2381 3103 1925 3103 
Q 1469 3103 1208 2742 
Q 947 2381 947 1747 
z
" transform="scale(0.015625)"/>
       <path id="DejaVuSans-75" d="M 544 1381 
L 544 3500 
L 1119 3500 
L 1119 1403 
Q 1119 906 1312 657 
Q 1506 409 1894 409 
Q 2359 409 2629 706 
Q 2900 1003 2900 1516 
L 2900 3500 
L 3475 3500 
L 3475 0 
L 2900 0 
L 2900 538 
Q 2691 219 2414 64 
Q 2138 -91 1772 -91 
Q 1169 -91 856 284 
Q 544 659 544 1381 
z
M 1991 3584 
L 1991 3584 
z
" transform="scale(0.015625)"/>
       <path id="DejaVuSans-61" d="M 2194 1759 
Q 1497 1759 1228 1600 
Q 959 1441 959 1056 
Q 959 750 1161 570 
Q 1363 391 1709 391 
Q 2188 391 2477 730 
Q 2766 1069 2766 1631 
L 2766 1759 
L 2194 1759 
z
M 3341 1997 
L 3341 0 
L 2766 0 
L 2766 531 
Q 2569 213 2275 61 
Q 1981 -91 1556 -91 
Q 1019 -91 701 211 
Q 384 513 384 1019 
Q 384 1609 779 1909 
Q 1175 2209 1959 2209 
L 2766 2209 
L 2766 2266 
Q 2766 2663 2505 2880 
Q 2244 3097 1772 3097 
Q 1472 3097 1187 3025 
Q 903 2953 641 2809 
L 641 3341 
Q 956 3463 1253 3523 
Q 1550 3584 1831 3584 
Q 2591 3584 2966 3190 
Q 3341 2797 3341 1997 
z
" transform="scale(0.015625)"/>
       <path id="DejaVuSans-6c" d="M 603 4863 
L 1178 4863 
L 1178 0 
L 603 0 
L 603 4863 
z
" transform="scale(0.015625)"/>
      </defs>
      <use xlink:href="#DejaVuSans-52"/>
      <use xlink:href="#DejaVuSans-65" x="64.982422"/>
      <use xlink:href="#DejaVuSans-73" x="126.505859"/>
      <use xlink:href="#DejaVuSans-69" x="178.605469"/>
      <use xlink:href="#DejaVuSans-64" x="206.388672"/>
      <use xlink:href="#DejaVuSans-75" x="269.865234"/>
      <use xlink:href="#DejaVuSans-61" x="333.244141"/>
      <use xlink:href="#DejaVuSans-6c" x="394.523438"/>
     </g>
    </g>
   </g>
   <g id="matplotlib.axis_2">
    <g id="ytick_1">
     <g id="line2d_8">
      <defs>
       <path id="m5795753a3d" d="M 0 0 
L -3.5 0 
" style="stroke: #000000; stroke-width: 0.8"/>
      </defs>
      <g>
       <use xlink:href="#m5795753a3d" x="43.78125" y="261.216" style="stroke: #000000; stroke-width: 0.8"/>
      </g>
     </g>
     <g id="text_9">
      <!-- 0.0 -->
      <g transform="translate(20.878125 265.015219) scale(0.1 -0.1)">
       <use xlink:href="#DejaVuSans-30"/>
       <use xlink:href="#DejaVuSans-2e" x="63.623047"/>
       <use xlink:href="#DejaVuSans-30" x="95.410156"/>
      </g>
     </g>
    </g>
    <g id="ytick_2">
     <g id="line2d_9">
      <g>
       <use xlink:href="#m5795753a3d" x="43.78125" y="212.710737" style="stroke: #000000; stroke-width: 0.8"/>
      </g>
     </g>
     <g id="text_10">
      <!-- 0.2 -->
      <g transform="translate(20.878125 216.509956) scale(0.1 -0.1)">
       <use xlink:href="#DejaVuSans-30"/>
       <use xlink:href="#DejaVuSans-2e" x="63.623047"/>
       <use xlink:href="#DejaVuSans-32" x="95.410156"/>
      </g>
     </g>
    </g>
    <g id="ytick_3">
     <g id="line2d_10">
      <g>
       <use xlink:href="#m5795753a3d" x="43.78125" y="164.205474" style="stroke: #000000; stroke-width: 0.8"/>
      </g>
     </g>
     <g id="text_11">
      <!-- 0.4 -->
      <g transform="translate(20.878125 168.004692) scale(0.1 -0.1)">
       <use xlink:href="#DejaVuSans-30"/>
       <use xlink:href="#DejaVuSans-2e" x="63.623047"/>
       <use xlink:href="#DejaVuSans-34" x="95.410156"/>
      </g>
     </g>
    </g>
    <g id="ytick_4">
     <g id="line2d_11">
      <g>
       <use xlink:href="#m5795753a3d" x="43.78125" y="115.700211" style="stroke: #000000; stroke-width: 0.8"/>
      </g>
     </g>
     <g id="text_12">
      <!-- 0.6 -->
      <g transform="translate(20.878125 119.499429) scale(0.1 -0.1)">
       <use xlink:href="#DejaVuSans-30"/>
       <use xlink:href="#DejaVuSans-2e" x="63.623047"/>
       <use xlink:href="#DejaVuSans-36" x="95.410156"/>
      </g>
     </g>
    </g>
    <g id="ytick_5">
     <g id="line2d_12">
      <g>
       <use xlink:href="#m5795753a3d" x="43.78125" y="67.194947" style="stroke: #000000; stroke-width: 0.8"/>
      </g>
     </g>
     <g id="text_13">
      <!-- 0.8 -->
      <g transform="translate(20.878125 70.994166) scale(0.1 -0.1)">
       <defs>
        <path id="DejaVuSans-38" d="M 2034 2216 
Q 1584 2216 1326 1975 
Q 1069 1734 1069 1313 
Q 1069 891 1326 650 
Q 1584 409 2034 409 
Q 2484 409 2743 651 
Q 3003 894 3003 1313 
Q 3003 1734 2745 1975 
Q 2488 2216 2034 2216 
z
M 1403 2484 
Q 997 2584 770 2862 
Q 544 3141 544 3541 
Q 544 4100 942 4425 
Q 1341 4750 2034 4750 
Q 2731 4750 3128 4425 
Q 3525 4100 3525 3541 
Q 3525 3141 3298 2862 
Q 3072 2584 2669 2484 
Q 3125 2378 3379 2068 
Q 3634 1759 3634 1313 
Q 3634 634 3220 271 
Q 2806 -91 2034 -91 
Q 1263 -91 848 271 
Q 434 634 434 1313 
Q 434 1759 690 2068 
Q 947 2378 1403 2484 
z
M 1172 3481 
Q 1172 3119 1398 2916 
Q 1625 2713 2034 2713 
Q 2441 2713 2670 2916 
Q 2900 3119 2900 3481 
Q 2900 3844 2670 4047 
Q 2441 4250 2034 4250 
Q 1625 4250 1398 4047 
Q 1172 3844 1172 3481 
z
" transform="scale(0.015625)"/>
       </defs>
       <use xlink:href="#DejaVuSans-30"/>
       <use xlink:href="#DejaVuSans-2e" x="63.623047"/>
       <use xlink:href="#DejaVuSans-38" x="95.410156"/>
      </g>
     </g>
    </g>
    <g id="ytick_6">
     <g id="line2d_13">
      <g>
       <use xlink:href="#m5795753a3d" x="43.78125" y="18.689684" style="stroke: #000000; stroke-width: 0.8"/>
      </g>
     </g>
     <g id="text_14">
      <!-- 1.0 -->
      <g transform="translate(20.878125 22.488903) scale(0.1 -0.1)">
       <defs>
        <path id="DejaVuSans-31" d="M 794 531 
L 1825 531 
L 1825 4091 
L 703 3866 
L 703 4441 
L 1819 4666 
L 2450 4666 
L 2450 531 
L 3481 531 
L 3481 0 
L 794 0 
L 794 531 
z
" transform="scale(0.015625)"/>
       </defs>
       <use xlink:href="#DejaVuSans-31"/>
       <use xlink:href="#DejaVuSans-2e" x="63.623047"/>
       <use xlink:href="#DejaVuSans-30" x="95.410156"/>
      </g>
     </g>
    </g>
    <g id="text_15">
     <!-- Cumulative density in training -->
     <g transform="translate(14.798438 215.820844) rotate(-90) scale(0.1 -0.1)">
      <defs>
       <path id="DejaVuSans-43" d="M 4122 4306 
L 4122 3641 
Q 3803 3938 3442 4084 
Q 3081 4231 2675 4231 
Q 1875 4231 1450 3742 
Q 1025 3253 1025 2328 
Q 1025 1406 1450 917 
Q 1875 428 2675 428 
Q 3081 428 3442 575 
Q 3803 722 4122 1019 
L 4122 359 
Q 3791 134 3420 21 
Q 3050 -91 2638 -91 
Q 1578 -91 968 557 
Q 359 1206 359 2328 
Q 359 3453 968 4101 
Q 1578 4750 2638 4750 
Q 3056 4750 3426 4639 
Q 3797 4528 4122 4306 
z
" transform="scale(0.015625)"/>
       <path id="DejaVuSans-6d" d="M 3328 2828 
Q 3544 3216 3844 3400 
Q 4144 3584 4550 3584 
Q 5097 3584 5394 3201 
Q 5691 2819 5691 2113 
L 5691 0 
L 5113 0 
L 5113 2094 
Q 5113 2597 4934 2840 
Q 4756 3084 4391 3084 
Q 3944 3084 3684 2787 
Q 3425 2491 3425 1978 
L 3425 0 
L 2847 0 
L 2847 2094 
Q 2847 2600 2669 2842 
Q 2491 3084 2119 3084 
Q 1678 3084 1418 2786 
Q 1159 2488 1159 1978 
L 1159 0 
L 581 0 
L 581 3500 
L 1159 3500 
L 1159 2956 
Q 1356 3278 1631 3431 
Q 1906 3584 2284 3584 
Q 2666 3584 2933 3390 
Q 3200 3197 3328 2828 
z
" transform="scale(0.015625)"/>
       <path id="DejaVuSans-74" d="M 1172 4494 
L 1172 3500 
L 2356 3500 
L 2356 3053 
L 1172 3053 
L 1172 1153 
Q 1172 725 1289 603 
Q 1406 481 1766 481 
L 2356 481 
L 2356 0 
L 1766 0 
Q 1100 0 847 248 
Q 594 497 594 1153 
L 594 3053 
L 172 3053 
L 172 3500 
L 594 3500 
L 594 4494 
L 1172 4494 
z
" transform="scale(0.015625)"/>
       <path id="DejaVuSans-76" d="M 191 3500 
L 800 3500 
L 1894 563 
L 2988 3500 
L 3597 3500 
L 2284 0 
L 1503 0 
L 191 3500 
z
" transform="scale(0.015625)"/>
       <path id="DejaVuSans-20" transform="scale(0.015625)"/>
       <path id="DejaVuSans-6e" d="M 3513 2113 
L 3513 0 
L 2938 0 
L 2938 2094 
Q 2938 2591 2744 2837 
Q 2550 3084 2163 3084 
Q 1697 3084 1428 2787 
Q 1159 2491 1159 1978 
L 1159 0 
L 581 0 
L 581 3500 
L 1159 3500 
L 1159 2956 
Q 1366 3272 1645 3428 
Q 1925 3584 2291 3584 
Q 2894 3584 3203 3211 
Q 3513 2838 3513 2113 
z
" transform="scale(0.015625)"/>
       <path id="DejaVuSans-79" d="M 2059 -325 
Q 1816 -950 1584 -1140 
Q 1353 -1331 966 -1331 
L 506 -1331 
L 506 -850 
L 844 -850 
Q 1081 -850 1212 -737 
Q 1344 -625 1503 -206 
L 1606 56 
L 191 3500 
L 800 3500 
L 1894 763 
L 2988 3500 
L 3597 3500 
L 2059 -325 
z
" transform="scale(0.015625)"/>
       <path id="DejaVuSans-72" d="M 2631 2963 
Q 2534 3019 2420 3045 
Q 2306 3072 2169 3072 
Q 1681 3072 1420 2755 
Q 1159 2438 1159 1844 
L 1159 0 
L 581 0 
L 581 3500 
L 1159 3500 
L 1159 2956 
Q 1341 3275 1631 3429 
Q 1922 3584 2338 3584 
Q 2397 3584 2469 3576 
Q 2541 3569 2628 3553 
L 2631 2963 
z
" transform="scale(0.015625)"/>
       <path id="DejaVuSans-67" d="M 2906 1791 
Q 2906 2416 2648 2759 
Q 2391 3103 1925 3103 
Q 1463 3103 1205 2759 
Q 947 2416 947 1791 
Q 947 1169 1205 825 
Q 1463 481 1925 481 
Q 2391 481 2648 825 
Q 2906 1169 2906 1791 
z
M 3481 434 
Q 3481 -459 3084 -895 
Q 2688 -1331 1869 -1331 
Q 1566 -1331 1297 -1286 
Q 1028 -1241 775 -1147 
L 775 -588 
Q 1028 -725 1275 -790 
Q 1522 -856 1778 -856 
Q 2344 -856 2625 -561 
Q 2906 -266 2906 331 
L 2906 616 
Q 2728 306 2450 153 
Q 2172 0 1784 0 
Q 1141 0 747 490 
Q 353 981 353 1791 
Q 353 2603 747 3093 
Q 1141 3584 1784 3584 
Q 2172 3584 2450 3431 
Q 2728 3278 2906 2969 
L 2906 3500 
L 3481 3500 
L 3481 434 
z
" transform="scale(0.015625)"/>
      </defs>
      <use xlink:href="#DejaVuSans-43"/>
      <use xlink:href="#DejaVuSans-75" x="69.824219"/>
      <use xlink:href="#DejaVuSans-6d" x="133.203125"/>
      <use xlink:href="#DejaVuSans-75" x="230.615234"/>
      <use xlink:href="#DejaVuSans-6c" x="293.994141"/>
      <use xlink:href="#DejaVuSans-61" x="321.777344"/>
      <use xlink:href="#DejaVuSans-74" x="383.056641"/>
      <use xlink:href="#DejaVuSans-69" x="422.265625"/>
      <use xlink:href="#DejaVuSans-76" x="450.048828"/>
      <use xlink:href="#DejaVuSans-65" x="509.228516"/>
      <use xlink:href="#DejaVuSans-20" x="570.751953"/>
      <use xlink:href="#DejaVuSans-64" x="602.539062"/>
      <use xlink:href="#DejaVuSans-65" x="666.015625"/>
      <use xlink:href="#DejaVuSans-6e" x="727.539062"/>
      <use xlink:href="#DejaVuSans-73" x="790.917969"/>
      <use xlink:href="#DejaVuSans-69" x="843.017578"/>
      <use xlink:href="#DejaVuSans-74" x="870.800781"/>
      <use xlink:href="#DejaVuSans-79" x="910.009766"/>
      <use xlink:href="#DejaVuSans-20" x="969.189453"/>
      <use xlink:href="#DejaVuSans-69" x="1000.976562"/>
      <use xlink:href="#DejaVuSans-6e" x="1028.759766"/>
      <use xlink:href="#DejaVuSans-20" x="1092.138672"/>
      <use xlink:href="#DejaVuSans-74" x="1123.925781"/>
      <use xlink:href="#DejaVuSans-72" x="1163.134766"/>
      <use xlink:href="#DejaVuSans-61" x="1204.248047"/>
      <use xlink:href="#DejaVuSans-69" x="1265.527344"/>
      <use xlink:href="#DejaVuSans-6e" x="1293.310547"/>
      <use xlink:href="#DejaVuSans-69" x="1356.689453"/>
      <use xlink:href="#DejaVuSans-6e" x="1384.472656"/>
      <use xlink:href="#DejaVuSans-67" x="1447.851562"/>
     </g>
    </g>
   </g>
   <g id="line2d_14">
    <path d="M -1 259.252266 
L 10.455538 258.790737 
L 18.732618 258.184421 
L 42.346046 257.578105 
L 52.018153 256.971789 
L 52.067514 256.365474 
L 64.826214 255.759158 
L 67.591504 255.152842 
L 71.562985 254.546526 
L 76.62093 253.940211 
L 82.736795 252.727579 
L 85.083525 252.121263 
L 86.39787 251.514947 
L 88.197271 250.908632 
L 90.980267 249.089684 
L 91.105607 248.483368 
L 98.322615 246.664421 
L 99.59926 246.058105 
L 101.768076 245.451789 
L 103.360296 244.239158 
L 105.894156 243.632842 
L 106.692699 242.420211 
L 108.42591 241.813895 
L 108.535108 240.601263 
L 109.51229 239.994947 
L 110.117383 239.388632 
L 111.102843 238.782316 
L 112.353834 238.176 
L 113.17726 237.569684 
L 113.574017 236.963368 
L 115.463083 236.357053 
L 116.42615 235.750737 
L 118.117989 235.144421 
L 119.089761 234.538105 
L 120.314295 233.931789 
L 120.815609 233.325474 
L 120.911578 232.719158 
L 122.090678 232.112842 
L 122.892317 230.900211 
L 122.973896 230.293895 
L 125.820633 229.081263 
L 127.550665 228.474947 
L 128.130407 227.868632 
L 128.203808 227.262316 
L 129.626792 226.656 
L 130.065228 226.049684 
L 130.195757 225.443368 
L 131.98277 224.837053 
L 132.127271 224.230737 
L 133.831632 223.018105 
L 133.90088 222.411789 
L 134.125624 221.805474 
L 134.519875 221.199158 
L 134.614623 220.592842 
L 135.146626 219.986526 
L 135.789576 218.773895 
L 135.946858 218.167579 
L 136.667358 217.561263 
L 136.712538 216.954947 
L 137.953787 216.348632 
L 137.997556 215.742316 
L 138.732726 214.529684 
L 139.304479 213.923368 
L 141.543702 212.104421 
L 143.349286 211.498105 
L 143.859428 210.891789 
L 144.61291 210.285474 
L 145.695067 209.679158 
L 146.082785 209.072842 
L 146.718899 208.466526 
L 146.768033 207.860211 
L 146.94248 207.253895 
L 146.988754 206.647579 
L 147.279736 206.041263 
L 148.610749 205.434947 
L 148.660543 204.828632 
L 148.913232 204.222316 
L 150.693073 203.616 
L 151.037773 203.009684 
L 151.292527 201.797053 
L 151.948279 200.584421 
L 152.476233 199.978105 
L 153.690616 197.552842 
L 154.846441 196.946526 
L 156.448858 196.340211 
L 157.655151 195.733895 
L 157.706118 195.127579 
L 158.529029 194.521263 
L 158.906628 192.702316 
L 159.374078 192.096 
L 159.454594 191.489684 
L 160.273499 190.883368 
L 160.68608 189.064421 
L 161.621363 187.851789 
L 161.676264 187.245474 
L 162.072332 186.032842 
L 163.157247 185.426526 
L 163.265433 184.820211 
L 163.827615 184.213895 
L 164.149835 183.607579 
L 164.762896 183.001263 
L 164.795491 182.394947 
L 165.487621 181.182316 
L 165.707653 180.576 
L 165.740085 179.969684 
L 166.104167 178.757053 
L 166.444461 178.150737 
L 166.501226 177.544421 
L 166.795639 176.938105 
L 167.287865 176.331789 
L 167.381293 175.119158 
L 168.258891 174.512842 
L 168.404016 173.906526 
L 168.682647 173.300211 
L 169.407135 172.693895 
L 169.457799 172.087579 
L 170.046535 170.268632 
L 170.590929 168.449684 
L 171.190936 167.843368 
L 171.38137 167.237053 
L 171.409807 166.630737 
L 172.301422 166.024421 
L 172.820425 164.811789 
L 173.475643 164.205474 
L 173.58271 163.599158 
L 174.585296 162.992842 
L 175.002781 160.567579 
L 175.496975 159.961263 
L 175.890678 158.748632 
L 176.713193 158.142316 
L 177.061211 156.929684 
L 177.213541 156.323368 
L 177.524983 155.717053 
L 177.682187 155.110737 
L 177.719809 154.504421 
L 178.134481 153.291789 
L 178.28617 152.079158 
L 178.858389 151.472842 
L 179.057679 149.047579 
L 179.34144 147.834947 
L 179.699757 147.228632 
L 179.840593 146.622316 
L 180.898226 144.197053 
L 181.429996 143.590737 
L 182.190422 142.378105 
L 182.243391 141.771789 
L 183.168422 141.165474 
L 183.463644 140.559158 
L 184.086621 139.952842 
L 184.876263 139.346526 
L 184.967192 137.527579 
L 185.189744 136.921263 
L 185.890313 136.314947 
L 186.130778 135.708632 
L 187.095123 134.496 
L 187.581342 133.283368 
L 187.714499 132.677053 
L 187.96609 132.070737 
L 187.996957 131.464421 
L 188.261086 130.858105 
L 188.304844 130.251789 
L 188.780711 129.039158 
L 189.196424 128.432842 
L 189.405517 127.826526 
L 190.060073 127.220211 
L 190.362239 124.794947 
L 190.401397 123.582316 
L 190.716071 122.976 
L 190.823393 121.763368 
L 191.182902 121.157053 
L 191.236538 120.550737 
L 191.994485 119.944421 
L 192.271716 119.338105 
L 192.321496 118.731789 
L 192.891243 118.125474 
L 193.207885 117.519158 
L 193.245955 116.912842 
L 193.578318 116.306526 
L 193.67922 115.093895 
L 194.652189 110.849684 
L 195.12079 110.243368 
L 195.427947 109.637053 
L 195.582577 108.424421 
L 195.82218 107.818105 
L 196.297978 107.211789 
L 196.370856 106.605474 
L 196.654455 105.999158 
L 196.670933 105.392842 
L 196.90742 104.786526 
L 197.289003 104.180211 
L 197.92349 103.573895 
L 198.036421 101.754947 
L 198.429108 101.148632 
L 198.532603 100.542316 
L 198.952308 99.936 
L 198.987859 99.329684 
L 199.279344 98.723368 
L 199.478589 97.510737 
L 199.839268 96.904421 
L 200.489459 94.479158 
L 201.143821 93.872842 
L 201.350207 93.266526 
L 201.692564 92.660211 
L 202.188363 90.841263 
L 203.082187 90.234947 
L 203.721406 89.628632 
L 203.752613 89.022316 
L 203.991911 88.416 
L 204.120812 87.203368 
L 204.776221 84.171789 
L 205.095087 83.565474 
L 205.878609 82.959158 
L 206.216139 80.533895 
L 206.644838 79.927579 
L 206.811764 79.321263 
L 206.844707 78.714947 
L 207.155728 77.502316 
L 207.4279 74.470737 
L 207.428871 73.864421 
L 207.647505 73.258105 
L 207.998232 72.651789 
L 208.179401 72.045474 
L 208.785488 71.439158 
L 208.964258 70.832842 
L 209.317013 70.226526 
L 210.731986 69.620211 
L 210.8198 69.013895 
L 211.37432 68.407579 
L 211.471911 66.588632 
L 211.659893 65.376 
L 211.914702 63.557053 
L 212.09152 62.950737 
L 212.556358 62.344421 
L 212.635921 61.738105 
L 212.975516 60.525474 
L 212.979033 59.919158 
L 213.58763 58.706526 
L 214.303828 58.100211 
L 215.334842 56.887579 
L 215.603796 56.281263 
L 216.644956 55.068632 
L 217.090219 53.249684 
L 218.287054 52.037053 
L 218.956286 50.824421 
L 219.02953 50.218105 
L 220.482474 49.611789 
L 220.715444 49.005474 
L 220.802758 48.399158 
L 221.029915 47.792842 
L 221.887533 47.186526 
L 222.197861 46.580211 
L 222.34125 45.973895 
L 222.34125 39.304421 
L 223.967184 38.698105 
L 225.251145 37.485474 
L 225.546061 36.879158 
L 225.686668 36.272842 
L 226.226592 35.666526 
L 226.544156 34.453895 
L 227.114962 33.847579 
L 229.117779 33.241263 
L 231.655947 32.028632 
L 232.286917 31.422316 
L 232.399126 30.209684 
L 233.963398 29.603368 
L 234.598662 28.997053 
L 237.090225 28.390737 
L 237.209488 27.784421 
L 237.703822 27.178105 
L 241.778945 25.965474 
L 244.135555 25.359158 
L 244.69125 24.752842 
L 247.335581 24.146526 
L 247.588719 23.540211 
L 249.857692 22.933895 
L 254.738776 22.327579 
L 255.010381 21.721263 
L 257.357216 21.114947 
L 265.727791 19.902316 
L 293.895669 19.296 
L 293.895669 19.296 
" clip-path="url(#p421f8bece4)" style="fill: none; stroke: #ff0000; stroke-width: 1.5; stroke-linecap: square"/>
   </g>
   <g id="line2d_15">
    <path d="M 76.645632 261.216 
L 78.335438 260.609684 
L 81.429222 260.003368 
L 110.28608 259.397053 
L 113.182961 258.790737 
L 114.69296 258.184421 
L 116.904454 257.578105 
L 123.378396 256.971789 
L 124.969942 256.365474 
L 132.926182 255.759158 
L 136.176632 255.152842 
L 144.397718 254.546526 
L 150.036395 253.940211 
L 150.511382 253.333895 
L 153.64956 252.727579 
L 154.622377 251.514947 
L 161.022859 250.908632 
L 161.983958 250.302316 
L 163.245264 249.696 
L 165.21025 249.089684 
L 166.308805 247.877053 
L 166.545987 247.270737 
L 170.07472 244.845474 
L 170.305957 244.239158 
L 171.14627 243.632842 
L 171.292403 243.026526 
L 172.237933 242.420211 
L 173.187171 239.994947 
L 174.163797 239.388632 
L 174.239503 238.782316 
L 174.682848 237.569684 
L 174.769514 236.357053 
L 175.066063 235.750737 
L 175.098618 235.144421 
L 176.367425 234.538105 
L 177.309736 233.931789 
L 178.98209 233.325474 
L 179.047281 232.719158 
L 180.136197 231.506526 
L 182.430475 230.900211 
L 183.215634 230.293895 
L 183.265037 229.687579 
L 183.440326 229.081263 
L 184.818123 228.474947 
L 185.0776 227.868632 
L 186.078236 227.262316 
L 186.579987 224.837053 
L 187.408812 223.624421 
L 187.715168 223.018105 
L 187.724795 222.411789 
L 188.32119 221.805474 
L 188.497211 221.199158 
L 189.429013 219.986526 
L 191.030022 218.167579 
L 191.03134 217.561263 
L 191.498536 216.954947 
L 191.560961 216.348632 
L 191.833717 215.742316 
L 191.940338 215.136 
L 192.836956 213.923368 
L 192.841304 213.317053 
L 193.732694 210.285474 
L 193.795656 209.679158 
L 194.29671 207.860211 
L 194.875571 207.253895 
L 195.064689 206.647579 
L 195.12721 206.041263 
L 195.669016 204.222316 
L 197.540867 202.403368 
L 198.337801 200.584421 
L 199.306434 199.978105 
L 200.773703 198.159158 
L 200.994279 197.552842 
L 201.094916 196.340211 
L 201.884283 195.733895 
L 202.426475 195.127579 
L 203.092529 193.914947 
L 203.344942 192.096 
L 203.53001 190.883368 
L 204.107498 190.277053 
L 204.125712 189.670737 
L 204.430649 189.064421 
L 204.52295 188.458105 
L 205.265925 187.851789 
L 205.355492 187.245474 
L 206.020783 186.639158 
L 206.180125 186.032842 
L 206.281398 184.820211 
L 206.581427 184.213895 
L 206.668882 183.607579 
L 207.065307 182.394947 
L 207.167882 181.182316 
L 207.551431 180.576 
L 208.572166 177.544421 
L 208.593058 176.938105 
L 208.907143 176.331789 
L 209.025727 175.119158 
L 209.415318 174.512842 
L 210.512395 173.906526 
L 210.813464 173.300211 
L 211.41956 172.693895 
L 212.269133 172.087579 
L 212.464678 170.874947 
L 212.920459 170.268632 
L 213.708449 167.237053 
L 214.356672 166.630737 
L 214.432533 165.418105 
L 214.866254 164.205474 
L 215.191853 163.599158 
L 215.238245 162.992842 
L 215.480357 162.386526 
L 215.557606 161.780211 
L 215.877139 161.173895 
L 215.937823 160.567579 
L 216.278236 159.961263 
L 216.288224 159.354947 
L 216.909377 158.748632 
L 217.068649 158.142316 
L 218.567589 156.323368 
L 219.336333 155.717053 
L 219.498784 155.110737 
L 219.799289 150.866526 
L 220.573393 150.260211 
L 220.716261 149.047579 
L 220.919768 148.441263 
L 221.483489 147.834947 
L 221.52946 147.228632 
L 221.924244 146.622316 
L 222.34125 144.197053 
L 222.34125 137.527579 
L 222.810641 135.708632 
L 222.827004 135.102316 
L 223.348325 134.496 
L 223.412737 132.677053 
L 223.712509 130.858105 
L 223.746591 130.251789 
L 223.925385 129.645474 
L 224.011053 128.432842 
L 224.379014 127.220211 
L 224.657301 126.613895 
L 225.83745 126.007579 
L 226.322525 124.188632 
L 226.93174 123.582316 
L 227.304791 122.976 
L 227.541828 122.369684 
L 227.607655 121.763368 
L 228.038931 121.157053 
L 228.49009 119.338105 
L 228.628947 118.125474 
L 229.089523 117.519158 
L 229.166233 116.306526 
L 229.353865 115.700211 
L 229.388676 115.093895 
L 229.545171 114.487579 
L 229.837254 113.881263 
L 231.325996 113.274947 
L 231.512108 112.062316 
L 232.135248 111.456 
L 232.924584 110.849684 
L 233.169495 110.243368 
L 233.202377 109.637053 
L 233.444699 109.030737 
L 233.555741 107.818105 
L 233.691486 107.211789 
L 233.969369 106.605474 
L 234.696252 102.967579 
L 234.845344 101.754947 
L 235.196138 101.148632 
L 235.649893 98.723368 
L 235.996804 98.117053 
L 236.211948 97.510737 
L 236.441679 95.691789 
L 236.626757 95.085474 
L 237.066355 94.479158 
L 237.221506 93.872842 
L 237.237206 93.266526 
L 237.762269 92.660211 
L 238.125656 91.447579 
L 239.232991 90.841263 
L 239.506187 90.234947 
L 239.522325 89.628632 
L 239.899608 89.022316 
L 240.051517 88.416 
L 241.356603 87.203368 
L 241.38369 86.597053 
L 241.788663 85.384421 
L 242.068184 83.565474 
L 242.550209 81.746526 
L 242.965162 81.140211 
L 243.226806 80.533895 
L 243.718127 76.896 
L 244.107617 76.289684 
L 244.447639 75.077053 
L 244.943407 74.470737 
L 245.14182 73.864421 
L 245.198615 73.258105 
L 246.498922 72.651789 
L 246.560075 71.439158 
L 247.067778 70.226526 
L 247.171059 69.620211 
L 247.535518 69.013895 
L 248.055418 68.407579 
L 248.170578 67.194947 
L 248.915269 65.982316 
L 249.563752 65.376 
L 249.654142 64.769684 
L 250.203633 64.163368 
L 250.918646 63.557053 
L 251.225668 62.344421 
L 251.306403 61.738105 
L 251.504257 61.131789 
L 251.513852 60.525474 
L 252.096561 59.919158 
L 252.282649 58.706526 
L 252.642114 58.100211 
L 253.758849 57.493895 
L 254.627087 56.887579 
L 255.231923 55.674947 
L 255.256708 55.068632 
L 255.579497 53.856 
L 256.363093 53.249684 
L 256.394246 52.643368 
L 256.560739 52.037053 
L 257.049219 51.430737 
L 257.246094 50.824421 
L 257.579932 50.218105 
L 257.652095 49.611789 
L 258.682214 47.186526 
L 260.440469 46.580211 
L 260.516232 45.973895 
L 261.653131 44.761263 
L 262.050938 43.548632 
L 262.537078 42.942316 
L 262.845208 42.336 
L 262.966981 41.729684 
L 263.770387 41.123368 
L 264.131242 40.517053 
L 265.371068 39.910737 
L 265.732787 39.304421 
L 265.938805 38.091789 
L 269.022552 37.485474 
L 270.779801 36.879158 
L 270.868172 36.272842 
L 273.275048 35.666526 
L 274.865402 35.060211 
L 277.209781 34.453895 
L 277.444303 33.847579 
L 279.390998 33.241263 
L 279.55129 32.634947 
L 280.069731 32.028632 
L 283.073031 31.422316 
L 287.681737 30.816 
L 288.413322 30.209684 
L 291.217318 29.603368 
L 291.645704 28.390737 
L 295.370621 27.784421 
L 296.20626 27.178105 
L 296.224016 26.571789 
L 296.694588 25.965474 
L 310.248953 24.752842 
L 313.582022 24.146526 
L 314.395705 23.540211 
L 320.278065 22.933895 
L 323.484497 22.327579 
L 325.328233 21.721263 
L 338.487738 21.114947 
L 346.360478 20.508632 
L 353.658357 19.296 
L 353.658357 19.296 
" clip-path="url(#p421f8bece4)" style="fill: none; stroke: #008000; stroke-width: 1.5; stroke-linecap: square"/>
   </g>
   <g id="line2d_16">
    <path d="M 143.132872 261.216 
L 159.94377 260.609684 
L 160.209362 260.003368 
L 172.931288 259.397053 
L 177.374206 258.790737 
L 186.263091 258.184421 
L 192.864676 257.578105 
L 196.112833 256.971789 
L 197.608584 256.365474 
L 198.239389 255.759158 
L 201.86131 255.152842 
L 202.600304 254.546526 
L 206.526676 253.940211 
L 206.535631 253.333895 
L 208.85108 252.727579 
L 209.055569 252.121263 
L 209.856602 251.514947 
L 210.096669 250.908632 
L 210.21666 250.302316 
L 211.072321 249.696 
L 211.296394 249.089684 
L 212.425149 247.877053 
L 213.753192 247.270737 
L 214.490553 246.664421 
L 214.803461 246.058105 
L 215.324308 245.451789 
L 215.588068 244.845474 
L 216.405053 244.239158 
L 217.151197 243.026526 
L 218.593265 242.420211 
L 220.761423 241.813895 
L 222.33941 241.207579 
L 222.354627 233.325474 
L 222.528366 232.719158 
L 223.586376 232.112842 
L 223.586503 231.506526 
L 224.759875 230.900211 
L 224.791456 230.293895 
L 225.121042 229.687579 
L 225.172295 229.081263 
L 225.514855 228.474947 
L 225.568111 227.868632 
L 226.893424 227.262316 
L 227.495025 226.049684 
L 227.64399 225.443368 
L 228.089046 224.837053 
L 228.52055 223.624421 
L 228.893331 223.018105 
L 229.170482 221.805474 
L 229.217658 221.199158 
L 229.760075 220.592842 
L 229.934221 219.986526 
L 229.969955 219.380211 
L 230.497898 218.773895 
L 230.658526 217.561263 
L 231.066879 216.954947 
L 231.253812 216.348632 
L 231.904495 215.742316 
L 232.751916 215.136 
L 233.084484 213.317053 
L 233.355943 212.710737 
L 233.438512 212.104421 
L 234.392156 209.679158 
L 234.962252 209.072842 
L 234.987155 208.466526 
L 235.316044 207.253895 
L 235.990434 206.647579 
L 236.450566 206.041263 
L 236.892626 203.009684 
L 237.460822 201.797053 
L 237.584203 200.584421 
L 237.843485 199.978105 
L 238.517834 199.371789 
L 238.743014 197.552842 
L 238.759022 196.340211 
L 239.218279 195.733895 
L 240.095567 195.127579 
L 240.504143 193.914947 
L 241.1447 193.308632 
L 241.15481 192.702316 
L 241.662874 191.489684 
L 241.854769 190.883368 
L 242.217365 190.277053 
L 242.28971 189.670737 
L 242.772867 189.064421 
L 243.101283 188.458105 
L 243.756803 187.851789 
L 243.866723 186.639158 
L 244.181723 186.032842 
L 244.368776 185.426526 
L 244.507865 182.394947 
L 245.21548 181.788632 
L 245.365827 181.182316 
L 246.185021 180.576 
L 246.607063 179.363368 
L 246.896899 178.757053 
L 247.460527 178.150737 
L 247.68394 176.938105 
L 248.337147 176.331789 
L 248.741914 174.512842 
L 249.134946 173.906526 
L 249.310466 173.300211 
L 250.002238 172.693895 
L 250.342179 170.874947 
L 250.700344 169.662316 
L 250.722129 169.056 
L 251.630432 167.237053 
L 251.686738 166.630737 
L 252.363266 166.024421 
L 253.752935 161.173895 
L 253.794132 159.961263 
L 254.448767 159.354947 
L 254.623583 158.748632 
L 255.875834 158.142316 
L 256.565877 155.110737 
L 256.948703 154.504421 
L 257.530529 153.898105 
L 258.804288 153.291789 
L 259.090435 152.685474 
L 259.65362 152.079158 
L 259.790051 151.472842 
L 260.306999 150.866526 
L 260.662943 150.260211 
L 260.811368 149.653895 
L 260.995979 147.834947 
L 261.351378 147.228632 
L 261.389924 146.016 
L 262.008255 144.803368 
L 262.372721 143.590737 
L 262.392429 142.984421 
L 262.857747 142.378105 
L 263.709215 136.314947 
L 264.670538 133.889684 
L 264.888341 132.070737 
L 265.448355 131.464421 
L 265.91422 128.432842 
L 266.076444 127.220211 
L 266.496726 126.613895 
L 266.669268 126.007579 
L 267.177363 125.401263 
L 267.513679 123.582316 
L 267.940007 122.976 
L 268.535044 122.369684 
L 268.835407 121.763368 
L 269.278127 121.157053 
L 269.943083 120.550737 
L 270.021959 119.944421 
L 270.231941 119.338105 
L 270.309107 118.731789 
L 271.234097 118.125474 
L 271.559475 116.912842 
L 272.169278 116.306526 
L 272.236261 115.093895 
L 272.671355 114.487579 
L 273.776141 113.274947 
L 274.006214 111.456 
L 274.773675 106.605474 
L 275.240655 105.999158 
L 275.313454 105.392842 
L 275.603375 104.786526 
L 276.543625 103.573895 
L 276.766529 102.361263 
L 277.015813 101.754947 
L 277.078435 100.542316 
L 277.39743 99.936 
L 277.621274 98.117053 
L 277.708124 97.510737 
L 278.582745 96.904421 
L 278.69043 95.691789 
L 279.257867 95.085474 
L 279.315044 93.872842 
L 279.575705 93.266526 
L 279.638214 92.660211 
L 280.245637 92.053895 
L 280.897602 90.841263 
L 282.768514 90.234947 
L 282.945097 89.022316 
L 283.148575 88.416 
L 283.217977 87.809684 
L 283.46258 87.203368 
L 284.437075 86.597053 
L 285.003765 85.990737 
L 285.058766 85.384421 
L 285.248569 84.778105 
L 285.954654 84.171789 
L 286.39966 82.352842 
L 287.193797 81.746526 
L 287.501177 80.533895 
L 287.926459 79.927579 
L 288.165433 79.321263 
L 288.228696 78.714947 
L 288.618493 78.108632 
L 288.827319 76.896 
L 288.949803 75.683368 
L 290.149149 73.258105 
L 290.213525 72.045474 
L 290.703059 71.439158 
L 291.848229 70.832842 
L 291.932746 70.226526 
L 293.021236 69.013895 
L 293.234769 68.407579 
L 294.140763 67.801263 
L 294.332202 65.982316 
L 295.007222 65.376 
L 296.530534 64.769684 
L 297.449831 64.163368 
L 299.053369 63.557053 
L 301.112937 62.950737 
L 301.123725 62.344421 
L 301.328221 61.738105 
L 301.336572 61.131789 
L 302.312803 60.525474 
L 302.448167 59.312842 
L 302.661808 58.706526 
L 303.875347 58.100211 
L 304.817157 57.493895 
L 305.051334 56.887579 
L 305.139998 56.281263 
L 305.480297 55.674947 
L 305.52296 55.068632 
L 306.5374 54.462316 
L 306.880617 53.856 
L 306.912281 53.249684 
L 307.593993 52.643368 
L 307.653948 52.037053 
L 310.748657 50.824421 
L 311.479873 50.218105 
L 311.790271 49.611789 
L 313.002854 49.005474 
L 313.1673 48.399158 
L 313.641631 47.792842 
L 313.710348 47.186526 
L 314.311117 46.580211 
L 316.455457 45.973895 
L 316.472461 45.367579 
L 317.7857 44.154947 
L 318.800879 43.548632 
L 320.272759 42.942316 
L 320.596923 42.336 
L 321.422309 41.729684 
L 321.440709 41.123368 
L 321.941381 40.517053 
L 323.849784 39.910737 
L 325.010855 39.304421 
L 327.656053 38.698105 
L 329.406561 38.091789 
L 330.059997 37.485474 
L 330.108353 36.879158 
L 332.165965 36.272842 
L 333.981347 34.453895 
L 334.278425 33.847579 
L 334.726147 33.241263 
L 337.395202 32.634947 
L 338.796262 32.028632 
L 341.836169 31.422316 
L 342.44795 30.816 
L 346.422558 30.209684 
L 346.435856 29.603368 
L 348.260839 28.997053 
L 348.553603 28.390737 
L 349.790275 27.784421 
L 352.171146 27.178105 
L 352.776976 26.571789 
L 356.867943 25.965474 
L 357.132172 25.359158 
L 365.725521 24.752842 
L 372.526364 24.146526 
L 373.629408 23.540211 
L 375.784618 22.933895 
L 401.533601 22.327579 
L 404.322944 21.721263 
L 410.134845 21.114947 
L 410.439321 20.508632 
L 417.052813 20.297474 
L 417.052813 20.297474 
" clip-path="url(#p421f8bece4)" style="fill: none; stroke: #0000ff; stroke-width: 1.5; stroke-linecap: square"/>
   </g>
   <g id="line2d_17">
    <path d="M -1 236.963368 
L 2.898826 236.963368 
L 8.910947 236.963368 
L 14.923068 236.963368 
L 20.935189 236.963368 
L 26.947311 236.963368 
L 32.959432 236.963368 
L 38.971553 236.963368 
L 44.983674 236.963368 
L 50.995795 236.963368 
L 57.007917 236.963368 
L 63.020038 236.963368 
L 69.032159 236.963368 
L 75.04428 236.963368 
L 81.056402 236.963368 
L 87.068523 236.963368 
L 93.080644 236.963368 
L 99.092765 236.963368 
L 105.104886 236.963368 
L 111.117008 236.963368 
L 117.129129 236.963368 
L 123.14125 236.963368 
L 129.153371 236.963368 
L 135.165492 236.963368 
L 141.177614 236.963368 
L 147.189735 236.963368 
L 153.201856 236.963368 
L 159.213977 236.963368 
L 165.226098 236.963368 
L 171.23822 236.963368 
L 177.250341 236.963368 
L 183.262462 236.963368 
L 189.274583 236.963368 
L 195.286705 236.963368 
L 201.298826 236.963368 
L 207.310947 236.963368 
L 213.323068 236.963368 
L 219.335189 236.963368 
L 225.347311 236.963368 
L 231.359432 236.963368 
L 237.371553 236.963368 
L 243.383674 236.963368 
L 249.395795 236.963368 
L 255.407917 236.963368 
L 261.420038 236.963368 
L 267.432159 236.963368 
L 273.44428 236.963368 
L 279.456402 236.963368 
L 285.468523 236.963368 
L 291.480644 236.963368 
L 297.492765 236.963368 
L 303.504886 236.963368 
L 309.517008 236.963368 
L 315.529129 236.963368 
L 321.54125 236.963368 
L 327.553371 236.963368 
L 333.565492 236.963368 
L 339.577614 236.963368 
L 345.589735 236.963368 
L 351.601856 236.963368 
L 357.613977 236.963368 
L 363.626098 236.963368 
L 369.63822 236.963368 
L 375.650341 236.963368 
L 381.662462 236.963368 
L 387.674583 236.963368 
L 393.686705 236.963368 
L 399.698826 236.963368 
L 405.710947 236.963368 
L 411.723068 236.963368 
L 417.052813 236.963368 
" clip-path="url(#p421f8bece4)" style="fill: none; stroke-dasharray: 5.55,2.4; stroke-dashoffset: 0; stroke: #000000; stroke-width: 1.5"/>
   </g>
   <g id="line2d_18">
    <path d="M -1 139.952842 
L 2.898826 139.952842 
L 8.910947 139.952842 
L 14.923068 139.952842 
L 20.935189 139.952842 
L 26.947311 139.952842 
L 32.959432 139.952842 
L 38.971553 139.952842 
L 44.983674 139.952842 
L 50.995795 139.952842 
L 57.007917 139.952842 
L 63.020038 139.952842 
L 69.032159 139.952842 
L 75.04428 139.952842 
L 81.056402 139.952842 
L 87.068523 139.952842 
L 93.080644 139.952842 
L 99.092765 139.952842 
L 105.104886 139.952842 
L 111.117008 139.952842 
L 117.129129 139.952842 
L 123.14125 139.952842 
L 129.153371 139.952842 
L 135.165492 139.952842 
L 141.177614 139.952842 
L 147.189735 139.952842 
L 153.201856 139.952842 
L 159.213977 139.952842 
L 165.226098 139.952842 
L 171.23822 139.952842 
L 177.250341 139.952842 
L 183.262462 139.952842 
L 189.274583 139.952842 
L 195.286705 139.952842 
L 201.298826 139.952842 
L 207.310947 139.952842 
L 213.323068 139.952842 
L 219.335189 139.952842 
L 225.347311 139.952842 
L 231.359432 139.952842 
L 237.371553 139.952842 
L 243.383674 139.952842 
L 249.395795 139.952842 
L 255.407917 139.952842 
L 261.420038 139.952842 
L 267.432159 139.952842 
L 273.44428 139.952842 
L 279.456402 139.952842 
L 285.468523 139.952842 
L 291.480644 139.952842 
L 297.492765 139.952842 
L 303.504886 139.952842 
L 309.517008 139.952842 
L 315.529129 139.952842 
L 321.54125 139.952842 
L 327.553371 139.952842 
L 333.565492 139.952842 
L 339.577614 139.952842 
L 345.589735 139.952842 
L 351.601856 139.952842 
L 357.613977 139.952842 
L 363.626098 139.952842 
L 369.63822 139.952842 
L 375.650341 139.952842 
L 381.662462 139.952842 
L 387.674583 139.952842 
L 393.686705 139.952842 
L 399.698826 139.952842 
L 405.710947 139.952842 
L 411.723068 139.952842 
L 417.052813 139.952842 
" clip-path="url(#p421f8bece4)" style="fill: none; stroke-dasharray: 5.55,2.4; stroke-dashoffset: 0; stroke: #000000; stroke-width: 1.5"/>
   </g>
   <g id="line2d_19">
    <path d="M -1 42.942316 
L 2.898826 42.942316 
L 8.910947 42.942316 
L 14.923068 42.942316 
L 20.935189 42.942316 
L 26.947311 42.942316 
L 32.959432 42.942316 
L 38.971553 42.942316 
L 44.983674 42.942316 
L 50.995795 42.942316 
L 57.007917 42.942316 
L 63.020038 42.942316 
L 69.032159 42.942316 
L 75.04428 42.942316 
L 81.056402 42.942316 
L 87.068523 42.942316 
L 93.080644 42.942316 
L 99.092765 42.942316 
L 105.104886 42.942316 
L 111.117008 42.942316 
L 117.129129 42.942316 
L 123.14125 42.942316 
L 129.153371 42.942316 
L 135.165492 42.942316 
L 141.177614 42.942316 
L 147.189735 42.942316 
L 153.201856 42.942316 
L 159.213977 42.942316 
L 165.226098 42.942316 
L 171.23822 42.942316 
L 177.250341 42.942316 
L 183.262462 42.942316 
L 189.274583 42.942316 
L 195.286705 42.942316 
L 201.298826 42.942316 
L 207.310947 42.942316 
L 213.323068 42.942316 
L 219.335189 42.942316 
L 225.347311 42.942316 
L 231.359432 42.942316 
L 237.371553 42.942316 
L 243.383674 42.942316 
L 249.395795 42.942316 
L 255.407917 42.942316 
L 261.420038 42.942316 
L 267.432159 42.942316 
L 273.44428 42.942316 
L 279.456402 42.942316 
L 285.468523 42.942316 
L 291.480644 42.942316 
L 297.492765 42.942316 
L 303.504886 42.942316 
L 309.517008 42.942316 
L 315.529129 42.942316 
L 321.54125 42.942316 
L 327.553371 42.942316 
L 333.565492 42.942316 
L 339.577614 42.942316 
L 345.589735 42.942316 
L 351.601856 42.942316 
L 357.613977 42.942316 
L 363.626098 42.942316 
L 369.63822 42.942316 
L 375.650341 42.942316 
L 381.662462 42.942316 
L 387.674583 42.942316 
L 393.686705 42.942316 
L 399.698826 42.942316 
L 405.710947 42.942316 
L 411.723068 42.942316 
L 417.052813 42.942316 
" clip-path="url(#p421f8bece4)" style="fill: none; stroke-dasharray: 5.55,2.4; stroke-dashoffset: 0; stroke: #000000; stroke-width: 1.5"/>
   </g>
   <g id="patch_3">
    <path d="M 43.78125 273.312 
L 43.78125 7.2 
" style="fill: none; stroke: #000000; stroke-width: 0.8; stroke-linejoin: miter; stroke-linecap: square"/>
   </g>
   <g id="patch_4">
    <path d="M 400.90125 273.312 
L 400.90125 7.2 
" style="fill: none; stroke: #000000; stroke-width: 0.8; stroke-linejoin: miter; stroke-linecap: square"/>
   </g>
   <g id="patch_5">
    <path d="M 43.78125 273.312 
L 400.90125 273.312 
" style="fill: none; stroke: #000000; stroke-width: 0.8; stroke-linejoin: miter; stroke-linecap: square"/>
   </g>
   <g id="patch_6">
    <path d="M 43.78125 7.2 
L 400.90125 7.2 
" style="fill: none; stroke: #000000; stroke-width: 0.8; stroke-linejoin: miter; stroke-linecap: square"/>
   </g>
   <g id="legend_1">
    <g id="patch_7">
     <path d="M 50.78125 59.234375 
L 116.98125 59.234375 
Q 118.98125 59.234375 118.98125 57.234375 
L 118.98125 14.2 
Q 118.98125 12.2 116.98125 12.2 
L 50.78125 12.2 
Q 48.78125 12.2 48.78125 14.2 
L 48.78125 57.234375 
Q 48.78125 59.234375 50.78125 59.234375 
z
" style="fill: #ffffff; opacity: 0.8; stroke: #cccccc; stroke-linejoin: miter"/>
    </g>
    <g id="line2d_20">
     <path d="M 52.78125 20.298437 
L 62.78125 20.298437 
L 72.78125 20.298437 
" style="fill: none; stroke: #ff0000; stroke-width: 1.5; stroke-linecap: square"/>
    </g>
    <g id="text_16">
     <!-- $\tau = 0.9$ -->
     <g transform="translate(80.78125 23.798437) scale(0.1 -0.1)">
      <defs>
       <path id="DejaVuSans-Oblique-3c4" d="M 2103 638 
Q 2188 488 2525 488 
L 2800 488 
L 2706 0 
L 2363 0 
Q 1800 0 1600 300 
Q 1403 606 1534 1269 
L 1856 2925 
L 541 2925 
L 653 3500 
L 3881 3500 
L 3769 2925 
L 2444 2925 
L 2113 1234 
Q 2025 781 2103 638 
z
" transform="scale(0.015625)"/>
       <path id="DejaVuSans-3d" d="M 678 2906 
L 4684 2906 
L 4684 2381 
L 678 2381 
L 678 2906 
z
M 678 1631 
L 4684 1631 
L 4684 1100 
L 678 1100 
L 678 1631 
z
" transform="scale(0.015625)"/>
       <path id="DejaVuSans-39" d="M 703 97 
L 703 672 
Q 941 559 1184 500 
Q 1428 441 1663 441 
Q 2288 441 2617 861 
Q 2947 1281 2994 2138 
Q 2813 1869 2534 1725 
Q 2256 1581 1919 1581 
Q 1219 1581 811 2004 
Q 403 2428 403 3163 
Q 403 3881 828 4315 
Q 1253 4750 1959 4750 
Q 2769 4750 3195 4129 
Q 3622 3509 3622 2328 
Q 3622 1225 3098 567 
Q 2575 -91 1691 -91 
Q 1453 -91 1209 -44 
Q 966 3 703 97 
z
M 1959 2075 
Q 2384 2075 2632 2365 
Q 2881 2656 2881 3163 
Q 2881 3666 2632 3958 
Q 2384 4250 1959 4250 
Q 1534 4250 1286 3958 
Q 1038 3666 1038 3163 
Q 1038 2656 1286 2365 
Q 1534 2075 1959 2075 
z
" transform="scale(0.015625)"/>
      </defs>
      <use xlink:href="#DejaVuSans-Oblique-3c4" transform="translate(0 0.78125)"/>
      <use xlink:href="#DejaVuSans-3d" transform="translate(79.6875 0.78125)"/>
      <use xlink:href="#DejaVuSans-30" transform="translate(182.958984 0.78125)"/>
      <use xlink:href="#DejaVuSans-2e" transform="translate(246.582031 0.78125)"/>
      <use xlink:href="#DejaVuSans-39" transform="translate(278.369141 0.78125)"/>
     </g>
    </g>
    <g id="line2d_21">
     <path d="M 52.78125 34.976562 
L 62.78125 34.976562 
L 72.78125 34.976562 
" style="fill: none; stroke: #008000; stroke-width: 1.5; stroke-linecap: square"/>
    </g>
    <g id="text_17">
     <!-- $\tau = 0.5$ -->
     <g transform="translate(80.78125 38.476562) scale(0.1 -0.1)">
      <defs>
       <path id="DejaVuSans-35" d="M 691 4666 
L 3169 4666 
L 3169 4134 
L 1269 4134 
L 1269 2991 
Q 1406 3038 1543 3061 
Q 1681 3084 1819 3084 
Q 2600 3084 3056 2656 
Q 3513 2228 3513 1497 
Q 3513 744 3044 326 
Q 2575 -91 1722 -91 
Q 1428 -91 1123 -41 
Q 819 9 494 109 
L 494 744 
Q 775 591 1075 516 
Q 1375 441 1709 441 
Q 2250 441 2565 725 
Q 2881 1009 2881 1497 
Q 2881 1984 2565 2268 
Q 2250 2553 1709 2553 
Q 1456 2553 1204 2497 
Q 953 2441 691 2322 
L 691 4666 
z
" transform="scale(0.015625)"/>
      </defs>
      <use xlink:href="#DejaVuSans-Oblique-3c4" transform="translate(0 0.78125)"/>
      <use xlink:href="#DejaVuSans-3d" transform="translate(79.6875 0.78125)"/>
      <use xlink:href="#DejaVuSans-30" transform="translate(182.958984 0.78125)"/>
      <use xlink:href="#DejaVuSans-2e" transform="translate(246.582031 0.78125)"/>
      <use xlink:href="#DejaVuSans-35" transform="translate(278.369141 0.78125)"/>
     </g>
    </g>
    <g id="line2d_22">
     <path d="M 52.78125 49.654687 
L 62.78125 49.654687 
L 72.78125 49.654687 
" style="fill: none; stroke: #0000ff; stroke-width: 1.5; stroke-linecap: square"/>
    </g>
    <g id="text_18">
     <!-- $\tau = 0.1$ -->
     <g transform="translate(80.78125 53.154687) scale(0.1 -0.1)">
      <use xlink:href="#DejaVuSans-Oblique-3c4" transform="translate(0 0.78125)"/>
      <use xlink:href="#DejaVuSans-3d" transform="translate(79.6875 0.78125)"/>
      <use xlink:href="#DejaVuSans-30" transform="translate(182.958984 0.78125)"/>
      <use xlink:href="#DejaVuSans-2e" transform="translate(246.582031 0.78125)"/>
      <use xlink:href="#DejaVuSans-31" transform="translate(278.369141 0.78125)"/>
     </g>
    </g>
   </g>
  </g>
 </g>
 <defs>
  <clipPath id="p421f8bece4">
   <rect x="43.78125" y="7.2" width="357.12" height="266.112"/>
  </clipPath>
 </defs>
</svg>